<svg width="54" height="55" viewBox="0 0 54 55" fill="none" xmlns="http://www.w3.org/2000/svg">
<g id="Outline / Video, Audio, Sound / Album">
<path id="Vector" fill-rule="evenodd" clip-rule="evenodd" d="M19.5745 3.19923C19.6053 3.19924 19.6365 3.19925 19.6682 3.19925H34.3332C34.3649 3.19925 34.3961 3.19924 34.4269 3.19923C34.9215 3.1991 35.3008 3.199 35.6323 3.23458C38.6792 3.56156 41.0113 6.06358 41.1528 9.09441C43.9489 9.92921 45.9063 12.5927 45.7697 15.5906C46.6662 15.995 47.4601 16.553 48.1393 17.3288C49.5262 18.9129 49.9497 20.8513 49.966 23.1132C49.9816 25.2993 49.6128 28.0652 49.1531 31.5126L48.2206 38.5068C47.8613 41.2019 47.5704 43.3833 47.1183 45.0914C46.6476 46.8694 45.9528 48.3435 44.649 49.485C43.3453 50.6265 41.7923 51.1204 39.9677 51.3519C38.2148 51.5743 36.0141 51.5743 33.295 51.5743H20.7065C17.9875 51.5743 15.7868 51.5743 14.0339 51.3519C12.2093 51.1204 10.6563 50.6265 9.35254 49.485C8.04876 48.3435 7.35394 46.8694 6.8833 45.0914C6.43116 43.3833 6.14034 41.2019 5.78103 38.5068L4.84847 31.5126C4.38877 28.0652 4.01995 25.2993 4.03564 23.1132C4.05187 20.8513 4.47537 18.9129 5.86229 17.3288C6.54148 16.553 7.33543 15.995 8.23191 15.5906C8.09527 12.5928 10.0526 9.92935 12.8486 9.09447C12.99 6.06361 15.3221 3.56156 18.369 3.23458C18.7006 3.199 19.0798 3.1991 19.5745 3.19923ZM16.2732 8.82425H37.7282C37.4885 7.64595 36.5102 6.72316 35.2722 6.59031C35.1456 6.57672 34.9651 6.57425 34.3332 6.57425H19.6682C19.0362 6.57425 18.8558 6.57672 18.7292 6.59031C17.4912 6.72316 16.5128 7.64595 16.2732 8.82425ZM11.6578 14.7135C13.7781 14.4492 16.4701 14.4492 19.7877 14.4493H34.2139C37.5315 14.4492 40.2235 14.4492 42.3438 14.7135C42.0691 13.3034 40.8277 12.1993 39.2901 12.1993H14.7115C13.1739 12.1993 11.9325 13.3034 11.6578 14.7135ZM11.8246 18.0958C9.96969 18.3566 9.03152 18.8325 8.40159 19.552C7.77165 20.2715 7.424 21.2643 7.41055 23.1374C7.39676 25.0584 7.73013 27.5885 8.21139 31.1979L8.339 32.155L9.28718 31.4683C11.734 29.6962 15.3492 29.7833 17.6761 31.7093L26.312 38.8574C27.1282 39.533 28.5347 39.6592 29.5497 39.0688L30.15 38.7196C33.0214 37.0492 36.8698 37.2254 39.5194 39.1992L44.1939 42.6814C44.4243 41.4309 44.6308 39.8936 44.8902 37.9479L45.7902 31.1979C46.2715 27.5885 46.6048 25.0584 46.591 23.1374C46.5776 21.2643 46.2299 20.2715 45.6 19.552C44.9701 18.8325 44.0319 18.3566 42.177 18.0958C40.2747 17.8282 37.7227 17.8243 34.0813 17.8243H19.9203C16.2789 17.8243 13.7269 17.8282 11.8246 18.0958ZM43.1282 46.0961L37.5032 41.9057C35.9673 40.7616 33.5826 40.6273 31.847 41.6369L31.2467 41.9861C29.0601 43.258 26.1108 43.072 24.16 41.4573L15.5241 34.3092C14.4037 33.3818 12.4891 33.3165 11.2668 34.2017L8.84569 35.9552L9.11139 37.9479C9.48936 40.7828 9.75497 42.7508 10.1459 44.2278C10.5247 45.6587 10.9705 46.4158 11.5757 46.9457C12.181 47.4756 12.9904 47.8174 14.4588 48.0038C15.9744 48.1961 17.9603 48.1993 20.8203 48.1993H33.1813C36.0412 48.1993 38.0272 48.1961 39.5428 48.0038C41.0112 47.8174 41.8206 47.4756 42.4259 46.9457C42.6872 46.7169 42.9189 46.4456 43.1282 46.0961ZM37.1258 24.5743C36.1938 24.5743 35.4383 25.3298 35.4383 26.2618C35.4383 27.1937 36.1938 27.9493 37.1258 27.9493C38.0578 27.9493 38.8133 27.1937 38.8133 26.2618C38.8133 25.3298 38.0578 24.5743 37.1258 24.5743ZM32.0633 26.2618C32.0633 23.4658 34.3299 21.1993 37.1258 21.1993C39.9217 21.1993 42.1883 23.4658 42.1883 26.2618C42.1883 29.0577 39.9217 31.3243 37.1258 31.3243C34.3299 31.3243 32.0633 29.0577 32.0633 26.2618Z" fill="#1C1C1C"/>
</g>
</svg>
