<svg width="121" height="41" viewBox="0 0 121 41" fill="none" xmlns="http://www.w3.org/2000/svg">
<g clip-path="url(#clip0_36494_74597)">
<path d="M110.951 0.865364H10.3511C9.98439 0.865364 9.62209 0.865364 9.25636 0.867364C8.95021 0.869364 8.6465 0.875174 8.33741 0.880064C7.66592 0.887966 6.99601 0.947041 6.33351 1.05677C5.67193 1.1689 5.03108 1.38028 4.43263 1.68377C3.83491 1.98984 3.28875 2.38753 2.81398 2.86243C2.33671 3.336 1.93887 3.88338 1.63576 4.48352C1.33181 5.08247 1.12105 5.7243 1.01076 6.38684C0.899417 7.04855 0.839505 7.71789 0.831556 8.38884C0.822276 8.69544 0.821296 9.00306 0.816406 9.3097V32.424C0.821296 32.7345 0.822276 33.0353 0.831556 33.3459C0.839507 34.0168 0.89942 34.6861 1.01076 35.3478C1.12074 36.0107 1.33151 36.6529 1.63576 37.2521C1.93873 37.8503 2.33663 38.3954 2.81398 38.8664C3.28695 39.3434 3.83346 39.7413 4.43263 40.0451C5.03107 40.3494 5.67186 40.562 6.33351 40.6759C6.99613 40.7847 7.66596 40.8438 8.33741 40.8527C8.6465 40.8595 8.95021 40.8634 9.25636 40.8634C9.62208 40.8654 9.98441 40.8654 10.3511 40.8654H110.951C111.311 40.8654 111.676 40.8654 112.035 40.8634C112.34 40.8634 112.652 40.8595 112.957 40.8527C113.627 40.8443 114.296 40.7852 114.957 40.6759C115.621 40.5612 116.264 40.3486 116.865 40.0451C117.464 39.7412 118.01 39.3432 118.482 38.8664C118.959 38.3936 119.357 37.8488 119.664 37.2521C119.966 36.6525 120.175 36.0103 120.283 35.3478C120.395 34.686 120.457 34.0168 120.469 33.3459C120.473 33.0353 120.473 32.7345 120.473 32.424C120.48 32.0607 120.48 31.6994 120.48 31.3302V10.4015C120.48 10.0353 120.48 9.672 120.473 9.3097C120.473 9.00306 120.473 8.69544 120.469 8.3888C120.457 7.71779 120.395 7.0486 120.283 6.3868C120.174 5.72465 119.966 5.08287 119.664 4.48348C119.047 3.28056 118.068 2.30139 116.865 1.68368C116.264 1.38093 115.621 1.1696 114.957 1.05668C114.296 0.946467 113.627 0.887372 112.957 0.879924C112.652 0.875044 112.34 0.869184 112.035 0.867234C111.676 0.865234 111.311 0.865364 110.951 0.865364Z" fill="#A6A6A6"/>
<path d="M9.25932 39.9902C8.95464 39.9902 8.65732 39.9863 8.35503 39.9795C7.72881 39.9714 7.10406 39.9169 6.48589 39.8164C5.90948 39.7172 5.35109 39.5325 4.82915 39.2685C4.31199 39.0068 3.8403 38.6635 3.43215 38.2519C3.01809 37.8452 2.67337 37.3735 2.41164 36.8554C2.14703 36.334 1.9639 35.7751 1.86864 35.1982C1.76576 34.5784 1.7101 33.9515 1.70214 33.3232C1.6958 33.1123 1.6875 32.4101 1.6875 32.4101V9.30957C1.6875 9.30957 1.69634 8.61816 1.70219 8.41503C1.70982 7.78772 1.76515 7.16189 1.86772 6.54296C1.96316 5.96448 2.14643 5.40398 2.41118 4.88086C2.67194 4.36318 3.01475 3.89109 3.42632 3.48291C3.83742 3.07086 4.31062 2.72584 4.82866 2.46044C5.3494 2.19733 5.90674 2.01397 6.48198 1.9165C7.10218 1.81507 7.7291 1.76023 8.35749 1.75244L9.25981 1.74023H112.028L112.941 1.75293C113.564 1.76033 114.185 1.81468 114.8 1.91552C115.381 2.01421 115.944 2.19885 116.471 2.46337C117.509 2.99822 118.353 3.8444 118.886 4.8833C119.146 5.40281 119.327 5.95874 119.421 6.53222C119.525 7.15623 119.583 7.78697 119.595 8.41943C119.598 8.70263 119.598 9.00683 119.598 9.30957C119.606 9.68457 119.606 10.0415 119.606 10.4014V31.33C119.606 31.6933 119.606 32.0478 119.598 32.4052C119.598 32.7304 119.598 33.0283 119.594 33.3349C119.582 33.9561 119.525 34.5756 119.423 35.1884C119.33 35.7695 119.147 36.3327 118.883 36.8584C118.619 37.3709 118.277 37.8385 117.867 38.2441C117.459 38.6579 116.986 39.0032 116.468 39.2666C115.943 39.5326 115.38 39.718 114.8 39.8164C114.182 39.9174 113.557 39.9719 112.931 39.9795C112.638 39.9863 112.331 39.9902 112.033 39.9902L110.949 39.9922L9.25932 39.9902Z" fill="black"/>
<path d="M25.5864 21.1658C25.5971 20.3311 25.8188 19.5128 26.2309 18.7868C26.6429 18.0609 27.2318 17.4509 27.9429 17.0137C27.4912 16.3686 26.8953 15.8376 26.2024 15.4631C25.5096 15.0885 24.739 14.8807 23.9518 14.8561C22.2725 14.6798 20.6446 15.8609 19.7889 15.8609C18.9166 15.8609 17.5991 14.8736 16.1804 14.9028C15.2627 14.9324 14.3684 15.1993 13.5845 15.6773C12.8006 16.1554 12.1539 16.8283 11.7075 17.6306C9.77346 20.979 11.216 25.9001 13.0687 28.6067C13.9956 29.9321 15.0788 31.4125 16.4963 31.36C17.8833 31.3025 18.4014 30.4755 20.0757 30.4755C21.7344 30.4755 22.2205 31.36 23.6667 31.3266C25.1551 31.3025 26.0928 29.9954 26.9872 28.6575C27.6532 27.7131 28.1656 26.6694 28.5056 25.565C27.6409 25.1992 26.903 24.5871 26.3839 23.8048C25.8647 23.0225 25.5874 22.1047 25.5864 21.1658Z" fill="white"/>
<path d="M22.8559 13.0761C23.6675 12.1019 24.0673 10.8497 23.9705 9.58545C22.7306 9.71567 21.5854 10.3082 20.7629 11.2451C20.3607 11.7027 20.0527 12.2352 19.8565 12.8119C19.6602 13.3887 19.5796 13.9985 19.6192 14.6064C20.2393 14.6128 20.8528 14.4784 21.4135 14.2133C21.9741 13.9482 22.4673 13.5594 22.8559 13.0761Z" fill="white"/>
<path d="M43.1211 28.0049H38.3877L37.251 31.3614H35.2461L39.7295 18.9434H41.8125L46.2959 31.3614H44.2568L43.1211 28.0049ZM38.8779 26.4561H42.6299L40.7803 21.0088H40.7286L38.8779 26.4561Z" fill="white"/>
<path d="M55.9776 26.8349C55.9776 29.6484 54.4717 31.456 52.1992 31.456C51.6236 31.4861 51.0511 31.3535 50.5473 31.0734C50.0435 30.7933 49.6288 30.3769 49.3506 29.872H49.3076V34.3564H47.4492V22.3076H49.2481V23.8134H49.2823C49.5732 23.311 49.9949 22.8968 50.5026 22.6149C51.0102 22.3331 51.5847 22.1941 52.1651 22.2129C54.4629 22.2129 55.9776 24.0293 55.9776 26.8349ZM54.0674 26.8349C54.0674 25.0019 53.1201 23.7968 51.6748 23.7968C50.2549 23.7968 49.2998 25.0273 49.2998 26.8349C49.2998 28.6592 50.2549 29.8808 51.6748 29.8808C53.1201 29.8808 54.0674 28.6845 54.0674 26.8349Z" fill="white"/>
<path d="M65.9424 26.8349C65.9424 29.6484 64.4366 31.456 62.1641 31.456C61.5884 31.4861 61.0159 31.3535 60.5121 31.0734C60.0084 30.7932 59.5936 30.3769 59.3155 29.872H59.2725V34.3564H57.4141V22.3076H59.2129V23.8134H59.2471C59.538 23.311 59.9597 22.8968 60.4674 22.6149C60.975 22.3331 61.5496 22.1941 62.1299 22.2129C64.4278 22.2129 65.9424 24.0293 65.9424 26.8349ZM64.0323 26.8349C64.0323 25.0019 63.085 23.7968 61.6397 23.7968C60.2198 23.7968 59.2647 25.0273 59.2647 26.8349C59.2647 28.6591 60.2198 29.8808 61.6397 29.8808C63.085 29.8808 64.0323 28.6845 64.0323 26.8349Z" fill="white"/>
<path d="M72.5274 27.9014C72.6651 29.1329 73.8614 29.9414 75.4961 29.9414C77.0625 29.9414 78.1895 29.1328 78.1895 28.0225C78.1895 27.0586 77.5098 26.4815 75.9004 26.0859L74.2911 25.6982C72.0108 25.1475 70.9522 24.0811 70.9522 22.3506C70.9522 20.208 72.8194 18.7363 75.4707 18.7363C78.0947 18.7363 79.8936 20.208 79.9541 22.3506H78.0781C77.9658 21.1113 76.9414 20.3633 75.4443 20.3633C73.9473 20.3633 72.9229 21.1201 72.9229 22.2217C72.9229 23.0996 73.5772 23.6162 75.1777 24.0117L76.5459 24.3476C79.0937 24.9502 80.1524 25.9736 80.1524 27.79C80.1524 30.1132 78.3018 31.5683 75.3584 31.5683C72.6045 31.5683 70.7451 30.1474 70.625 27.9013L72.5274 27.9014Z" fill="white"/>
<path d="M84.1641 20.165V22.3076H85.8857V23.7793H84.1641V28.7705C84.1641 29.5459 84.5088 29.9072 85.2656 29.9072C85.47 29.9037 85.6741 29.8893 85.8769 29.8642V31.3271C85.5367 31.3907 85.1908 31.4195 84.8447 31.4131C83.0117 31.4131 82.2969 30.7246 82.2969 28.9687V23.7793H80.9805V22.3076H82.2968V20.165H84.1641Z" fill="white"/>
<path d="M86.8828 26.835C86.8828 23.9863 88.5605 22.1963 91.1768 22.1963C93.8018 22.1963 95.4717 23.9863 95.4717 26.835C95.4717 29.6914 93.8105 31.4736 91.1768 31.4736C88.5439 31.4736 86.8828 29.6914 86.8828 26.835ZM93.5781 26.835C93.5781 24.8809 92.6826 23.7275 91.1768 23.7275C89.6709 23.7275 88.7764 24.8896 88.7764 26.835C88.7764 28.7969 89.6709 29.9414 91.1768 29.9414C92.6826 29.9414 93.5781 28.7969 93.5781 26.835Z" fill="white"/>
<path d="M97.0039 22.3077H98.7764V23.8487H98.8194C98.9393 23.3675 99.2212 22.9421 99.6178 22.6442C100.014 22.3464 100.501 22.1941 100.997 22.213C101.211 22.2123 101.425 22.2355 101.634 22.2823V24.0206C101.363 23.938 101.081 23.9001 100.799 23.9083C100.529 23.8974 100.26 23.945 100.01 24.0479C99.76 24.1507 99.5354 24.3065 99.3514 24.5044C99.1674 24.7023 99.0285 24.9376 98.944 25.1943C98.8596 25.451 98.8317 25.7229 98.8623 25.9913V31.3614H97.0039L97.0039 22.3077Z" fill="white"/>
<path d="M110.202 28.7021C109.952 30.3457 108.352 31.4736 106.304 31.4736C103.67 31.4736 102.035 29.709 102.035 26.8779C102.035 24.0381 103.679 22.1963 106.226 22.1963C108.73 22.1963 110.306 23.917 110.306 26.6621V27.2988H103.911V27.4111C103.882 27.7443 103.923 28.08 104.034 28.3958C104.144 28.7117 104.32 29.0005 104.55 29.243C104.781 29.4856 105.06 29.6763 105.37 29.8026C105.679 29.9289 106.012 29.9879 106.347 29.9756C106.786 30.0167 107.227 29.915 107.603 29.6856C107.98 29.4561 108.273 29.1112 108.438 28.7021L110.202 28.7021ZM103.92 26H108.446C108.463 25.7004 108.418 25.4006 108.313 25.1194C108.208 24.8382 108.047 24.5816 107.838 24.3659C107.629 24.1501 107.379 23.9798 107.101 23.8656C106.824 23.7513 106.526 23.6957 106.226 23.7021C105.923 23.7003 105.623 23.7585 105.343 23.8732C105.063 23.988 104.808 24.157 104.594 24.3707C104.38 24.5843 104.21 24.8383 104.094 25.1179C103.978 25.3976 103.919 25.6974 103.92 26Z" fill="white"/>
<path d="M38.6436 9.59613C39.0332 9.56817 39.4241 9.62703 39.7882 9.76846C40.1524 9.90989 40.4805 10.1304 40.7491 10.414C41.0177 10.6976 41.22 11.0373 41.3414 11.4086C41.4628 11.7799 41.5003 12.1735 41.4512 12.561C41.4512 14.4672 40.4209 15.563 38.6436 15.563H36.4883V9.59613H38.6436ZM37.415 14.7191H38.54C38.8184 14.7358 39.097 14.6901 39.3556 14.5855C39.6141 14.4809 39.8461 14.3199 40.0346 14.1144C40.2231 13.9088 40.3634 13.6638 40.4452 13.3972C40.5271 13.1306 40.5485 12.849 40.5078 12.5731C40.5455 12.2983 40.522 12.0185 40.4388 11.7539C40.3557 11.4892 40.2151 11.2462 40.027 11.0423C39.839 10.8383 39.6081 10.6785 39.351 10.5743C39.094 10.47 38.817 10.424 38.54 10.4393H37.415V14.7191Z" fill="white"/>
<path d="M42.4983 13.3095C42.47 13.0136 42.5039 12.715 42.5977 12.433C42.6916 12.1509 42.8433 11.8916 43.0432 11.6716C43.2432 11.4516 43.4869 11.2758 43.7588 11.1556C44.0306 11.0353 44.3246 10.9731 44.6219 10.9731C44.9191 10.9731 45.2131 11.0353 45.485 11.1556C45.7568 11.2758 46.0005 11.4516 46.2005 11.6716C46.4004 11.8916 46.5522 12.1509 46.646 12.433C46.7399 12.715 46.7737 13.0136 46.7454 13.3095C46.7742 13.6057 46.7408 13.9047 46.6472 14.1873C46.5536 14.4698 46.4019 14.7296 46.202 14.95C46.002 15.1704 45.7581 15.3466 45.4859 15.4671C45.2138 15.5876 44.9195 15.6499 44.6219 15.6499C44.3242 15.6499 44.0299 15.5876 43.7578 15.4671C43.4857 15.3466 43.2418 15.1704 43.0418 14.95C42.8418 14.7296 42.6901 14.4698 42.5965 14.1873C42.5029 13.9047 42.4695 13.6057 42.4983 13.3095ZM45.8313 13.3095C45.8313 12.3335 45.3928 11.7627 44.6233 11.7627C43.8509 11.7627 43.4163 12.3335 43.4163 13.3095C43.4163 14.2934 43.8509 14.8598 44.6233 14.8598C45.3929 14.8598 45.8313 14.2895 45.8313 13.3095Z" fill="white"/>
<path d="M52.3906 15.563H51.4688L50.5381 12.2466H50.4678L49.541 15.563H48.6279L47.3867 11.0601H48.2881L49.0947 14.4961H49.1611L50.0869 11.0601H50.9395L51.8652 14.4961H51.9356L52.7383 11.0601H53.6269L52.3906 15.563Z" fill="white"/>
<path d="M54.6719 11.0601H55.5273V11.7754H55.5938C55.7064 11.5185 55.8964 11.3031 56.1373 11.1593C56.3782 11.0155 56.6579 10.9505 56.9375 10.9732C57.1566 10.9567 57.3766 10.9897 57.5812 11.0698C57.7858 11.1499 57.9698 11.275 58.1194 11.4359C58.2691 11.5967 58.3807 11.7892 58.4459 11.999C58.5111 12.2088 58.5283 12.4306 58.4961 12.648V15.563H57.6074V12.8711C57.6074 12.1475 57.293 11.7876 56.6357 11.7876C56.487 11.7807 56.3385 11.806 56.2004 11.8619C56.0624 11.9177 55.938 12.0027 55.8359 12.1111C55.7338 12.2195 55.6563 12.3487 55.6088 12.4898C55.5612 12.6309 55.5448 12.7807 55.5605 12.9288V15.563H54.6719L54.6719 11.0601Z" fill="white"/>
<path d="M59.9102 9.30225H60.7988V15.563H59.9102V9.30225Z" fill="white"/>
<path d="M62.0335 13.3096C62.0052 13.0137 62.039 12.7151 62.1329 12.433C62.2268 12.1509 62.3786 11.8916 62.5785 11.6716C62.7785 11.4516 63.0222 11.2758 63.2941 11.1556C63.5659 11.0353 63.86 10.9731 64.1572 10.9731C64.4545 10.9731 64.7485 11.0353 65.0204 11.1556C65.2923 11.2758 65.536 11.4516 65.736 11.6716C65.9359 11.8916 66.0877 12.1509 66.1816 12.433C66.2754 12.7151 66.3093 13.0137 66.281 13.3096C66.3098 13.6058 66.2763 13.9048 66.1827 14.1873C66.0891 14.4699 65.9374 14.7297 65.7374 14.9501C65.5374 15.1705 65.2935 15.3466 65.0213 15.4672C64.7492 15.5877 64.4549 15.65 64.1572 15.65C63.8596 15.65 63.5653 15.5877 63.2931 15.4672C63.021 15.3466 62.7771 15.1705 62.5771 14.9501C62.3771 14.7297 62.2254 14.4699 62.1318 14.1873C62.0381 13.9048 62.0046 13.6058 62.0335 13.3096ZM65.3665 13.3096C65.3665 12.3335 64.928 11.7627 64.1585 11.7627C63.386 11.7627 62.9515 12.3335 62.9515 13.3096C62.9515 14.2935 63.386 14.8599 64.1585 14.8599C64.928 14.8599 65.3665 14.2896 65.3665 13.3096Z" fill="white"/>
<path d="M67.2188 14.2895C67.2188 13.479 67.8223 13.0117 68.8935 12.9453L70.1133 12.875V12.4863C70.1133 12.0107 69.7988 11.7422 69.1914 11.7422C68.6953 11.7422 68.3516 11.9243 68.2529 12.2427H67.3926C67.4834 11.4692 68.2109 10.9731 69.2324 10.9731C70.3613 10.9731 70.998 11.5351 70.998 12.4863V15.563H70.1426V14.9302H70.0723C69.9295 15.1572 69.7291 15.3422 69.4915 15.4664C69.2539 15.5906 68.9876 15.6496 68.7197 15.6372C68.5307 15.6568 68.3396 15.6367 68.1589 15.578C67.9781 15.5193 67.8117 15.4233 67.6702 15.2964C67.5288 15.1694 67.4156 15.0142 67.3378 14.8408C67.2601 14.6674 67.2195 14.4796 67.2188 14.2895ZM70.1133 13.9048V13.5283L69.0137 13.5986C68.3936 13.6401 68.1123 13.8511 68.1123 14.248C68.1123 14.6533 68.4639 14.8891 68.9473 14.8891C69.0889 14.9035 69.232 14.8892 69.368 14.8471C69.504 14.805 69.6302 14.736 69.739 14.6441C69.8478 14.5523 69.937 14.4395 70.0013 14.3125C70.0656 14.1855 70.1037 14.0468 70.1133 13.9048Z" fill="white"/>
<path d="M72.1641 13.3096C72.1641 11.8867 72.8955 10.9854 74.0332 10.9854C74.3146 10.9724 74.5939 11.0398 74.8384 11.1797C75.083 11.3196 75.2826 11.5262 75.4141 11.7754H75.4805V9.30225H76.3691V15.563H75.5176V14.8516H75.4473C75.3057 15.099 75.0991 15.3031 74.8498 15.4416C74.6005 15.58 74.3182 15.6477 74.0332 15.6372C72.8877 15.6372 72.1641 14.7359 72.1641 13.3096ZM73.0821 13.3096C73.0821 14.2647 73.5323 14.8394 74.2852 14.8394C75.0342 14.8394 75.4971 14.2564 75.4971 13.3135C75.4971 12.375 75.0293 11.7837 74.2852 11.7837C73.5371 11.7837 73.0821 12.3623 73.0821 13.3096Z" fill="white"/>
<path d="M80.0491 13.3095C80.0208 13.0136 80.0546 12.715 80.1485 12.433C80.2423 12.1509 80.3941 11.8916 80.594 11.6716C80.794 11.4516 81.0377 11.2758 81.3095 11.1556C81.5814 11.0353 81.8754 10.9731 82.1726 10.9731C82.4699 10.9731 82.7639 11.0353 83.0357 11.1556C83.3076 11.2758 83.5513 11.4516 83.7512 11.6716C83.9512 11.8916 84.1029 12.1509 84.1968 12.433C84.2906 12.715 84.3245 13.0136 84.2962 13.3095C84.325 13.6057 84.2916 13.9047 84.198 14.1873C84.1044 14.4698 83.9527 14.7296 83.7527 14.95C83.5527 15.1704 83.3088 15.3466 83.0367 15.4671C82.7646 15.5876 82.4703 15.6499 82.1726 15.6499C81.875 15.6499 81.5807 15.5876 81.3086 15.4671C81.0364 15.3466 80.7925 15.1704 80.5925 14.95C80.3926 14.7296 80.2409 14.4698 80.1473 14.1873C80.0537 13.9047 80.0203 13.6057 80.0491 13.3095ZM83.3821 13.3095C83.3821 12.3335 82.9436 11.7627 82.1741 11.7627C81.4016 11.7627 80.9671 12.3335 80.9671 13.3095C80.9671 14.2934 81.4017 14.8598 82.1741 14.8598C82.9436 14.8598 83.3821 14.2895 83.3821 13.3095Z" fill="white"/>
<path d="M85.4883 11.0601H86.3438V11.7754H86.4102C86.5228 11.5185 86.7128 11.3031 86.9537 11.1593C87.1946 11.0155 87.4743 10.9505 87.7539 10.9732C87.973 10.9567 88.193 10.9897 88.3976 11.0698C88.6022 11.1499 88.7862 11.275 88.9358 11.4359C89.0855 11.5967 89.1971 11.7892 89.2623 11.999C89.3275 12.2088 89.3447 12.4306 89.3125 12.648V15.563H88.4238V12.8711C88.4238 12.1475 88.1094 11.7876 87.4522 11.7876C87.3034 11.7807 87.1549 11.806 87.0168 11.8619C86.8788 11.9177 86.7544 12.0027 86.6523 12.1111C86.5502 12.2195 86.4727 12.3487 86.4252 12.4898C86.3776 12.6309 86.3612 12.7807 86.377 12.9288V15.563H85.4883V11.0601Z" fill="white"/>
<path d="M94.3311 9.93896V11.0806H95.3066V11.8291H94.3311V14.1445C94.3311 14.6162 94.5254 14.8228 94.9678 14.8228C95.081 14.8224 95.1942 14.8155 95.3066 14.8022V15.5425C95.1471 15.571 94.9854 15.5862 94.8232 15.5879C93.835 15.5879 93.4414 15.2402 93.4414 14.3721V11.8291H92.7266V11.0805H93.4414V9.93896H94.3311Z" fill="white"/>
<path d="M96.5234 9.30225H97.4043V11.7837H97.4746C97.5927 11.5244 97.788 11.3078 98.0337 11.1634C98.2794 11.0191 98.5636 10.954 98.8476 10.9771C99.0656 10.9652 99.2835 11.0016 99.4857 11.0836C99.688 11.1657 99.8697 11.2913 100.018 11.4517C100.166 11.612 100.277 11.8031 100.343 12.0112C100.408 12.2193 100.427 12.4394 100.398 12.6558V15.563H99.5088V12.875C99.5088 12.1558 99.1738 11.7915 98.5459 11.7915C98.3932 11.779 98.2396 11.8 98.0958 11.853C97.952 11.9061 97.8216 11.9899 97.7136 12.0986C97.6056 12.2074 97.5226 12.3384 97.4706 12.4825C97.4185 12.6267 97.3986 12.7804 97.4121 12.9331V15.563H96.5235L96.5234 9.30225Z" fill="white"/>
<path d="M105.578 14.3472C105.457 14.7588 105.195 15.1148 104.839 15.3529C104.482 15.5911 104.053 15.6962 103.627 15.65C103.33 15.6578 103.035 15.601 102.763 15.4835C102.49 15.3659 102.246 15.1905 102.049 14.9694C101.851 14.7482 101.703 14.4867 101.617 14.2028C101.53 13.919 101.506 13.6197 101.547 13.3258C101.507 13.0309 101.531 12.7309 101.618 12.4463C101.704 12.1616 101.851 11.8988 102.048 11.6758C102.245 11.4527 102.487 11.2745 102.759 11.1533C103.031 11.0321 103.325 10.9707 103.623 10.9732C104.876 10.9732 105.632 11.8292 105.632 13.2432V13.5533H102.452V13.6031C102.438 13.7684 102.459 13.9347 102.513 14.0914C102.567 14.2482 102.653 14.3919 102.766 14.5134C102.879 14.6348 103.016 14.7313 103.168 14.7967C103.321 14.8621 103.485 14.895 103.651 14.8931C103.864 14.9186 104.079 14.8804 104.27 14.7831C104.46 14.6859 104.618 14.5342 104.722 14.3472L105.578 14.3472ZM102.452 12.8961H104.726C104.737 12.7449 104.717 12.5931 104.666 12.4504C104.615 12.3077 104.535 12.1772 104.43 12.0674C104.326 11.9575 104.2 11.8707 104.06 11.8125C103.92 11.7544 103.769 11.7261 103.618 11.7296C103.464 11.7276 103.312 11.7565 103.169 11.8144C103.027 11.8724 102.898 11.9582 102.789 12.067C102.68 12.1757 102.594 12.305 102.536 12.4474C102.479 12.5898 102.45 12.7424 102.452 12.8961Z" fill="white"/>
</g>
<defs>
<clipPath id="clip0_36494_74597">
<rect width="119.664" height="40" fill="white" transform="translate(0.816406 0.865234)"/>
</clipPath>
</defs>
</svg>
