<svg width="42" height="42" viewBox="0 0 42 42" fill="none" xmlns="http://www.w3.org/2000/svg">
<g id="Bold / School / Bookmark Square Minimalistic">
<g id="Vector">
<path d="M13.5886 17.3208C13.563 16.8774 13.5625 16.2826 13.5625 15.4133V3.62029C15.5851 3.5 18.0242 3.5 21 3.5C23.9758 3.5 26.4149 3.5 28.4375 3.62029V15.4133C28.4375 16.2826 28.437 16.8774 28.4114 17.3208C28.385 17.7801 28.3365 17.9214 28.3245 17.9485C28.067 18.5282 27.4318 18.8408 26.8153 18.6912C26.7865 18.6842 26.645 18.6363 26.2649 18.3771C25.898 18.1268 25.4264 17.7643 24.7377 17.234L24.6204 17.1436C23.9726 16.6441 23.4677 16.2549 22.9177 16.0159C21.6945 15.4845 20.3055 15.4845 19.0823 16.0159C18.5323 16.2549 18.0274 16.6441 17.3796 17.1436L17.2623 17.234C16.5736 17.7643 16.102 18.1268 15.7351 18.3771C15.355 18.6363 15.2135 18.6842 15.1847 18.6912C14.5682 18.8408 13.933 18.5282 13.6755 17.9485C13.6635 17.9214 13.6151 17.7801 13.5886 17.3208Z" fill="#1C1C1C"/>
<path d="M21 38.5C12.7504 38.5 8.62563 38.5 6.06282 35.9372C3.5 33.3744 3.5 29.2496 3.5 21C3.5 12.7504 3.5 8.62563 6.06282 6.06282C7.25988 4.86575 8.79772 4.22783 10.9375 3.88787L10.9375 15.4542C10.9375 16.2725 10.9375 16.9437 10.9679 17.4718C10.998 17.9927 11.0625 18.5324 11.2765 19.0141C12.049 20.7532 13.9547 21.6911 15.804 21.2421C16.3162 21.1177 16.7832 20.8397 17.2143 20.5456C17.6513 20.2475 18.1831 19.8381 18.8314 19.3388L18.8638 19.3139C19.6852 18.6814 19.9163 18.5156 20.1283 18.4235C20.6843 18.182 21.3157 18.182 21.8717 18.4235C22.0837 18.5156 22.3148 18.6814 23.1362 19.3139L23.1686 19.3388C23.8169 19.8381 24.3487 20.2475 24.7857 20.5456C25.2168 20.8397 25.6838 21.1177 26.196 21.2421C28.0453 21.6911 29.951 20.7532 30.7235 19.0141C30.9375 18.5324 31.0021 17.9927 31.0321 17.4718C31.0625 16.9437 31.0625 16.2725 31.0625 15.4543V3.88787C33.2023 4.22783 34.7401 4.86575 35.9372 6.06282C38.5 8.62563 38.5 12.7504 38.5 21C38.5 29.2496 38.5 33.3744 35.9372 35.9372C33.3744 38.5 29.2496 38.5 21 38.5Z" fill="#1C1C1C"/>
</g>
</g>
</svg>
