<svg width="24" height="25" viewBox="0 0 24 25" fill="none" xmlns="http://www.w3.org/2000/svg">
<g id="Outline / Astronomy / Rocket/ boost">
<path id="Vector (Stroke)" fill-rule="evenodd" clip-rule="evenodd" d="M17.4061 1.47209C17.4524 1.47211 17.4994 1.47214 17.547 1.47214L18.1675 1.47214C19.0391 1.47211 19.7677 1.47208 20.3467 1.54968C20.9583 1.63167 21.5139 1.81241 21.961 2.25817C22.4084 2.70423 22.5901 3.25905 22.6725 3.86994C22.7504 4.44756 22.7503 5.17446 22.7503 6.04306V6.66207C22.7503 6.70975 22.7503 6.7568 22.7503 6.80323C22.7509 7.85328 22.7513 8.59024 22.4711 9.26447C22.1911 9.93847 21.6685 10.459 20.9234 11.2011C20.8904 11.2339 20.8571 11.2672 20.8233 11.3009L18.1535 13.9626L18.2466 14.1064C18.6402 14.7143 18.9591 15.2068 19.1893 15.6315C19.4278 16.0715 19.5972 16.4841 19.6651 16.9406C19.7742 17.6743 19.6756 18.4287 19.3863 19.1217C19.279 19.3787 19.0934 19.6479 18.9031 19.8934C18.7036 20.1506 18.4598 20.4308 18.1979 20.7162C17.6767 21.2841 17.0509 21.908 16.4955 22.4618L16.4044 22.5526C15.6845 23.2704 14.4366 23.0376 14.0526 22.0745C13.825 21.5035 13.7329 21.2758 13.6176 21.0656C13.5107 20.8707 13.388 20.6848 13.2508 20.5097C13.1047 20.3233 12.934 20.1508 12.5107 19.7287L12.0059 19.2861C11.9988 19.2799 11.9919 19.2736 11.985 19.2671C11.8916 19.2793 11.7967 19.2855 11.7002 19.2855C11.0687 19.2855 10.5477 19.0219 10.0566 18.6483C9.59207 18.2949 9.07668 17.781 8.46051 17.1667L7.01389 15.7244C6.39775 15.1101 5.88232 14.5963 5.52784 14.1331C5.15318 13.6435 4.88789 13.123 4.88789 12.4914C4.88789 12.3767 4.89669 12.2646 4.91378 12.1546L4.08336 11.3267C4.03494 11.2784 4.01555 11.2591 3.99642 11.2405C3.62276 10.8779 3.18311 10.5896 2.70096 10.3909C2.67626 10.3808 2.65079 10.3706 2.58716 10.3454L2.20851 10.1954C1.19496 9.79378 0.922129 8.48569 1.69592 7.71424L1.70298 7.7072C2.25841 7.15346 2.88415 6.52961 3.45378 6.00996C3.74001 5.74885 4.02101 5.50578 4.27894 5.30698C4.52524 5.11714 4.79504 4.93234 5.05228 4.82561C5.7465 4.53756 6.50192 4.43943 7.23659 4.548C7.69349 4.61552 8.10671 4.7841 8.54781 5.02179C8.97369 5.25127 9.46758 5.56915 10.0775 5.9617L10.2251 6.05674L12.8974 3.39247C12.9311 3.3589 12.9643 3.32576 12.9971 3.29304C13.7419 2.54973 14.2637 2.02894 14.9391 1.75002C15.6143 1.4712 16.3522 1.47156 17.4061 1.47209ZM9.13783 7.14079C8.57783 6.78069 8.17474 6.52467 7.83627 6.34228C7.47719 6.1488 7.2367 6.06431 7.0173 6.03188C6.55916 5.96418 6.07781 6.02409 5.62714 6.21108C5.55982 6.23901 5.41808 6.32282 5.19465 6.49504C4.98283 6.6583 4.73588 6.87075 4.46471 7.11812C3.92197 7.61324 3.31803 8.21515 2.75497 8.77651C2.75179 8.77968 2.75077 8.78143 2.75069 8.78158C2.75059 8.78174 2.75069 8.78157 2.75069 8.78158C2.75059 8.78192 2.74988 8.78488 2.75082 8.78942C2.75176 8.79395 2.75346 8.79645 2.75392 8.79701C2.7542 8.79722 2.75663 8.79911 2.76108 8.80088L3.1448 8.95293C3.20184 8.97553 3.23717 8.98952 3.27237 9.00403C3.93031 9.2751 4.53056 9.66874 5.04096 10.164C5.06828 10.1905 5.09518 10.2173 5.13859 10.2606L5.61635 10.7369C5.68174 10.6557 5.75002 10.575 5.82053 10.4945C6.1423 10.1273 6.55571 9.71517 7.03427 9.23805L9.13783 7.14079ZM13.4549 18.5616L13.5357 18.6325L13.5873 18.6839C13.9779 19.0733 14.22 19.3147 14.4314 19.5844C14.6189 19.8237 14.7866 20.0778 14.9327 20.3442C15.0924 20.6353 15.2161 20.9423 15.4092 21.4267L15.4294 21.4066C15.9925 20.8452 16.5962 20.2431 17.0928 19.702C17.3409 19.4316 17.5539 19.1854 17.7177 18.9743C17.8904 18.7515 17.9743 18.6104 18.0021 18.5438C18.1893 18.0954 18.2491 17.6167 18.1814 17.1612C18.1491 16.9434 18.0646 16.7043 17.8706 16.3464C17.6874 16.0084 17.43 15.6056 17.0675 15.0454L14.9589 17.1476C14.469 17.6361 14.047 18.0568 13.6711 18.3814C13.5994 18.4434 13.5274 18.5036 13.4549 18.5616ZM17.547 2.97214C16.2951 2.97214 15.8776 2.98535 15.5117 3.13645C15.146 3.28745 14.8417 3.57214 13.9565 4.45473L8.10964 10.284C7.6112 10.781 7.23335 11.1582 6.94869 11.4831C6.66269 11.8095 6.51669 12.0329 6.44571 12.2094C6.40431 12.3124 6.38789 12.4012 6.38789 12.4914C6.38789 12.6618 6.44631 12.8651 6.71905 13.2215C7.00497 13.5951 7.44721 14.0383 8.10964 14.6987L8.26678 14.8554L9.79728 13.3295C10.0906 13.037 10.5655 13.0377 10.8579 13.3311C11.1504 13.6244 11.1497 14.0993 10.8563 14.3917L9.32904 15.9145L9.48299 16.068C10.1454 16.7284 10.5899 17.1693 10.9648 17.4544C11.3222 17.7263 11.5271 17.7855 11.7002 17.7855C11.785 17.7855 11.8675 17.7712 11.9599 17.7372C12.1353 17.6725 12.3589 17.5328 12.6907 17.2462C13.0213 16.9607 13.406 16.5777 13.9173 16.068L19.7642 10.2386C20.6497 9.35579 20.9348 9.05272 21.0859 8.68897C21.237 8.32546 21.2503 7.91065 21.2503 6.66207V6.09491C21.2503 5.16083 21.2487 4.53593 21.1859 4.0704C21.1261 3.62667 21.0234 3.44151 20.9019 3.32042C20.7801 3.19902 20.5935 3.09618 20.1474 3.03638C19.6799 2.97372 19.0526 2.97214 18.1159 2.97214H17.547ZM16.664 7.54558C16.1983 7.0812 15.4422 7.0812 14.9764 7.54558C14.5119 8.00871 14.5119 8.75866 14.9764 9.22179C15.4422 9.68616 16.1983 9.68616 16.664 9.22179C17.1286 8.75866 17.1286 8.00871 16.664 7.54558ZM13.9173 6.48333C14.9685 5.43529 16.6719 5.43529 17.7231 6.48333C18.7755 7.53261 18.7755 9.23476 17.7231 10.284C16.6719 11.3321 14.9685 11.3321 13.9173 10.284C12.8649 9.23476 12.8649 7.53261 13.9173 6.48333Z" fill="#101010"/>
</g>
</svg>
