<svg width="25" height="25" viewBox="0 0 25 25" fill="none" xmlns="http://www.w3.org/2000/svg">
<path fill-rule="evenodd" clip-rule="evenodd" d="M11.895 2.30762H16.9618C19.5045 2.30762 21.5742 4.2976 21.5742 6.74457V14.3585C21.5742 14.7835 21.2145 15.1275 20.7738 15.1275C20.3309 15.1275 19.9723 14.7835 19.9723 14.3585V6.74457C19.9723 5.14759 18.6219 3.8476 16.9618 3.8476H11.895C10.2286 3.8476 8.87304 5.15159 8.87304 6.75457V7.68556C8.87304 8.11056 8.51544 8.45456 8.07259 8.45456C7.63079 8.45456 7.27214 8.11056 7.27214 7.68556V6.75457C7.27214 4.3026 9.34604 2.30762 11.895 2.30762ZM13.6653 10.6674C13.516 10.8204 13.319 10.8964 13.121 10.8964C12.9269 10.8964 12.7319 10.8224 12.5816 10.6734L11.8493 9.94644C11.5487 9.64744 11.5458 9.16045 11.8433 8.85745C12.1398 8.55445 12.6244 8.55245 12.9269 8.85145L13.6603 9.57944C13.9608 9.87744 13.9638 10.3654 13.6653 10.6674ZM11.8455 15.7598C11.547 15.4578 11.5479 14.9708 11.8475 14.6708L13.4396 13.0778H3.34044C2.91753 13.0778 2.57422 12.7328 2.57422 12.3078C2.57422 11.8828 2.91753 11.5368 3.34044 11.5368H15.2955C15.6059 11.5368 15.8855 11.7248 16.004 12.0138C16.1224 12.3018 16.0557 12.6338 15.8368 12.8538L12.9291 15.7618C12.7799 15.9108 12.5838 15.9858 12.3878 15.9858C12.1918 15.9858 11.9947 15.9108 11.8455 15.7598ZM20.7732 17.0907C20.3314 17.0907 19.9728 17.4357 19.9728 17.8607C19.9728 19.4636 18.6172 20.7676 16.9508 20.7676H11.8841C10.225 20.7676 8.87356 19.4676 8.87356 17.8707V16.9297C8.87356 16.5047 8.51492 16.1597 8.07311 16.1597C7.63131 16.1597 7.27266 16.5047 7.27266 16.9297V17.8707C7.27266 20.3176 9.34136 22.3076 11.8841 22.3076H16.9508C19.4998 22.3076 21.5737 20.3126 21.5737 17.8607C21.5737 17.4357 21.2151 17.0907 20.7732 17.0907Z" fill="#964702"/>
</svg>
