<svg width="52" height="51" viewBox="0 0 52 51" fill="none" xmlns="http://www.w3.org/2000/svg">
<g clip-path="url(#clip0_136_3)">
<path d="M51.9883 25.5C51.9883 22.3808 51.4273 19.3928 50.4022 16.6305L26.4883 15.5217L2.57436 16.6304C1.54938 19.3928 0.988281 22.3808 0.988281 25.5C0.988281 28.6192 1.54938 31.6071 2.57436 34.3695L26.4883 35.4783L50.4022 34.3696C51.4273 31.6071 51.9883 28.6192 51.9883 25.5Z" fill="#496E2D"/>
<path d="M26.4881 51.0001C37.4522 51.0001 46.7991 44.08 50.4021 34.3696H2.57422C6.17719 44.08 15.524 51.0001 26.4881 51.0001Z" fill="#D80027"/>
<path d="M2.57422 16.6305H50.4022C46.7991 6.92006 37.4522 0 26.4881 0C15.524 0 6.17719 6.92006 2.57422 16.6305V16.6305Z" fill="#F0F0F0"/>
</g>
<defs>
<clipPath id="clip0_136_3">
<rect width="51" height="51" fill="white" transform="translate(0.988281)"/>
</clipPath>
</defs>
</svg>
