<svg width="32" height="32" viewBox="0 0 32 32" fill="none" xmlns="http://www.w3.org/2000/svg">
<path d="M22.666 18.6667C23.4024 18.6667 23.9993 18.0698 23.9993 17.3334C23.9993 16.597 23.4024 16 22.666 16C21.9296 16 21.3327 16.597 21.3327 17.3334C21.3327 18.0698 21.9296 18.6667 22.666 18.6667Z" fill="#212121"/>
<path d="M22.666 24C23.4024 24 23.9993 23.4031 23.9993 22.6667C23.9993 21.9303 23.4024 21.3334 22.666 21.3334C21.9296 21.3334 21.3327 21.9303 21.3327 22.6667C21.3327 23.4031 21.9296 24 22.666 24Z" fill="#212121"/>
<path d="M17.3327 17.3334C17.3327 18.0698 16.7357 18.6667 15.9994 18.6667C15.263 18.6667 14.666 18.0698 14.666 17.3334C14.666 16.597 15.263 16 15.9994 16C16.7357 16 17.3327 16.597 17.3327 17.3334Z" fill="#212121"/>
<path d="M17.3327 22.6667C17.3327 23.4031 16.7357 24 15.9994 24C15.263 24 14.666 23.4031 14.666 22.6667C14.666 21.9303 15.263 21.3334 15.9994 21.3334C16.7357 21.3334 17.3327 21.9303 17.3327 22.6667Z" fill="#212121"/>
<path d="M9.33268 18.6667C10.0691 18.6667 10.666 18.0698 10.666 17.3334C10.666 16.597 10.0691 16 9.33268 16C8.5963 16 7.99935 16.597 7.99935 17.3334C7.99935 18.0698 8.5963 18.6667 9.33268 18.6667Z" fill="#212121"/>
<path d="M9.33268 24C10.0691 24 10.666 23.4031 10.666 22.6667C10.666 21.9303 10.0691 21.3334 9.33268 21.3334C8.5963 21.3334 7.99935 21.9303 7.99935 22.6667C7.99935 23.4031 8.5963 24 9.33268 24Z" fill="#212121"/>
<path fill-rule="evenodd" clip-rule="evenodd" d="M9.33268 2.33337C9.88497 2.33337 10.3327 2.78109 10.3327 3.33337V4.35033C11.2153 4.33336 12.1878 4.33336 13.2573 4.33337H18.7412C19.8108 4.33336 20.7833 4.33336 21.666 4.35033V3.33337C21.666 2.78109 22.1137 2.33337 22.666 2.33337C23.2183 2.33337 23.666 2.78109 23.666 3.33337V4.43616C24.0126 4.46258 24.3408 4.4958 24.6514 4.53755C26.2146 4.74772 27.4799 5.19055 28.4777 6.18836C29.4755 7.18618 29.9183 8.45145 30.1285 10.0147C30.3327 11.5336 30.3327 13.4744 30.3327 15.9248V18.7419C30.3327 21.1922 30.3327 23.1331 30.1285 24.6521C29.9183 26.2153 29.4755 27.4806 28.4777 28.4784C27.4799 29.4762 26.2146 29.919 24.6514 30.1292C23.1324 30.3334 21.1916 30.3334 18.7413 30.3334H13.2575C10.8071 30.3334 8.86626 30.3334 7.34732 30.1292C5.78409 29.919 4.51882 29.4762 3.52101 28.4784C2.52319 27.4806 2.08037 26.2153 1.8702 24.6521C1.66598 23.1331 1.666 21.1923 1.66602 18.7419V15.9248C1.666 13.4745 1.66598 11.5336 1.8702 10.0147C2.08037 8.45145 2.52319 7.18618 3.52101 6.18836C4.51882 5.19055 5.78409 4.74772 7.34732 4.53755C7.65789 4.4958 7.98609 4.46258 8.33268 4.43616V3.33337C8.33268 2.78109 8.7804 2.33337 9.33268 2.33337ZM7.61382 6.51972C6.27236 6.70007 5.4995 7.0383 4.93522 7.60258C4.37094 8.16686 4.03272 8.93972 3.85236 10.2812C3.82182 10.5084 3.79628 10.7475 3.77493 11H28.2238C28.2024 10.7475 28.1769 10.5084 28.1463 10.2812C27.966 8.93972 27.6278 8.16686 27.0635 7.60258C26.4992 7.0383 25.7263 6.70007 24.3849 6.51972C23.0147 6.3355 21.2084 6.33337 18.666 6.33337H13.3327C10.7903 6.33337 8.98403 6.3355 7.61382 6.51972ZM3.66602 16C3.66602 14.8614 3.66644 13.8703 3.68346 13H28.3152C28.3323 13.8703 28.3327 14.8614 28.3327 16V18.6667C28.3327 21.2091 28.3306 23.0154 28.1463 24.3856C27.966 25.727 27.6278 26.4999 27.0635 27.0642C26.4992 27.6284 25.7263 27.9667 24.3849 28.147C23.0147 28.3313 21.2084 28.3334 18.666 28.3334H13.3327C10.7903 28.3334 8.98403 28.3313 7.61381 28.147C6.27236 27.9667 5.4995 27.6284 4.93522 27.0642C4.37094 26.4999 4.03272 25.727 3.85236 24.3856C3.66814 23.0154 3.66602 21.2091 3.66602 18.6667V16Z" fill="#212121"/>
</svg>
