<svg width="25" height="24" viewBox="0 0 25 24" fill="none" xmlns="http://www.w3.org/2000/svg">
<g id="Outline / Essentional, UI / Check Square">
<g id="Vector">
<path d="M16.4913 10.0303C16.7842 9.73744 16.7842 9.26256 16.4913 8.96967C16.1984 8.67678 15.7235 8.67678 15.4306 8.96967L10.9609 13.4393L9.49127 11.9697C9.19837 11.6768 8.7235 11.6768 8.43061 11.9697C8.13771 12.2626 8.13771 12.7374 8.43061 13.0303L10.4306 15.0303C10.7235 15.3232 11.1984 15.3232 11.4913 15.0303L16.4913 10.0303Z" fill="#027A2F"/>
<path fill-rule="evenodd" clip-rule="evenodd" d="M12.5183 1.25H12.4036C10.0952 1.24999 8.28613 1.24998 6.87464 1.43975C5.42991 1.63399 4.28988 2.03933 3.39507 2.93414C2.50026 3.82895 2.09492 4.96897 1.90068 6.41371C1.71092 7.82519 1.71093 9.63422 1.71094 11.9426V12.0574C1.71093 14.3658 1.71092 16.1748 1.90068 17.5863C2.09492 19.031 2.50026 20.1711 3.39507 21.0659C4.28988 21.9607 5.42991 22.366 6.87464 22.5603C8.28613 22.75 10.0952 22.75 12.4036 22.75H12.5183C14.8267 22.75 16.6357 22.75 18.0472 22.5603C19.492 22.366 20.632 21.9607 21.5268 21.0659C22.4216 20.1711 22.827 19.031 23.0212 17.5863C23.211 16.1748 23.211 14.3658 23.2109 12.0574V11.9426C23.211 9.63423 23.211 7.82519 23.0212 6.41371C22.827 4.96897 22.4216 3.82895 21.5268 2.93414C20.632 2.03933 19.492 1.63399 18.0472 1.43975C16.6357 1.24998 14.8267 1.24999 12.5183 1.25ZM4.45573 3.9948C5.02539 3.42514 5.79611 3.09825 7.07451 2.92637C8.37449 2.75159 10.0827 2.75 12.4609 2.75C14.8392 2.75 16.5474 2.75159 17.8474 2.92637C19.1258 3.09825 19.8965 3.42514 20.4661 3.9948C21.0358 4.56445 21.3627 5.33517 21.5346 6.61358C21.7093 7.91356 21.7109 9.62177 21.7109 12C21.7109 14.3782 21.7093 16.0864 21.5346 17.3864C21.3627 18.6648 21.0358 19.4355 20.4661 20.0052C19.8965 20.5749 19.1258 20.9018 17.8474 21.0736C16.5474 21.2484 14.8392 21.25 12.4609 21.25C10.0827 21.25 8.37449 21.2484 7.07451 21.0736C5.79611 20.9018 5.02539 20.5749 4.45573 20.0052C3.88608 19.4355 3.55919 18.6648 3.38731 17.3864C3.21253 16.0864 3.21094 14.3782 3.21094 12C3.21094 9.62177 3.21253 7.91356 3.38731 6.61358C3.55919 5.33517 3.88608 4.56445 4.45573 3.9948Z" fill="#027A2F"/>
</g>
</g>
</svg>
