<svg width="16" height="17" viewBox="0 0 16 17" fill="none" xmlns="http://www.w3.org/2000/svg">
<g id="Check Circle 16">
<path id="Vector" fill-rule="evenodd" clip-rule="evenodd" d="M14.6654 8.49992C14.6654 12.1818 11.6806 15.1666 7.9987 15.1666C4.3168 15.1666 1.33203 12.1818 1.33203 8.49992C1.33203 4.81802 4.3168 1.83325 7.9987 1.83325C11.6806 1.83325 14.6654 4.81802 14.6654 8.49992ZM10.6856 6.4797C10.8808 6.67496 10.8808 6.99154 10.6856 7.1868L7.35225 10.5201C7.15699 10.7154 6.84041 10.7154 6.64514 10.5201L5.31181 9.18681C5.11655 8.99154 5.11655 8.67496 5.31181 8.4797C5.50707 8.28444 5.82366 8.28444 6.01892 8.4797L6.9987 9.45948L8.48859 7.96959L9.97848 6.4797C10.1737 6.28444 10.4903 6.28444 10.6856 6.4797Z" fill="#4CAF50"/>
</g>
</svg>
