<svg width="96" height="95" viewBox="0 0 96 95" fill="none" xmlns="http://www.w3.org/2000/svg">
<g id="Group 1000002458">
<path id="Vector" d="M96 40.5373C96.0114 18.6437 78.2089 0.81955 56.3104 0.804422C34.4118 0.789295 16.5867 18.5946 16.5753 40.4919C16.5753 46.4635 17.8953 52.1289 20.2629 57.2193L23.1297 54.3564C21.3408 50.0866 20.3537 45.4046 20.3574 40.4957C20.365 30.0084 24.8884 20.5612 32.082 13.992C35.0813 16.8738 40.8377 24.101 41.4579 31.0257C42.2484 39.8641 48.3376 46.1005 56.265 46.1912C56.2915 46.1912 56.3217 46.1912 56.3482 46.1912C58.4321 46.1912 60.535 45.3441 61.9836 43.907C63.2354 42.6703 63.92 41.0743 63.9162 39.414C63.9162 38.4232 63.7612 37.3491 63.4737 36.3015C63.2241 35.3901 63.2884 34.5656 63.6666 33.7828C65.0773 30.882 67.5584 29.4562 70.1832 27.951C71.2876 27.3195 72.4298 26.6614 73.5115 25.8861C75.6181 24.3771 76.9797 23.1253 77.6794 22.0664C78.9199 20.183 80.2134 17.0818 80.6937 14.1773C87.7815 20.7503 92.2255 30.137 92.2179 40.541C92.2179 42.0084 92.1271 43.4531 91.9531 44.8751C91.9229 44.981 91.8926 45.0869 91.8624 45.1928C90.705 49.1903 88.9577 55.2262 77.9063 55.3359C77.3503 55.3359 64.2642 55.4191 60.0358 63.3725C57.566 68.0205 57.9556 72.9786 58.9125 76.352C58.0388 76.4163 57.1576 76.4504 56.265 76.4466C49.9375 76.4428 43.9844 74.7901 38.818 71.9045C37.8725 72.8651 36.927 73.8144 36.0684 74.6842C41.9874 78.2014 48.8936 80.2247 56.265 80.2323C76.4351 80.2436 93.1521 65.1386 95.671 45.6429C95.7466 45.3895 95.8185 45.1588 95.8903 44.9621L95.758 44.9167C95.9168 43.4834 96 42.0273 96 40.5524V40.5373ZM74.5213 19.975C74.3246 20.2737 73.6174 21.1474 71.3065 22.8038C70.3799 23.4695 69.37 24.0481 68.2997 24.6608C65.4329 26.3059 62.184 28.1742 60.2627 32.1225C59.4873 33.7185 59.3361 35.5073 59.824 37.2924C60.0244 38.0185 60.1303 38.7522 60.1303 39.4103C60.1303 40.2309 59.6878 40.8436 59.3172 41.2104C58.5645 41.9555 57.4034 42.3942 56.3066 42.398C49.3664 42.3186 45.7393 36.4528 45.2212 30.6778C44.4799 22.3727 38.2393 14.6236 34.9678 11.6056C40.9398 7.1883 48.3263 4.575 56.3104 4.57878C64.0297 4.58256 71.1893 7.03703 77.0516 11.2009C77.4335 13.2885 76.0379 17.6793 74.5251 19.9712L74.5213 19.975ZM62.7173 75.8604C61.9041 73.3795 61.265 69.1021 63.3754 65.1349C66.5335 59.1897 77.7891 59.1065 77.9214 59.1065C82.5659 59.0611 85.9282 58.0665 88.4017 56.6104C83.4131 66.5191 73.9691 73.8182 62.7211 75.8604H62.7173Z" fill="#707070"/>
<path id="Vector_2" d="M11.6939 82.4947C11.1493 81.9388 10.2567 81.9275 9.70075 82.4721L6.48972 85.611C5.93375 86.1556 5.9224 87.0444 6.46703 87.6041C7.01166 88.1601 7.90424 88.1714 8.46021 87.6268L11.6712 84.4878C12.2272 83.9432 12.2386 83.0545 11.6939 82.4947Z" fill="#707070"/>
<path id="Vector_3" d="M8.43571 82.5098L12.4145 78.535C12.9667 77.9867 12.9667 77.0941 12.4145 76.542C11.8661 75.9898 10.9735 75.9898 10.4213 76.542L6.44252 80.5168C5.89033 81.0651 5.89033 81.9577 6.44252 82.5098C6.99093 83.062 7.88352 83.062 8.43571 82.5098Z" fill="#707070"/>
<path id="Vector_4" d="M17.619 83.7454C18.1712 83.197 18.1712 82.3045 17.619 81.7523C17.0669 81.2001 16.1781 81.2001 15.6259 81.7523L11.6735 85.6968C11.1214 86.2452 11.1214 87.1378 11.6735 87.6899C12.2257 88.2421 13.1145 88.2421 13.6667 87.6899L17.619 83.7454Z" fill="#707070"/>
<path id="Vector_5" d="M9.07634 74.6693C8.52794 74.1172 7.63535 74.1172 7.08316 74.6693L3.90239 77.8424C3.65277 78.0882 3.25187 78.0882 3.00603 77.8424C2.76019 77.5965 2.76019 77.1956 3.00603 76.9498L3.29347 76.6624C3.84566 76.114 3.84566 75.2215 3.29347 74.6693C2.74506 74.1172 1.85248 74.1172 1.30029 74.6693L1.01285 74.9568C-0.337372 76.3031 -0.337372 78.4853 1.01285 79.8354C2.35929 81.1818 4.54536 81.1818 5.89179 79.8354L9.07256 76.6624C9.62475 76.114 9.62475 75.2215 9.07256 74.6693H9.07634Z" fill="#707070"/>
<path id="Vector_6" d="M34.5438 77.0297C34.158 76.3187 33.6247 75.4943 32.9704 74.4883L32.925 74.4202L37.1837 70.1845C38.4772 68.8948 39.4227 67.9947 39.9182 66.8034C40.4136 65.6121 40.391 64.3074 40.391 62.4845V61.5579C40.391 60.1094 40.3947 58.8803 40.2661 57.9008C40.13 56.8834 39.8236 55.9304 39.0521 55.1627C38.2805 54.3949 37.3312 54.0886 36.31 53.9525C35.3305 53.8201 34.0975 53.8239 32.6414 53.8239H31.711C29.8804 53.8239 28.5718 53.7974 27.3804 54.289C26.1853 54.7807 25.2776 55.7186 23.9841 57.0082L19.7178 61.2516L19.6422 61.2024C18.6286 60.5519 17.8041 60.0187 17.0893 59.6329C16.3593 59.2396 15.6634 58.9522 14.8881 58.8387C13.6551 58.6572 12.3881 58.8198 11.2232 59.3001C10.7807 59.4854 10.323 59.7955 9.91835 60.1094C9.49097 60.4384 9.02577 60.8393 8.55679 61.2667C7.61882 62.1214 6.5863 63.1463 5.67859 64.0502C4.31702 65.4041 4.79735 67.6997 6.57495 68.4032L7.19522 68.649C7.30112 68.6906 7.33894 68.7057 7.38054 68.7209C8.14832 69.0385 8.84423 69.4961 9.43802 70.071C9.46828 70.1012 9.49853 70.1315 9.57796 70.2109L10.8714 71.5006C10.8525 71.6594 10.8374 71.8182 10.8374 71.9809C10.8374 73.0701 11.295 73.9588 11.9191 74.7719C12.5205 75.5548 13.3941 76.4208 14.4229 77.4495L16.6657 79.6846C17.6944 80.7095 18.5643 81.5832 19.351 82.1807C20.1679 82.8047 21.0605 83.2586 22.146 83.2586C22.2821 83.2586 22.4145 83.251 22.5507 83.2359L23.3487 83.9355C24.037 84.6238 24.3093 84.8961 24.5363 85.1911C24.7556 85.4672 24.9485 85.766 25.1187 86.0723C25.3003 86.4013 25.444 86.7606 25.8184 87.6985C26.4954 89.3966 28.6928 89.8051 29.9598 88.5419L30.096 88.4057C31.0075 87.5019 32.0362 86.477 32.8948 85.5428C33.3259 85.0739 33.7268 84.6163 34.0559 84.1889C34.3698 83.7842 34.6837 83.3304 34.869 82.8879C35.3569 81.7269 35.5234 80.4637 35.338 79.2308C35.2246 78.4555 34.9371 77.7596 34.54 77.0335L34.5438 77.0297ZM11.3972 68.0477C10.5462 67.2232 9.5477 66.5652 8.45089 66.1151C8.39037 66.0886 8.32986 66.0659 8.23152 66.0281L7.83818 65.8731C8.70807 65.007 9.62335 64.1031 10.4516 63.3467C10.8941 62.9459 11.2913 62.6017 11.6317 62.3408C11.9947 62.0609 12.2103 61.9361 12.2973 61.9021C13.0046 61.6108 13.7572 61.5163 14.472 61.6222C14.8011 61.6714 15.1755 61.7999 15.7504 62.1101C16.2572 62.3824 16.8548 62.7605 17.6717 63.2825L14.4229 66.5122C13.6324 67.2989 12.9403 67.9872 12.4032 68.596C12.3313 68.6793 12.2633 68.7625 12.1952 68.8419L11.5598 68.2103C11.4842 68.1347 11.4388 68.0893 11.3934 68.0439L11.3972 68.0477ZM18.6513 77.6878L18.5303 77.5668L20.8941 75.2144C21.4463 74.666 21.4501 73.7735 20.8979 73.2213C20.3495 72.6692 19.4569 72.6692 18.9047 73.2176L16.5295 75.5775L16.4009 75.4489C15.3154 74.3673 14.6044 73.6525 14.1468 73.0549C13.7156 72.4876 13.6437 72.1964 13.6437 71.9771C13.6437 71.8561 13.6664 71.735 13.7232 71.5875C13.8291 71.3304 14.0484 70.9824 14.5136 70.4568C14.9751 69.9311 15.5878 69.3222 16.4047 68.5091L25.9659 59.0013C27.422 57.5528 27.891 57.1217 28.4508 56.891C29.0068 56.6603 29.6459 56.6376 31.7072 56.6376H32.6376C34.1731 56.6376 35.183 56.6414 35.9318 56.7435C36.6429 56.8381 36.9001 56.9969 37.0589 57.1557C37.2178 57.3146 37.3766 57.5718 37.4711 58.2752C37.5695 59.0202 37.5733 60.0262 37.5733 61.5541V62.4807C37.5733 64.5343 37.5468 65.1658 37.3161 65.718C37.0854 66.2702 36.6542 66.7353 35.1943 68.1838L25.6331 77.6916C24.7935 78.5236 24.1732 79.1438 23.6361 79.6052C23.0991 80.0666 22.7549 80.2784 22.4977 80.3729C22.3653 80.4221 22.2519 80.441 22.1346 80.441C21.9077 80.441 21.6127 80.3692 21.0454 79.938C20.444 79.4804 19.7292 78.7732 18.6437 77.6916L18.6513 77.6878ZM32.2707 81.7949C32.2367 81.8819 32.1119 82.0937 31.832 82.4568C31.5673 82.7972 31.2231 83.1943 30.8184 83.633C30.0582 84.4612 29.1429 85.3764 28.2655 86.2463C28.0083 85.5996 27.8192 85.1457 27.5809 84.7146C27.3388 84.2721 27.059 83.8485 26.745 83.4476C26.382 82.9825 25.9621 82.5702 25.2965 81.9046L25.2889 81.8971C25.3532 81.8441 25.4175 81.7949 25.4818 81.7382C26.1096 81.1974 26.8131 80.494 27.6263 79.6884L30.8865 76.4473C31.4122 77.2642 31.7942 77.8618 32.0665 78.3685C32.3766 78.9434 32.5052 79.3102 32.5544 79.6355C32.6603 80.3427 32.5657 81.0915 32.2707 81.7912V81.7949Z" fill="#707070"/>
<path id="Vector_7" d="M32.1175 68.52C33.9102 66.735 33.914 63.8418 32.1212 62.0567C30.3323 60.2754 27.4352 60.2717 25.6462 62.0529C23.8535 63.838 23.8497 66.7312 25.6425 68.5162C27.4314 70.2975 30.3285 70.3013 32.1175 68.52ZM30.1318 64.0498C30.8164 64.7343 30.8164 65.8386 30.1318 66.5232C29.4397 67.2077 28.3202 67.2077 27.6319 66.5232C26.9473 65.8386 26.9473 64.7343 27.6319 64.0498C28.3202 63.3653 29.4435 63.3653 30.1318 64.0498Z" fill="#707070"/>
<path id="Vector_8" d="M19.4525 87.1272C20.0047 86.5788 20.0047 85.6863 19.4525 85.1342C18.9041 84.582 18.0116 84.582 17.4594 85.1342L14.2786 88.3072C12.9284 89.6535 12.9284 91.8395 14.2786 93.1859C15.625 94.5322 17.8111 94.5322 19.1575 93.1859L19.445 92.8984C19.9972 92.3501 19.9972 91.4575 19.445 90.9054C18.8966 90.3532 18.004 90.3532 17.4518 90.9054L17.1644 91.1928C16.9147 91.4386 16.5138 91.4386 16.268 91.1928C16.0222 90.947 16.0222 90.5461 16.268 90.3003L19.4488 87.1272H19.4525Z" fill="#707070"/>
</g>
</svg>
