<svg width="32" height="32" viewBox="0 0 32 32" fill="none" xmlns="http://www.w3.org/2000/svg">
<path d="M29.7344 12.0027C29.2484 10.9093 28.2765 10.0589 26.9402 8.84406L22.4452 4.83502C21.2303 3.74165 20.5014 3.01273 19.4081 2.64827C18.4362 2.28381 17.3428 2.28381 15.7635 2.28381C13.6982 2.28381 11.9974 2.28381 10.6611 2.4053C9.20323 2.52679 8.10985 3.01273 7.25945 3.86313C6.77351 4.34908 6.53053 4.83502 6.28756 5.44245C5.19419 5.68542 4.2223 6.04988 3.49338 6.7788C2.64298 7.6292 2.27852 8.72258 2.03555 10.0589C1.91406 11.3953 1.91406 13.0961 1.91406 15.2828V19.8993C1.91406 22.086 1.91406 23.7868 2.03555 25.1232C2.15703 26.4595 2.64298 27.5529 3.49338 28.4033C4.34378 29.2537 5.43716 29.6182 6.77351 29.8612C8.10985 29.9826 9.81066 29.9826 11.9974 29.9826H16.6139C18.8006 29.9826 20.5014 29.9826 21.8378 29.8612C23.1741 29.7397 24.2675 29.2537 25.1179 28.4033C25.7253 27.7959 26.0898 27.067 26.3328 26.3381C27.3047 26.0951 28.0336 25.7306 28.641 25.1232C29.4914 24.2728 29.8559 23.1794 30.0988 21.8431C30.2203 20.5067 30.2203 18.8059 30.2203 16.7407V16.2547C30.2203 14.3109 30.2203 13.0961 29.7344 12.0027ZM25.6038 10.1804C26.0898 10.6664 26.4543 11.0308 26.8187 11.2738H24.632C23.7816 11.2738 23.0526 11.2738 22.4452 11.2738C21.3518 11.2738 20.7444 11.1523 20.3799 10.7878C20.0155 10.4234 19.894 9.93744 19.894 8.96555C19.894 8.35812 19.894 7.6292 19.894 6.53583V5.07799C20.2585 5.32097 20.6229 5.68542 21.1089 6.17137L25.6038 10.1804ZM21.4733 28.0389C20.2585 28.1603 18.8006 28.1604 16.4924 28.1604H11.9974C9.81066 28.1604 8.23134 28.1603 7.01648 28.0389C5.9231 27.9174 5.19419 27.5529 4.70824 27.067C4.2223 26.581 3.97933 25.9736 3.73635 24.7587C3.61487 23.5439 3.61487 22.086 3.61487 19.7778V15.1613C3.61487 12.9746 3.61487 11.3953 3.73635 10.1804C3.85784 9.08703 4.2223 8.35812 4.70824 7.87217C5.0727 7.87217 5.31567 7.6292 5.80162 7.50772C5.68013 8.72258 5.68013 10.3019 5.68013 12.2457V16.7407C5.68013 18.8059 5.68013 20.5067 5.80162 21.8431C5.9231 23.1794 6.40905 24.2728 7.25945 25.1232C8.10985 25.9736 9.20323 26.3381 10.5396 26.581C11.8759 26.7025 13.5767 26.7025 15.642 26.7025H20.137C21.7163 26.7025 22.9312 26.7025 24.0245 26.581C23.903 26.824 23.7816 26.9455 23.6601 27.067C23.2956 27.5529 22.5667 27.9174 21.4733 28.0389ZM28.1551 21.6001C28.0336 22.6935 27.6691 23.4224 27.3047 23.7868C27.0617 24.0298 26.8187 24.1513 26.5757 24.2728C26.2113 24.5158 25.7253 24.6373 25.1179 24.6373C24.9964 24.6373 24.8749 24.6373 24.7534 24.6373C23.6601 24.7587 22.2022 24.7587 20.2585 24.7587H15.7635C13.5767 24.7587 12.1189 24.7587 10.904 24.6373C9.81066 24.5158 9.08174 24.1513 8.71728 23.7868C8.23134 23.3009 7.98837 22.6935 7.86688 21.6001C7.74539 20.3852 7.74539 18.9274 7.74539 16.7407V12.2457C7.74539 10.0589 7.74539 8.60109 7.86688 7.38623C7.86688 7.26474 7.86688 7.26474 7.86688 7.14326C7.86688 6.29285 8.10985 5.68542 8.47431 5.19948L8.5958 5.07799C9.08174 4.59205 9.68917 4.34908 10.7825 4.22759C11.9974 4.1061 13.4552 4.1061 15.642 4.1061C16.8569 4.1061 17.5858 4.1061 18.0717 4.22759V6.65731C18.0717 6.90029 18.0717 7.14326 18.0717 7.38623C18.0717 7.87217 18.0717 8.23663 18.0717 8.60109C18.0717 9.08704 18.0717 9.57298 18.1932 9.93744C18.3147 10.9093 18.5577 11.5168 19.1651 12.1242C19.7725 12.7316 20.6229 12.9746 21.7163 13.0961C21.8378 13.0961 21.9593 13.0961 22.2022 13.0961C22.9312 13.0961 23.6601 13.0961 24.5105 13.0961H24.632H28.1551C28.2765 13.7035 28.398 14.5539 28.398 16.2547V16.7407C28.398 18.9274 28.398 20.3852 28.1551 21.6001Z" fill="#101010"/>
</svg>
