<svg width="24" height="25" viewBox="0 0 24 25" fill="none" xmlns="http://www.w3.org/2000/svg">
<g id="Outline / Users / User Plus Rounded">
<g id="Union">
<path fill-rule="evenodd" clip-rule="evenodd" d="M7.25 6.22205C7.25 3.59869 9.37665 1.47205 12 1.47205C14.6234 1.47205 16.75 3.59869 16.75 6.22205C16.75 8.8454 14.6234 10.972 12 10.972C9.37665 10.972 7.25 8.8454 7.25 6.22205ZM12 2.97205C10.2051 2.97205 8.75 4.42712 8.75 6.22205C8.75 8.01697 10.2051 9.47205 12 9.47205C13.7949 9.47205 15.25 8.01697 15.25 6.22205C15.25 4.42712 13.7949 2.97205 12 2.97205Z" fill="#101010"/>
<path d="M17.75 16.8887C17.75 16.4745 17.4142 16.1387 17 16.1387C16.5858 16.1387 16.25 16.4745 16.25 16.8887V17.472H15.6665C15.2523 17.472 14.9165 17.8078 14.9165 18.222C14.9165 18.6363 15.2523 18.972 15.6665 18.972H16.25V19.5554C16.25 19.9696 16.5858 20.3054 17 20.3054C17.4142 20.3054 17.75 19.9696 17.75 19.5554V18.972H18.3332C18.7474 18.972 19.0832 18.6363 19.0832 18.222C19.0832 17.8078 18.7474 17.472 18.3332 17.472H17.75V16.8887Z" fill="#101010"/>
<path fill-rule="evenodd" clip-rule="evenodd" d="M16.8118 13.4757C16.8742 13.4733 16.937 13.472 17 13.472C19.6234 13.472 21.75 15.5987 21.75 18.222C21.75 20.8454 19.6234 22.972 17 22.972C15.8204 22.972 14.7413 22.5421 13.9107 21.8303C13.2991 21.923 12.6587 21.972 12 21.972C9.96067 21.972 8.07752 21.5013 6.67815 20.7017C5.3 19.9141 4.25 18.7119 4.25 17.222C4.25 15.7322 5.3 14.53 6.67815 13.7424C8.07752 12.9428 9.96067 12.472 12 12.472C13.8045 12.472 15.4825 12.8404 16.8118 13.4757ZM17 14.972C15.2051 14.972 13.75 16.4271 13.75 18.222C13.75 20.017 15.2051 21.472 17 21.472C18.7949 21.472 20.25 20.017 20.25 18.222C20.25 16.4271 18.7949 14.972 17 14.972ZM12.8009 20.4445C12.4492 19.7813 12.25 19.025 12.25 18.222C12.25 16.5509 13.113 15.0814 14.4176 14.2347C13.6767 14.0665 12.8611 13.972 12 13.972C10.1733 13.972 8.55649 14.3967 7.42236 15.0448C6.26701 15.705 5.75 16.5028 5.75 17.222C5.75 17.9413 6.26701 18.7391 7.42236 19.3993C8.55649 20.0474 10.1733 20.472 12 20.472C12.2715 20.472 12.5388 20.4626 12.8009 20.4445Z" fill="#101010"/>
</g>
</g>
</svg>
