<svg width="51" height="51" viewBox="0 0 51 51" fill="none" xmlns="http://www.w3.org/2000/svg">
<g clip-path="url(#clip0_136_21)">
<path d="M25.5 51C39.5833 51 51 39.5833 51 25.5C51 11.4167 39.5833 0 25.5 0C11.4167 0 0 11.4167 0 25.5C0 39.5833 11.4167 51 25.5 51Z" fill="#FCFCFC"/>
<path d="M39.9138 22.174C39.1378 22.174 38.1769 22.174 36.5878 22.174C36.5878 28.2971 31.6239 33.2609 25.5009 33.2609C19.3776 33.2609 14.4139 28.2971 14.4139 22.174C13.3422 22.174 12.1595 22.174 11.0879 22.174C11.0879 28.7696 15.5181 34.3305 21.5654 36.0431C20.9024 37.3025 21.0034 38.8882 21.9505 40.0701C23.1944 39.0731 24.4823 38.041 25.5748 37.1657C26.6673 38.0411 27.9552 39.0732 29.1991 40.0701C30.1555 38.8765 30.2496 37.2707 29.5646 36.0051C35.5457 34.2505 39.9138 28.7227 39.9138 22.174V22.174Z" fill="#6DA544"/>
<path d="M16.6309 21.0652C16.6309 21.0652 16.6309 26.6086 22.1743 26.6086L23.283 27.7173H25.5004C25.5004 27.7173 26.609 24.3912 28.8264 24.3912C28.8264 24.3912 28.8264 22.1738 31.0438 22.1738C33.2612 22.1738 34.3699 22.1738 34.3699 22.1738C34.3699 22.1738 33.2612 17.739 38.8047 14.413L36.5873 13.3043C36.5873 13.3043 28.8264 18.8478 23.283 17.7391V19.9565H21.0656L19.9569 18.8479L16.6309 21.0652Z" fill="#FFDA44"/>
</g>
<defs>
<clipPath id="clip0_136_21">
<rect width="51" height="51" fill="white"/>
</clipPath>
</defs>
</svg>
