<svg width="134" height="40" viewBox="0 0 134 40" fill="none" xmlns="http://www.w3.org/2000/svg">
<path d="M128.912 39.3333H5.10846C2.99289 39.3333 1.23307 37.5404 1.23307 35.2703V4.72973C1.23307 2.45961 2.99289 0.666667 5.10846 0.666667H128.912C131.027 0.666667 132.787 2.45961 132.787 4.72973V35.2703C132.787 37.5404 131.027 39.3333 128.912 39.3333Z" fill="#101010" stroke="white" stroke-width="1.33333"/>
<path d="M45.8802 14.7503H42.1602V8.21033H43.1602V13.8603H45.8302V14.7403L45.8802 14.7503Z" fill="white"/>
<path d="M50.819 14.7503H49.869L49.789 14.2103C49.6301 14.4236 49.421 14.5945 49.1803 14.7078C48.9397 14.8212 48.6748 14.8736 48.409 14.8603C48.2089 14.8688 48.0092 14.8349 47.823 14.7608C47.6369 14.6867 47.4685 14.5741 47.329 14.4303C47.2022 14.2978 47.1039 14.1406 47.0403 13.9686C46.9767 13.7966 46.949 13.6134 46.959 13.4303C46.948 13.1656 47.0092 12.903 47.1361 12.6704C47.2629 12.4379 47.4506 12.2443 47.679 12.1103C48.291 11.7774 48.9835 11.6216 49.679 11.6603V11.6203C49.696 11.4878 49.6812 11.3533 49.6358 11.2278C49.5903 11.1022 49.5157 10.9893 49.4179 10.8984C49.3201 10.8075 49.2021 10.7412 49.0736 10.705C48.9452 10.6688 48.8099 10.6637 48.679 10.6903C48.2434 10.6819 47.8151 10.8038 47.449 11.0403L47.279 10.3203C47.7693 10.0329 48.3311 9.89073 48.899 9.91025C49.1581 9.88018 49.4206 9.91084 49.6658 9.9998C49.9109 10.0888 50.132 10.2336 50.3115 10.4228C50.491 10.612 50.624 10.8404 50.7 11.0899C50.7759 11.3394 50.7927 11.6031 50.749 11.8603V13.6003C50.7418 13.9848 50.7652 14.3694 50.819 14.7503ZM49.729 13.1303V12.4103C48.569 12.4103 47.989 12.7269 47.989 13.3603C47.9814 13.4609 47.9953 13.562 48.0297 13.6568C48.0642 13.7517 48.1185 13.8381 48.189 13.9103C48.3297 14.0333 48.5123 14.0978 48.699 14.0903C48.9307 14.0888 49.1555 14.0115 49.339 13.8703C49.5286 13.7414 49.6611 13.5444 49.709 13.3203C49.7231 13.2579 49.7298 13.1941 49.729 13.1303Z" fill="white"/>
<path d="M56.7705 14.7504H55.8405V13.9904C55.7014 14.2664 55.4839 14.4953 55.2153 14.6483C54.9467 14.8013 54.6389 14.8716 54.3305 14.8504C54.0582 14.8554 53.7884 14.7976 53.5421 14.6814C53.2958 14.5652 53.0797 14.3938 52.9105 14.1804C52.5202 13.6868 52.3213 13.0689 52.3505 12.4404C52.3203 11.7698 52.5374 11.1115 52.9605 10.5904C53.1402 10.3796 53.3642 10.2111 53.6166 10.097C53.869 9.98294 54.1435 9.92603 54.4205 9.93036C54.6796 9.90375 54.9411 9.94946 55.1759 10.0624C55.4107 10.1754 55.6095 10.3512 55.7505 10.5704V7.87036H56.7505V13.4804C56.7371 13.9404 56.7438 14.3637 56.7705 14.7504ZM55.6805 12.7504V11.9804C55.6923 11.8707 55.6923 11.76 55.6805 11.6504C55.6255 11.4019 55.4923 11.1776 55.3005 11.0104C55.1095 10.8366 54.8586 10.7434 54.6005 10.7504C54.4199 10.7447 54.2409 10.7848 54.08 10.867C53.9191 10.9492 53.7817 11.0707 53.6805 11.2204C53.4442 11.5711 53.3251 11.9877 53.3405 12.4104C53.3201 12.8151 53.4325 13.2154 53.6605 13.5504C53.7623 13.6993 53.8999 13.8204 54.0606 13.9025C54.2213 13.9846 54.4001 14.0251 54.5805 14.0204C54.7399 14.0263 54.8984 13.994 55.0428 13.9261C55.1872 13.8583 55.3133 13.7569 55.4105 13.6304C55.6024 13.3824 55.6983 13.0734 55.6805 12.7604V12.7504Z" fill="white"/>
<path d="M62.4511 12.1703C62.4663 12.3299 62.4663 12.4907 62.4511 12.6503H59.2911C59.2844 12.8515 59.3222 13.0517 59.4017 13.2366C59.4812 13.4216 59.6005 13.5867 59.7511 13.7203C60.0361 13.9429 60.3896 14.0595 60.7511 14.0503C61.1844 14.0572 61.6152 13.9825 62.0211 13.8303L62.1811 14.5603C61.6799 14.7645 61.1421 14.8632 60.6011 14.8503C60.2857 14.868 59.9701 14.8203 59.6741 14.7101C59.3781 14.6 59.1081 14.4298 58.8811 14.2103C58.6682 13.9774 58.5038 13.7046 58.3973 13.4076C58.2909 13.1106 58.2446 12.7954 58.2611 12.4803C58.2383 11.8402 58.4439 11.2128 58.8411 10.7103C59.0366 10.4624 59.288 10.2643 59.5748 10.1322C59.8616 10.0001 60.1756 9.93775 60.4911 9.95031C60.7913 9.93492 61.0905 9.99669 61.36 10.1297C61.6296 10.2628 61.8606 10.4626 62.0311 10.7103C62.3179 11.1422 62.4646 11.652 62.4511 12.1703ZM61.4511 11.9003C61.4664 11.6164 61.3968 11.3344 61.2511 11.0903C61.1663 10.9555 61.048 10.8451 60.9078 10.7697C60.7676 10.6943 60.6102 10.6566 60.4511 10.6603C60.2882 10.6589 60.1274 10.6974 59.9827 10.7724C59.8381 10.8473 59.7139 10.9564 59.6211 11.0903C59.4442 11.3261 59.3368 11.6067 59.3111 11.9003H61.4511Z" fill="white"/>
<path d="M68.0898 14.7503H67.0898V12.0503C67.0898 11.2169 66.7732 10.8003 66.1398 10.8003C65.9962 10.799 65.8539 10.8287 65.7228 10.8874C65.5916 10.9461 65.4747 11.0323 65.3798 11.1403C65.188 11.3661 65.0849 11.654 65.0898 11.9503V14.7503H64.0898V11.3903C64.0898 10.9769 64.0898 10.5269 64.0898 10.0403H65.0098V10.7803C65.1364 10.546 65.3227 10.3493 65.5498 10.2103C65.82 10.0408 66.131 9.94753 66.4498 9.94025C66.6493 9.92712 66.8493 9.95397 67.0382 10.0192C67.2271 10.0845 67.4011 10.1868 67.5498 10.3203C67.7416 10.5297 67.8884 10.7761 67.9812 11.0444C68.0741 11.3127 68.1111 11.5971 68.0898 11.8803V14.7003V14.7503Z" fill="white"/>
<path d="M73.9307 8.63028C73.9351 8.71534 73.9213 8.80035 73.8902 8.87966C73.8592 8.95897 73.8116 9.03077 73.7507 9.09028C73.624 9.21 73.455 9.27471 73.2807 9.27028C73.199 9.27183 73.1178 9.25667 73.0421 9.22572C72.9664 9.19476 72.8979 9.14867 72.8407 9.09028C72.7815 9.03155 72.735 8.96132 72.7041 8.88392C72.6731 8.80653 72.6584 8.72361 72.6607 8.64028C72.6571 8.5568 72.6713 8.47352 72.7024 8.39594C72.7334 8.31837 72.7805 8.24826 72.8407 8.19028C72.9656 8.07784 73.1277 8.01562 73.2957 8.01562C73.4637 8.01562 73.6258 8.07784 73.7507 8.19028C73.8096 8.24712 73.856 8.3156 73.887 8.39135C73.918 8.4671 73.9329 8.54846 73.9307 8.63028ZM73.8107 14.7503H72.8107V10.0403H73.8107V14.7603V14.7503Z" fill="white"/>
<path d="M82.4491 14.7503H81.4491V12.1103C81.4491 11.2403 81.1491 10.8003 80.5591 10.8003C80.4285 10.7964 80.2989 10.8234 80.1808 10.879C80.0626 10.9346 79.9592 11.0173 79.8791 11.1203C79.7062 11.3355 79.6142 11.6044 79.6191 11.8803V14.7403H78.6191V11.9703C78.6328 11.6713 78.5561 11.3751 78.3991 11.1203C78.3288 11.0165 78.2331 10.9326 78.121 10.8765C78.0089 10.8205 77.8842 10.7942 77.7591 10.8003C77.6229 10.7983 77.4882 10.8291 77.3664 10.89C77.2446 10.9509 77.1392 11.0402 77.0591 11.1503C76.8812 11.3749 76.7859 11.6538 76.7891 11.9403V14.7503H75.7891V11.3803C75.7891 10.967 75.7891 10.517 75.7891 10.0303H76.6891V10.7503C76.8301 10.4948 77.0395 10.2837 77.2939 10.1406C77.5483 9.99751 77.8375 9.92816 78.1291 9.94033C78.4127 9.92185 78.6944 9.99831 78.9298 10.1576C79.1652 10.317 79.3408 10.5501 79.4291 10.8203C79.5665 10.5854 79.7544 10.3839 79.9791 10.2303C80.2717 10.0269 80.623 9.92507 80.9791 9.94033C81.1663 9.93987 81.3516 9.97779 81.5236 10.0518C81.6956 10.1257 81.8506 10.2341 81.9791 10.3703C82.3441 10.8163 82.5231 11.3857 82.4791 11.9603V14.7603L82.4491 14.7503Z" fill="white"/>
<path d="M29.2803 19.3038C29.299 21.4824 30.2357 22.9539 31.1779 23.8725C31.673 24.3553 32.1696 24.6863 32.5373 24.8944C32.4786 25.0601 32.4023 25.2632 32.3062 25.4953C32.0354 26.1489 31.619 27.0049 31.0273 27.8635L31.0223 27.8707L31.0175 27.8781C30.493 28.6842 29.9984 29.4104 29.4424 29.9431C28.8995 30.4633 28.3459 30.7525 27.7006 30.7635L27.6963 30.7636C27.0196 30.7794 26.5791 30.5875 25.9889 30.3304L25.979 30.3261C25.3662 30.0591 24.6369 29.7483 23.528 29.7483C22.4203 29.7483 21.6843 30.0351 21.057 30.3034C21.0172 30.3204 20.9781 30.3372 20.9396 30.3537C20.3829 30.5929 19.9555 30.7766 19.3338 30.8034C18.7717 30.8248 18.2128 30.5398 17.6138 29.963C17.0151 29.3866 16.4669 28.607 15.9215 27.8094C14.8952 26.271 13.9722 24.0833 13.5803 21.8041C13.1872 19.5181 13.3413 17.222 14.364 15.4037L14.364 15.4037L14.3654 15.4013C15.3515 13.6309 17.1341 12.5164 19.0039 12.4861L19.0071 12.4861C19.6828 12.472 20.3667 12.7073 21.0822 12.9973C21.1683 13.0322 21.2564 13.0685 21.3453 13.1052C21.6057 13.2125 21.8739 13.3231 22.1215 13.4103C22.4533 13.5271 22.8264 13.632 23.1963 13.632C23.5752 13.632 23.979 13.5032 24.3301 13.3731C24.5225 13.3017 24.7544 13.2074 24.9869 13.1128C25.1633 13.0411 25.3401 12.9692 25.5002 12.9071C26.3285 12.5859 27.1627 12.3392 27.9701 12.4258L27.9956 12.4285L28.0211 12.4293C28.6833 12.4492 30.4377 12.6776 31.7477 14.1979C30.8455 14.9299 29.2547 16.6037 29.2803 19.3038ZM29.2803 19.3038C29.2803 19.3036 29.2803 19.3035 29.2803 19.3033L29.9469 19.2976L29.2803 19.304C29.2803 19.3039 29.2803 19.3038 29.2803 19.3038Z" fill="white" stroke="white" stroke-width="1.33333"/>
<path d="M24.8425 7.87761L24.8427 7.87734C25.4816 7.10941 26.5018 6.49195 27.4189 6.24706C27.3554 7.33123 26.8933 8.38924 26.247 9.22165C25.5717 10.0355 24.5972 10.6428 23.6414 10.7788C23.7023 9.71283 24.2318 8.61091 24.8425 7.87761Z" fill="white" stroke="white" stroke-width="1.33333"/>
<mask id="path-11-inside-1_36449_17254" fill="white">
<path d="M49.4395 25.5683L48.3244 22.0375C48.2066 21.6777 47.9855 20.8277 47.6587 19.4922H47.6202C47.4905 20.0663 47.279 20.9164 46.993 22.0375L45.8971 25.5683H49.4395ZM53.2942 31.2083H51.0424L49.8095 27.2364H45.527L44.3519 31.2083H42.1602L46.409 17.6862H49.0285"/>
</mask>
<path d="M49.4395 25.5683L48.3244 22.0375C48.2066 21.6777 47.9855 20.8277 47.6587 19.4922H47.6202C47.4905 20.0663 47.279 20.9164 46.993 22.0375L45.8971 25.5683H49.4395ZM53.2942 31.2083H51.0424L49.8095 27.2364H45.527L44.3519 31.2083H42.1602L46.409 17.6862H49.0285" fill="white"/>
<path d="M49.4395 25.5683V26.9016H51.2588L50.7109 25.1668L49.4395 25.5683ZM48.3244 22.0375L49.5959 21.6359L49.5915 21.6227L48.3244 22.0375ZM47.6587 19.4922L48.9538 19.1753L48.705 18.1589H47.6587V19.4922ZM47.6202 19.4922V18.1589H46.5547L46.3197 19.1982L47.6202 19.4922ZM46.993 22.0375L48.2664 22.4327L48.2765 22.4001L48.285 22.367L46.993 22.0375ZM45.8971 25.5683L44.6237 25.1731L44.0872 26.9016H45.8971V25.5683ZM51.0424 31.2083L49.769 31.6035L50.0602 32.5416H51.0424V31.2083ZM49.8095 27.2364L51.0829 26.8411L50.7918 25.9031H49.8095V27.2364ZM45.527 27.2364V25.9031H44.5311L44.2485 26.8581L45.527 27.2364ZM44.3519 31.2083V32.5416H45.3478L45.6304 31.5866L44.3519 31.2083ZM42.1602 31.2083L40.8881 30.8086L40.3436 32.5416H42.1602V31.2083ZM46.409 17.6862V16.3528H45.4304L45.137 17.2865L46.409 17.6862ZM50.7109 25.1668L49.5958 21.6359L47.0529 22.439L48.168 25.9698L50.7109 25.1668ZM49.5915 21.6227C49.4932 21.3222 49.285 20.5287 48.9538 19.1753L46.3636 19.8092C46.686 21.1267 46.9201 22.0333 47.0572 22.4523L49.5915 21.6227ZM47.6587 18.1589H47.6202V20.8256H47.6587V18.1589ZM46.3197 19.1982C46.1945 19.7522 45.9873 20.5857 45.701 21.7079L48.285 22.367C48.5707 21.2471 48.7864 20.3805 48.9207 19.7862L46.3197 19.1982ZM45.7196 21.6423L44.6237 25.1731L47.1705 25.9635L48.2664 22.4327L45.7196 21.6423ZM45.8971 26.9016H49.4395V24.235H45.8971V26.9016ZM53.2942 29.8749H51.0424V32.5416H53.2942V29.8749ZM52.3158 30.813L51.0829 26.8411L48.5361 27.6317L49.769 31.6035L52.3158 30.813ZM49.8095 25.9031H45.527V28.5697H49.8095V25.9031ZM44.2485 26.8581L43.0733 30.83L45.6304 31.5866L46.8056 27.6147L44.2485 26.8581ZM44.3519 29.8749H42.1602V32.5416H44.3519V29.8749ZM43.4322 31.608L47.681 18.0858L45.137 17.2865L40.8881 30.8086L43.4322 31.608ZM46.409 19.0195H49.0285V16.3528H46.409V19.0195Z" fill="white" mask="url(#path-11-inside-1_36449_17254)"/>
<path d="M61.9844 23.5702L61.9801 23.5639L61.9757 23.5577C61.3983 22.7476 60.5863 22.3146 59.5943 22.3146C59.0555 22.3146 58.5552 22.4627 58.1079 22.7411C58.6477 22.1947 59.3566 21.9231 60.2792 21.9231C61.189 21.9231 61.9435 22.2812 62.5712 23.0448L62.5713 23.045C63.2006 23.8101 63.5466 24.8433 63.5466 26.2115C63.5466 27.7512 63.1428 28.8878 62.4086 29.6947C61.7521 30.4129 60.9579 30.761 59.9861 30.761C59.0981 30.761 58.4937 30.4998 58.0819 30.017C58.5098 30.2662 58.9986 30.3892 59.5343 30.3892C60.5373 30.3892 61.366 29.9801 61.937 29.1628C62.4865 28.3889 62.7267 27.4129 62.7267 26.2928C62.7267 25.2447 62.4957 24.3234 61.9844 23.5702ZM56.5797 30.0429V34.5135H55.7983V24.6666C55.7983 23.8361 55.7831 22.9886 55.7505 22.1227H56.2945L56.3654 23.054L56.4123 23.6701H57.0301H57.071H57.1522C56.9391 23.9925 56.7862 24.356 56.6938 24.7569C56.6227 25.0495 56.5797 25.3241 56.5797 25.5684V27.1946C56.5797 28.0242 56.8244 28.7645 57.3336 29.3762H57.2849H57.2464H56.5797V30.0429Z" fill="white" stroke="white" stroke-width="1.33333"/>
<path d="M72.9195 23.5702L72.9152 23.5639L72.9108 23.5577C72.3334 22.7476 71.5214 22.3146 70.5294 22.3146C69.9897 22.3146 69.4912 22.4632 69.0443 22.741C69.5828 22.1948 70.2915 21.9231 71.2143 21.9231C72.1252 21.9231 72.8758 22.2803 73.5094 23.0457C74.1373 23.8096 74.4793 24.8418 74.4793 26.2115C74.4793 27.7521 74.0775 28.8883 73.3437 29.6947C72.6871 30.4131 71.8951 30.761 70.9212 30.761C70.0367 30.761 69.4323 30.5006 69.0188 30.0179C69.4466 30.2665 69.9354 30.3892 70.4718 30.3892C71.4739 30.3892 72.3021 29.9789 72.875 29.1621C73.4182 28.39 73.6618 27.4154 73.6618 26.2928C73.6618 25.2447 73.4308 24.3234 72.9195 23.5702ZM67.5172 27.1946C67.5172 28.0225 67.7587 28.7634 68.2687 29.3762H68.22H68.1839H67.5172V30.0429V34.5135H66.7358V24.6666C66.7358 23.8353 66.7191 22.9877 66.6871 22.1227H67.232L67.3029 23.054L67.3498 23.6701H67.9676H68.0085H68.0874C67.8753 23.9929 67.7249 24.3561 67.634 24.7554C67.56 25.0499 67.5172 25.3244 67.5172 25.5684V27.1946Z" fill="white" stroke="white" stroke-width="1.33333"/>
<path d="M79.9748 30.2393L80.1106 29.7394C80.9322 30.1055 81.8105 30.2882 82.7424 30.2882C83.6334 30.2882 84.424 30.084 85.027 29.5861L85.027 29.5861L85.0301 29.5836C85.6353 29.0777 85.9325 28.3917 85.9325 27.5937C85.9325 26.8856 85.6929 26.2489 85.1975 25.741C84.7316 25.2633 84.0166 24.8739 83.1364 24.5389C80.9469 23.7002 80.1023 22.584 80.1023 21.2835C80.1023 20.3566 80.429 19.6304 81.0886 19.0524L81.0893 19.0518C81.7475 18.4734 82.6543 18.1508 83.8767 18.1508C84.7463 18.1508 85.4705 18.2723 86.0654 18.4941L85.9237 18.9679C85.2713 18.7243 84.5678 18.6038 83.8191 18.6038C82.9645 18.6038 82.2068 18.82 81.633 19.3369L81.6257 19.3434L81.6187 19.3502C81.139 19.8083 80.8838 20.3904 80.8838 21.0568C80.8838 21.7794 81.1632 22.4042 81.7146 22.8796C82.1594 23.2823 82.8903 23.6633 83.8211 24.0416C84.9003 24.4872 85.6284 24.9824 86.0703 25.5002C86.4879 25.9924 86.7139 26.6167 86.7139 27.4163C86.7139 28.395 86.3907 29.1476 85.7564 29.7346C85.0535 30.3783 84.0391 30.7412 82.6175 30.7412C81.5196 30.7412 80.6498 30.5626 79.9748 30.2393Z" fill="white" stroke="white" stroke-width="1.33333"/>
<mask id="path-16-inside-2_36449_17254" fill="white">
<path d="M94.362 23.0822H92.0333V27.8155C92.0333 29.0203 92.4443 29.6215 93.2686 29.6215C93.6435 29.6215 93.9583 29.5895 94.2058 29.523L94.2635 31.1664C93.8501 31.3291 93.2998 31.4079 92.6221 31.4079C91.7882 31.4079 91.1345 31.1467 90.6635 30.6268C90.1949 30.1045 89.9594 29.2273 89.9594 27.9978V23.0822H88.5703V21.456H89.9594V19.6721L92.0333 19.0291V21.456H94.362"/>
</mask>
<path d="M94.362 23.0822H92.0333V27.8155C92.0333 29.0203 92.4443 29.6215 93.2686 29.6215C93.6435 29.6215 93.9583 29.5895 94.2058 29.523L94.2635 31.1664C93.8501 31.3291 93.2998 31.4079 92.6221 31.4079C91.7882 31.4079 91.1345 31.1467 90.6635 30.6268C90.1949 30.1045 89.9594 29.2273 89.9594 27.9978V23.0822H88.5703V21.456H89.9594V19.6721L92.0333 19.0291V21.456H94.362" fill="white"/>
<path d="M92.0333 23.0822V21.7489H90.7V23.0822H92.0333ZM94.2058 29.523L95.5383 29.4762L95.4795 27.8L93.8598 28.2353L94.2058 29.523ZM94.2635 31.1664L94.7516 32.4072L95.6291 32.062L95.596 31.1197L94.2635 31.1664ZM90.6635 30.6268L89.671 31.5172L89.6754 31.5221L90.6635 30.6268ZM89.9594 23.0822H91.2927V21.7489H89.9594V23.0822ZM88.5703 23.0822H87.237V24.4156H88.5703V23.0822ZM88.5703 21.456V20.1227H87.237V21.456H88.5703ZM89.9594 21.456V22.7894H91.2927V21.456H89.9594ZM89.9594 19.6721L89.5645 18.3986L88.626 18.6896V19.6721H89.9594ZM92.0333 19.0291H93.3667V17.2197L91.6384 17.7555L92.0333 19.0291ZM92.0333 21.456H90.7V22.7894H92.0333V21.456ZM94.362 21.7489H92.0333V24.4156H94.362V21.7489ZM90.7 23.0822V27.8155H93.3667V23.0822H90.7ZM90.7 27.8155C90.7 28.5277 90.8139 29.298 91.2412 29.923C91.7312 30.6394 92.4834 30.9549 93.2686 30.9549V28.2882C93.2247 28.2882 93.2512 28.2807 93.3114 28.31C93.3779 28.3423 93.4229 28.3892 93.4424 28.4177C93.4559 28.4374 93.4343 28.4148 93.4105 28.31C93.3866 28.2053 93.3667 28.0452 93.3667 27.8155H90.7ZM93.2686 30.9549C93.7062 30.9549 94.149 30.9189 94.5519 30.8106L93.8598 28.2353C93.7675 28.2601 93.5807 28.2882 93.2686 28.2882V30.9549ZM92.8733 29.5697L92.931 31.2132L95.596 31.1197L95.5383 29.4762L92.8733 29.5697ZM93.7754 29.9257C93.5807 30.0022 93.2178 30.0746 92.6221 30.0746V32.7412C93.3819 32.7412 94.1196 32.6559 94.7516 32.4072L93.7754 29.9257ZM92.6221 30.0746C92.0882 30.0746 91.8227 29.9205 91.6516 29.7316L89.6754 31.5221C90.4463 32.3729 91.4882 32.7412 92.6221 32.7412V30.0746ZM91.656 29.7364C91.5206 29.5856 91.2927 29.1226 91.2927 27.9978H88.626C88.626 29.332 88.8691 30.6234 89.671 31.5172L91.656 29.7364ZM91.2927 27.9978V23.0822H88.626V27.9978H91.2927ZM89.9594 21.7489H88.5703V24.4156H89.9594V21.7489ZM89.9036 23.0822V21.456H87.237V23.0822H89.9036ZM88.5703 22.7894H89.9594V20.1227H88.5703V22.7894ZM91.2927 21.456V19.6721H88.626V21.456H91.2927ZM90.3543 20.9457L92.4282 20.3026L91.6384 17.7555L89.5645 18.3986L90.3543 20.9457ZM90.7 19.0291V21.456H93.3667V19.0291H90.7ZM92.0333 22.7894H94.362V20.1227H92.0333V22.7894Z" fill="white" mask="url(#path-16-inside-2_36449_17254)"/>
<path d="M97.3413 23.1461L97.3413 23.1461L97.3431 23.1441C98.0527 22.3408 99.0116 21.9231 100.294 21.9231C101.52 21.9231 102.456 22.3317 103.162 23.1219C103.845 23.9048 104.208 24.9261 104.208 26.2533C104.208 27.6199 103.833 28.6843 103.121 29.5051C102.387 30.3358 101.416 30.761 100.141 30.761C98.9118 30.761 97.9931 30.3524 97.3049 29.5651C96.5997 28.7558 96.2292 27.7216 96.2292 26.4135C96.2292 25.0328 96.6136 23.9634 97.3413 23.1461ZM103.35 26.3223C103.35 25.3297 103.14 24.441 102.691 23.6757C102.145 22.7123 101.301 22.1741 100.218 22.1741C99.1154 22.1741 98.2562 22.7045 97.7033 23.675C97.2514 24.4456 97.0491 25.3514 97.0491 26.3642C97.0491 27.3554 97.2536 28.2469 97.7059 29.0135C98.2682 29.9718 99.1137 30.51 100.201 30.51C101.277 30.51 102.114 29.9586 102.672 28.993C103.134 28.2175 103.35 27.3176 103.35 26.3223Z" fill="white" stroke="white" stroke-width="1.33333"/>
<mask id="path-19-inside-3_36449_17254" fill="white">
<path d="M111.74 23.3631C111.531 23.3237 111.31 23.304 111.074 23.304C110.332 23.304 109.755 23.5923 109.351 24.1664C109 24.6764 108.825 25.317 108.825 26.0907V31.2083H106.712L106.729 24.5286C106.729 23.4026 106.703 22.38 106.652 21.456H108.493L108.57 23.3237H108.625C108.849 22.6831 109.202 22.1657 109.683 21.7788C110.154 21.4314 110.663 21.2565 111.211 21.2565C111.406 21.2565 111.584 21.2713 111.74 21.2959"/>
</mask>
<path d="M111.74 23.3631C111.531 23.3237 111.31 23.304 111.074 23.304C110.332 23.304 109.755 23.5923 109.351 24.1664C109 24.6764 108.825 25.317 108.825 26.0907V31.2083H106.712L106.729 24.5286C106.729 23.4026 106.703 22.38 106.652 21.456H108.493L108.57 23.3237H108.625C108.849 22.6831 109.202 22.1657 109.683 21.7788C110.154 21.4314 110.663 21.2565 111.211 21.2565C111.406 21.2565 111.584 21.2713 111.74 21.2959" fill="white"/>
<path d="M109.351 24.1664L108.26 23.3993L108.253 23.4107L109.351 24.1664ZM108.825 31.2083V32.5417H110.158V31.2083H108.825ZM106.712 31.2083L105.379 31.205L105.376 32.5417H106.712V31.2083ZM106.729 24.5286L108.063 24.5319V24.5286H106.729ZM106.652 21.456V20.1227H105.244L105.321 21.5288L106.652 21.456ZM108.493 21.456L109.825 21.4012L109.773 20.1227H108.493V21.456ZM108.57 23.3237L107.238 23.3786L107.291 24.6571H108.57V23.3237ZM108.625 23.3237V24.6571H109.572L109.884 23.7629L108.625 23.3237ZM109.683 21.7788L108.891 20.7058L108.869 20.7225L108.847 20.7401L109.683 21.7788ZM111.987 22.0529C111.689 21.9967 111.384 21.9707 111.074 21.9707V24.6373C111.235 24.6373 111.373 24.6508 111.493 24.6734L111.987 22.0529ZM111.074 21.9707C109.928 21.9707 108.931 22.4459 108.26 23.3994L110.442 24.9334C110.579 24.7386 110.735 24.6373 111.074 24.6373V21.9707ZM108.253 23.4107C107.715 24.1927 107.492 25.1144 107.492 26.0907H110.158C110.158 25.5197 110.286 25.1602 110.45 24.9221L108.253 23.4107ZM107.492 26.0907V31.2083H110.158V26.0907H107.492ZM108.825 29.875H106.712V32.5417H108.825V29.875ZM108.046 31.2117L108.063 24.5319L105.396 24.5252L105.379 31.205L108.046 31.2117ZM108.063 24.5286C108.063 23.3821 108.036 22.335 107.984 21.3833L105.321 21.5288C105.37 22.425 105.396 23.423 105.396 24.5286H108.063ZM106.652 22.7894H108.493V20.1227H106.652V22.7894ZM107.161 21.5109L107.238 23.3786L109.902 23.2689L109.825 21.4012L107.161 21.5109ZM108.57 24.6571H108.625V21.9904H108.57V24.6571ZM109.884 23.7629C110.035 23.3319 110.253 23.0317 110.519 22.8175L108.847 20.7401C108.152 21.2997 107.663 22.0343 107.366 22.8845L109.884 23.7629ZM110.474 22.8519C110.734 22.66 110.97 22.5898 111.211 22.5898V19.9231C110.357 19.9231 109.573 20.2028 108.891 20.7058L110.474 22.8519ZM111.211 22.5898C111.339 22.5898 111.448 22.5996 111.532 22.6129L111.948 19.9788C111.72 19.9429 111.472 19.9231 111.211 19.9231V22.5898Z" fill="white" mask="url(#path-19-inside-3_36449_17254)"/>
<path d="M119.174 25.9763H119.826L119.841 25.3246C119.857 24.5782 119.698 23.8915 119.335 23.2978C118.839 22.4806 118.048 22.073 117.081 22.073C116.166 22.073 115.41 22.4806 114.863 23.2277C114.433 23.8025 114.182 24.4831 114.112 25.2487L114.046 25.9763H114.776H119.174ZM117.768 30.4089C118.496 30.4089 119.189 30.3232 119.84 30.1468L119.89 30.3716C119.197 30.6013 118.395 30.7239 117.473 30.7239C116.143 30.7239 115.175 30.327 114.485 29.5953L114.484 29.5946C113.787 28.8575 113.405 27.84 113.405 26.4726C113.405 25.1245 113.759 24.0558 114.433 23.2195L114.433 23.2195L114.438 23.2128C115.123 22.3394 116.035 21.9034 117.237 21.9034C118.41 21.9034 119.232 22.3325 119.799 23.1739L119.799 23.1748C120.269 23.869 120.521 24.756 120.521 25.8714C120.521 25.9848 120.519 26.0901 120.515 26.1878H114.776H114.094L114.11 26.8694C114.134 27.974 114.495 28.9084 115.259 29.5671L115.261 29.569C115.941 30.1499 116.798 30.4089 117.768 30.4089Z" fill="white" stroke="white" stroke-width="1.33333"/>
</svg>
