<svg width="120" height="41" viewBox="0 0 120 41" fill="none" xmlns="http://www.w3.org/2000/svg">
<g clip-path="url(#clip0_36494_74295)">
<path d="M110.291 0.547005H9.69093C9.32423 0.547005 8.96193 0.547005 8.5962 0.549005C8.29005 0.551005 7.98634 0.556815 7.67725 0.561705C7.00576 0.569607 6.33586 0.628681 5.67335 0.738415C5.01177 0.850538 4.37092 1.06192 3.77247 1.36541C3.17475 1.67148 2.6286 2.06917 2.15382 2.54408C1.67655 3.01764 1.27871 3.56502 0.9756 4.16516C0.67165 4.76411 0.460891 5.40594 0.3506 6.06849C0.239261 6.73019 0.179348 7.39953 0.1714 8.07049C0.16212 8.37709 0.16114 8.6847 0.15625 8.99134V32.1056C0.16114 32.4161 0.16212 32.7169 0.1714 33.0275C0.179351 33.6984 0.239263 34.3677 0.3506 35.0294C0.460586 35.6923 0.671358 36.3345 0.9756 36.9337C1.27858 37.5319 1.67647 38.0771 2.15382 38.548C2.62679 39.025 3.1733 39.423 3.77247 39.7267C4.37092 40.031 5.0117 40.2437 5.67335 40.3575C6.33597 40.4664 7.00581 40.5255 7.67725 40.5343C7.98634 40.5411 8.29005 40.545 8.5962 40.545C8.96192 40.547 9.32425 40.547 9.69093 40.547H110.291C110.65 40.547 111.016 40.547 111.375 40.545C111.68 40.545 111.992 40.5411 112.297 40.5343C112.967 40.5259 113.636 40.4668 114.297 40.3575C114.961 40.2429 115.604 40.0303 116.205 39.7267C116.804 39.4228 117.35 39.0249 117.822 38.548C118.298 38.0752 118.697 37.5305 119.004 36.9337C119.306 36.3341 119.515 35.6919 119.623 35.0294C119.735 34.3676 119.797 33.6985 119.809 33.0275C119.813 32.7169 119.813 32.4161 119.813 32.1056C119.82 31.7423 119.82 31.381 119.82 31.0118V10.0831C119.82 9.71692 119.82 9.35364 119.813 8.99134C119.813 8.6847 119.813 8.37709 119.809 8.07045C119.797 7.39943 119.735 6.73024 119.623 6.06845C119.514 5.40629 119.306 4.76451 119.004 4.16512C118.387 2.9622 117.408 1.98303 116.205 1.36532C115.604 1.06257 114.961 0.851245 114.297 0.738325C113.636 0.628108 112.967 0.569013 112.297 0.561565C111.992 0.556685 111.68 0.550825 111.375 0.548875C111.016 0.546875 110.65 0.547005 110.291 0.547005Z" fill="#A6A6A6"/>
<path d="M8.59916 39.6719C8.29448 39.6719 7.99716 39.668 7.69487 39.6612C7.06866 39.653 6.4439 39.5985 5.82573 39.4981C5.24932 39.3988 4.69094 39.2141 4.16899 38.9502C3.65184 38.6884 3.18015 38.3451 2.77199 37.9336C2.35793 37.5269 2.01321 37.0551 1.75148 36.5371C1.48687 36.0157 1.30375 35.4568 1.20848 34.8799C1.10561 34.26 1.04995 33.6332 1.04198 33.0049C1.03564 32.794 1.02734 32.0918 1.02734 32.0918V8.99121C1.02734 8.99121 1.03618 8.2998 1.04203 8.09667C1.04966 7.46936 1.105 6.84353 1.20756 6.22461C1.303 5.64613 1.48627 5.08562 1.75102 4.5625C2.01179 4.04482 2.3546 3.57274 2.76616 3.16456C3.17727 2.7525 3.65047 2.40748 4.1685 2.14208C4.68925 1.87897 5.24658 1.69561 5.82182 1.59815C6.44202 1.49671 7.06894 1.44187 7.69733 1.43409L8.59965 1.42188H111.368L112.281 1.43458C112.904 1.44197 113.525 1.49632 114.14 1.59716C114.721 1.69585 115.284 1.88049 115.811 2.14502C116.848 2.67986 117.693 3.52604 118.226 4.56495C118.486 5.08445 118.667 5.64038 118.761 6.21386C118.865 6.83787 118.923 7.46861 118.935 8.10108C118.938 8.38427 118.938 8.68847 118.938 8.99121C118.945 9.36621 118.945 9.72314 118.945 10.083V31.0117C118.945 31.375 118.945 31.7295 118.938 32.0869C118.938 32.4121 118.938 32.71 118.934 33.0166C118.922 33.6377 118.865 34.2572 118.763 34.8701C118.669 35.4511 118.487 36.0144 118.223 36.5401C117.959 37.0525 117.616 37.5201 117.207 37.9258C116.799 38.3396 116.326 38.6848 115.808 38.9483C115.282 39.2143 114.72 39.3996 114.14 39.4981C113.522 39.599 112.897 39.6536 112.271 39.6612C111.978 39.668 111.671 39.6719 111.373 39.6719L110.289 39.6739L8.59916 39.6719Z" fill="black"/>
<path d="M24.9262 20.8474C24.937 20.0128 25.1587 19.1944 25.5707 18.4685C25.9827 17.7425 26.5717 17.1326 27.2828 16.6954C26.831 16.0502 26.2351 15.5193 25.5423 15.1447C24.8494 14.7702 24.0788 14.5623 23.2916 14.5377C21.6124 14.3614 19.9844 15.5425 19.1287 15.5425C18.2564 15.5425 16.9389 14.5552 15.5202 14.5844C14.6025 14.614 13.7082 14.8809 12.9243 15.359C12.1404 15.837 11.4938 16.51 11.0473 17.3123C9.1133 20.6607 10.5559 25.5817 12.4085 28.2883C13.3354 29.6137 14.4187 31.0941 15.8361 31.0416C17.2232 30.9841 17.7412 30.1572 19.4155 30.1572C21.0743 30.1572 21.5603 31.0416 23.0065 31.0083C24.4949 30.9841 25.4327 29.677 26.327 28.3391C26.993 27.3948 27.5055 26.351 27.8455 25.2466C26.9808 24.8809 26.2428 24.2687 25.7237 23.4864C25.2046 22.7041 24.9272 21.7863 24.9262 20.8474Z" fill="white"/>
<path d="M22.1958 12.7577C23.0073 11.7835 23.4071 10.5313 23.3103 9.26709C22.0705 9.39731 20.9252 9.98987 20.1027 10.9267C19.7006 11.3844 19.3926 11.9168 19.1963 12.4936C19.0001 13.0703 18.9194 13.6801 18.959 14.2881C19.5791 14.2945 20.1926 14.1601 20.7533 13.895C21.314 13.6299 21.8072 13.241 22.1958 12.7577Z" fill="white"/>
<path d="M42.4609 27.6864H37.7275L36.5908 31.0429H34.5859L39.0693 18.6249H41.1523L45.6357 31.0429H43.5967L42.4609 27.6864ZM38.2178 26.1376H41.9698L40.1202 20.6903H40.0684L38.2178 26.1376Z" fill="white"/>
<path d="M55.3174 26.5166C55.3174 29.3301 53.8116 31.1377 51.5391 31.1377C50.9634 31.1678 50.3909 31.0352 49.8871 30.755C49.3834 30.4749 48.9686 30.0585 48.6905 29.5537H48.6475V34.038H46.7891V21.9892H48.5879V23.4951H48.6221C48.9131 22.9926 49.3348 22.5784 49.8424 22.2966C50.35 22.0147 50.9246 21.8758 51.5049 21.8945C53.8027 21.8945 55.3174 23.7109 55.3174 26.5166ZM53.4073 26.5166C53.4073 24.6836 52.46 23.4785 51.0147 23.4785C49.5948 23.4785 48.6397 24.709 48.6397 26.5166C48.6397 28.3408 49.5948 29.5625 51.0147 29.5625C52.46 29.5625 53.4073 28.3662 53.4073 26.5166Z" fill="white"/>
<path d="M65.2823 26.5166C65.2823 29.33 63.7764 31.1377 61.5039 31.1377C60.9283 31.1678 60.3558 31.0352 59.852 30.755C59.3482 30.4749 58.9335 30.0585 58.6553 29.5537H58.6123V34.038H56.7539V21.9892H58.5527V23.4951H58.5869C58.8779 22.9926 59.2996 22.5784 59.8072 22.2966C60.3149 22.0147 60.8894 21.8758 61.4697 21.8945C63.7676 21.8945 65.2823 23.7109 65.2823 26.5166ZM63.3721 26.5166C63.3721 24.6836 62.4248 23.4785 60.9795 23.4785C59.5596 23.4785 58.6045 24.7089 58.6045 26.5166C58.6045 28.3408 59.5596 29.5625 60.9795 29.5625C62.4248 29.5625 63.3721 28.3662 63.3721 26.5166Z" fill="white"/>
<path d="M71.8672 27.5829C72.0049 28.8144 73.2012 29.6229 74.836 29.6229C76.4024 29.6229 77.5293 28.8143 77.5293 27.704C77.5293 26.7401 76.8496 26.163 75.2403 25.7675L73.6309 25.3798C71.3506 24.829 70.292 23.7626 70.292 22.0321C70.292 19.8895 72.1592 18.4178 74.8106 18.4178C77.4346 18.4178 79.2334 19.8895 79.294 22.0321H77.418C77.3057 20.7928 76.2813 20.0448 74.7842 20.0448C73.2871 20.0448 72.2627 20.8016 72.2627 21.9032C72.2627 22.7811 72.917 23.2977 74.5176 23.6932L75.8857 24.0291C78.4336 24.6317 79.4922 25.6551 79.4922 27.4715C79.4922 29.7948 77.6416 31.2498 74.6982 31.2498C71.9443 31.2498 70.085 29.8289 69.9648 27.5828L71.8672 27.5829Z" fill="white"/>
<path d="M83.5039 19.8466V21.9891H85.2256V23.4608H83.5039V28.452C83.5039 29.2274 83.8486 29.5887 84.6055 29.5887C84.8099 29.5852 85.0139 29.5708 85.2168 29.5457V31.0086C84.8765 31.0722 84.5307 31.101 84.1846 31.0946C82.3516 31.0946 81.6367 30.4061 81.6367 28.6502V23.4608H80.3203V21.9891H81.6367V19.8466H83.5039Z" fill="white"/>
<path d="M86.2227 26.5165C86.2227 23.6678 87.9004 21.8778 90.5166 21.8778C93.1416 21.8778 94.8115 23.6678 94.8115 26.5165C94.8115 29.3729 93.1504 31.1551 90.5166 31.1551C87.8837 31.1551 86.2227 29.3729 86.2227 26.5165ZM92.918 26.5165C92.918 24.5624 92.0225 23.4091 90.5166 23.4091C89.0107 23.4091 88.1162 24.5712 88.1162 26.5165C88.1162 28.4784 89.0107 29.6229 90.5166 29.6229C92.0225 29.6229 92.918 28.4784 92.918 26.5165Z" fill="white"/>
<path d="M96.3438 21.9891H98.1162V23.5301H98.1592C98.2791 23.0489 98.5611 22.6235 98.9577 22.3256C99.3543 22.0277 99.8413 21.8755 100.337 21.8944C100.551 21.8936 100.765 21.9169 100.974 21.9637V23.702C100.703 23.6194 100.421 23.5815 100.139 23.5897C99.8687 23.5788 99.5995 23.6264 99.3497 23.7293C99.0999 23.8321 98.8752 23.9879 98.6913 24.1858C98.5073 24.3837 98.3683 24.619 98.2839 24.8757C98.1995 25.1324 98.1716 25.4043 98.2021 25.6727V31.0428H96.3438L96.3438 21.9891Z" fill="white"/>
<path d="M109.542 28.3837C109.292 30.0272 107.691 31.1551 105.644 31.1551C103.01 31.1551 101.375 29.3905 101.375 26.5594C101.375 23.7196 103.019 21.8778 105.565 21.8778C108.07 21.8778 109.646 23.5985 109.646 26.3436V26.9803H103.251V27.0926C103.221 27.4258 103.263 27.7615 103.373 28.0774C103.484 28.3932 103.66 28.682 103.89 28.9245C104.12 29.1671 104.4 29.3578 104.709 29.4841C105.019 29.6104 105.352 29.6694 105.687 29.6571C106.126 29.6982 106.566 29.5965 106.943 29.3671C107.32 29.1377 107.612 28.7927 107.777 28.3837L109.542 28.3837ZM103.26 25.6815H107.786C107.803 25.3819 107.757 25.0821 107.653 24.8009C107.548 24.5197 107.386 24.2632 107.178 24.0474C106.969 23.8316 106.718 23.6613 106.441 23.5471C106.164 23.4329 105.865 23.3772 105.565 23.3837C105.263 23.3819 104.963 23.44 104.683 23.5547C104.403 23.6695 104.148 23.8386 103.934 24.0522C103.719 24.2658 103.55 24.5198 103.434 24.7994C103.318 25.0791 103.259 25.3789 103.26 25.6815Z" fill="white"/>
<path d="M39.5498 15.2446H35.8281V9.27783H36.7549V14.3925H39.5498V15.2446Z" fill="white"/>
<path d="M40.4844 13.9712C40.4844 13.1606 41.0879 12.6934 42.1592 12.6269L43.3789 12.5566V12.168C43.3789 11.6924 43.0645 11.4238 42.457 11.4238C41.9609 11.4238 41.6172 11.606 41.5186 11.9243H40.6582C40.749 11.1509 41.4766 10.6548 42.498 10.6548C43.627 10.6548 44.2637 11.2168 44.2637 12.168V15.2446H43.4082V14.6118H43.3379C43.1952 14.8388 42.9948 15.0239 42.7572 15.1481C42.5195 15.2723 42.2532 15.3312 41.9854 15.3188C41.7963 15.3385 41.6053 15.3183 41.4245 15.2596C41.2437 15.2009 41.0773 15.105 40.9359 14.978C40.7945 14.851 40.6812 14.6959 40.6034 14.5224C40.5257 14.349 40.4851 14.1612 40.4844 13.9712ZM43.3789 13.5864V13.21L42.2793 13.2803C41.6591 13.3218 41.3779 13.5327 41.3779 13.9297C41.3779 14.3349 41.7294 14.5708 42.2129 14.5708C42.3545 14.5851 42.4976 14.5708 42.6336 14.5287C42.7696 14.4867 42.8958 14.4176 43.0046 14.3258C43.1134 14.234 43.2026 14.1212 43.2669 13.9941C43.3312 13.8671 43.3693 13.7285 43.3789 13.5864Z" fill="white"/>
<path d="M45.4336 12.9912C45.4336 11.5684 46.165 10.667 47.3027 10.667C47.5842 10.654 47.8634 10.7214 48.108 10.8613C48.3525 11.0012 48.5521 11.2078 48.6836 11.457H48.75V8.98389H49.6387V15.2446H48.7871V14.5332H48.7168C48.5752 14.7807 48.3686 14.9847 48.1193 15.1232C47.8701 15.2617 47.5877 15.3293 47.3027 15.3188C46.1572 15.3189 45.4336 14.4175 45.4336 12.9912ZM46.3516 12.9912C46.3516 13.9463 46.8018 14.521 47.5547 14.521C48.3037 14.521 48.7666 13.938 48.7666 12.9951C48.7666 12.0567 48.2989 11.4653 47.5547 11.4653C46.8066 11.4653 46.3516 12.044 46.3516 12.9912Z" fill="white"/>
<path d="M54.9059 14.0288C54.7852 14.4403 54.5236 14.7963 54.1669 15.0344C53.8102 15.2726 53.3811 15.3777 52.9548 15.3315C52.6581 15.3393 52.3633 15.2825 52.0908 15.165C51.8183 15.0474 51.5746 14.872 51.3767 14.6509C51.1788 14.4297 51.0314 14.1682 50.9447 13.8844C50.858 13.6005 50.8341 13.3012 50.8747 13.0073C50.8352 12.7124 50.8595 12.4125 50.946 12.1278C51.0325 11.8431 51.1791 11.5803 51.376 11.3573C51.5728 11.1342 51.8153 10.956 52.087 10.8348C52.3587 10.7136 52.6533 10.6522 52.9508 10.6547C54.2038 10.6547 54.9596 11.5107 54.9596 12.9247V13.2348H51.7799V13.2846C51.766 13.4499 51.7868 13.6162 51.8409 13.773C51.895 13.9297 51.9813 14.0734 52.0942 14.1949C52.2071 14.3163 52.3442 14.4128 52.4966 14.4782C52.649 14.5436 52.8133 14.5765 52.9792 14.5746C53.1917 14.6001 53.4071 14.5619 53.5979 14.4647C53.7886 14.3675 53.9462 14.2157 54.0505 14.0287L54.9059 14.0288ZM51.7799 12.5776H54.0543C54.0655 12.4265 54.045 12.2747 53.994 12.1319C53.9431 11.9892 53.8628 11.8587 53.7585 11.7489C53.6541 11.639 53.5279 11.5522 53.3879 11.494C53.248 11.4359 53.0974 11.4076 52.9459 11.4111C52.7922 11.4092 52.6397 11.438 52.4973 11.496C52.355 11.5539 52.2256 11.6398 52.117 11.7485C52.0083 11.8572 51.9225 11.9866 51.8646 12.129C51.8067 12.2713 51.7779 12.4239 51.7799 12.5776Z" fill="white"/>
<path d="M56.1524 10.7416H57.0079V11.457H57.0742C57.1869 11.2 57.3769 10.9847 57.6178 10.8409C57.8586 10.697 58.1384 10.632 58.418 10.6547C58.6371 10.6382 58.8571 10.6713 59.0617 10.7514C59.2663 10.8315 59.4502 10.9566 59.5999 11.1174C59.7496 11.2782 59.8612 11.4707 59.9264 11.6805C59.9916 11.8903 60.0087 12.1121 59.9766 12.3295V15.2445H59.0879V12.5527C59.0879 11.829 58.7734 11.4692 58.1162 11.4692C57.9675 11.4622 57.819 11.4876 57.6809 11.5434C57.5428 11.5992 57.4185 11.6842 57.3164 11.7926C57.2142 11.901 57.1368 12.0302 57.0892 12.1713C57.0417 12.3124 57.0253 12.4622 57.041 12.6103V15.2446H56.1523L56.1524 10.7416Z" fill="white"/>
<path d="M63.6768 9.41011C63.6699 9.29501 63.6978 9.18051 63.7568 9.08142C63.8158 8.98234 63.9031 8.90326 64.0076 8.8544C64.112 8.80555 64.2287 8.78918 64.3426 8.80742C64.4564 8.82566 64.5622 8.87767 64.6461 8.9567C64.7301 9.03574 64.7884 9.13816 64.8134 9.25071C64.8385 9.36325 64.8292 9.48073 64.7868 9.58793C64.7443 9.69513 64.6706 9.78711 64.5753 9.85195C64.4799 9.91679 64.3673 9.95151 64.252 9.95161C64.1783 9.95537 64.1046 9.94419 64.0353 9.91873C63.9661 9.89328 63.9027 9.85409 63.8489 9.80351C63.7952 9.75292 63.7523 9.692 63.7227 9.62439C63.6931 9.55679 63.6775 9.4839 63.6768 9.41011ZM63.8096 10.7417H64.6944V15.2446H63.8096V10.7417Z" fill="white"/>
<path d="M66.1289 10.7417H66.9844V11.4653H67.0508C67.1579 11.224 67.3326 11.0191 67.5539 10.8752C67.7752 10.7313 68.0334 10.6547 68.2974 10.6547C68.5613 10.6547 68.8196 10.7313 69.0408 10.8752C69.2621 11.0191 69.4369 11.224 69.544 11.4653H69.6143C69.74 11.2125 69.9361 11.0015 70.179 10.8577C70.422 10.7138 70.7013 10.6434 70.9834 10.6547C71.1807 10.6386 71.3792 10.6664 71.5645 10.7362C71.7498 10.806 71.9172 10.9161 72.0548 11.0585C72.1924 11.2008 72.2967 11.372 72.3602 11.5595C72.4237 11.747 72.4447 11.9463 72.4219 12.143V15.2446H71.5332V12.375C71.5332 11.7671 71.2432 11.4692 70.6602 11.4692C70.5346 11.4638 70.4093 11.4845 70.292 11.5298C70.1748 11.5752 70.0682 11.6443 69.979 11.7329C69.8897 11.8214 69.8198 11.9275 69.7735 12.0444C69.7272 12.1612 69.7056 12.2864 69.71 12.4121V15.2446H68.837V12.288C68.8426 12.1747 68.8236 12.0616 68.7812 11.9564C68.7389 11.8511 68.6742 11.7563 68.5917 11.6785C68.5092 11.6007 68.4108 11.5416 68.3032 11.5055C68.1957 11.4694 68.0816 11.457 67.9688 11.4692C67.8385 11.4713 67.71 11.4998 67.591 11.5527C67.4719 11.6057 67.3647 11.6822 67.2759 11.7776C67.1871 11.8729 67.1185 11.9853 67.0741 12.1078C67.0297 12.2303 67.0105 12.3605 67.0177 12.4907V15.2446H66.129L66.1289 10.7417Z" fill="white"/>
</g>
<defs>
<clipPath id="clip0_36494_74295">
<rect width="119.664" height="40" fill="white" transform="translate(0.15625 0.546875)"/>
</clipPath>
</defs>
</svg>
