<svg width="136" height="41" viewBox="0 0 136 41" fill="none" xmlns="http://www.w3.org/2000/svg">
<path d="M130.145 40.2266H5.14453C2.34453 40.2266 0.144531 38.0266 0.144531 35.2266V5.22656C0.144531 2.42656 2.34453 0.226562 5.14453 0.226562H130.145C132.945 0.226562 135.145 2.42656 135.145 5.22656V35.2266C135.145 37.9266 132.945 40.2266 130.145 40.2266Z" fill="black"/>
<path d="M130.145 1.02656C132.445 1.02656 134.345 2.92656 134.345 5.22656V35.2266C134.345 37.5266 132.445 39.4266 130.145 39.4266H5.14453C2.84453 39.4266 0.94453 37.5266 0.94453 35.2266V5.22656C0.94453 2.92656 2.84453 1.02656 5.14453 1.02656H130.145ZM130.145 0.226562H5.14453C2.34453 0.226562 0.144531 2.42656 0.144531 5.22656V35.2266C0.144531 38.0266 2.34453 40.2266 5.14453 40.2266H130.145C132.945 40.2266 135.145 38.0266 135.145 35.2266V5.22656C135.145 2.52656 132.945 0.226562 130.145 0.226562Z" fill="#A7A6A6"/>
<path d="M68.2461 22.0265C65.8461 22.0265 63.9461 23.8265 63.9461 26.3265C63.9461 28.7265 65.8461 30.6265 68.2461 30.6265C70.6461 30.6265 72.5461 28.8265 72.5461 26.3265C72.5461 23.7265 70.6461 22.0265 68.2461 22.0265ZM68.2461 28.8265C66.9461 28.8265 65.8461 27.7265 65.8461 26.2265C65.8461 24.7265 66.9461 23.6265 68.2461 23.6265C69.5461 23.6265 70.6461 24.6265 70.6461 26.2265C70.6461 27.7265 69.5461 28.8265 68.2461 28.8265ZM58.9461 22.0265C56.5461 22.0265 54.6461 23.8265 54.6461 26.3265C54.6461 28.7265 56.5461 30.6265 58.9461 30.6265C61.3461 30.6265 63.2461 28.8265 63.2461 26.3265C63.2461 23.7265 61.3461 22.0265 58.9461 22.0265ZM58.9461 28.8265C57.6461 28.8265 56.5461 27.7265 56.5461 26.2265C56.5461 24.7265 57.6461 23.6265 58.9461 23.6265C60.2461 23.6265 61.3461 24.6265 61.3461 26.2265C61.3461 27.7265 60.2461 28.8265 58.9461 28.8265ZM47.8461 23.3265V25.1265H52.1461C52.0461 26.1265 51.6461 26.9265 51.1461 27.4265C50.5461 28.0265 49.5461 28.7265 47.8461 28.7265C45.1461 28.7265 43.1461 26.6265 43.1461 23.9265C43.1461 21.2265 45.2461 19.1265 47.8461 19.1265C49.2461 19.1265 50.3461 19.7265 51.1461 20.4265L52.4461 19.1265C51.3461 18.1265 49.9461 17.3265 47.9461 17.3265C44.3461 17.3265 41.2461 20.3265 41.2461 23.9265C41.2461 27.5265 44.3461 30.5265 47.9461 30.5265C49.9461 30.5265 51.3461 29.9265 52.5461 28.6265C53.7461 27.4265 54.1461 25.7265 54.1461 24.4265C54.1461 24.0265 54.1461 23.6265 54.0461 23.3265H47.8461ZM93.2461 24.7265C92.8461 23.7265 91.8461 22.0265 89.6461 22.0265C87.4461 22.0265 85.6461 23.7265 85.6461 26.3265C85.6461 28.7265 87.4461 30.6265 89.8461 30.6265C91.7461 30.6265 92.9461 29.4265 93.3461 28.7265L91.9461 27.7265C91.4461 28.4265 90.8461 28.9265 89.8461 28.9265C88.8461 28.9265 88.2461 28.5265 87.7461 27.6265L93.4461 25.2265L93.2461 24.7265ZM87.4461 26.1265C87.4461 24.5265 88.7461 23.6265 89.6461 23.6265C90.3461 23.6265 91.0461 24.0265 91.2461 24.5265L87.4461 26.1265ZM82.7461 30.2265H84.6461V17.7265H82.7461V30.2265ZM79.7461 22.9265C79.2461 22.4265 78.4461 21.9265 77.4461 21.9265C75.3461 21.9265 73.3461 23.8265 73.3461 26.2265C73.3461 28.6265 75.2461 30.4265 77.4461 30.4265C78.4461 30.4265 79.2461 29.9265 79.6461 29.4265H79.7461V30.0265C79.7461 31.6265 78.8461 32.5265 77.4461 32.5265C76.3461 32.5265 75.5461 31.7265 75.3461 31.0265L73.7461 31.7265C74.2461 32.8265 75.4461 34.2265 77.5461 34.2265C79.7461 34.2265 81.5461 32.9265 81.5461 29.8265V22.2265H79.7461V22.9265ZM77.5461 28.8265C76.2461 28.8265 75.1461 27.7265 75.1461 26.2265C75.1461 24.7265 76.2461 23.6265 77.5461 23.6265C78.8461 23.6265 79.8461 24.7265 79.8461 26.2265C79.8461 27.7265 78.8461 28.8265 77.5461 28.8265ZM101.946 17.7265H97.4461V30.2265H99.3461V25.5265H101.946C104.046 25.5265 106.046 24.0265 106.046 21.6265C106.046 19.2265 104.046 17.7265 101.946 17.7265ZM102.046 23.7265H99.3461V19.4265H102.046C103.446 19.4265 104.246 20.6265 104.246 21.5265C104.146 22.6265 103.346 23.7265 102.046 23.7265ZM113.546 21.9265C112.146 21.9265 110.746 22.5265 110.246 23.8265L111.946 24.5265C112.346 23.8265 112.946 23.6265 113.646 23.6265C114.646 23.6265 115.546 24.2265 115.646 25.2265V25.3265C115.346 25.1265 114.546 24.8265 113.746 24.8265C111.946 24.8265 110.146 25.8265 110.146 27.6265C110.146 29.3265 111.646 30.4265 113.246 30.4265C114.546 30.4265 115.146 29.8265 115.646 29.2265H115.746V30.2265H117.546V25.4265C117.346 23.2265 115.646 21.9265 113.546 21.9265ZM113.346 28.8265C112.746 28.8265 111.846 28.5265 111.846 27.7265C111.846 26.7265 112.946 26.4265 113.846 26.4265C114.646 26.4265 115.046 26.6265 115.546 26.8265C115.346 28.0265 114.346 28.8265 113.346 28.8265ZM123.846 22.2265L121.746 27.6265H121.646L119.446 22.2265H117.446L120.746 29.8265L118.846 34.0265H120.746L125.846 22.2265H123.846ZM107.046 30.2265H108.946V17.7265H107.046V30.2265Z" fill="white"/>
<path d="M10.5445 7.72656C10.2445 8.12656 10.1445 8.52656 10.1445 9.22656V31.2266C10.1445 31.8266 10.3445 32.3266 10.6445 32.6266L10.7445 32.7266L23.1445 20.3266V20.2266V20.1266L10.5445 7.72656Z" fill="#5BC9F4"/>
<path d="M27.143 24.5266L23.043 20.4266V20.2266V20.1266L27.143 16.0266L27.243 16.1266L32.143 18.9266C33.543 19.7266 33.543 21.0266 32.143 21.8266L27.143 24.5266Z" fill="url(#paint0_linear_36366_137668)"/>
<path d="M27.243 24.4266L23.043 20.2266L10.543 32.7266C11.043 33.2266 11.743 33.2266 12.643 32.8266L27.243 24.4266Z" fill="url(#paint1_linear_36366_137668)"/>
<path d="M27.243 16.0266L12.643 7.72655C11.743 7.22655 11.043 7.32655 10.543 7.82655L23.043 20.2266L27.243 16.0266Z" fill="url(#paint2_linear_36366_137668)"/>
<path d="M43.1438 13.3266C42.7438 13.3266 42.3438 13.2266 42.0438 12.9266C41.7438 12.7266 41.5438 12.3266 41.3438 11.9266L42.0438 11.6266C42.2438 12.2266 42.5438 12.5266 43.1438 12.5266C43.5438 12.5266 43.7438 12.4266 43.9438 12.2266C44.1438 12.0266 44.2438 11.7266 44.2438 11.3266V7.22656H45.0438V11.3266C45.0438 12.0266 44.8438 12.5266 44.5438 12.8266C44.1438 13.2266 43.7438 13.3266 43.1438 13.3266Z" fill="white" stroke="white" stroke-width="0.2" stroke-miterlimit="10"/>
<path d="M49.8438 7.92656H47.1438V9.82656H49.6438V10.5266H47.1438V12.4266H49.8438V13.2266H46.3438V7.22656H49.8438V7.92656Z" fill="white" stroke="white" stroke-width="0.2" stroke-miterlimit="10"/>
<path d="M53.1445 13.2266H52.3445V7.92656H50.6445V7.22656H54.7445V7.92656H53.1445V13.2266Z" fill="white" stroke="white" stroke-width="0.2" stroke-miterlimit="10"/>
<path d="M55.4453 13.2266V12.4266L58.6453 7.92656H55.5453V7.22656H59.5453V8.02656L56.3453 12.5266H59.5453V13.2266H55.4453Z" fill="white" stroke="white" stroke-width="0.2" stroke-miterlimit="10"/>
<path d="M62.6445 13.2266H61.8445V7.92656H60.1445V7.22656H64.2445V7.92656H62.5445V13.2266H62.6445Z" fill="white" stroke="white" stroke-width="0.2" stroke-miterlimit="10"/>
<path d="M67.3438 13.2266V7.22656H69.5438C70.0438 7.22656 70.4438 7.42656 70.7438 7.72656C71.0438 8.02656 71.2438 8.42656 71.2438 8.92656C71.2438 9.22656 71.1438 9.42656 71.0438 9.72656C70.9438 9.92656 70.7438 10.1266 70.4438 10.2266C70.7438 10.3266 70.9438 10.5266 71.1438 10.7266C71.3438 10.9266 71.4438 11.2266 71.4438 11.6266C71.4438 12.1266 71.2438 12.5266 70.9438 12.8266C70.5438 13.0266 70.1438 13.2266 69.6438 13.2266H67.3438ZM68.1438 9.82656H69.5438C69.8438 9.82656 70.0438 9.72656 70.2438 9.52656C70.4438 9.32656 70.5438 9.12656 70.5438 8.92656C70.5438 8.72656 70.4438 8.52656 70.2438 8.32656C70.0438 8.12656 69.8438 8.02656 69.5438 8.02656H68.1438V9.82656ZM68.1438 12.5266H69.7438C70.0438 12.5266 70.2438 12.4266 70.4438 12.2266C70.6438 12.0266 70.7438 11.8266 70.7438 11.5266C70.7438 11.3266 70.6438 11.0266 70.4438 10.8266C70.2438 10.6266 70.0438 10.5266 69.7438 10.5266H68.1438V12.5266Z" fill="white" stroke="white" stroke-width="0.2" stroke-miterlimit="10"/>
<path d="M76.043 7.92656H73.343V9.82656H75.843V10.5266H73.343V12.4266H76.043V13.2266H72.543V7.22656H76.043V7.92656Z" fill="white" stroke="white" stroke-width="0.2" stroke-miterlimit="10"/>
<path d="M77.2422 13.2266V7.22656H78.0422V13.2266H77.2422Z" fill="white" stroke="white" stroke-width="0.2" stroke-miterlimit="10"/>
<defs>
<linearGradient id="paint0_linear_36366_137668" x1="31.2318" y1="20.2269" x2="7.05497" y2="20.2269" gradientUnits="userSpaceOnUse">
<stop stop-color="#FEE000"/>
<stop offset="0.1941" stop-color="#FCCF0B"/>
<stop offset="0.5469" stop-color="#FAB318"/>
<stop offset="0.8279" stop-color="#F9A21B"/>
<stop offset="1" stop-color="#F99B1C"/>
</linearGradient>
<linearGradient id="paint1_linear_36366_137668" x1="24.9576" y1="22.5197" x2="2.21807" y2="45.2592" gradientUnits="userSpaceOnUse">
<stop stop-color="#EF4547"/>
<stop offset="1" stop-color="#C6186D"/>
</linearGradient>
<linearGradient id="paint2_linear_36366_137668" x1="2.11677" y1="-4.90755" x2="20.683" y2="13.6586" gradientUnits="userSpaceOnUse">
<stop stop-color="#279E6F"/>
<stop offset="0.3168" stop-color="#4DAB6D"/>
<stop offset="0.7398" stop-color="#6ABA6A"/>
<stop offset="1" stop-color="#74C169"/>
</linearGradient>
</defs>
</svg>
