<svg width="136" height="41" viewBox="0 0 136 41" fill="none" xmlns="http://www.w3.org/2000/svg">
<path d="M130.844 40.2939H5.84375C3.04375 40.2939 0.84375 38.0939 0.84375 35.2939V5.29395C0.84375 2.49395 3.04375 0.293945 5.84375 0.293945H130.844C133.644 0.293945 135.844 2.49395 135.844 5.29395V35.2939C135.844 37.9939 133.644 40.2939 130.844 40.2939Z" fill="black"/>
<path d="M130.844 1.09394C133.144 1.09394 135.044 2.99395 135.044 5.29395V35.2939C135.044 37.5939 133.144 39.4939 130.844 39.4939H5.84375C3.54375 39.4939 1.64375 37.5939 1.64375 35.2939V5.29395C1.64375 2.99395 3.54375 1.09394 5.84375 1.09394H130.844ZM130.844 0.293945H5.84375C3.04375 0.293945 0.84375 2.49395 0.84375 5.29395V35.2939C0.84375 38.0939 3.04375 40.2939 5.84375 40.2939H130.844C133.644 40.2939 135.844 38.0939 135.844 35.2939V5.29395C135.844 2.59395 133.644 0.293945 130.844 0.293945Z" fill="#A7A6A6"/>
<path d="M68.9453 22.094C66.5453 22.094 64.6453 23.894 64.6453 26.394C64.6453 28.794 66.5453 30.694 68.9453 30.694C71.3453 30.694 73.2453 28.894 73.2453 26.394C73.2453 23.794 71.3453 22.094 68.9453 22.094ZM68.9453 28.894C67.6453 28.894 66.5453 27.794 66.5453 26.294C66.5453 24.794 67.6453 23.694 68.9453 23.694C70.2453 23.694 71.3453 24.694 71.3453 26.294C71.3453 27.794 70.2453 28.894 68.9453 28.894ZM59.6453 22.094C57.2453 22.094 55.3453 23.894 55.3453 26.394C55.3453 28.794 57.2453 30.694 59.6453 30.694C62.0453 30.694 63.9453 28.894 63.9453 26.394C63.9453 23.794 62.0453 22.094 59.6453 22.094ZM59.6453 28.894C58.3453 28.894 57.2453 27.794 57.2453 26.294C57.2453 24.794 58.3453 23.694 59.6453 23.694C60.9453 23.694 62.0453 24.694 62.0453 26.294C62.0453 27.794 60.9453 28.894 59.6453 28.894ZM48.5453 23.394V25.194H52.8453C52.7453 26.194 52.3453 26.994 51.8453 27.494C51.2453 28.094 50.2453 28.794 48.5453 28.794C45.8453 28.794 43.8453 26.694 43.8453 23.994C43.8453 21.294 45.9453 19.194 48.5453 19.194C49.9453 19.194 51.0453 19.794 51.8453 20.494L53.1453 19.194C52.0453 18.194 50.6453 17.394 48.6453 17.394C45.0453 17.394 41.9453 20.394 41.9453 23.994C41.9453 27.594 45.0453 30.594 48.6453 30.594C50.6453 30.594 52.0453 29.994 53.2453 28.694C54.4453 27.494 54.8453 25.794 54.8453 24.494C54.8453 24.094 54.8453 23.694 54.7453 23.394H48.5453ZM93.9453 24.794C93.5453 23.794 92.5453 22.094 90.3453 22.094C88.1453 22.094 86.3453 23.794 86.3453 26.394C86.3453 28.794 88.1453 30.694 90.5453 30.694C92.4453 30.694 93.6453 29.494 94.0453 28.794L92.6453 27.794C92.1453 28.494 91.5453 28.994 90.5453 28.994C89.5453 28.994 88.9453 28.594 88.4453 27.694L94.1453 25.294L93.9453 24.794ZM88.1453 26.194C88.1453 24.594 89.4453 23.694 90.3453 23.694C91.0453 23.694 91.7453 24.094 91.9453 24.594L88.1453 26.194ZM83.4453 30.294H85.3453V17.794H83.4453V30.294ZM80.4453 22.994C79.9453 22.494 79.1453 21.994 78.1453 21.994C76.0453 21.994 74.0453 23.894 74.0453 26.294C74.0453 28.694 75.9453 30.494 78.1453 30.494C79.1453 30.494 79.9453 29.994 80.3453 29.494H80.4453V30.094C80.4453 31.694 79.5453 32.594 78.1453 32.594C77.0453 32.594 76.2453 31.794 76.0453 31.094L74.4453 31.794C74.9453 32.894 76.1453 34.294 78.2453 34.294C80.4453 34.294 82.2453 32.994 82.2453 29.894V22.294H80.4453V22.994ZM78.2453 28.894C76.9453 28.894 75.8453 27.794 75.8453 26.294C75.8453 24.794 76.9453 23.694 78.2453 23.694C79.5453 23.694 80.5453 24.794 80.5453 26.294C80.5453 27.794 79.5453 28.894 78.2453 28.894ZM102.645 17.794H98.1453V30.294H100.045V25.594H102.645C104.745 25.594 106.745 24.094 106.745 21.694C106.745 19.294 104.745 17.794 102.645 17.794ZM102.745 23.794H100.045V19.494H102.745C104.145 19.494 104.945 20.694 104.945 21.594C104.845 22.694 104.045 23.794 102.745 23.794ZM114.245 21.994C112.845 21.994 111.445 22.594 110.945 23.894L112.645 24.594C113.045 23.894 113.645 23.694 114.345 23.694C115.345 23.694 116.245 24.294 116.345 25.294V25.394C116.045 25.194 115.245 24.894 114.445 24.894C112.645 24.894 110.845 25.894 110.845 27.694C110.845 29.394 112.345 30.494 113.945 30.494C115.245 30.494 115.845 29.894 116.345 29.294H116.445V30.294H118.245V25.494C118.045 23.294 116.345 21.994 114.245 21.994ZM114.045 28.894C113.445 28.894 112.545 28.594 112.545 27.794C112.545 26.794 113.645 26.494 114.545 26.494C115.345 26.494 115.745 26.694 116.245 26.894C116.045 28.094 115.045 28.894 114.045 28.894ZM124.545 22.294L122.445 27.694H122.345L120.145 22.294H118.145L121.445 29.894L119.545 34.094H121.445L126.545 22.294H124.545ZM107.745 30.294H109.645V17.794H107.745V30.294Z" fill="white"/>
<path d="M11.2438 7.79395C10.9438 8.19395 10.8438 8.59395 10.8438 9.29395V31.2939C10.8438 31.8939 11.0437 32.3939 11.3438 32.6939L11.4437 32.7939L23.8438 20.3939V20.2939V20.1939L11.2438 7.79395Z" fill="#5BC9F4"/>
<path d="M27.8422 24.594L23.7422 20.494V20.294V20.194L27.8422 16.094L27.9422 16.194L32.8422 18.994C34.2422 19.794 34.2422 21.094 32.8422 21.894L27.8422 24.594Z" fill="url(#paint0_linear_36366_137669)"/>
<path d="M27.9422 24.4939L23.7422 20.2939L11.2422 32.7939C11.7422 33.2939 12.4422 33.2939 13.3422 32.8939L27.9422 24.4939Z" fill="url(#paint1_linear_36366_137669)"/>
<path d="M27.9422 16.0941L13.3422 7.79406C12.4422 7.29406 11.7422 7.39406 11.2422 7.89406L23.7422 20.2941L27.9422 16.0941Z" fill="url(#paint2_linear_36366_137669)"/>
<path d="M42.1445 13.2939V7.29395H43.9445C44.8445 7.29395 45.6445 7.59394 46.1445 8.09394C46.7445 8.69394 46.9445 9.39395 46.9445 10.2939C46.9445 11.1939 46.6445 11.8939 46.1445 12.4939C45.6445 12.9939 44.8445 13.2939 43.9445 13.2939H42.1445ZM42.9445 12.5939H44.0445C44.7445 12.5939 45.2445 12.3939 45.6445 11.9939C46.0445 11.5939 46.2445 10.9939 46.2445 10.2939C46.2445 9.59395 46.0445 8.99394 45.6445 8.59394C45.2445 8.19394 44.6445 7.99395 44.0445 7.99395H42.9445V12.5939Z" fill="white" stroke="white" stroke-width="0.2" stroke-miterlimit="10"/>
<path d="M48.043 13.2939V7.29395H48.843V13.2939H48.043Z" fill="white" stroke="white" stroke-width="0.2" stroke-miterlimit="10"/>
<path d="M51.9437 13.394C51.5437 13.394 51.0438 13.294 50.6438 12.994C50.2438 12.694 49.9438 12.294 49.8438 11.794L50.5437 11.494C50.6437 11.794 50.8437 12.094 51.0437 12.294C51.3437 12.494 51.6437 12.594 51.9437 12.594C52.2437 12.594 52.5438 12.494 52.8438 12.294C53.0438 12.094 53.2438 11.894 53.2438 11.594C53.2438 11.294 53.1437 10.994 52.8438 10.794C52.6437 10.594 52.2438 10.394 51.7438 10.294C51.2438 10.094 50.8437 9.894 50.5437 9.694C50.2437 9.394 50.1438 9.094 50.1438 8.694C50.1438 8.294 50.3438 7.89399 50.6438 7.59399C50.9438 7.29399 51.4437 7.09399 51.9437 7.09399C52.4437 7.09399 52.8438 7.194 53.1438 7.494C53.4438 7.794 53.6438 7.99399 53.7438 8.29399L53.0437 8.59399C52.9437 8.39399 52.8438 8.19399 52.6438 8.09399C52.4438 7.89399 52.1437 7.89399 51.8438 7.89399C51.5438 7.89399 51.3437 7.99399 51.0437 8.09399C50.9437 8.29399 50.8438 8.49399 50.8438 8.79399C50.8438 8.99399 50.9438 9.19399 51.1438 9.39399C51.3438 9.59399 51.6437 9.69399 52.0437 9.79399C52.3437 9.89399 52.5438 9.99399 52.7438 10.094C52.9438 10.194 53.1437 10.294 53.3438 10.494C53.5438 10.594 53.7438 10.794 53.8438 11.094C53.9437 11.394 54.0437 11.594 54.0437 11.894C54.0437 12.194 53.9437 12.494 53.8438 12.694C53.7438 12.894 53.5438 13.094 53.3438 13.194C53.0438 13.194 52.8438 13.294 52.6438 13.294C52.4438 13.394 52.1437 13.394 51.9437 13.394Z" fill="white" stroke="white" stroke-width="0.2" stroke-miterlimit="10"/>
<path d="M55.843 13.2939H55.043V7.29395H57.043C57.543 7.29395 57.943 7.49395 58.343 7.79395C58.743 8.09395 58.943 8.59394 58.943 9.09394C58.943 9.59394 58.743 9.99394 58.343 10.3939C57.943 10.6939 57.543 10.8939 57.043 10.8939H55.843V13.2939ZM55.843 10.0939H57.143C57.443 10.0939 57.743 9.99395 57.943 9.79395C58.143 9.59395 58.243 9.29394 58.243 9.09394C58.243 8.79394 58.143 8.59394 57.943 8.39394C57.743 8.19394 57.443 8.09394 57.143 8.09394H55.843V10.0939Z" fill="white" stroke="white" stroke-width="0.2" stroke-miterlimit="10"/>
<path d="M64.843 12.4941C64.243 13.0941 63.543 13.3941 62.643 13.3941C61.743 13.3941 61.043 13.0941 60.443 12.4941C59.843 11.8941 59.543 11.1941 59.543 10.2941C59.543 9.39409 59.843 8.69409 60.443 8.09409C61.043 7.49409 61.743 7.19409 62.643 7.19409C63.543 7.19409 64.243 7.49409 64.843 8.09409C65.443 8.69409 65.743 9.39409 65.743 10.2941C65.743 11.1941 65.443 11.8941 64.843 12.4941ZM61.043 11.9941C61.443 12.3941 62.043 12.6941 62.643 12.6941C63.243 12.6941 63.843 12.4941 64.243 11.9941C64.643 11.5941 64.943 10.9941 64.943 10.2941C64.943 9.59409 64.743 8.99409 64.243 8.59409C63.843 8.19409 63.243 7.89409 62.643 7.89409C62.043 7.89409 61.443 8.09409 61.043 8.59409C60.643 8.99409 60.343 9.59409 60.343 10.2941C60.343 10.9941 60.543 11.5941 61.043 11.9941Z" fill="white" stroke="white" stroke-width="0.2" stroke-miterlimit="10"/>
<path d="M66.8438 13.2939V7.29395H67.7438L70.6438 11.9939V10.7939V7.29395H71.4437V13.2939H70.6438L67.5437 8.39394V9.59394V13.2939H66.8438Z" fill="white" stroke="white" stroke-width="0.2" stroke-miterlimit="10"/>
<path d="M72.8438 13.2939V7.29395H73.6438V13.2939H72.8438Z" fill="white" stroke="white" stroke-width="0.2" stroke-miterlimit="10"/>
<path d="M74.9453 13.2939V7.29395H77.1453C77.6453 7.29395 78.0453 7.49395 78.3453 7.79395C78.6453 8.09395 78.8453 8.49395 78.8453 8.99395C78.8453 9.29395 78.7453 9.49395 78.6453 9.79395C78.5453 9.99395 78.3453 10.1939 78.0453 10.2939C78.3453 10.3939 78.5453 10.5939 78.7453 10.7939C78.9453 10.9939 79.0453 11.2939 79.0453 11.6939C79.0453 12.1939 78.8453 12.5939 78.5453 12.8939C78.1453 13.1939 77.7453 13.3939 77.2453 13.3939H74.9453V13.2939ZM75.7453 9.89394H77.1453C77.4453 9.89394 77.6453 9.79394 77.8453 9.59394C78.0453 9.39394 78.1453 9.19395 78.1453 8.99395C78.1453 8.79395 78.0453 8.59394 77.8453 8.39394C77.6453 8.19394 77.4453 8.09394 77.1453 8.09394H75.7453V9.89394ZM75.7453 12.5939H77.3453C77.6453 12.5939 77.8453 12.4939 78.0453 12.2939C78.2453 12.0939 78.3453 11.8939 78.3453 11.5939C78.3453 11.3939 78.2453 11.0939 78.0453 10.8939C77.8453 10.6939 77.6453 10.5939 77.3453 10.5939H75.8453V12.5939H75.7453Z" fill="white" stroke="white" stroke-width="0.2" stroke-miterlimit="10"/>
<path d="M80.043 13.2939V7.29395H80.843V12.5939H83.443V13.2939H80.043Z" fill="white" stroke="white" stroke-width="0.2" stroke-miterlimit="10"/>
<path d="M87.9453 7.99395H85.2453V9.89394H87.7453V10.5939H85.2453V12.4939H87.9453V13.2939H84.4453V7.29395H87.9453V7.99395Z" fill="white" stroke="white" stroke-width="0.2" stroke-miterlimit="10"/>
<path d="M94.6445 7.99395H91.9445V9.89394H94.4445V10.5939H91.9445V12.4939H94.6445V13.2939H91.1445V7.29395H94.6445V7.99395Z" fill="white" stroke="white" stroke-width="0.2" stroke-miterlimit="10"/>
<path d="M95.8438 13.2939V7.29395H96.7438L99.6438 11.9939V10.7939V7.29395H100.444V13.2939H99.6438L96.5437 8.39394V9.59394V13.2939H95.8438Z" fill="white" stroke="white" stroke-width="0.2" stroke-miterlimit="10"/>
<defs>
<linearGradient id="paint0_linear_36366_137669" x1="31.931" y1="20.2943" x2="7.75419" y2="20.2943" gradientUnits="userSpaceOnUse">
<stop stop-color="#FEE000"/>
<stop offset="0.1941" stop-color="#FCCF0B"/>
<stop offset="0.5469" stop-color="#FAB318"/>
<stop offset="0.8279" stop-color="#F9A21B"/>
<stop offset="1" stop-color="#F99B1C"/>
</linearGradient>
<linearGradient id="paint1_linear_36366_137669" x1="25.6568" y1="22.587" x2="2.91729" y2="45.3265" gradientUnits="userSpaceOnUse">
<stop stop-color="#EF4547"/>
<stop offset="1" stop-color="#C6186D"/>
</linearGradient>
<linearGradient id="paint2_linear_36366_137669" x1="2.81599" y1="-4.84004" x2="21.3822" y2="13.7262" gradientUnits="userSpaceOnUse">
<stop stop-color="#279E6F"/>
<stop offset="0.3168" stop-color="#4DAB6D"/>
<stop offset="0.7398" stop-color="#6ABA6A"/>
<stop offset="1" stop-color="#74C169"/>
</linearGradient>
</defs>
</svg>
