<svg width="33" height="33" viewBox="0 0 33 33" fill="none" xmlns="http://www.w3.org/2000/svg">
<rect x="0.5" y="0.405762" width="32" height="32" rx="6.64299" fill="#212121"/>
<path fill-rule="evenodd" clip-rule="evenodd" d="M15.8315 9.65309H18.3841C18.5474 9.65299 18.6897 9.6529 18.8241 9.67435C19.355 9.75913 19.8144 10.0903 20.0628 10.5671C20.1256 10.6878 20.1705 10.8229 20.2221 10.9779L20.3063 11.2307C20.3206 11.2735 20.3247 11.2856 20.3281 11.2951C20.4603 11.6606 20.8031 11.9076 21.1916 11.9175C21.2018 11.9177 21.2143 11.9178 21.2596 11.9178H23.5243C23.837 11.9178 24.0904 12.1712 24.0904 12.4839C24.0904 12.7966 23.837 13.0501 23.5243 13.0501H10.6912C10.3785 13.0501 10.125 12.7966 10.125 12.4839C10.125 12.1712 10.3785 11.9178 10.6912 11.9178H12.9559C13.0012 11.9178 13.0137 11.9177 13.0239 11.9175C13.4124 11.9076 13.7552 11.6606 13.8874 11.2951C13.8908 11.2855 13.8948 11.2737 13.9092 11.2307L13.9934 10.9779C14.045 10.8229 14.0899 10.6878 14.1528 10.5671C14.4011 10.0903 14.8605 9.75913 15.3914 9.67435C15.5258 9.6529 15.6681 9.65299 15.8315 9.65309ZM14.8492 11.9178C14.8881 11.8415 14.9225 11.7623 14.9522 11.6803C14.9612 11.6554 14.97 11.6289 14.9813 11.5949L15.0567 11.3689C15.1255 11.1624 15.1414 11.1203 15.1571 11.0901C15.2398 10.9312 15.393 10.8208 15.57 10.7925C15.6036 10.7871 15.6485 10.7854 15.8662 10.7854H18.3493C18.567 10.7854 18.6119 10.7871 18.6456 10.7925C18.8225 10.8208 18.9757 10.9312 19.0584 11.0901C19.0742 11.1203 19.09 11.1624 19.1588 11.3689L19.2341 11.5948L19.2633 11.6803C19.293 11.7623 19.3274 11.8415 19.3663 11.9178H14.8492Z" fill="white"/>
<path d="M12.5143 14.3335C12.4935 14.0215 12.2237 13.7854 11.9117 13.8062C11.5997 13.827 11.3637 14.0968 11.3845 14.4088L11.7343 19.6566C11.7989 20.6249 11.851 21.4071 11.9733 22.0208C12.1004 22.6589 12.3166 23.1919 12.7632 23.6097C13.2098 24.0276 13.756 24.2078 14.4011 24.2922C15.0217 24.3734 15.8055 24.3734 16.776 24.3734H17.4395C18.4099 24.3734 19.1939 24.3734 19.8144 24.2922C20.4595 24.2078 21.0057 24.0276 21.4523 23.6097C21.8989 23.1919 22.1151 22.6589 22.2423 22.0208C22.3645 21.4071 22.4167 20.6249 22.4812 19.6566L22.831 14.4088C22.8518 14.0968 22.6158 13.827 22.3038 13.8062C21.9918 13.7854 21.722 14.0215 21.7012 14.3335L21.354 19.5415C21.2862 20.559 21.2379 21.2669 21.1317 21.7996C21.0288 22.3163 20.8851 22.5898 20.6787 22.7829C20.4723 22.976 20.1899 23.1011 19.6675 23.1695C19.129 23.2399 18.4194 23.241 17.3997 23.241H16.8159C15.7961 23.241 15.0865 23.2399 14.548 23.1695C14.0256 23.1011 13.7432 22.976 13.5368 22.7829C13.3304 22.5898 13.1867 22.3163 13.0838 21.7996C12.9776 21.2669 12.9293 20.559 12.8615 19.5415L12.5143 14.3335Z" fill="white"/>
<path d="M15.1642 15.695C15.4753 15.6639 15.7528 15.8909 15.7839 16.202L16.1613 19.9764C16.1925 20.2876 15.9655 20.565 15.6543 20.5961C15.3432 20.6272 15.0657 20.4002 15.0346 20.0891L14.6572 16.3147C14.6261 16.0036 14.8531 15.7261 15.1642 15.695Z" fill="white"/>
<path d="M19.0513 15.695C19.3624 15.7261 19.5894 16.0036 19.5583 16.3147L19.1809 20.0891C19.1498 20.4002 18.8723 20.6272 18.5612 20.5961C18.2501 20.565 18.0231 20.2876 18.0542 19.9764L18.4316 16.202C18.4627 15.8909 18.7402 15.6639 19.0513 15.695Z" fill="white"/>
</svg>
