<svg width="42" height="42" viewBox="0 0 42 42" fill="none" xmlns="http://www.w3.org/2000/svg">
<g id="Bold / Arrows Action / Download">
<g id="Vector">
<path fill-rule="evenodd" clip-rule="evenodd" d="M21 2.1875C20.2751 2.1875 19.6875 2.77513 19.6875 3.5V22.702L16.7465 19.2708C16.2748 18.7205 15.4462 18.6567 14.8958 19.1285C14.3455 19.6002 14.2817 20.4288 14.7535 20.9792L20.0035 27.1042C20.2528 27.3951 20.6168 27.5625 21 27.5625C21.3832 27.5625 21.7472 27.3951 21.9965 27.1042L27.2465 20.9792C27.7183 20.4288 27.6545 19.6002 27.1042 19.1285C26.5538 18.6567 25.7252 18.7205 25.2535 19.2708L22.3125 22.702L22.3125 3.5C22.3125 2.77513 21.7249 2.1875 21 2.1875Z" fill="#1C1C1C"/>
<path d="M24.9374 15.75V16.412C26.2212 15.9595 27.7047 16.1859 28.8124 17.1354C30.4635 18.5507 30.6547 21.0364 29.2395 22.6875L23.9895 28.8125C23.2414 29.6852 22.1494 30.1875 20.9999 30.1875C19.8505 30.1875 18.7584 29.6852 18.0104 28.8125L12.7604 22.6875C11.3451 21.0364 11.5363 18.5506 13.1874 17.1354C14.2952 16.1859 15.7786 15.9595 17.0624 16.412V15.75H14C9.05025 15.75 6.57538 15.75 5.03769 17.2877C3.5 18.8254 3.5 21.3003 3.5 26.25V28C3.5 32.9498 3.5 35.4246 5.03769 36.9623C6.57538 38.5 9.05025 38.5 14 38.5H28C32.9497 38.5 35.4246 38.5 36.9623 36.9623C38.5 35.4246 38.5 32.9498 38.5 28V26.25C38.5 21.3003 38.5 18.8254 36.9623 17.2877C35.4246 15.75 32.9497 15.75 28 15.75H24.9374Z" fill="#1C1C1C"/>
</g>
</g>
</svg>
