<svg width="25" height="24" viewBox="0 0 25 24" fill="none" xmlns="http://www.w3.org/2000/svg">
<g clip-path="url(#clip0_29517_20166)">
<path fill-rule="evenodd" clip-rule="evenodd" d="M12.7176 1H12.8352C14.717 1 16.2027 1 17.3726 1.15476C18.5735 1.3157 19.5454 1.65616 20.3068 2.42375C21.0744 3.19133 21.4148 4.1632 21.5758 5.35791C21.7305 6.52167 21.7305 8.01351 21.7305 9.89533V14.1047C21.7305 15.9865 21.7305 17.4721 21.5758 18.6421C21.4148 19.843 21.0744 20.8149 20.3068 21.5763C19.5392 22.3438 18.5673 22.6843 17.3726 22.8452C16.2089 23 14.717 23 12.8352 23H12.7176C10.8358 23 9.35012 23 8.18017 22.8452C6.97927 22.6843 6.00741 22.3438 5.24601 21.5763C4.47843 20.8087 4.13797 19.8368 3.97702 18.6421C3.82227 17.4783 3.82227 15.9865 3.82227 14.1047V9.89533C3.82227 8.01351 3.82227 6.52786 3.97702 5.35791C4.13797 4.15701 4.47843 3.18514 5.24601 2.42375C6.0136 1.65616 6.98546 1.3157 8.18017 1.15476C9.35012 1 10.8358 1 12.7176 1ZM8.38445 2.67755C7.35687 2.81373 6.76261 3.07372 6.3293 3.50703C5.89599 3.94035 5.636 4.53461 5.49981 5.56218C5.35744 6.61452 5.35744 8.00113 5.35744 9.95104V14.0428C5.35744 15.9927 5.35744 17.3793 5.49981 18.4316C5.636 19.4592 5.89599 20.0535 6.3293 20.4868C6.76261 20.9201 7.35687 21.1801 8.38445 21.3163C9.43678 21.4586 10.8234 21.4586 12.7733 21.4586C14.7232 21.4586 16.1098 21.4586 17.1622 21.3163C18.1897 21.1801 18.784 20.9201 19.2173 20.4868C19.6506 20.0535 19.9106 19.4592 20.0468 18.4316C20.1892 17.3793 20.1892 15.9927 20.1892 14.0428V9.95104C20.1892 8.00113 20.1892 6.61452 20.0468 5.56218C19.9106 4.53461 19.6506 3.94035 19.2173 3.50703C18.784 3.07372 18.1897 2.81373 17.1622 2.67755C16.1098 2.53517 14.7232 2.53517 12.7733 2.53517C10.8234 2.53517 9.43678 2.53517 8.38445 2.67755ZM8.93538 19.1621C8.93538 18.7411 9.28203 18.3945 9.70296 18.3945H15.8436C16.2646 18.3945 16.6112 18.7411 16.6112 19.1621C16.6112 19.583 16.2646 19.9297 15.8436 19.9297H9.70296C9.28203 19.9297 8.93538 19.583 8.93538 19.1621Z" fill="#101010"/>
<path d="M12.761 16.7743C12.761 16.7743 12.7362 16.7878 12.7176 16.7743C12.6557 16.7743 12.6 16.7541 12.5443 16.7338C12.5257 16.7271 12.5072 16.7203 12.4886 16.7068C12.4267 16.673 12.371 16.6325 12.3215 16.5785C12.3153 16.5717 12.3029 16.5582 12.2967 16.5515L9.8268 13.6004C9.59776 13.3236 9.61633 12.8981 9.86394 12.6483C10.1177 12.3984 10.5077 12.4119 10.7368 12.6888L12.1357 14.3568V7.32019C12.1357 6.94878 12.4143 6.64489 12.7548 6.64489C13.0952 6.64489 13.3738 6.94878 13.3738 7.32019V14.3568L14.7728 12.6888C15.0018 12.4119 15.398 12.3917 15.6456 12.6483C15.8994 12.8981 15.918 13.3236 15.6827 13.6004L13.2128 16.5515C13.2128 16.5515 13.1943 16.5717 13.1881 16.5785C13.1386 16.6325 13.0828 16.673 13.0209 16.7068C13.0086 16.7135 12.99 16.7203 12.9714 16.7271C12.9157 16.7541 12.8476 16.7676 12.7857 16.7743C12.7733 16.7743 12.761 16.7743 12.7486 16.7743H12.761Z" fill="#101010"/>
</g>
<defs>
<clipPath id="clip0_29517_20166">
<rect width="17.9083" height="24" fill="white" transform="translate(3.82227)"/>
</clipPath>
</defs>
</svg>
