<svg width="134" height="41" viewBox="0 0 134 41" fill="none" xmlns="http://www.w3.org/2000/svg">
<path d="M128.912 39.8333H5.10846C2.99289 39.8333 1.23307 38.0404 1.23307 35.7703V5.22973C1.23307 2.95961 2.99289 1.16667 5.10846 1.16667H128.912C131.027 1.16667 132.787 2.95961 132.787 5.22973V35.7703C132.787 38.0404 131.027 39.8333 128.912 39.8333Z" fill="#101010" stroke="white" stroke-width="1.33333"/>
<path d="M44.8193 8.02484C45.2089 7.99688 45.5999 8.05574 45.964 8.19717C46.3281 8.3386 46.6563 8.55908 46.9249 8.84271C47.1935 9.12633 47.3958 9.46603 47.5172 9.8373C47.6386 10.2086 47.6761 10.6022 47.6269 10.9897C47.6269 12.8959 46.5967 13.9917 44.8193 13.9917H42.6641V8.02484H44.8193ZM43.5908 13.1478H44.7158C44.9942 13.1645 45.2728 13.1188 45.5314 13.0142C45.7899 12.9096 46.0219 12.7487 46.2104 12.5431C46.3989 12.3375 46.5391 12.0925 46.621 11.8259C46.7029 11.5593 46.7242 11.2778 46.6836 11.0018C46.7213 10.727 46.6977 10.4472 46.6146 10.1826C46.5315 9.9179 46.3909 9.6749 46.2028 9.47097C46.0147 9.26704 45.7839 9.10723 45.5268 9.003C45.2697 8.89876 44.9928 8.85268 44.7158 8.86805H43.5908V13.1478Z" fill="white"/>
<path d="M52.7067 12.776C52.586 13.1875 52.3244 13.5435 51.9677 13.7816C51.611 14.0198 51.1819 14.1249 50.7555 14.0787C50.4589 14.0865 50.1641 14.0297 49.8916 13.9122C49.6191 13.7946 49.3754 13.6192 49.1775 13.3981C48.9796 13.1769 48.8322 12.9154 48.7455 12.6316C48.6588 12.3477 48.6349 12.0485 48.6755 11.7545C48.6359 11.4596 48.6603 11.1597 48.7468 10.875C48.8332 10.5903 48.9799 10.3275 49.1767 10.1045C49.3736 9.8814 49.6161 9.70322 49.8878 9.58202C50.1595 9.46081 50.4541 9.39939 50.7516 9.40193C52.0046 9.40193 52.7604 10.2579 52.7604 11.6719V11.982H49.5808V12.0318C49.5669 12.1971 49.5876 12.3634 49.6418 12.5202C49.6959 12.6769 49.7822 12.8206 49.8951 12.9421C50.008 13.0635 50.145 13.16 50.2974 13.2254C50.4498 13.2908 50.6142 13.3237 50.78 13.3218C50.9926 13.3474 51.2079 13.3091 51.3987 13.2119C51.5895 13.1147 51.747 12.9629 51.8513 12.7759L52.7067 12.776ZM49.5807 11.3248H51.8551C51.8663 11.1737 51.8458 11.0219 51.7948 10.8791C51.7439 10.7364 51.6636 10.6059 51.5592 10.4961C51.4548 10.3862 51.3286 10.2994 51.1887 10.2413C51.0488 10.1831 50.8982 10.1548 50.7467 10.1583C50.593 10.1564 50.4405 10.1852 50.2981 10.2432C50.1558 10.3011 50.0264 10.387 49.9178 10.4957C49.8091 10.6044 49.7233 10.7338 49.6654 10.8762C49.6076 11.0186 49.5787 11.1711 49.5807 11.3248Z" fill="white"/>
<path d="M55.5996 9.40186C56.6123 9.40186 57.2744 9.87305 57.3613 10.667H56.5088C56.4268 10.3364 56.1035 10.1255 55.5996 10.1255C55.1035 10.1255 54.7266 10.3608 54.7266 10.7124C54.7266 10.9814 54.9541 11.1509 55.4424 11.2627L56.1904 11.436C57.0469 11.6348 57.4482 12.0029 57.4482 12.6646C57.4482 13.5122 56.6582 14.0786 55.583 14.0786C54.5117 14.0786 53.8135 13.5947 53.7344 12.7969H54.624C54.7007 12.9868 54.8389 13.1454 55.0165 13.2473C55.1942 13.3492 55.4009 13.3885 55.6035 13.3589C56.1572 13.3589 56.5508 13.1109 56.5508 12.751C56.5508 12.4824 56.3398 12.3086 55.8887 12.2012L55.1035 12.019C54.2471 11.8164 53.8506 11.4321 53.8506 10.7622C53.8506 9.96387 54.582 9.40186 55.5996 9.40186Z" fill="white"/>
<path d="M61.5902 10.9603C61.5335 10.7268 61.3951 10.5214 61.2001 10.3811C61.005 10.2408 60.7661 10.1751 60.5267 10.1957C59.7826 10.1957 59.3275 10.766 59.3275 11.7255C59.3275 12.7016 59.7865 13.2846 60.5267 13.2846C60.7637 13.312 61.0026 13.252 61.1985 13.1156C61.3943 12.9793 61.5336 12.7761 61.5902 12.5443H62.4545C62.3973 13.0003 62.1643 13.4159 61.8051 13.7025C61.4459 13.9891 60.9889 14.124 60.5316 14.0785C60.2305 14.088 59.931 14.0316 59.654 13.9133C59.3769 13.7949 59.1291 13.6175 58.9278 13.3934C58.7266 13.1693 58.5767 12.9039 58.4887 12.6158C58.4007 12.3277 58.3766 12.0239 58.4183 11.7255C58.3787 11.4294 58.4043 11.1282 58.4931 10.8429C58.582 10.5576 58.732 10.2952 58.9328 10.074C59.1336 9.85268 59.3802 9.6779 59.6555 9.5618C59.9308 9.44571 60.2281 9.39109 60.5267 9.40178C60.9878 9.35932 61.4472 9.49843 61.8072 9.78951C62.1672 10.0806 62.3994 10.5007 62.4545 10.9604L61.5902 10.9603Z" fill="white"/>
<path d="M63.3359 12.7183C63.3359 11.9077 63.9395 11.4404 65.0107 11.374L66.2305 11.3037V10.915C66.2305 10.4395 65.916 10.1709 65.3086 10.1709C64.8125 10.1709 64.4688 10.353 64.3701 10.6714H63.5098C63.6006 9.89796 64.3281 9.40187 65.3496 9.40187C66.4785 9.40187 67.1152 9.96387 67.1152 10.915V13.9917H66.2598V13.3589H66.1895C66.0467 13.5859 65.8463 13.7709 65.6087 13.8951C65.3711 14.0194 65.1048 14.0783 64.8369 14.0659C64.6479 14.0856 64.4568 14.0654 64.2761 14.0067C64.0953 13.948 63.9289 13.8521 63.7874 13.7251C63.646 13.5981 63.5328 13.4429 63.455 13.2695C63.3772 13.0961 63.3367 12.9083 63.3359 12.7183ZM66.2305 12.3335V11.957L65.1309 12.0273C64.5107 12.0688 64.2295 12.2798 64.2295 12.6768C64.2295 13.082 64.581 13.3179 65.0645 13.3179C65.2061 13.3322 65.3492 13.3179 65.4852 13.2758C65.6212 13.2337 65.7474 13.1647 65.8562 13.0729C65.9649 12.981 66.0541 12.8682 66.1184 12.7412C66.1828 12.6142 66.2208 12.4755 66.2305 12.3335ZM64.8164 8.73584L65.8545 7.31348H66.8965L65.7344 8.73584H64.8164Z" fill="white"/>
<path d="M68.5078 9.48885H69.3633V10.1793H69.4297C69.5255 9.9396 69.6947 9.73644 69.9132 9.59897C70.1316 9.4615 70.388 9.39679 70.6455 9.41414C70.7786 9.41235 70.9115 9.42479 71.042 9.45125V10.3282C70.8789 10.2934 70.7127 10.2754 70.5459 10.2745C70.3993 10.2614 70.2516 10.279 70.1123 10.3263C69.9729 10.3737 69.845 10.4496 69.7368 10.5493C69.6285 10.649 69.5423 10.7702 69.4837 10.9052C69.4251 11.0402 69.3954 11.186 69.3965 11.3331V13.9918H68.5078L68.5078 9.48885Z" fill="white"/>
<path d="M71.8613 14.4424H72.771C72.8462 14.769 73.2222 14.98 73.8218 14.98C74.562 14.98 75.0005 14.6284 75.0005 14.0332V13.1689H74.9341C74.7947 13.4108 74.5911 13.6095 74.3459 13.743C74.1007 13.8765 73.8233 13.9396 73.5444 13.9253C72.395 13.9253 71.6836 13.0366 71.6836 11.6884C71.6836 10.3154 72.4028 9.41403 73.5532 9.41403C73.8391 9.40408 74.1221 9.47287 74.3715 9.61289C74.6209 9.75291 74.827 9.95877 74.9673 10.208H75.0376V9.48874H75.8892V14.0287C75.8892 15.0585 75.0825 15.7119 73.8091 15.7119C72.6841 15.7119 71.9561 15.2075 71.8613 14.4424ZM75.0171 11.6841C75.0171 10.7871 74.5532 10.2124 73.7964 10.2124C73.0317 10.2124 72.602 10.7871 72.602 11.6841C72.602 12.5815 73.0317 13.1562 73.7964 13.1562C74.5581 13.1562 75.0171 12.5859 75.0171 11.6841Z" fill="white"/>
<path d="M77.0469 12.7183C77.0469 11.9077 77.6504 11.4404 78.7217 11.374L79.9414 11.3037V10.915C79.9414 10.4394 79.627 10.1709 79.0195 10.1709C78.5234 10.1709 78.1797 10.353 78.0811 10.6714H77.2207C77.3115 9.89795 78.0391 9.40186 79.0605 9.40186C80.1895 9.40186 80.8262 9.96386 80.8262 10.915V13.9917H79.9707V13.3589H79.9004C79.7577 13.5859 79.5573 13.7709 79.3197 13.8951C79.082 14.0193 78.8157 14.0783 78.5479 14.0659C78.3588 14.0855 78.1678 14.0654 77.987 14.0067C77.8062 13.948 77.6398 13.8521 77.4984 13.7251C77.357 13.5981 77.2437 13.4429 77.1659 13.2695C77.0882 13.0961 77.0476 12.9083 77.0469 12.7183ZM79.9414 12.3335V11.957L78.8418 12.0273C78.2217 12.0688 77.9404 12.2798 77.9404 12.6767C77.9404 13.082 78.292 13.3179 78.7754 13.3179C78.9171 13.3322 79.0602 13.3179 79.1962 13.2758C79.3322 13.2337 79.4583 13.1647 79.5671 13.0729C79.6759 12.981 79.7651 12.8682 79.8294 12.7412C79.8937 12.6142 79.9318 12.4755 79.9414 12.3335Z" fill="white"/>
<path d="M82.2578 7.73096H83.1465V13.9917H82.2578V7.73096Z" fill="white"/>
<path d="M84.3811 11.7382C84.3528 11.4423 84.3867 11.1437 84.4805 10.8617C84.5744 10.5796 84.7261 10.3203 84.9261 10.1003C85.126 9.8803 85.3697 9.70454 85.6416 9.58426C85.9134 9.46399 86.2074 9.40186 86.5047 9.40186C86.8019 9.40186 87.0959 9.46399 87.3678 9.58426C87.6396 9.70454 87.8833 9.8803 88.0833 10.1003C88.2832 10.3203 88.435 10.5796 88.5288 10.8617C88.6227 11.1437 88.6565 11.4423 88.6282 11.7382C88.6571 12.0345 88.6236 12.3334 88.53 12.616C88.4364 12.8985 88.2848 13.1583 88.0848 13.3787C87.8848 13.5991 87.6409 13.7753 87.3687 13.8958C87.0966 14.0163 86.8023 14.0786 86.5047 14.0786C86.2071 14.0786 85.9127 14.0163 85.6406 13.8958C85.3685 13.7753 85.1246 13.5991 84.9246 13.3787C84.7246 13.1583 84.5729 12.8985 84.4793 12.616C84.3857 12.3334 84.3523 12.0345 84.3811 11.7382ZM87.7141 11.7382C87.7141 10.7622 87.2757 10.1914 86.5061 10.1914C85.7337 10.1914 85.2991 10.7622 85.2991 11.7382C85.2991 12.7221 85.7337 13.2885 86.5061 13.2885C87.2757 13.2885 87.7141 12.7182 87.7141 11.7382Z" fill="white"/>
<path d="M96.0739 12.776C95.9532 13.1875 95.6916 13.5435 95.3349 13.7816C94.9782 14.0198 94.5491 14.1249 94.1227 14.0787C93.8261 14.0865 93.5312 14.0297 93.2587 13.9122C92.9862 13.7946 92.7426 13.6192 92.5447 13.3981C92.3468 13.1769 92.1993 12.9154 92.1126 12.6316C92.026 12.3477 92.0021 12.0485 92.0426 11.7545C92.0031 11.4596 92.0275 11.1597 92.1139 10.875C92.2004 10.5903 92.3471 10.3275 92.5439 10.1045C92.7408 9.8814 92.9833 9.70322 93.255 9.58202C93.5267 9.46081 93.8213 9.39939 94.1188 9.40193C95.3717 9.40193 96.1276 10.2579 96.1276 11.6719V11.982H92.9479V12.0318C92.934 12.1971 92.9548 12.3634 93.0089 12.5202C93.063 12.6769 93.1493 12.8206 93.2622 12.9421C93.3751 13.0635 93.5122 13.16 93.6645 13.2254C93.8169 13.2908 93.9813 13.3237 94.1471 13.3218C94.3597 13.3474 94.5751 13.3091 94.7658 13.2119C94.9566 13.1147 95.1141 12.9629 95.2184 12.7759L96.0739 12.776ZM92.9479 11.3248H95.2223C95.2335 11.1737 95.2129 11.0219 95.162 10.8791C95.111 10.7364 95.0308 10.6059 94.9264 10.4961C94.822 10.3862 94.6958 10.2994 94.5559 10.2413C94.4159 10.1831 94.2654 10.1548 94.1139 10.1583C93.9602 10.1564 93.8077 10.1852 93.6653 10.2432C93.5229 10.3011 93.3936 10.387 93.2849 10.4957C93.1763 10.6044 93.0905 10.7338 93.0326 10.8762C92.9747 11.0186 92.9459 11.1711 92.9479 11.3248Z" fill="white"/>
<path d="M97.3203 9.48881H98.1758V10.2041H98.2422C98.3548 9.94722 98.5448 9.73185 98.7857 9.58804C99.0266 9.44424 99.3063 9.37916 99.5859 9.40189C99.805 9.38542 100.025 9.41846 100.23 9.49855C100.434 9.57865 100.618 9.70375 100.768 9.8646C100.918 10.0254 101.029 10.2179 101.094 10.4277C101.16 10.6375 101.177 10.8593 101.145 11.0767V13.9917H100.256V11.2999C100.256 10.5762 99.9414 10.2164 99.2842 10.2164C99.1354 10.2094 98.9869 10.2347 98.8489 10.2906C98.7108 10.3464 98.5865 10.4314 98.4843 10.5398C98.3822 10.6482 98.3047 10.7774 98.2572 10.9185C98.2097 11.0596 98.1932 11.2094 98.209 11.3575V13.9917H97.3203V9.48881Z" fill="white"/>
<path d="M108.769 12.776C108.648 13.1875 108.387 13.5435 108.03 13.7816C107.673 14.0198 107.244 14.1249 106.818 14.0787C106.521 14.0865 106.227 14.0297 105.954 13.9122C105.682 13.7946 105.438 13.6192 105.24 13.3981C105.042 13.1769 104.895 12.9154 104.808 12.6316C104.721 12.3477 104.697 12.0485 104.738 11.7545C104.698 11.4596 104.723 11.1597 104.809 10.875C104.896 10.5903 105.042 10.3275 105.239 10.1045C105.436 9.8814 105.679 9.70322 105.95 9.58202C106.222 9.46081 106.517 9.39939 106.814 9.40193C108.067 9.40193 108.823 10.2579 108.823 11.6719V11.982H105.643V12.0318C105.629 12.1971 105.65 12.3634 105.704 12.5202C105.758 12.6769 105.845 12.8206 105.958 12.9421C106.07 13.0635 106.207 13.16 106.36 13.2254C106.512 13.2908 106.677 13.3237 106.842 13.3218C107.055 13.3474 107.27 13.3091 107.461 13.2119C107.652 13.1147 107.809 12.9629 107.914 12.7759L108.769 12.776ZM105.643 11.3248H107.918C107.929 11.1737 107.908 11.0219 107.857 10.8791C107.806 10.7364 107.726 10.6059 107.622 10.4961C107.517 10.3862 107.391 10.2994 107.251 10.2413C107.111 10.1831 106.961 10.1548 106.809 10.1583C106.656 10.1564 106.503 10.1852 106.361 10.2432C106.218 10.3011 106.089 10.387 105.98 10.4957C105.872 10.6044 105.786 10.7338 105.728 10.8762C105.67 11.0186 105.641 11.1711 105.643 11.3248Z" fill="white"/>
<path d="M110.059 7.73096H110.947V13.9917H110.059V7.73096Z" fill="white"/>
<path d="M29.2803 19.8038C29.299 21.9824 30.2357 23.4539 31.1779 24.3725C31.673 24.8553 32.1696 25.1863 32.5373 25.3944C32.4786 25.5601 32.4023 25.7632 32.3062 25.9953C32.0354 26.6489 31.619 27.5049 31.0273 28.3635L31.0223 28.3707L31.0175 28.3781C30.493 29.1842 29.9984 29.9104 29.4424 30.4431C28.8995 30.9633 28.3459 31.2525 27.7006 31.2635L27.6963 31.2636C27.0196 31.2794 26.5791 31.0875 25.9889 30.8304L25.979 30.8261C25.3662 30.5591 24.6369 30.2483 23.528 30.2483C22.4203 30.2483 21.6843 30.5351 21.057 30.8034C21.0172 30.8204 20.9781 30.8372 20.9396 30.8537C20.3829 31.0929 19.9555 31.2766 19.3338 31.3034C18.7717 31.3248 18.2128 31.0398 17.6138 30.463C17.0151 29.8866 16.4669 29.107 15.9215 28.3094C14.8952 26.771 13.9722 24.5833 13.5803 22.3041C13.1872 20.0181 13.3413 17.722 14.364 15.9037L14.364 15.9037L14.3654 15.9013C15.3515 14.1309 17.1341 13.0164 19.0039 12.9861L19.0071 12.9861C19.6828 12.972 20.3667 13.2073 21.0822 13.4973C21.1683 13.5322 21.2564 13.5685 21.3453 13.6052C21.6057 13.7125 21.8739 13.8231 22.1215 13.9103C22.4533 14.0271 22.8264 14.132 23.1963 14.132C23.5752 14.132 23.979 14.0032 24.3301 13.8731C24.5225 13.8017 24.7544 13.7074 24.9869 13.6128C25.1633 13.5411 25.3401 13.4692 25.5002 13.4071C26.3285 13.0859 27.1627 12.8392 27.9701 12.9258L27.9956 12.9285L28.0211 12.9293C28.6833 12.9492 30.4377 13.1776 31.7477 14.6979C30.8455 15.4299 29.2547 17.1037 29.2803 19.8038ZM29.2803 19.8038C29.2803 19.8036 29.2803 19.8035 29.2803 19.8033L29.9469 19.7976L29.2803 19.804C29.2803 19.8039 29.2803 19.8038 29.2803 19.8038Z" fill="white" stroke="white" stroke-width="1.33333"/>
<path d="M24.8425 8.37761L24.8427 8.37734C25.4816 7.60941 26.5018 6.99195 27.4189 6.74706C27.3554 7.83123 26.8933 8.88924 26.247 9.72165C25.5717 10.5355 24.5972 11.1428 23.6414 11.2788C23.7023 10.2128 24.2318 9.11091 24.8425 8.37761Z" fill="white" stroke="white" stroke-width="1.33333"/>
<mask id="path-18-inside-1_36449_17216" fill="white">
<path d="M49.4395 26.0684L48.3244 22.5376C48.2066 22.1779 47.9855 21.3278 47.6587 19.9923H47.6202C47.4905 20.5664 47.279 21.4165 46.993 22.5376L45.8971 26.0684H49.4395ZM53.2942 31.7084H51.0424L49.8095 27.7365H45.527L44.3519 31.7084H42.1602L46.409 18.1863H49.0285"/>
</mask>
<path d="M49.4395 26.0684L48.3244 22.5376C48.2066 22.1779 47.9855 21.3278 47.6587 19.9923H47.6202C47.4905 20.5664 47.279 21.4165 46.993 22.5376L45.8971 26.0684H49.4395ZM53.2942 31.7084H51.0424L49.8095 27.7365H45.527L44.3519 31.7084H42.1602L46.409 18.1863H49.0285" fill="white"/>
<path d="M49.4395 26.0684V27.4018H51.2588L50.7109 25.6669L49.4395 26.0684ZM48.3244 22.5376L49.5959 22.136L49.5915 22.1228L48.3244 22.5376ZM47.6587 19.9923L48.9538 19.6754L48.705 18.659H47.6587V19.9923ZM47.6202 19.9923V18.659H46.5547L46.3197 19.6984L47.6202 19.9923ZM46.993 22.5376L48.2664 22.9328L48.2765 22.9002L48.285 22.8672L46.993 22.5376ZM45.8971 26.0684L44.6237 25.6732L44.0872 27.4018H45.8971V26.0684ZM51.0424 31.7084L49.769 32.1036L50.0602 33.0417H51.0424V31.7084ZM49.8095 27.7365L51.0829 27.3413L50.7918 26.4032H49.8095V27.7365ZM45.527 27.7365V26.4032H44.5311L44.2485 27.3582L45.527 27.7365ZM44.3519 31.7084V33.0417H45.3478L45.6304 32.0867L44.3519 31.7084ZM42.1602 31.7084L40.8881 31.3087L40.3436 33.0417H42.1602V31.7084ZM46.409 18.1863V16.8529H45.4304L45.137 17.7866L46.409 18.1863ZM50.7109 25.6669L49.5958 22.1361L47.0529 22.9391L48.168 26.47L50.7109 25.6669ZM49.5915 22.1228C49.4932 21.8223 49.285 21.0288 48.9538 19.6754L46.3636 20.3093C46.686 21.6268 46.9201 22.5334 47.0572 22.9524L49.5915 22.1228ZM47.6587 18.659H47.6202V21.3257H47.6587V18.659ZM46.3197 19.6984C46.1945 20.2523 45.9873 21.0858 45.701 22.208L48.285 22.8672C48.5707 21.7472 48.7864 20.8806 48.9207 20.2863L46.3197 19.6984ZM45.7196 22.1424L44.6237 25.6732L47.1705 26.4637L48.2664 22.9328L45.7196 22.1424ZM45.8971 27.4018H49.4395V24.7351H45.8971V27.4018ZM53.2942 30.3751H51.0424V33.0417H53.2942V30.3751ZM52.3158 31.3131L51.0829 27.3413L48.5361 28.1318L49.769 32.1036L52.3158 31.3131ZM49.8095 26.4032H45.527V29.0699H49.8095V26.4032ZM44.2485 27.3582L43.0733 31.3301L45.6304 32.0867L46.8056 28.1148L44.2485 27.3582ZM44.3519 30.3751H42.1602V33.0417H44.3519V30.3751ZM43.4322 32.1081L47.681 18.586L45.137 17.7866L40.8881 31.3087L43.4322 32.1081ZM46.409 19.5196H49.0285V16.8529H46.409V19.5196Z" fill="white" mask="url(#path-18-inside-1_36449_17216)"/>
<path d="M61.9844 24.0701L61.9801 24.0638L61.9757 24.0576C61.3983 23.2475 60.5863 22.8144 59.5943 22.8144C59.0555 22.8144 58.5552 22.9626 58.1079 23.241C58.6477 22.6946 59.3566 22.423 60.2792 22.423C61.189 22.423 61.9435 22.7811 62.5712 23.5447L62.5713 23.5448C63.2006 24.31 63.5466 25.3432 63.5466 26.7113C63.5466 28.2511 63.1428 29.3877 62.4086 30.1945C61.7521 30.9128 60.9579 31.2608 59.9861 31.2608C59.0981 31.2608 58.4937 30.9997 58.0819 30.5168C58.5098 30.766 58.9986 30.8891 59.5343 30.8891C60.5373 30.8891 61.366 30.4799 61.937 29.6627C62.4865 28.8888 62.7267 27.9127 62.7267 26.7926C62.7267 25.7446 62.4957 24.8233 61.9844 24.0701ZM56.5797 30.5428V35.0134H55.7983V25.1664C55.7983 24.336 55.7831 23.4885 55.7505 22.6226H56.2945L56.3654 23.5539L56.4123 24.1699H57.0301H57.071H57.1522C56.9391 24.4924 56.7862 24.8559 56.6938 25.2568C56.6227 25.5494 56.5797 25.824 56.5797 26.0682V27.6944C56.5797 28.5241 56.8244 29.2644 57.3336 29.8761H57.2849H57.2464H56.5797V30.5428Z" fill="white" stroke="white" stroke-width="1.33333"/>
<path d="M72.9195 24.0701L72.9152 24.0638L72.9108 24.0576C72.3334 23.2475 71.5214 22.8144 70.5294 22.8144C69.9897 22.8144 69.4912 22.9631 69.0443 23.2409C69.5828 22.6947 70.2915 22.423 71.2143 22.423C72.1252 22.423 72.8758 22.7802 73.5094 23.5456C74.1373 24.3095 74.4793 25.3417 74.4793 26.7113C74.4793 28.252 74.0775 29.3882 73.3437 30.1945C72.6871 30.913 71.8951 31.2608 70.9212 31.2608C70.0367 31.2608 69.4323 31.0004 69.0188 30.5178C69.4466 30.7664 69.9354 30.8891 70.4718 30.8891C71.4739 30.8891 72.3021 30.4788 72.875 29.662C73.4182 28.8899 73.6618 27.9153 73.6618 26.7926C73.6618 25.7446 73.4308 24.8233 72.9195 24.0701ZM67.5172 27.6944C67.5172 28.5224 67.7587 29.2633 68.2687 29.8761H68.22H68.1839H67.5172V30.5428V35.0134H66.7358V25.1664C66.7358 24.3351 66.7191 23.4876 66.6871 22.6226H67.232L67.3029 23.5539L67.3498 24.1699H67.9676H68.0085H68.0874C67.8753 24.4928 67.7249 24.856 67.634 25.2553C67.56 25.5498 67.5172 25.8242 67.5172 26.0682V27.6944Z" fill="white" stroke="white" stroke-width="1.33333"/>
<path d="M79.9748 30.7393L80.1106 30.2394C80.9322 30.6055 81.8105 30.7882 82.7424 30.7882C83.6334 30.7882 84.424 30.584 85.027 30.0861L85.027 30.0861L85.0301 30.0836C85.6353 29.5777 85.9325 28.8917 85.9325 28.0937C85.9325 27.3856 85.6929 26.7489 85.1975 26.241C84.7316 25.7633 84.0166 25.3739 83.1364 25.0389C80.9469 24.2002 80.1023 23.084 80.1023 21.7835C80.1023 20.8566 80.429 20.1304 81.0886 19.5524L81.0893 19.5518C81.7475 18.9734 82.6543 18.6508 83.8767 18.6508C84.7463 18.6508 85.4705 18.7723 86.0654 18.9941L85.9237 19.4679C85.2713 19.2243 84.5678 19.1038 83.8191 19.1038C82.9645 19.1038 82.2068 19.32 81.633 19.8369L81.6257 19.8434L81.6187 19.8502C81.139 20.3083 80.8838 20.8904 80.8838 21.5568C80.8838 22.2794 81.1632 22.9042 81.7146 23.3796C82.1594 23.7823 82.8903 24.1633 83.8211 24.5416C84.9003 24.9872 85.6284 25.4824 86.0703 26.0002C86.4879 26.4924 86.7139 27.1167 86.7139 27.9163C86.7139 28.895 86.3907 29.6476 85.7564 30.2346C85.0535 30.8783 84.0391 31.2412 82.6175 31.2412C81.5196 31.2412 80.6498 31.0626 79.9748 30.7393Z" fill="white" stroke="white" stroke-width="1.33333"/>
<mask id="path-23-inside-2_36449_17216" fill="white">
<path d="M94.362 23.5822H92.0333V28.3155C92.0333 29.5203 92.4443 30.1215 93.2686 30.1215C93.6435 30.1215 93.9583 30.0895 94.2058 30.023L94.2635 31.6664C93.8501 31.8291 93.2998 31.9079 92.6221 31.9079C91.7882 31.9079 91.1345 31.6467 90.6635 31.1268C90.1949 30.6045 89.9594 29.7273 89.9594 28.4978V23.5822H88.5703V21.956H89.9594V20.1721L92.0333 19.5291V21.956H94.362"/>
</mask>
<path d="M94.362 23.5822H92.0333V28.3155C92.0333 29.5203 92.4443 30.1215 93.2686 30.1215C93.6435 30.1215 93.9583 30.0895 94.2058 30.023L94.2635 31.6664C93.8501 31.8291 93.2998 31.9079 92.6221 31.9079C91.7882 31.9079 91.1345 31.6467 90.6635 31.1268C90.1949 30.6045 89.9594 29.7273 89.9594 28.4978V23.5822H88.5703V21.956H89.9594V20.1721L92.0333 19.5291V21.956H94.362" fill="white"/>
<path d="M92.0333 23.5822V22.2489H90.7V23.5822H92.0333ZM94.2058 30.023L95.5383 29.9762L95.4795 28.3L93.8598 28.7353L94.2058 30.023ZM94.2635 31.6664L94.7516 32.9072L95.6291 32.562L95.596 31.6197L94.2635 31.6664ZM90.6635 31.1268L89.671 32.0172L89.6754 32.0221L90.6635 31.1268ZM89.9594 23.5822H91.2927V22.2489H89.9594V23.5822ZM88.5703 23.5822H87.237V24.9156H88.5703V23.5822ZM88.5703 21.956V20.6227H87.237V21.956H88.5703ZM89.9594 21.956V23.2894H91.2927V21.956H89.9594ZM89.9594 20.1721L89.5645 18.8986L88.626 19.1896V20.1721H89.9594ZM92.0333 19.5291H93.3667V17.7197L91.6384 18.2555L92.0333 19.5291ZM92.0333 21.956H90.7V23.2894H92.0333V21.956ZM94.362 22.2489H92.0333V24.9156H94.362V22.2489ZM90.7 23.5822V28.3155H93.3667V23.5822H90.7ZM90.7 28.3155C90.7 29.0277 90.8139 29.798 91.2412 30.423C91.7312 31.1394 92.4834 31.4549 93.2686 31.4549V28.7882C93.2247 28.7882 93.2512 28.7807 93.3114 28.81C93.3779 28.8423 93.4229 28.8892 93.4424 28.9177C93.4559 28.9374 93.4343 28.9148 93.4105 28.81C93.3866 28.7053 93.3667 28.5452 93.3667 28.3155H90.7ZM93.2686 31.4549C93.7062 31.4549 94.149 31.4189 94.5519 31.3106L93.8598 28.7353C93.7675 28.7601 93.5807 28.7882 93.2686 28.7882V31.4549ZM92.8733 30.0697L92.931 31.7132L95.596 31.6197L95.5383 29.9762L92.8733 30.0697ZM93.7754 30.4257C93.5807 30.5022 93.2178 30.5746 92.6221 30.5746V33.2412C93.3819 33.2412 94.1196 33.1559 94.7516 32.9072L93.7754 30.4257ZM92.6221 30.5746C92.0882 30.5746 91.8227 30.4205 91.6516 30.2316L89.6754 32.0221C90.4463 32.8729 91.4882 33.2412 92.6221 33.2412V30.5746ZM91.656 30.2364C91.5206 30.0856 91.2927 29.6226 91.2927 28.4978H88.626C88.626 29.832 88.8691 31.1234 89.671 32.0172L91.656 30.2364ZM91.2927 28.4978V23.5822H88.626V28.4978H91.2927ZM89.9594 22.2489H88.5703V24.9156H89.9594V22.2489ZM89.9036 23.5822V21.956H87.237V23.5822H89.9036ZM88.5703 23.2894H89.9594V20.6227H88.5703V23.2894ZM91.2927 21.956V20.1721H88.626V21.956H91.2927ZM90.3543 21.4457L92.4282 20.8026L91.6384 18.2555L89.5645 18.8986L90.3543 21.4457ZM90.7 19.5291V21.956H93.3667V19.5291H90.7ZM92.0333 23.2894H94.362V20.6227H92.0333V23.2894Z" fill="white" mask="url(#path-23-inside-2_36449_17216)"/>
<path d="M97.3413 23.646L97.3413 23.646L97.3431 23.644C98.0527 22.8407 99.0116 22.423 100.294 22.423C101.52 22.423 102.456 22.8316 103.162 23.6218C103.845 24.4047 104.208 25.426 104.208 26.7532C104.208 28.1198 103.833 29.1842 103.121 30.005C102.387 30.8356 101.416 31.2608 100.141 31.2608C98.9118 31.2608 97.9931 30.8523 97.3049 30.065C96.5997 29.2557 96.2292 28.2215 96.2292 26.9134C96.2292 25.5327 96.6136 24.4633 97.3413 23.646ZM103.35 26.8222C103.35 25.8295 103.14 24.9409 102.691 24.1756C102.145 23.2122 101.301 22.674 100.218 22.674C99.1154 22.674 98.2562 23.2044 97.7033 24.1749C97.2514 24.9455 97.0491 25.8513 97.0491 26.8641C97.0491 27.8553 97.2536 28.7468 97.7059 29.5134C98.2682 30.4717 99.1137 31.0099 100.201 31.0099C101.277 31.0099 102.114 30.4585 102.672 29.4929C103.134 28.7174 103.35 27.8174 103.35 26.8222Z" fill="white" stroke="white" stroke-width="1.33333"/>
<mask id="path-26-inside-3_36449_17216" fill="white">
<path d="M111.74 23.863C111.531 23.8236 111.31 23.8039 111.074 23.8039C110.332 23.8039 109.755 24.0922 109.351 24.6663C109 25.1763 108.825 25.8169 108.825 26.5906V31.7082H106.712L106.729 25.0285C106.729 23.9024 106.703 22.8799 106.652 21.9559H108.493L108.57 23.8236H108.625C108.849 23.183 109.202 22.6655 109.683 22.2787C110.154 21.9313 110.663 21.7563 111.211 21.7563C111.406 21.7563 111.584 21.7711 111.74 21.7958"/>
</mask>
<path d="M111.74 23.863C111.531 23.8236 111.31 23.8039 111.074 23.8039C110.332 23.8039 109.755 24.0922 109.351 24.6663C109 25.1763 108.825 25.8169 108.825 26.5906V31.7082H106.712L106.729 25.0285C106.729 23.9024 106.703 22.8799 106.652 21.9559H108.493L108.57 23.8236H108.625C108.849 23.183 109.202 22.6655 109.683 22.2787C110.154 21.9313 110.663 21.7563 111.211 21.7563C111.406 21.7563 111.584 21.7711 111.74 21.7958" fill="white"/>
<path d="M109.351 24.6663L108.26 23.8992L108.253 23.9106L109.351 24.6663ZM108.825 31.7082V33.0415H110.158V31.7082H108.825ZM106.712 31.7082L105.379 31.7049L105.376 33.0415H106.712V31.7082ZM106.729 25.0285L108.063 25.0318V25.0285H106.729ZM106.652 21.9559V20.6226H105.244L105.321 22.0286L106.652 21.9559ZM108.493 21.9559L109.825 21.9011L109.773 20.6226H108.493V21.9559ZM108.57 23.8236L107.238 23.8784L107.291 25.1569H108.57V23.8236ZM108.625 23.8236V25.1569H109.572L109.884 24.2628L108.625 23.8236ZM109.683 22.2787L108.891 21.2057L108.869 21.2224L108.847 21.24L109.683 22.2787ZM111.987 22.5528C111.689 22.4965 111.384 22.4706 111.074 22.4706V25.1372C111.235 25.1372 111.373 25.1507 111.493 25.1733L111.987 22.5528ZM111.074 22.4706C109.928 22.4706 108.931 22.9458 108.26 23.8993L110.442 25.4333C110.579 25.2385 110.735 25.1372 111.074 25.1372V22.4706ZM108.253 23.9106C107.715 24.6925 107.492 25.6143 107.492 26.5906H110.158C110.158 26.0195 110.286 25.66 110.45 25.422L108.253 23.9106ZM107.492 26.5906V31.7082H110.158V26.5906H107.492ZM108.825 30.3749H106.712V33.0415H108.825V30.3749ZM108.046 31.7116L108.063 25.0318L105.396 25.0251L105.379 31.7049L108.046 31.7116ZM108.063 25.0285C108.063 23.882 108.036 22.8349 107.984 21.8832L105.321 22.0286C105.37 22.9249 105.396 23.9229 105.396 25.0285H108.063ZM106.652 23.2893H108.493V20.6226H106.652V23.2893ZM107.161 22.0108L107.238 23.8784L109.902 23.7687L109.825 21.9011L107.161 22.0108ZM108.57 25.1569H108.625V22.4903H108.57V25.1569ZM109.884 24.2628C110.035 23.8317 110.253 23.5315 110.519 23.3174L108.847 21.24C108.152 21.7995 107.663 22.5342 107.366 23.3844L109.884 24.2628ZM110.474 23.3517C110.734 23.1599 110.97 23.0897 111.211 23.0897V20.423C110.357 20.423 109.573 20.7027 108.891 21.2057L110.474 23.3517ZM111.211 23.0897C111.339 23.0897 111.448 23.0995 111.532 23.1128L111.948 20.4787C111.72 20.4428 111.472 20.423 111.211 20.423V23.0897Z" fill="white" mask="url(#path-26-inside-3_36449_17216)"/>
<path d="M119.174 26.4764H119.826L119.841 25.8247C119.857 25.0783 119.698 24.3917 119.335 23.7979C118.839 22.9808 118.048 22.5732 117.081 22.5732C116.166 22.5732 115.41 22.9807 114.863 23.7278C114.433 24.3027 114.182 24.9832 114.112 25.7489L114.046 26.4764H114.776H119.174ZM117.768 30.909C118.496 30.909 119.189 30.8234 119.84 30.6469L119.89 30.8717C119.197 31.1015 118.395 31.2241 117.473 31.2241C116.143 31.2241 115.175 30.8271 114.485 30.0954L114.484 30.0948C113.787 29.3577 113.405 28.3401 113.405 26.9727C113.405 25.6247 113.759 24.5559 114.433 23.7196L114.433 23.7196L114.438 23.7129C115.123 22.8395 116.035 22.4035 117.237 22.4035C118.41 22.4035 119.232 22.8327 119.799 23.674L119.799 23.6749C120.269 24.3691 120.521 25.2561 120.521 26.3715C120.521 26.485 120.519 26.5903 120.515 26.6879H114.776H114.094L114.11 27.3696C114.134 28.4741 114.495 29.4085 115.259 30.0672L115.261 30.0692C115.941 30.6501 116.798 30.909 117.768 30.909Z" fill="white" stroke="white" stroke-width="1.33333"/>
</svg>
