<svg width="121" height="41" viewBox="0 0 121 41" fill="none" xmlns="http://www.w3.org/2000/svg">
<g clip-path="url(#clip0_36494_74355)">
<path d="M110.951 0.91346H10.3511C9.98439 0.91346 9.62209 0.91346 9.25636 0.91546C8.95021 0.91746 8.6465 0.92327 8.33741 0.92816C7.66592 0.936062 6.99601 0.995136 6.33351 1.10487C5.67193 1.21699 5.03108 1.42838 4.43263 1.73187C3.83491 2.03793 3.28875 2.43563 2.81398 2.91053C2.33671 3.3841 1.93887 3.93148 1.63576 4.53162C1.33181 5.13057 1.12105 5.7724 1.01076 6.43494C0.899417 7.09665 0.839505 7.76598 0.831556 8.43694C0.822276 8.74354 0.821296 9.05116 0.816406 9.3578V32.4721C0.821296 32.7826 0.822276 33.0834 0.831556 33.394C0.839507 34.0649 0.89942 34.7342 1.01076 35.3959C1.12074 36.0588 1.33151 36.701 1.63576 37.3002C1.93873 37.8984 2.33663 38.4435 2.81398 38.9145C3.28695 39.3915 3.83346 39.7894 4.43263 40.0932C5.03107 40.3975 5.67186 40.6101 6.33351 40.724C6.99613 40.8328 7.66596 40.8919 8.33741 40.9008C8.6465 40.9076 8.95021 40.9115 9.25636 40.9115C9.62208 40.9135 9.98441 40.9135 10.3511 40.9135H110.951C111.311 40.9135 111.676 40.9135 112.035 40.9115C112.34 40.9115 112.652 40.9076 112.957 40.9008C113.627 40.8924 114.296 40.8333 114.957 40.724C115.621 40.6093 116.264 40.3967 116.865 40.0932C117.464 39.7893 118.01 39.3913 118.482 38.9145C118.959 38.4417 119.357 37.8969 119.664 37.3002C119.966 36.7006 120.175 36.0584 120.283 35.3959C120.395 34.7341 120.457 34.0649 120.469 33.394C120.473 33.0834 120.473 32.7826 120.473 32.4721C120.48 32.1088 120.48 31.7475 120.48 31.3783V10.4496C120.48 10.0834 120.48 9.7201 120.473 9.3578C120.473 9.05116 120.473 8.74354 120.469 8.4369C120.457 7.76588 120.395 7.0967 120.283 6.4349C120.174 5.77274 119.966 5.13096 119.664 4.53158C119.047 3.32866 118.068 2.34949 116.865 1.73178C116.264 1.42903 115.621 1.2177 114.957 1.10478C114.296 0.994563 113.627 0.935468 112.957 0.92802C112.652 0.92314 112.34 0.91728 112.035 0.91533C111.676 0.91333 111.311 0.91346 110.951 0.91346Z" fill="#A6A6A6"/>
<path d="M9.25932 40.0383C8.95464 40.0383 8.65732 40.0344 8.35503 40.0276C7.72881 40.0195 7.10406 39.965 6.48589 39.8645C5.90948 39.7653 5.35109 39.5806 4.82915 39.3166C4.31199 39.0549 3.8403 38.7116 3.43215 38.3C3.01809 37.8933 2.67337 37.4216 2.41164 36.9035C2.14703 36.3821 1.9639 35.8232 1.86864 35.2463C1.76576 34.6264 1.7101 33.9996 1.70214 33.3713C1.6958 33.1604 1.6875 32.4582 1.6875 32.4582V9.35767C1.6875 9.35767 1.69634 8.66626 1.70219 8.46313C1.70982 7.83581 1.76515 7.20998 1.86772 6.59106C1.96316 6.01258 2.14643 5.45208 2.41118 4.92896C2.67194 4.41127 3.01475 3.93919 3.42632 3.53101C3.83742 3.11895 4.31062 2.77393 4.82866 2.50854C5.3494 2.24542 5.90674 2.06206 6.48198 1.9646C7.10218 1.86317 7.7291 1.80833 8.35749 1.80054L9.25981 1.78833H112.028L112.941 1.80103C113.564 1.80843 114.185 1.86278 114.8 1.96362C115.381 2.06231 115.944 2.24695 116.471 2.51147C117.509 3.04632 118.353 3.89249 118.886 4.9314C119.146 5.45091 119.327 6.00684 119.421 6.58032C119.525 7.20432 119.583 7.83507 119.595 8.46753C119.598 8.75073 119.598 9.05493 119.598 9.35767C119.606 9.73267 119.606 10.0896 119.606 10.4495V31.3781C119.606 31.7414 119.606 32.0959 119.598 32.4533C119.598 32.7785 119.598 33.0764 119.594 33.383C119.582 34.0042 119.525 34.6237 119.423 35.2365C119.33 35.8176 119.147 36.3808 118.883 36.9065C118.619 37.4189 118.277 37.8866 117.867 38.2922C117.459 38.706 116.986 39.0513 116.468 39.3147C115.943 39.5807 115.38 39.7661 114.8 39.8645C114.182 39.9655 113.557 40.02 112.931 40.0276C112.638 40.0344 112.331 40.0383 112.033 40.0383L110.949 40.0403L9.25932 40.0383Z" fill="black"/>
<path d="M25.5864 21.2139C25.5971 20.3792 25.8188 19.5609 26.2309 18.8349C26.6429 18.109 27.2318 17.499 27.9429 17.0618C27.4912 16.4167 26.8953 15.8857 26.2024 15.5112C25.5096 15.1366 24.739 14.9288 23.9518 14.9042C22.2725 14.7279 20.6446 15.909 19.7889 15.909C18.9166 15.909 17.5991 14.9217 16.1804 14.9509C15.2627 14.9805 14.3684 15.2474 13.5845 15.7254C12.8006 16.2035 12.1539 16.8764 11.7075 17.6787C9.77346 21.0271 11.216 25.9482 13.0687 28.6548C13.9956 29.9802 15.0788 31.4606 16.4963 31.4081C17.8833 31.3506 18.4014 30.5236 20.0757 30.5236C21.7344 30.5236 22.2205 31.4081 23.6667 31.3747C25.1551 31.3506 26.0928 30.0435 26.9872 28.7056C27.6532 27.7612 28.1656 26.7175 28.5056 25.6131C27.6409 25.2473 26.903 24.6352 26.3839 23.8529C25.8647 23.0706 25.5874 22.1528 25.5864 21.2139Z" fill="white"/>
<path d="M22.8559 13.1242C23.6675 12.15 24.0673 10.8978 23.9705 9.63354C22.7306 9.76377 21.5854 10.3563 20.7629 11.2932C20.3607 11.7508 20.0527 12.2833 19.8565 12.86C19.6602 13.4368 19.5796 14.0466 19.6192 14.6545C20.2393 14.6609 20.8528 14.5265 21.4135 14.2614C21.9741 13.9963 22.4673 13.6075 22.8559 13.1242Z" fill="white"/>
<path d="M43.1211 28.053H38.3877L37.251 31.4095H35.2461L39.7295 18.9915H41.8125L46.2959 31.4095H44.2568L43.1211 28.053ZM38.8779 26.5042H42.6299L40.7803 21.0569H40.7286L38.8779 26.5042Z" fill="white"/>
<path d="M55.9776 26.883C55.9776 29.6965 54.4717 31.5041 52.1992 31.5041C51.6236 31.5342 51.0511 31.4016 50.5473 31.1215C50.0435 30.8413 49.6288 30.425 49.3506 29.9201H49.3076V34.4045H47.4492V22.3557H49.2481V23.8615H49.2823C49.5732 23.3591 49.9949 22.9449 50.5026 22.663C51.0102 22.3812 51.5847 22.2422 52.1651 22.2609C54.4629 22.261 55.9776 24.0774 55.9776 26.883ZM54.0674 26.883C54.0674 25.05 53.1201 23.8449 51.6748 23.8449C50.2549 23.8449 49.2998 25.0754 49.2998 26.883C49.2998 28.7072 50.2549 29.9289 51.6748 29.9289C53.1201 29.9289 54.0674 28.7326 54.0674 26.883Z" fill="white"/>
<path d="M65.9424 26.883C65.9424 29.6965 64.4366 31.5041 62.1641 31.5041C61.5884 31.5342 61.0159 31.4016 60.5121 31.1215C60.0084 30.8413 59.5936 30.425 59.3155 29.9201H59.2725V34.4045H57.4141V22.3557H59.2129V23.8615H59.2471C59.538 23.3591 59.9597 22.9449 60.4674 22.663C60.975 22.3812 61.5496 22.2422 62.1299 22.2609C64.4278 22.2609 65.9424 24.0773 65.9424 26.883ZM64.0323 26.883C64.0323 25.05 63.085 23.8449 61.6397 23.8449C60.2198 23.8449 59.2647 25.0754 59.2647 26.883C59.2647 28.7072 60.2198 29.9289 61.6397 29.9289C63.085 29.9289 64.0323 28.7326 64.0323 26.883Z" fill="white"/>
<path d="M72.5274 27.9495C72.6651 29.181 73.8614 29.9895 75.4961 29.9895C77.0625 29.9895 78.1895 29.1809 78.1895 28.0706C78.1895 27.1067 77.5098 26.5296 75.9004 26.134L74.2911 25.7463C72.0108 25.1956 70.9522 24.1292 70.9522 22.3987C70.9522 20.2561 72.8194 18.7844 75.4707 18.7844C78.0947 18.7844 79.8936 20.2561 79.9541 22.3987H78.0781C77.9658 21.1594 76.9414 20.4114 75.4443 20.4114C73.9473 20.4114 72.9229 21.1682 72.9229 22.2698C72.9229 23.1477 73.5772 23.6643 75.1777 24.0598L76.5459 24.3957C79.0937 24.9983 80.1524 26.0217 80.1524 27.8381C80.1524 30.1613 78.3018 31.6164 75.3584 31.6164C72.6045 31.6164 70.7451 30.1955 70.625 27.9494L72.5274 27.9495Z" fill="white"/>
<path d="M84.1641 20.2131V22.3557H85.8857V23.8274H84.1641V28.8186C84.1641 29.594 84.5088 29.9553 85.2656 29.9553C85.47 29.9518 85.6741 29.9374 85.8769 29.9123V31.3752C85.5367 31.4388 85.1908 31.4676 84.8447 31.4612C83.0117 31.4612 82.2969 30.7727 82.2969 29.0168V23.8274H80.9805V22.3557H82.2968V20.2131H84.1641Z" fill="white"/>
<path d="M86.8828 26.8831C86.8828 24.0344 88.5605 22.2444 91.1768 22.2444C93.8018 22.2444 95.4717 24.0344 95.4717 26.8831C95.4717 29.7395 93.8105 31.5217 91.1768 31.5217C88.5439 31.5217 86.8828 29.7395 86.8828 26.8831ZM93.5781 26.8831C93.5781 24.929 92.6826 23.7756 91.1768 23.7756C89.6709 23.7756 88.7764 24.9377 88.7764 26.8831C88.7764 28.845 89.6709 29.9895 91.1768 29.9895C92.6826 29.9895 93.5781 28.845 93.5781 26.8831Z" fill="white"/>
<path d="M97.0039 22.3558H98.7764V23.8968H98.8194C98.9393 23.4155 99.2212 22.9902 99.6178 22.6923C100.014 22.3944 100.501 22.2422 100.997 22.2611C101.211 22.2603 101.425 22.2836 101.634 22.3304V24.0687C101.363 23.9861 101.081 23.9482 100.799 23.9564C100.529 23.9455 100.26 23.9931 100.01 24.096C99.76 24.1988 99.5354 24.3546 99.3514 24.5525C99.1674 24.7504 99.0285 24.9857 98.944 25.2424C98.8596 25.4991 98.8317 25.771 98.8623 26.0394V31.4095H97.0039L97.0039 22.3558Z" fill="white"/>
<path d="M110.202 28.7502C109.952 30.3938 108.352 31.5217 106.304 31.5217C103.67 31.5217 102.035 29.7571 102.035 26.926C102.035 24.0862 103.679 22.2444 106.226 22.2444C108.73 22.2444 110.306 23.9651 110.306 26.7102V27.3469H103.911V27.4592C103.882 27.7924 103.923 28.1281 104.034 28.4439C104.144 28.7598 104.32 29.0486 104.55 29.2911C104.781 29.5337 105.06 29.7244 105.37 29.8507C105.679 29.977 106.012 30.036 106.347 30.0237C106.786 30.0648 107.227 29.9631 107.603 29.7337C107.98 29.5042 108.273 29.1593 108.438 28.7502L110.202 28.7502ZM103.92 26.0481H108.446C108.463 25.7485 108.418 25.4487 108.313 25.1675C108.208 24.8863 108.047 24.6297 107.838 24.414C107.629 24.1982 107.379 24.0279 107.101 23.9136C106.824 23.7994 106.526 23.7438 106.226 23.7502C105.923 23.7484 105.623 23.8066 105.343 23.9213C105.063 24.0361 104.808 24.2051 104.594 24.4188C104.38 24.6324 104.21 24.8864 104.094 25.166C103.978 25.4457 103.919 25.7455 103.92 26.0481Z" fill="white"/>
<path d="M36.2461 12.6296C36.2461 10.6946 37.2754 9.49926 38.9336 9.49926C39.5312 9.46966 40.1182 9.66587 40.5779 10.0489C41.0375 10.432 41.3364 10.9739 41.415 11.5671H40.4922C40.4148 11.2156 40.2163 10.9024 39.9314 10.6824C39.6464 10.4624 39.2933 10.3495 38.9336 10.3635C37.8623 10.3635 37.1924 11.2361 37.1924 12.6296C37.1924 14.0193 37.8623 14.8913 38.9375 14.8913C39.284 14.9173 39.6288 14.8217 39.9125 14.621C40.1962 14.4204 40.4012 14.1271 40.4922 13.7917H41.415C41.325 14.3708 41.02 14.8946 40.5607 15.2587C40.1015 15.6227 39.5218 15.8001 38.9375 15.7556C37.2793 15.7556 36.2461 14.5608 36.2461 12.6296Z" fill="white"/>
<path d="M42.428 13.3576C42.3997 13.0617 42.4336 12.7631 42.5274 12.4811C42.6212 12.199 42.773 11.9397 42.9729 11.7197C43.1729 11.4997 43.4166 11.3239 43.6884 11.2036C43.9603 11.0834 44.2543 11.0212 44.5515 11.0212C44.8488 11.0212 45.1428 11.0834 45.4147 11.2036C45.6865 11.3239 45.9302 11.4997 46.1302 11.7197C46.3301 11.9397 46.4819 12.199 46.5757 12.4811C46.6695 12.7631 46.7034 13.0617 46.6751 13.3576C46.7039 13.6538 46.6705 13.9528 46.5769 14.2353C46.4833 14.5179 46.3316 14.7777 46.1316 14.9981C45.9316 15.2185 45.6878 15.3947 45.4156 15.5152C45.1435 15.6357 44.8492 15.698 44.5515 15.698C44.2539 15.698 43.9596 15.6357 43.6875 15.5152C43.4153 15.3947 43.1715 15.2185 42.9715 14.9981C42.7715 14.7777 42.6198 14.5179 42.5262 14.2353C42.4326 13.9528 42.3992 13.6538 42.428 13.3576ZM45.761 13.3576C45.761 12.3815 45.3225 11.8107 44.553 11.8107C43.7806 11.8107 43.346 12.3815 43.346 13.3576C43.346 14.3415 43.7806 14.9079 44.553 14.9079C45.3225 14.9079 45.761 14.3376 45.761 13.3576Z" fill="white"/>
<path d="M47.8672 11.1082H48.7227V11.8235H48.7891C48.9017 11.5666 49.0917 11.3512 49.3326 11.2074C49.5735 11.0636 49.8532 10.9985 50.1328 11.0213C50.3519 11.0048 50.5719 11.0378 50.7765 11.1179C50.9811 11.198 51.1651 11.3231 51.3147 11.484C51.4644 11.6448 51.576 11.8373 51.6412 12.0471C51.7064 12.2569 51.7236 12.4787 51.6914 12.6961V15.6111H50.8027V12.9192C50.8027 12.1956 50.4883 11.8357 49.8311 11.8357C49.6823 11.8288 49.5338 11.8541 49.3957 11.91C49.2577 11.9658 49.1333 12.0508 49.0312 12.1592C48.9291 12.2676 48.8516 12.3968 48.8041 12.5379C48.7565 12.679 48.7401 12.8288 48.7559 12.9768V15.6111H47.8672V11.1082Z" fill="white"/>
<path d="M54.7129 11.0212C55.7256 11.0212 56.3877 11.4924 56.4746 12.2864H55.6221C55.5401 11.9558 55.2168 11.7449 54.7129 11.7449C54.2168 11.7449 53.8399 11.9802 53.8399 12.3318C53.8399 12.6008 54.0674 12.7703 54.5557 12.8821L55.3037 13.0554C56.1602 13.2541 56.5615 13.6223 56.5615 14.2839C56.5615 15.1316 55.7715 15.698 54.6963 15.698C53.625 15.698 52.9268 15.2141 52.8477 14.4163H53.7373C53.814 14.6062 53.9522 14.7648 54.1299 14.8667C54.3075 14.9686 54.5142 15.0079 54.7168 14.9783C55.2705 14.9783 55.6641 14.7303 55.6641 14.3703C55.6641 14.1018 55.4532 13.928 55.002 13.8205L54.2168 13.6384C53.3604 13.4358 52.9639 13.0515 52.9639 12.3816C52.9639 11.5833 53.6953 11.0212 54.7129 11.0212Z" fill="white"/>
<path d="M57.6836 10.3552L58.7217 8.93286H59.7637L58.6016 10.3552H57.6836ZM57.7754 11.1082H58.6602V15.6111H57.7754V11.1082Z" fill="white"/>
<path d="M60.0449 16.0617H60.9541C61.0293 16.3884 61.4053 16.5993 62.0049 16.5993C62.7451 16.5993 63.1836 16.2478 63.1836 15.6526V14.7883H63.1172C62.9778 15.0302 62.7742 15.2289 62.529 15.3624C62.2838 15.4959 62.0064 15.5589 61.7275 15.5446C60.5781 15.5446 59.8672 14.656 59.8672 13.3078C59.8672 11.9348 60.5859 11.0334 61.7363 11.0334C62.0222 11.0235 62.3052 11.0923 62.5546 11.2323C62.804 11.3723 63.0101 11.5782 63.1504 11.8274H63.2207V11.1081H64.0723V15.6481C64.0723 16.6779 63.2656 17.3312 61.9922 17.3312C60.8672 17.3313 60.1396 16.8269 60.0449 16.0617ZM63.2002 13.3034C63.2002 12.4064 62.7363 11.8318 61.9795 11.8318C61.2148 11.8318 60.7852 12.4065 60.7852 13.3034C60.7852 14.2009 61.2148 14.7756 61.9795 14.7756C62.7412 14.7756 63.2002 14.2053 63.2002 13.3034Z" fill="white"/>
<path d="M69.2829 15.6111H68.4264V14.8958H68.3561C68.2423 15.1553 68.0496 15.3725 67.8055 15.5165C67.5613 15.6605 67.278 15.724 66.9958 15.698C66.778 15.7135 66.5595 15.68 66.3563 15.5999C66.1532 15.5199 65.9705 15.3955 65.8217 15.2356C65.6729 15.0758 65.5618 14.8847 65.4966 14.6763C65.4313 14.468 65.4135 14.2476 65.4445 14.0315V11.1082H66.3346V13.8C66.3346 14.5276 66.6276 14.8752 67.2809 14.8752C67.4324 14.8896 67.5852 14.87 67.7281 14.8178C67.871 14.7656 68.0005 14.6822 68.1071 14.5736C68.2137 14.465 68.2947 14.334 68.3442 14.1901C68.3937 14.0462 68.4104 13.8931 68.3932 13.7419V11.1082H69.2829V15.6111Z" fill="white"/>
<path d="M74.5075 14.3953C74.3867 14.8069 74.1251 15.1629 73.7685 15.401C73.4118 15.6392 72.9827 15.7443 72.5563 15.6981C72.2596 15.7059 71.9648 15.6491 71.6923 15.5316C71.4198 15.414 71.1762 15.2386 70.9783 15.0175C70.7803 14.7963 70.6329 14.5348 70.5462 14.2509C70.4596 13.9671 70.4357 13.6678 70.4762 13.3739C70.4367 13.079 70.461 12.779 70.5475 12.4944C70.634 12.2097 70.7807 11.9469 70.9775 11.7239C71.1744 11.5008 71.4169 11.3226 71.6886 11.2014C71.9603 11.0802 72.2549 11.0188 72.5524 11.0213C73.8053 11.0213 74.5612 11.8773 74.5612 13.2913V13.6014H71.3815V13.6512C71.3676 13.8165 71.3883 13.9828 71.4425 14.1395C71.4966 14.2963 71.5829 14.44 71.6958 14.5615C71.8087 14.6829 71.9457 14.7794 72.0981 14.8448C72.2505 14.9102 72.4149 14.9431 72.5807 14.9412C72.7933 14.9667 73.0086 14.9285 73.1994 14.8313C73.3902 14.734 73.5477 14.5823 73.652 14.3953L74.5075 14.3953ZM71.3815 12.9442H73.6559C73.6671 12.793 73.6466 12.6412 73.5956 12.4985C73.5446 12.3558 73.4644 12.2253 73.36 12.1155C73.2556 12.0056 73.1294 11.9188 72.9895 11.8606C72.8495 11.8025 72.699 11.7742 72.5475 11.7777C72.3938 11.7757 72.2413 11.8046 72.0989 11.8625C71.9565 11.9205 71.8272 12.0063 71.7185 12.1151C71.6098 12.2238 71.524 12.3531 71.4662 12.4955C71.4083 12.6379 71.3795 12.7905 71.3815 12.9442Z" fill="white"/>
<path d="M75.7969 9.35034H76.6855V15.6111H75.7969V9.35034Z" fill="white"/>
<path d="M77.9202 13.3576C77.8919 13.0617 77.9257 12.7631 78.0196 12.4811C78.1134 12.199 78.2652 11.9397 78.4651 11.7197C78.6651 11.4997 78.9088 11.3239 79.1806 11.2036C79.4525 11.0834 79.7465 11.0212 80.0437 11.0212C80.341 11.0212 80.635 11.0834 80.9068 11.2036C81.1787 11.3239 81.4224 11.4997 81.6224 11.7197C81.8223 11.9397 81.9741 12.199 82.0679 12.4811C82.1617 12.7631 82.1956 13.0617 82.1673 13.3576C82.1961 13.6538 82.1627 13.9528 82.0691 14.2353C81.9755 14.5179 81.8238 14.7777 81.6238 14.9981C81.4238 15.2185 81.1799 15.3947 80.9078 15.5152C80.6357 15.6357 80.3414 15.698 80.0437 15.698C79.7461 15.698 79.4518 15.6357 79.1797 15.5152C78.9075 15.3947 78.6636 15.2185 78.4636 14.9981C78.2637 14.7777 78.112 14.5179 78.0184 14.2353C77.9248 13.9528 77.8914 13.6538 77.9202 13.3576ZM81.2532 13.3576C81.2532 12.3815 80.8147 11.8107 80.0452 11.8107C79.2727 11.8107 78.8382 12.3815 78.8382 13.3576C78.8382 14.3415 79.2728 14.9079 80.0452 14.9079C80.8147 14.9079 81.2532 14.3376 81.2532 13.3576Z" fill="white"/>
<path d="M89.609 14.3953C89.4883 14.8069 89.2267 15.1629 88.87 15.401C88.5133 15.6392 88.0843 15.7443 87.6579 15.6981C87.3612 15.7059 87.0664 15.6491 86.7939 15.5316C86.5214 15.414 86.2777 15.2386 86.0798 15.0175C85.8819 14.7963 85.7345 14.5348 85.6478 14.2509C85.5611 13.9671 85.5372 13.6678 85.5778 13.3739C85.5383 13.079 85.5626 12.779 85.6491 12.4944C85.7356 12.2097 85.8822 11.9469 86.0791 11.7239C86.276 11.5008 86.5185 11.3226 86.7902 11.2014C87.0619 11.0802 87.3565 11.0188 87.654 11.0213C88.9069 11.0213 89.6628 11.8773 89.6628 13.2913V13.6014H86.4831V13.6512C86.4692 13.8165 86.4899 13.9828 86.5441 14.1395C86.5982 14.2963 86.6845 14.44 86.7974 14.5615C86.9103 14.6829 87.0473 14.7794 87.1997 14.8448C87.3521 14.9102 87.5165 14.9431 87.6823 14.9412C87.8949 14.9667 88.1102 14.9285 88.301 14.8313C88.4918 14.734 88.6493 14.5823 88.7536 14.3953L89.609 14.3953ZM86.483 12.9442H88.7575C88.7687 12.793 88.7482 12.6412 88.6972 12.4985C88.6463 12.3558 88.566 12.2253 88.4616 12.1155C88.3573 12.0056 88.2311 11.9188 88.0911 11.8606C87.9512 11.8025 87.8006 11.7742 87.6491 11.7777C87.4954 11.7757 87.3429 11.8046 87.2005 11.8625C87.0581 11.9205 86.9288 12.0063 86.8201 12.115C86.7115 12.2238 86.6256 12.3531 86.5678 12.4955C86.5099 12.6379 86.4811 12.7905 86.483 12.9442Z" fill="white"/>
<path d="M90.8555 11.1082H91.7109V11.8235H91.7774C91.89 11.5666 92.08 11.3512 92.3209 11.2074C92.5617 11.0636 92.8415 10.9985 93.1211 11.0213C93.3402 11.0048 93.5602 11.0378 93.7648 11.1179C93.9694 11.198 94.1533 11.3231 94.303 11.484C94.4527 11.6448 94.5643 11.8373 94.6295 12.0471C94.6947 12.2569 94.7118 12.4787 94.6797 12.6961V15.6111H93.791V12.9192C93.791 12.1956 93.4766 11.8357 92.8193 11.8357C92.6706 11.8288 92.5221 11.8541 92.384 11.91C92.246 11.9658 92.1216 12.0508 92.0195 12.1592C91.9174 12.2676 91.8399 12.3968 91.7924 12.5379C91.7448 12.679 91.7284 12.8288 91.7441 12.9768V15.6111H90.8555V11.1082Z" fill="white"/>
<path d="M102.304 14.3953C102.184 14.8069 101.922 15.1629 101.565 15.401C101.209 15.6392 100.78 15.7443 100.353 15.6981C100.057 15.7059 99.7617 15.6491 99.4892 15.5316C99.2167 15.414 98.973 15.2386 98.7751 15.0175C98.5772 14.7963 98.4298 14.5348 98.3431 14.2509C98.2564 13.9671 98.2325 13.6678 98.2731 13.3739C98.2336 13.079 98.2579 12.779 98.3444 12.4944C98.4309 12.2097 98.5775 11.9469 98.7744 11.7239C98.9713 11.5008 99.2138 11.3226 99.4855 11.2014C99.7572 11.0802 100.052 11.0188 100.349 11.0213C101.602 11.0213 102.358 11.8773 102.358 13.2913V13.6014H99.1784V13.6512C99.1645 13.8165 99.1853 13.9828 99.2394 14.1395C99.2935 14.2963 99.3798 14.44 99.4927 14.5615C99.6056 14.6829 99.7426 14.7794 99.895 14.8448C100.047 14.9102 100.212 14.9431 100.378 14.9412C100.59 14.9667 100.806 14.9285 100.996 14.8313C101.187 14.734 101.345 14.5823 101.449 14.3953L102.304 14.3953ZM99.1784 12.9442H101.453C101.464 12.793 101.443 12.6412 101.392 12.4985C101.342 12.3558 101.261 12.2253 101.157 12.1155C101.053 12.0056 100.926 11.9188 100.786 11.8606C100.646 11.8025 100.496 11.7742 100.344 11.7777C100.191 11.7757 100.038 11.8046 99.8958 11.8625C99.7534 11.9205 99.6241 12.0064 99.5154 12.1151C99.4067 12.2238 99.3209 12.3531 99.2631 12.4955C99.2052 12.6379 99.1764 12.7905 99.1784 12.9442Z" fill="white"/>
<path d="M103.594 9.35034H104.482V15.6111H103.594V9.35034Z" fill="white"/>
</g>
<defs>
<clipPath id="clip0_36494_74355">
<rect width="119.664" height="40" fill="white" transform="translate(0.816406 0.91333)"/>
</clipPath>
</defs>
</svg>
