<svg width="136" height="41" viewBox="0 0 136 41" fill="none" xmlns="http://www.w3.org/2000/svg">
<path d="M130.844 40.9641H5.84375C3.04375 40.9641 0.84375 38.7641 0.84375 35.9641V5.96411C0.84375 3.16411 3.04375 0.964111 5.84375 0.964111H130.844C133.644 0.964111 135.844 3.16411 135.844 5.96411V35.9641C135.844 38.6641 133.644 40.9641 130.844 40.9641Z" fill="black"/>
<path d="M130.844 1.76411C133.144 1.76411 135.044 3.66411 135.044 5.96411V35.9641C135.044 38.2641 133.144 40.1641 130.844 40.1641H5.84375C3.54375 40.1641 1.64375 38.2641 1.64375 35.9641V5.96411C1.64375 3.66411 3.54375 1.76411 5.84375 1.76411H130.844ZM130.844 0.964111H5.84375C3.04375 0.964111 0.84375 3.16411 0.84375 5.96411V35.9641C0.84375 38.7641 3.04375 40.9641 5.84375 40.9641H130.844C133.644 40.9641 135.844 38.7641 135.844 35.9641V5.96411C135.844 3.26411 133.644 0.964111 130.844 0.964111Z" fill="#A7A6A6"/>
<path d="M68.9453 22.7642C66.5453 22.7642 64.6453 24.5642 64.6453 27.0642C64.6453 29.4642 66.5453 31.3642 68.9453 31.3642C71.3453 31.3642 73.2453 29.5642 73.2453 27.0642C73.2453 24.4642 71.3453 22.7642 68.9453 22.7642ZM68.9453 29.5642C67.6453 29.5642 66.5453 28.4642 66.5453 26.9642C66.5453 25.4642 67.6453 24.3642 68.9453 24.3642C70.2453 24.3642 71.3453 25.3642 71.3453 26.9642C71.3453 28.4642 70.2453 29.5642 68.9453 29.5642ZM59.6453 22.7642C57.2453 22.7642 55.3453 24.5642 55.3453 27.0642C55.3453 29.4642 57.2453 31.3642 59.6453 31.3642C62.0453 31.3642 63.9453 29.5642 63.9453 27.0642C63.9453 24.4642 62.0453 22.7642 59.6453 22.7642ZM59.6453 29.5642C58.3453 29.5642 57.2453 28.4642 57.2453 26.9642C57.2453 25.4642 58.3453 24.3642 59.6453 24.3642C60.9453 24.3642 62.0453 25.3642 62.0453 26.9642C62.0453 28.4642 60.9453 29.5642 59.6453 29.5642ZM48.5453 24.0642V25.8642H52.8453C52.7453 26.8642 52.3453 27.6642 51.8453 28.1642C51.2453 28.7642 50.2453 29.4642 48.5453 29.4642C45.8453 29.4642 43.8453 27.3642 43.8453 24.6642C43.8453 21.9642 45.9453 19.8642 48.5453 19.8642C49.9453 19.8642 51.0453 20.4642 51.8453 21.1642L53.1453 19.8642C52.0453 18.8642 50.6453 18.0642 48.6453 18.0642C45.0453 18.0642 41.9453 21.0642 41.9453 24.6642C41.9453 28.2642 45.0453 31.2642 48.6453 31.2642C50.6453 31.2642 52.0453 30.6642 53.2453 29.3642C54.4453 28.1642 54.8453 26.4642 54.8453 25.1642C54.8453 24.7642 54.8453 24.3642 54.7453 24.0642H48.5453ZM93.9453 25.4642C93.5453 24.4642 92.5453 22.7642 90.3453 22.7642C88.1453 22.7642 86.3453 24.4642 86.3453 27.0642C86.3453 29.4642 88.1453 31.3642 90.5453 31.3642C92.4453 31.3642 93.6453 30.1642 94.0453 29.4642L92.6453 28.4642C92.1453 29.1642 91.5453 29.6642 90.5453 29.6642C89.5453 29.6642 88.9453 29.2642 88.4453 28.3642L94.1453 25.9642L93.9453 25.4642ZM88.1453 26.8642C88.1453 25.2642 89.4453 24.3642 90.3453 24.3642C91.0453 24.3642 91.7453 24.7642 91.9453 25.2642L88.1453 26.8642ZM83.4453 30.9642H85.3453V18.4642H83.4453V30.9642ZM80.4453 23.6642C79.9453 23.1642 79.1453 22.6642 78.1453 22.6642C76.0453 22.6642 74.0453 24.5642 74.0453 26.9642C74.0453 29.3642 75.9453 31.1642 78.1453 31.1642C79.1453 31.1642 79.9453 30.6642 80.3453 30.1642H80.4453V30.7642C80.4453 32.3642 79.5453 33.2642 78.1453 33.2642C77.0453 33.2642 76.2453 32.4642 76.0453 31.7642L74.4453 32.4642C74.9453 33.5642 76.1453 34.9642 78.2453 34.9642C80.4453 34.9642 82.2453 33.6642 82.2453 30.5642V22.9642H80.4453V23.6642ZM78.2453 29.5642C76.9453 29.5642 75.8453 28.4642 75.8453 26.9642C75.8453 25.4642 76.9453 24.3642 78.2453 24.3642C79.5453 24.3642 80.5453 25.4642 80.5453 26.9642C80.5453 28.4642 79.5453 29.5642 78.2453 29.5642ZM102.645 18.4642H98.1453V30.9642H100.045V26.2642H102.645C104.745 26.2642 106.745 24.7642 106.745 22.3642C106.745 19.9642 104.745 18.4642 102.645 18.4642ZM102.745 24.4642H100.045V20.1642H102.745C104.145 20.1642 104.945 21.3642 104.945 22.2642C104.845 23.3642 104.045 24.4642 102.745 24.4642ZM114.245 22.6642C112.845 22.6642 111.445 23.2642 110.945 24.5642L112.645 25.2642C113.045 24.5642 113.645 24.3642 114.345 24.3642C115.345 24.3642 116.245 24.9642 116.345 25.9642V26.0642C116.045 25.8642 115.245 25.5642 114.445 25.5642C112.645 25.5642 110.845 26.5642 110.845 28.3642C110.845 30.0642 112.345 31.1642 113.945 31.1642C115.245 31.1642 115.845 30.5642 116.345 29.9642H116.445V30.9642H118.245V26.1642C118.045 23.9642 116.345 22.6642 114.245 22.6642ZM114.045 29.5642C113.445 29.5642 112.545 29.2642 112.545 28.4642C112.545 27.4642 113.645 27.1642 114.545 27.1642C115.345 27.1642 115.745 27.3642 116.245 27.5642C116.045 28.7642 115.045 29.5642 114.045 29.5642ZM124.545 22.9642L122.445 28.3642H122.345L120.145 22.9642H118.145L121.445 30.5642L119.545 34.7642H121.445L126.545 22.9642H124.545ZM107.745 30.9642H109.645V18.4642H107.745V30.9642Z" fill="white"/>
<path d="M11.2438 8.46411C10.9438 8.86411 10.8438 9.26411 10.8438 9.96411V31.9641C10.8438 32.5641 11.0437 33.0641 11.3438 33.3641L11.4437 33.4641L23.8438 21.0641V20.9641V20.8641L11.2438 8.46411Z" fill="#5BC9F4"/>
<path d="M27.8422 25.2642L23.7422 21.1642V20.9642V20.8642L27.8422 16.7642L27.9422 16.8642L32.8422 19.6642C34.2422 20.4642 34.2422 21.7642 32.8422 22.5642L27.8422 25.2642Z" fill="url(#paint0_linear_36366_137669)"/>
<path d="M27.9422 25.1641L23.7422 20.9641L11.2422 33.4641C11.7422 33.9641 12.4422 33.9641 13.3422 33.5641L27.9422 25.1641Z" fill="url(#paint1_linear_36366_137669)"/>
<path d="M27.9422 16.7642L13.3422 8.46422C12.4422 7.96422 11.7422 8.06422 11.2422 8.56422L23.7422 20.9642L27.9422 16.7642Z" fill="url(#paint2_linear_36366_137669)"/>
<path d="M42.1445 13.9641V7.96411H43.9445C44.8445 7.96411 45.6445 8.26411 46.1445 8.76411C46.7445 9.36411 46.9445 10.0641 46.9445 10.9641C46.9445 11.8641 46.6445 12.5641 46.1445 13.1641C45.6445 13.6641 44.8445 13.9641 43.9445 13.9641H42.1445ZM42.9445 13.2641H44.0445C44.7445 13.2641 45.2445 13.0641 45.6445 12.6641C46.0445 12.2641 46.2445 11.6641 46.2445 10.9641C46.2445 10.2641 46.0445 9.66411 45.6445 9.26411C45.2445 8.86411 44.6445 8.66411 44.0445 8.66411H42.9445V13.2641Z" fill="white" stroke="white" stroke-width="0.2" stroke-miterlimit="10"/>
<path d="M48.043 13.9641V7.96411H48.843V13.9641H48.043Z" fill="white" stroke="white" stroke-width="0.2" stroke-miterlimit="10"/>
<path d="M51.9437 14.0642C51.5437 14.0642 51.0438 13.9642 50.6438 13.6642C50.2438 13.3642 49.9438 12.9642 49.8438 12.4642L50.5437 12.1642C50.6437 12.4642 50.8437 12.7642 51.0437 12.9642C51.3437 13.1642 51.6437 13.2642 51.9437 13.2642C52.2437 13.2642 52.5438 13.1642 52.8438 12.9642C53.0438 12.7642 53.2438 12.5642 53.2438 12.2642C53.2438 11.9642 53.1437 11.6642 52.8438 11.4642C52.6437 11.2642 52.2438 11.0642 51.7438 10.9642C51.2438 10.7642 50.8437 10.5642 50.5437 10.3642C50.2437 10.0642 50.1438 9.76416 50.1438 9.36416C50.1438 8.96416 50.3438 8.56416 50.6438 8.26416C50.9438 7.96416 51.4437 7.76416 51.9437 7.76416C52.4437 7.76416 52.8438 7.86416 53.1438 8.16416C53.4438 8.46416 53.6438 8.66416 53.7438 8.96416L53.0437 9.26416C52.9437 9.06416 52.8438 8.86416 52.6438 8.76416C52.4438 8.56416 52.1437 8.56416 51.8438 8.56416C51.5438 8.56416 51.3437 8.66416 51.0437 8.76416C50.9437 8.96416 50.8438 9.16416 50.8438 9.46416C50.8438 9.66416 50.9438 9.86416 51.1438 10.0642C51.3438 10.2642 51.6437 10.3642 52.0437 10.4642C52.3437 10.5642 52.5438 10.6642 52.7438 10.7642C52.9438 10.8642 53.1437 10.9642 53.3438 11.1642C53.5438 11.2642 53.7438 11.4642 53.8438 11.7642C53.9437 12.0642 54.0437 12.2642 54.0437 12.5642C54.0437 12.8642 53.9437 13.1642 53.8438 13.3642C53.7438 13.5642 53.5438 13.7642 53.3438 13.8642C53.0438 13.8642 52.8438 13.9642 52.6438 13.9642C52.4438 14.0642 52.1437 14.0642 51.9437 14.0642Z" fill="white" stroke="white" stroke-width="0.2" stroke-miterlimit="10"/>
<path d="M55.843 13.9641H55.043V7.96411H57.043C57.543 7.96411 57.943 8.16411 58.343 8.46411C58.743 8.76411 58.943 9.26411 58.943 9.76411C58.943 10.2641 58.743 10.6641 58.343 11.0641C57.943 11.3641 57.543 11.5641 57.043 11.5641H55.843V13.9641ZM55.843 10.7641H57.143C57.443 10.7641 57.743 10.6641 57.943 10.4641C58.143 10.2641 58.243 9.96411 58.243 9.76411C58.243 9.46411 58.143 9.26411 57.943 9.06411C57.743 8.86411 57.443 8.76411 57.143 8.76411H55.843V10.7641Z" fill="white" stroke="white" stroke-width="0.2" stroke-miterlimit="10"/>
<path d="M64.843 13.1643C64.243 13.7643 63.543 14.0643 62.643 14.0643C61.743 14.0643 61.043 13.7643 60.443 13.1643C59.843 12.5643 59.543 11.8643 59.543 10.9643C59.543 10.0643 59.843 9.36426 60.443 8.76426C61.043 8.16426 61.743 7.86426 62.643 7.86426C63.543 7.86426 64.243 8.16426 64.843 8.76426C65.443 9.36426 65.743 10.0643 65.743 10.9643C65.743 11.8643 65.443 12.5643 64.843 13.1643ZM61.043 12.6643C61.443 13.0643 62.043 13.3643 62.643 13.3643C63.243 13.3643 63.843 13.1643 64.243 12.6643C64.643 12.2643 64.943 11.6643 64.943 10.9643C64.943 10.2643 64.743 9.66426 64.243 9.26426C63.843 8.86426 63.243 8.56425 62.643 8.56425C62.043 8.56425 61.443 8.76426 61.043 9.26426C60.643 9.66426 60.343 10.2643 60.343 10.9643C60.343 11.6643 60.543 12.2643 61.043 12.6643Z" fill="white" stroke="white" stroke-width="0.2" stroke-miterlimit="10"/>
<path d="M66.8438 13.9641V7.96411H67.7438L70.6438 12.6641V11.4641V7.96411H71.4437V13.9641H70.6438L67.5437 9.06411V10.2641V13.9641H66.8438Z" fill="white" stroke="white" stroke-width="0.2" stroke-miterlimit="10"/>
<path d="M72.8438 13.9641V7.96411H73.6438V13.9641H72.8438Z" fill="white" stroke="white" stroke-width="0.2" stroke-miterlimit="10"/>
<path d="M74.9453 13.9641V7.96411H77.1453C77.6453 7.96411 78.0453 8.16411 78.3453 8.46411C78.6453 8.76411 78.8453 9.16411 78.8453 9.66411C78.8453 9.96411 78.7453 10.1641 78.6453 10.4641C78.5453 10.6641 78.3453 10.8641 78.0453 10.9641C78.3453 11.0641 78.5453 11.2641 78.7453 11.4641C78.9453 11.6641 79.0453 11.9641 79.0453 12.3641C79.0453 12.8641 78.8453 13.2641 78.5453 13.5641C78.1453 13.8641 77.7453 14.0641 77.2453 14.0641H74.9453V13.9641ZM75.7453 10.5641H77.1453C77.4453 10.5641 77.6453 10.4641 77.8453 10.2641C78.0453 10.0641 78.1453 9.86411 78.1453 9.66411C78.1453 9.46411 78.0453 9.26411 77.8453 9.06411C77.6453 8.86411 77.4453 8.76411 77.1453 8.76411H75.7453V10.5641ZM75.7453 13.2641H77.3453C77.6453 13.2641 77.8453 13.1641 78.0453 12.9641C78.2453 12.7641 78.3453 12.5641 78.3453 12.2641C78.3453 12.0641 78.2453 11.7641 78.0453 11.5641C77.8453 11.3641 77.6453 11.2641 77.3453 11.2641H75.8453V13.2641H75.7453Z" fill="white" stroke="white" stroke-width="0.2" stroke-miterlimit="10"/>
<path d="M80.043 13.9641V7.96411H80.843V13.2641H83.443V13.9641H80.043Z" fill="white" stroke="white" stroke-width="0.2" stroke-miterlimit="10"/>
<path d="M87.9453 8.66411H85.2453V10.5641H87.7453V11.2641H85.2453V13.1641H87.9453V13.9641H84.4453V7.96411H87.9453V8.66411Z" fill="white" stroke="white" stroke-width="0.2" stroke-miterlimit="10"/>
<path d="M94.6445 8.66411H91.9445V10.5641H94.4445V11.2641H91.9445V13.1641H94.6445V13.9641H91.1445V7.96411H94.6445V8.66411Z" fill="white" stroke="white" stroke-width="0.2" stroke-miterlimit="10"/>
<path d="M95.8438 13.9641V7.96411H96.7438L99.6438 12.6641V11.4641V7.96411H100.444V13.9641H99.6438L96.5437 9.06411V10.2641V13.9641H95.8438Z" fill="white" stroke="white" stroke-width="0.2" stroke-miterlimit="10"/>
<defs>
<linearGradient id="paint0_linear_36366_137669" x1="31.931" y1="20.9645" x2="7.75419" y2="20.9645" gradientUnits="userSpaceOnUse">
<stop stop-color="#FEE000"/>
<stop offset="0.1941" stop-color="#FCCF0B"/>
<stop offset="0.5469" stop-color="#FAB318"/>
<stop offset="0.8279" stop-color="#F9A21B"/>
<stop offset="1" stop-color="#F99B1C"/>
</linearGradient>
<linearGradient id="paint1_linear_36366_137669" x1="25.6568" y1="23.2572" x2="2.91729" y2="45.9967" gradientUnits="userSpaceOnUse">
<stop stop-color="#EF4547"/>
<stop offset="1" stop-color="#C6186D"/>
</linearGradient>
<linearGradient id="paint2_linear_36366_137669" x1="2.81599" y1="-4.16988" x2="21.3822" y2="14.3963" gradientUnits="userSpaceOnUse">
<stop stop-color="#279E6F"/>
<stop offset="0.3168" stop-color="#4DAB6D"/>
<stop offset="0.7398" stop-color="#6ABA6A"/>
<stop offset="1" stop-color="#74C169"/>
</linearGradient>
</defs>
</svg>
