<svg width="51" height="51" viewBox="0 0 51 51" fill="none" xmlns="http://www.w3.org/2000/svg">
<g clip-path="url(#clip0_136_25)">
<path d="M0 25.5C0 28.6192 0.5611 31.607 1.58608 34.3695L25.5 35.4783L49.4139 34.3696C50.439 31.6071 51 28.6192 51 25.5C51 22.3808 50.439 19.3929 49.4139 16.6305L25.5 15.5217L1.58608 16.6304C0.5611 19.3929 0 22.3808 0 25.5H0Z" fill="black"/>
<path d="M25.4999 0C14.5358 0 5.18891 6.92006 1.58594 16.6305H49.4139C45.8108 6.92006 36.464 0 25.4999 0V0Z" fill="#0052B4"/>
<path d="M49.4138 34.3696H1.58594C5.18891 44.0799 14.5358 51.0001 25.4999 51.0001C36.464 51.0001 45.8108 44.0799 49.4138 34.3696Z" fill="#F0F0F0"/>
</g>
<defs>
<clipPath id="clip0_136_25">
<rect width="51" height="51" fill="white"/>
</clipPath>
</defs>
</svg>
