<svg width="466" height="128" viewBox="0 0 466 128" fill="none" xmlns="http://www.w3.org/2000/svg">
<path d="M65.9511 127.5C65.8204 127.5 65.6901 127.47 65.5606 127.4C63.5946 126.344 61.2502 127.097 59.3537 126.322C59.0424 126.194 58.7932 126.143 58.5698 126.143C58.2092 126.143 57.9118 126.277 57.5161 126.433C57.1043 126.595 56.6593 126.699 56.2199 126.699C55.7812 126.699 55.3469 126.597 54.9535 126.348C54.4891 126.056 54.0485 125.861 53.5822 125.861C53.255 125.861 52.9138 125.959 52.5414 126.186C51.9349 126.556 51.3574 126.738 50.7969 126.738C50.0749 126.738 49.3818 126.437 48.691 125.868C48.3454 125.582 48.1346 125.432 47.9292 125.432C47.6546 125.432 47.3923 125.703 46.832 126.268C46.6565 126.446 46.2587 126.569 45.9591 126.569C45.9473 126.569 45.9377 126.569 45.9271 126.569C45.6234 126.56 45.2286 126.402 45.0596 126.207C44.8756 125.997 44.8649 125.671 44.851 125.393C44.8222 124.805 44.713 124.114 43.8767 124.114C43.8649 124.114 43.8543 124.114 43.8425 124.114C43.8006 124.116 43.7601 124.116 43.7204 124.116C42.285 124.116 41.6369 123.547 41.1202 122.551C40.8004 121.934 40.454 121.7 41.609 121.451C43.1407 121.118 43.9345 120.215 43.6787 118.89L43.2209 118.927C42.2048 119.319 41.6763 120.499 40.5236 120.499C40.4217 120.499 40.3138 120.49 40.2015 120.471C39.2561 120.302 38.5159 119.475 37.629 119.005C37.5274 118.953 37.3872 118.933 37.2345 118.933C37.028 118.933 36.798 118.968 36.6118 119.007C36.1296 119.109 36.1263 119.343 36.5157 119.635C36.9081 119.931 37.307 120.23 37.6279 120.572C37.7862 120.743 37.7755 121.012 37.8421 121.235C37.8196 121.235 37.7972 121.233 37.7755 121.233C37.2473 121.233 36.7733 121.492 36.2985 121.752C35.8227 122.01 35.3443 122.27 34.8084 122.27C34.4224 122.27 34.0075 122.137 33.5412 121.774C33.2222 121.525 32.5527 121.557 32.0437 121.464C31.7047 121.401 31.357 121.362 31.0243 121.282C30.6971 121.202 30.4413 120.375 30.6746 120.163C31.2598 119.628 31.7847 119.083 32.7198 118.827C33.3561 118.654 33.9615 118.265 34.4054 117.853C34.7038 117.576 34.7882 117.089 34.7775 116.701C34.7734 116.556 34.2342 116.31 33.9295 116.299C32.1195 116.24 30.3066 116.238 28.4948 116.214C27.5909 116.203 26.687 116.199 25.7842 116.162L25.35 115.948C25.442 115.712 25.549 115.457 25.7511 115.277C26.1941 114.883 26.7106 114.565 27.4017 114.565C27.472 114.565 27.5438 114.567 27.6188 114.573C27.8176 114.593 28.0101 114.602 28.1974 114.602C29.6968 114.602 30.8531 114.019 31.8372 113.084C32.0128 112.915 32.358 112.859 32.6587 112.772C32.5453 112.532 32.4919 112.224 32.2737 112.103C30.5215 111.125 28.2552 111.162 26.4315 110.28C26.3267 110.231 26.2174 110.207 26.1095 110.207C25.6539 110.207 25.2068 110.625 25.0772 111.218C25.0175 111.499 25.1159 111.815 24.9981 112.073L24.3768 112.523L24.0345 112.194C23.888 111.653 24.0291 110.863 23.6205 110.605C22.5318 109.919 20.8566 110.226 19.7348 109.401C19.7069 109.38 19.6641 109.373 19.6107 109.373C19.3966 109.373 19.0127 109.51 18.7551 109.588C18.4404 109.681 18.234 109.934 17.8843 109.934C17.7485 109.934 17.5902 109.895 17.3967 109.795C16.2392 109.194 14.5813 109.025 15.1612 107.382C15.5385 106.312 14.5375 105.905 13.4583 105.589C13.1095 105.487 13.2015 105.13 13.6936 105.048C15.162 104.805 15.5344 104.199 14.6338 103.271C13.9589 102.573 14.9493 102.322 15.0424 101.855C15.2371 100.872 15.5385 99.85 13.5769 99.627C12.9225 99.5534 12.9107 98.7285 13.4175 98.2025C13.7344 97.8756 13.9718 97.7045 14.2176 97.7045C14.501 97.7045 14.7965 97.9275 15.2414 98.3973C15.4233 98.59 15.5933 98.7026 15.7365 98.7026C15.8414 98.7026 15.9334 98.6441 16.0051 98.5099C16.8041 97.0291 17.9153 95.9011 19.97 95.295C20.9593 95.0027 21.0215 93.6822 22.4354 93.3445C23.1479 93.1756 22.6386 92.4157 22.3029 91.8896C21.5735 90.7422 21.6397 90.7119 22.7361 90.2486C23.4836 89.9347 24.244 89.6403 25.0014 89.3372C25.0088 89.0644 25.057 88.7852 25.0025 88.5189C24.9042 88.0448 24.2848 87.6118 23.8248 87.6118C23.7221 87.6118 23.6279 87.6356 23.5488 87.6811C22.8259 88.1119 22.1307 88.573 21.4557 89.0515C21.1156 89.2918 20.7465 89.3481 20.3679 89.3481C20.2085 89.3481 20.0469 89.3372 19.8865 89.3285C19.7271 89.3177 19.5667 89.3091 19.4095 89.3091C19.3988 89.3091 19.3892 89.3091 19.3796 89.3091L18.9369 89.0969C18.648 88.9107 18.7433 88.7203 19.1967 88.5319C19.6557 88.3414 20.5176 88.1227 20.5048 87.9517C20.3657 86.1678 21.5017 85.8019 23.0173 85.8019C23.3382 85.8019 23.6761 85.8193 24.0228 85.8409C24.3393 85.8626 24.6591 85.8712 24.9789 85.8712C25.3864 85.8712 25.796 85.8561 26.2004 85.8301C26.7875 85.7912 27.1139 85.4945 27.2346 85.0117C27.2968 84.7628 27.5695 84.5463 27.747 84.319C29.1259 85.5595 31.2179 84.7 32.8608 85.4317C33.2682 85.6136 33.6513 85.7002 34.0031 85.7002C34.9295 85.698 35.6408 85.1113 35.9938 84.1458C36.0921 83.8795 35.9938 83.5721 36.0365 83.2864C36.1542 82.4897 36.8867 81.8489 37.6654 81.7125C39.6131 81.3726 41.4304 80.8833 43.0583 79.9719C43.4466 80.2274 43.7398 80.3291 43.9695 80.3291C44.7707 80.3291 44.8104 79.1146 45.4446 79.0583C47.3411 78.8851 49.0396 77.9911 50.9754 77.9911C51.2033 77.9911 51.4355 78.004 51.6707 78.0322L52.2517 77.5364L51.8259 77.2766C51.4793 77.2246 51.1178 77.2247 50.7627 77.216C49.6729 77.1879 48.5765 77.2052 47.4919 77.1208C47.0032 77.0818 46.3581 76.9411 46.1111 76.6661C45.8531 76.376 45.9098 75.9106 45.8649 75.5014C43.0906 75.5577 40.7823 76.9043 38.0784 77.2701C36.6655 77.4628 35.5445 78.556 34.9295 79.7489C34.7156 79.777 34.5004 79.7922 34.2909 79.7922C33.1069 79.7922 32.0522 79.3397 31.9366 78.5127C31.7217 76.9583 30.1056 75.7439 30.5109 74.0899C30.7622 73.0638 30.3835 72.1761 29.3343 71.4206C28.1577 70.572 26.7845 69.7363 27.1758 68.1993C26.2645 67.3268 25.5041 66.266 24.0603 65.9282C23.0986 65.7052 22.5797 65.1554 21.9157 64.7008C21.2364 64.2375 20.4076 63.7179 20.8161 62.9321C21.1146 62.3562 22.028 62.4471 22.735 62.4103L23.2602 62.3692C23.4932 62.1787 23.7618 61.9492 23.8141 61.7067C23.8645 61.4707 23.7714 61.0746 23.5606 60.9663C22.8259 60.581 21.9754 60.3363 21.2438 59.9488C20.7925 59.7106 19.5872 60.1631 19.9432 59.1543C20.0705 58.7927 20.3391 58.4593 20.5582 58.1173C19.8566 58.0956 19.154 58.0719 18.4522 58.048C17.495 56.918 16.696 55.658 15.4829 54.7379C14.8734 54.2768 13.7064 54.162 14.2894 53.3091C14.561 52.9086 15.0917 52.7462 15.6125 52.7462C16.0276 52.7462 16.4361 52.8501 16.7034 53.0168C17.1751 53.3069 17.5667 53.4346 17.9035 53.4346C18.4415 53.4346 18.8427 53.1099 19.2126 52.6055C19.74 51.8867 20.1732 51.1182 20.5475 50.341C20.6406 50.1462 20.3539 49.8366 20.2427 49.579L19.8084 49.7219C19.1165 50.1202 18.4342 50.5272 17.7496 50.9299C17.3591 50.6398 17.0618 50.512 16.834 50.512C16.4531 50.512 16.2661 50.8736 16.1664 51.4625C16.1248 51.7093 15.9827 51.8174 15.7943 51.8174C15.6809 51.8174 15.5514 51.7785 15.4156 51.7071C15.0114 51.4927 14.5643 51.3282 14.1322 51.1485C14.8315 50.1094 15.0008 48.8061 16.8255 48.3623C17.5678 48.1826 17.4202 47.3967 17.3389 46.8252C17.2351 46.0913 16.559 45.968 15.7976 45.9377C15.6872 45.9333 15.5771 45.9333 15.466 45.9333C15.343 45.9333 15.2198 45.9333 15.0969 45.9354C14.9739 45.9376 14.8499 45.9398 14.7269 45.9398C14.0082 45.9398 13.3086 45.8748 12.7374 45.3639C12.6391 45.2773 12.5394 45.2384 12.4356 45.2384C12.2645 45.2384 12.0797 45.3422 11.8603 45.4938C11.4677 45.7666 11.1147 45.8749 10.7908 45.8749C10.1586 45.8749 9.63119 45.4592 9.11998 45.0176C8.55098 44.5261 9.00771 44.3659 9.5255 44.2122C9.84614 44.1126 10.4184 44 10.4239 43.8788C10.4485 43.4112 10.0154 43.3202 9.51674 43.3202C9.48361 43.3202 9.44938 43.3202 9.41515 43.3202C9.36066 43.3224 9.30398 43.3224 9.2484 43.3224C9.02168 43.3224 8.79386 43.3138 8.56604 43.3051C8.34014 43.2965 8.11342 43.2878 7.8878 43.2878C7.85029 43.2878 7.81305 43.29 7.77553 43.29C7.75938 43.29 7.7435 43.29 7.72734 43.29C7.16383 43.29 6.62769 43.1427 6.51022 42.7205C6.33251 42.0819 6.73256 41.6685 7.63123 41.5667C7.90505 41.5364 8.13588 41.2679 8.38724 41.1099C8.08577 40.9757 7.79908 40.7938 7.47598 40.7267C7.29197 40.6877 7.09619 40.6812 6.89959 40.6812C6.86098 40.6812 6.82155 40.6812 6.78294 40.6812C6.74434 40.6834 6.70491 40.6835 6.6663 40.6835C6.57211 40.6835 6.47928 40.6812 6.38728 40.6769L5.87798 40.586C5.29092 40.3414 5.1625 39.7763 5.42016 39.4992C6.00092 38.8779 6.39576 38.3627 5.54228 37.7284L6.2364 37.317C7.47926 37.488 8.46008 38.2133 9.84724 38.2133C9.99181 38.2133 10.1405 38.2046 10.2944 38.1873C10.8902 38.1223 11.5405 38.0206 12.1834 38.0206C12.977 38.0206 13.7587 38.1743 14.4123 38.7372C15.561 38.4752 16.7121 38.2176 17.8534 37.9427L18.2351 37.6656L17.8416 37.369C17.1677 37.1438 16.311 36.6589 15.7622 36.6589C15.6754 36.6589 15.5963 36.6719 15.5268 36.6979C14.8893 36.9468 14.3406 37.1676 13.9044 37.1676C13.3995 37.1676 13.0421 36.8732 12.8669 35.9943L12.5405 35.676C11.9244 36.0137 11.3138 36.2671 10.7018 36.2671C10.2046 36.2671 9.70814 36.1003 9.2087 35.6803C8.39601 36.2085 7.59783 36.3926 6.8054 36.3926C5.4396 36.3926 4.08858 35.8471 2.70772 35.5786C1.74607 35.3946 0.978287 35.3145 0.908737 34.3793C0.830699 33.3401 1.52893 32.4136 2.83723 32.0997C3.08093 32.0434 3.36461 32.0087 3.64144 32.0087C3.93141 32.0087 4.21481 32.0455 4.44153 32.1321C4.84048 32.2837 5.04475 32.7534 5.33034 33.0868C5.68768 33.5024 6.10278 33.7168 6.49516 33.7168C6.81717 33.7168 7.12412 33.5739 7.37001 33.2752C7.64301 32.9461 7.78731 32.55 7.98939 32.1819C8.50279 32.5759 9.02167 32.9656 9.51372 33.3726L9.19911 33.7038C9.09123 33.9225 9.03537 34.1606 8.95843 34.3901C9.25798 34.4507 9.5704 34.5763 9.856 34.5763C9.89324 34.5763 9.92966 34.5741 9.96498 34.5698C10.2892 34.5286 10.6098 34.3317 10.8678 34.1477C12.1747 33.2124 12.1117 32.7924 10.5789 32.013C9.54029 31.4826 9.43541 31.0973 10.1928 30.3591C10.5362 30.0257 10.9318 29.7205 11.3373 29.4304C11.6966 29.1727 11.5277 28.9779 11.4934 28.7311C11.2369 26.8671 11.273 26.9212 13.0197 26.8259C13.1993 26.8173 13.3803 26.8129 13.5621 26.8129C13.9504 26.8129 14.3428 26.8303 14.7343 26.8498C15.127 26.8671 15.5183 26.8844 15.9076 26.8844C16.9175 26.8844 17.9079 26.7631 18.8191 26.2046C19.2225 26.4535 19.6225 26.551 20.0075 26.551C20.7775 26.551 21.4911 26.1679 22.0568 25.8713C22.5543 25.6115 22.9746 25.5076 23.3766 25.5076C23.859 25.5076 24.3158 25.657 24.8483 25.8713C24.951 25.9124 25.0592 25.9319 25.1651 25.9319C25.5523 25.9319 25.9318 25.6808 26.0455 25.3084C26.178 24.8711 25.9726 24.4836 25.4368 24.2584C24.9757 24.0657 24.0816 23.8601 24.0986 23.7064C24.2966 21.8208 22.9776 21.5653 21.398 21.5653C21.1669 21.5653 20.9316 21.5717 20.6931 21.5761C20.3347 20.1905 21.9787 19.3744 22.2996 18.175C22.6247 16.9562 23.6934 16.3024 25.1427 15.9019C25.9748 15.6724 26.7514 15.2936 27.5139 14.9299C27.7664 14.8087 27.9942 14.761 28.2124 14.761C28.6423 14.761 29.0306 14.945 29.4799 15.1095C30.2349 15.3866 30.6927 15.549 31.064 15.549C31.6009 15.549 31.9558 15.2091 32.7688 14.3821C32.9859 14.1635 33.1743 14.0834 33.3476 14.0834C33.5839 14.0834 33.7934 14.2285 34.0127 14.3584C34.3668 14.5662 34.7016 14.6593 35.0086 14.6593C35.5401 14.6593 35.9894 14.3843 36.3136 13.9795C37.0655 13.0399 37.6025 11.9921 38.2591 11.0028C38.7747 10.2234 39.4431 9.59779 40.641 9.41811C41.3245 9.31636 41.3075 8.93749 40.9288 8.54348C40.4198 8.01092 40.8699 7.84201 41.3138 7.84201C41.3694 7.84201 41.4241 7.84419 41.4775 7.85069C41.977 7.89398 42.4304 8.20138 42.9301 8.33344C43.5492 8.4958 44.0928 8.58671 44.5698 8.58671C45.4766 8.58671 46.1442 8.25549 46.6363 7.45015C47.2126 6.50626 47.7805 5.96718 48.9733 5.96718C49.1036 5.96718 49.2427 5.97157 49.3903 5.98673C49.7583 6.0192 50.1326 6.03652 50.5061 6.03652C50.8632 6.03652 51.2216 6.02137 51.5746 5.99106C51.7008 5.98024 51.8215 5.97372 51.936 5.97372C53.0154 5.97372 53.5822 6.44345 53.8538 7.32456C53.9064 7.49992 54.0239 7.5844 54.1534 7.5844C54.301 7.5844 54.4636 7.47403 54.5641 7.25321C54.8015 6.73147 54.8689 6.20322 55.7771 6.03219C55.9118 6.00621 56.0422 5.99541 56.1695 5.99541C56.6251 5.99541 57.0347 6.13824 57.4263 6.28113C57.8179 6.424 58.1922 6.56686 58.5772 6.56686C58.6264 6.56686 58.6766 6.56474 58.7269 6.56041C59.282 6.50196 59.8373 6.05818 60.3934 6.05818C60.6256 6.05818 60.8586 6.13387 61.0919 6.35036C61.2995 6.54304 61.4939 6.6102 61.679 6.6102C61.9079 6.6102 62.1228 6.50629 62.3326 6.40238C62.5412 6.2963 62.7444 6.19234 62.9487 6.19234C63.0716 6.19234 63.1956 6.23138 63.3219 6.3288C64.0461 6.89816 64.936 6.86134 65.8517 6.89381C65.9007 6.89597 65.9478 6.89594 65.996 6.89594C66.9061 6.89594 67.6164 6.59284 68.333 6.188C68.595 6.04079 69.0058 6.04517 69.3524 6.0062C69.5909 5.98022 69.8346 5.9694 70.0808 5.9694C70.3226 5.9694 70.5652 5.98023 70.8091 5.98673C71.0531 5.99539 71.2968 6.00407 71.5386 6.00407C72.4178 6.00407 73.2672 5.89149 73.9761 5.24636C75.6042 5.19007 77.2321 5.15324 78.8569 5.06665C79.1756 5.04933 79.476 4.82848 79.7862 4.70292C79.505 4.55787 79.2471 4.35649 78.9412 4.28505C78.7329 4.23526 78.5092 4.2267 78.2835 4.2267C78.2301 4.2267 78.1754 4.22665 78.122 4.22881C78.0686 4.22881 78.0149 4.22881 77.9615 4.22881C77.9262 4.22881 77.8909 4.22881 77.8556 4.22881C77.2269 4.22015 76.8931 3.96465 76.7808 3.48621C76.6587 2.96014 77.062 2.60081 77.5733 2.60081C77.5807 2.60081 77.5883 2.60081 77.5957 2.60081C77.6524 2.60081 77.7069 2.60081 77.7627 2.60081C79.1017 2.60081 80.0335 2.29339 80.2761 1.08538C80.3254 0.842911 80.672 0.578796 80.9683 0.440239C81.3853 0.247566 81.8818 0.0310669 82.3352 0.0310669C82.3533 0.0310669 82.3725 0.0310669 82.3908 0.0310669C82.9319 0.0527115 83.2528 0.409943 83.2605 0.923019C83.2689 1.57032 83.0463 2.37997 84.3226 2.46657C84.4113 2.03792 84.7352 1.67861 85.2284 1.67861C85.236 1.67861 85.2445 1.67861 85.2519 1.67861C85.3247 1.68078 85.3962 1.68073 85.4691 1.68073C85.6766 1.68073 85.8853 1.67645 86.0936 1.66995C86.3023 1.66562 86.5098 1.65906 86.7174 1.65906C87.4833 1.65906 88.2393 1.73486 88.9326 2.16351C89.1388 2.29123 89.294 2.34321 89.4117 2.34321C89.7765 2.34321 89.785 1.85181 89.8674 1.62882C90.1294 0.905746 90.7283 0.773666 91.3904 0.773666C91.6075 0.773666 91.8309 0.788834 92.0535 0.79966C93.0012 0.853783 93.0995 1.44913 93.1274 2.03581C93.1477 2.46663 93.1403 2.9017 93.1124 3.33252C93.0782 3.86508 93.5253 4.1466 94.0439 4.21804C94.9286 4.33711 95.827 4.26997 96.6143 4.77872C96.7706 4.88047 96.9075 4.9194 97.0335 4.9194C97.2763 4.9194 97.4765 4.77005 97.6797 4.62067C97.8828 4.4713 98.0893 4.32195 98.345 4.32195C98.3694 4.32195 98.393 4.32195 98.4187 4.32628C98.761 4.36308 99.0959 4.44744 99.4286 4.52754C100.036 4.67908 100.361 4.76137 100.578 4.76137C100.821 4.76137 100.93 4.65968 101.148 4.44319C101.994 3.60538 102.296 2.41468 103.976 2.1116C104.484 2.01851 104.804 1.24988 105.191 0.780098L105.351 0.386124L105.737 0.0808411C105.925 0.303825 106.243 0.513893 106.275 0.74987C106.331 1.16769 106.292 1.61364 106.161 2.0228C105.744 3.33041 105.882 3.7612 107.122 4.17902C107.175 4.19418 107.232 4.2028 107.294 4.2028C107.543 4.2028 107.857 4.08375 108.127 4.04044C108.069 3.8153 108.094 3.53818 107.933 3.37798C107.628 3.07272 107.529 2.76748 107.844 2.73717C109.09 2.6246 110.347 2.56834 111.602 2.53369C112.512 2.50771 112.775 2.08129 112.966 1.46646C113.044 1.21533 113.257 1.01392 113.478 1.01392C113.632 1.01392 113.79 1.11137 113.909 1.356C114.172 1.8929 114.165 2.46012 115.156 2.5229C115.607 2.55105 116.325 2.67445 115.718 3.28928C115.168 3.84566 114.604 4.39549 114.079 4.96486L114.067 5.38917C114.158 5.64462 114.32 5.78324 114.507 5.78324C114.593 5.78324 114.685 5.75295 114.777 5.688C115.599 5.11864 116.379 4.5103 117.207 3.9431C117.428 3.79372 117.76 3.74601 118.044 3.65292C118.163 3.9127 118.33 4.16602 118.393 4.43664C118.459 4.7159 118.345 5.03413 118.459 5.29392L119.091 5.7399L119.427 5.43463C119.434 4.4864 120.495 4.50375 121.165 4.10324C121.542 3.87593 121.848 3.79585 122.139 3.79585C122.548 3.79585 122.928 3.95606 123.434 4.08812C124.115 4.26781 124.861 4.31328 125.619 4.31328C126.152 4.31328 126.69 4.29164 127.213 4.27649C127.254 4.27649 127.295 4.27426 127.335 4.27426C127.555 4.27426 127.785 4.28946 128.017 4.30461C128.249 4.3176 128.484 4.33273 128.712 4.33273C129.315 4.33273 129.872 4.23312 130.215 3.76117C130.619 3.2048 130.369 2.36488 130.491 1.66129C130.534 1.41016 130.81 1.18277 130.979 0.9468C131.183 1.1503 131.519 1.33873 131.56 1.56171C131.651 2.04015 131.93 2.39946 132.489 2.4709C132.784 2.50987 133.085 2.51634 133.387 2.51634C133.475 2.51634 133.564 2.51634 133.651 2.51634C133.738 2.51418 133.824 2.51423 133.909 2.51423C134.167 2.51423 134.423 2.51854 134.676 2.54236C134.987 2.57266 135.289 2.59003 135.582 2.59003C137.122 2.59003 138.428 2.15916 139.536 1.12651C139.78 0.899193 140.003 0.786652 140.226 0.786652C140.595 0.786652 140.967 1.09624 141.443 1.70673C141.859 2.24146 142.203 2.49902 142.602 2.49902C142.869 2.49902 143.161 2.38437 143.515 2.16138C143.941 1.89294 144.262 1.52059 144.685 1.24998C145.214 0.916588 145.769 0.760658 146.346 0.760658C146.791 0.760658 147.251 0.853737 147.722 1.0226C148.017 1.12868 148.227 1.48591 148.574 1.48591C148.708 1.48591 148.862 1.43182 149.05 1.2911C149.436 1.00317 149.836 0.855911 150.243 0.855911C150.641 0.855911 151.045 0.996605 151.452 1.2802C151.706 1.45989 152.075 1.53358 152.379 1.67429C152.705 1.82151 153.633 1.64397 153.029 2.31509C152.872 2.48827 152.366 2.45361 152.042 2.55536L151.67 2.85843L151.837 3.1377L152.284 3.33907C152.412 3.33258 152.54 3.32819 152.667 3.32819C154.161 3.32819 155.486 3.77636 156.896 4.17902C157.349 4.30892 157.84 4.34573 158.35 4.34573C158.716 4.34573 159.091 4.3262 159.467 4.30672C159.843 4.28723 160.22 4.26781 160.593 4.26781C160.812 4.26781 161.029 4.27424 161.243 4.29372C161.889 4.34568 162.458 4.85014 163.112 5.04498C163.167 5.0623 163.23 5.06876 163.298 5.06876C163.564 5.06876 163.905 4.96055 164.086 4.82849C164.307 4.66612 164.44 4.32626 164.41 4.07946C164.378 3.82617 164.066 3.60103 163.945 3.34341C163.767 2.96455 163.398 2.48177 163.557 2.19817C163.788 1.78684 164.293 1.63961 164.803 1.63961C165.025 1.63961 165.247 1.66772 165.449 1.71318C166.462 1.94482 167.464 2.2912 168.355 2.73284C168.704 2.90603 168.811 3.46245 168.903 3.86295C168.994 4.25697 168.958 4.67049 168.962 5.07533C169.046 5.07316 169.128 5.07311 169.21 5.07311C169.267 5.07311 169.322 5.07311 169.379 5.07311C169.436 5.07527 169.492 5.07533 169.548 5.07533C170.012 5.07533 170.472 5.05148 170.952 4.82417C172.475 4.10109 174.074 3.46677 175.688 2.87575C176.386 2.62029 177.139 2.44489 177.864 2.44489C178.547 2.44489 179.204 2.60081 179.768 2.98833C180.795 3.69842 182.548 2.82814 183.069 4.03399C183.373 4.73108 183.728 5.07533 184.247 5.07533C184.563 5.07533 184.94 4.9476 185.402 4.69647C185.821 4.467 186.368 4.30891 186.875 4.26994C187.098 4.25262 187.326 4.24615 187.554 4.24615C187.767 4.24615 187.982 4.25261 188.194 4.25694C188.409 4.26127 188.625 4.2656 188.837 4.2656C189.802 4.2656 190.739 4.16607 191.537 3.51444C191.556 3.51444 191.575 3.51444 191.594 3.51444C191.986 3.51444 192.38 3.49704 192.772 3.48189C193.163 3.46457 193.555 3.44731 193.943 3.44731C194.913 3.44731 195.874 3.54908 196.835 3.99722C197.314 4.2202 197.969 4.31328 198.626 4.31328C199.105 4.31328 199.587 4.26347 200.009 4.18337C202.456 3.70709 203.617 3.46899 204.767 3.46899C205.813 3.46899 206.851 3.66382 208.834 4.05134C209.269 3.85433 209.699 3.78072 210.123 3.78072C210.701 3.78072 211.273 3.91495 211.848 4.047C212.421 4.18123 212.996 4.31328 213.582 4.31328C213.831 4.31328 214.08 4.28938 214.335 4.23093C214.469 4.20062 214.619 4.1898 214.776 4.1898C214.962 4.1898 215.156 4.20499 215.345 4.22014C215.537 4.23746 215.726 4.25259 215.898 4.25259C216.123 4.25259 216.32 4.22662 216.47 4.14003C217.579 3.49489 218.746 3.33907 219.932 3.33907C220.485 3.33907 221.04 3.37373 221.596 3.4062C222.155 3.44084 222.711 3.47544 223.261 3.47544C223.297 3.47544 223.33 3.47544 223.365 3.47544H223.376C224.033 3.47544 224.674 3.93873 225.356 4.021C225.38 4.02533 225.405 4.02744 225.427 4.02744C225.627 4.02744 225.819 3.93003 226.018 3.83261C226.216 3.73519 226.415 3.6378 226.632 3.6378C226.799 3.6378 226.974 3.69621 227.163 3.86074C227.338 4.01661 227.483 4.09023 227.631 4.09023C227.765 4.09023 227.902 4.02531 228.064 3.89975C228.48 3.57502 228.869 3.44077 229.239 3.44077C229.805 3.44077 230.331 3.75469 230.846 4.17035C231.207 4.45828 231.676 4.8934 232.062 4.8934C232.073 4.8934 232.081 4.8934 232.092 4.8934C232.527 4.86742 232.943 4.39982 233.332 4.09457C233.789 3.73303 234.307 3.42776 234.92 3.42776C235.03 3.42776 235.139 3.43862 235.254 3.45811C236.281 3.63995 237.259 4.04482 238.288 4.14657C238.313 4.1509 238.338 4.1509 238.362 4.1509C238.611 4.1509 238.852 4.03614 239.099 3.91708C239.345 3.80017 239.597 3.68326 239.871 3.68326C240.098 3.68326 240.342 3.76557 240.607 3.99722C240.796 4.15958 241.029 4.22237 241.276 4.22237C241.547 4.22237 241.837 4.1487 242.113 4.05779C242.253 4.01015 243.162 3.98854 244.088 3.98854C245.054 3.98854 246.04 4.01232 246.196 4.05779C246.464 4.13572 246.741 4.2028 246.998 4.2028C247.253 4.2028 247.491 4.13571 247.686 3.94952C247.888 3.75685 248.113 3.6897 248.354 3.6897C248.617 3.6897 248.896 3.7698 249.175 3.85207C249.452 3.93217 249.728 4.01232 249.988 4.01232C250.298 4.01232 250.583 3.89758 250.813 3.52522C251.174 3.46893 251.527 3.4321 251.872 3.4321C252.59 3.4321 253.266 3.58804 253.863 4.03833C254.391 3.6768 254.895 3.54466 255.396 3.54466C256.163 3.54466 256.921 3.85218 257.743 4.1098C257.863 4.14661 257.981 4.16392 258.096 4.16392C258.493 4.16392 258.868 3.9734 259.268 3.78505C259.668 3.59454 260.092 3.40398 260.585 3.40398C260.643 3.40398 260.7 3.40615 260.758 3.41264C261.196 3.45161 261.639 3.46466 262.086 3.46466C262.518 3.46466 262.954 3.45376 263.389 3.44077C263.824 3.42778 264.26 3.41486 264.692 3.41486C266.072 3.41486 267.436 3.54251 268.718 4.2028C269.019 4.17033 269.325 4.15958 269.632 4.15958C270.169 4.15958 270.714 4.1963 271.256 4.23526C271.801 4.27206 272.346 4.31106 272.882 4.31106C274.005 4.31106 275.1 4.14438 276.113 3.46677C276.242 3.47759 276.373 3.48189 276.505 3.48189C276.787 3.48189 277.069 3.46242 277.354 3.44077C277.636 3.41912 277.921 3.39752 278.2 3.39752C278.756 3.39752 279.295 3.48189 279.793 3.81095C280.163 4.05558 280.505 4.15524 280.842 4.15524C281.291 4.15524 281.732 3.97985 282.225 3.74604C283.09 3.33904 284.109 3.14201 285.062 2.84975C285.598 3.30438 286.261 3.37363 286.948 3.37363C287.102 3.37363 287.258 3.37153 287.414 3.3672C287.57 3.36287 287.726 3.36074 287.882 3.36074C288.517 3.36074 289.142 3.42135 289.673 3.78505C290.182 4.13577 291.012 4.18765 291.546 4.52321C291.891 4.74187 292.178 4.86751 292.455 4.86751C292.74 4.86751 293.011 4.73756 293.312 4.4453C294.032 3.75037 294.823 3.33252 295.694 3.33252C296.28 3.33252 296.902 3.52093 297.559 3.93875C297.868 4.13576 298.169 4.22447 298.46 4.22447C298.827 4.22447 299.174 4.08594 299.5 3.85429C300.023 3.48193 300.587 3.38231 301.231 3.38231C301.318 3.38231 301.409 3.38454 301.502 3.38886C302.11 3.41051 302.567 3.575 302.778 3.99065C302.931 4.29807 303.101 4.86961 303.372 4.86961C303.413 4.86961 303.46 4.85452 303.509 4.82204C303.755 4.65752 303.996 4.59901 304.226 4.59901C304.486 4.59901 304.736 4.67265 304.963 4.74626C305.19 4.81987 305.398 4.89129 305.579 4.89129C305.661 4.89129 305.74 4.87607 305.809 4.83927C306.518 4.4669 307.167 4.28294 307.813 4.28294C308.459 4.28294 309.103 4.4669 309.796 4.83494C310.105 4.99947 310.387 5.07966 310.639 5.07966C311.157 5.07966 311.537 4.74406 311.729 4.12057C311.874 3.64863 312.257 3.42132 312.698 3.42132C312.923 3.42132 313.158 3.47978 313.385 3.59235C313.98 3.89327 314.503 4.19415 315.083 4.19415C315.442 4.19415 315.822 4.07948 316.255 3.78072C316.696 3.47547 317.191 3.33252 317.693 3.33252C318.221 3.33252 318.755 3.4884 319.245 3.77416C319.867 4.14003 320.461 4.31328 321.025 4.31328C321.772 4.31328 322.465 4.00801 323.103 3.43864C323.777 2.83463 324.486 2.48824 325.447 2.48824C325.609 2.48824 325.781 2.49908 325.959 2.51856C326.23 2.54887 326.504 2.55969 326.781 2.55969C327.024 2.55969 327.268 2.55108 327.512 2.54459C327.758 2.53593 328.002 2.52935 328.246 2.52935C329.1 2.52935 329.935 2.62246 330.685 3.1377C331.364 2.96884 332.049 2.64415 332.725 2.64415C333.163 2.64415 333.599 2.78048 334.029 3.18314C334.576 2.88439 335.11 2.77618 335.641 2.77618C336.34 2.77618 337.03 2.96452 337.717 3.15504C338.407 3.34338 339.097 3.53389 339.798 3.53389C340.053 3.53389 340.31 3.51005 340.567 3.44943L340.967 3.70059C340.858 3.89543 340.666 4.2267 340.526 4.2267H340.521C340.387 4.21804 340.258 4.21369 340.129 4.21369C338.933 4.21369 337.947 4.56658 337.18 5.35027C336.556 5.99107 335.641 5.95641 334.771 6.01919C334.768 6.28979 334.768 6.5604 334.765 6.83101C335.395 6.8873 336.016 6.9176 336.63 6.9176C338.692 6.9176 340.66 6.56042 342.435 5.54942C343.067 5.18787 343.689 5.13377 344.393 5.13377C344.412 5.13377 344.434 5.13377 344.453 5.13377C344.494 5.13377 344.535 5.13377 344.576 5.13377C345.096 5.13377 345.619 5.1207 346.139 5.10988C346.662 5.09906 347.183 5.0861 347.703 5.0861C348.262 5.0861 348.82 5.09909 349.376 5.14455C349.431 5.14888 349.488 5.1489 349.54 5.1489C350.066 5.1489 350.49 4.95193 350.898 4.75492C351.309 4.55791 351.701 4.36083 352.163 4.36083C352.235 4.36083 352.309 4.36524 352.382 4.37607C353.231 4.49297 354.001 4.99301 354.847 5.08177C355.312 5.1294 355.781 5.14245 356.252 5.14245C356.514 5.14245 356.777 5.13811 357.043 5.13377C357.306 5.12945 357.566 5.12723 357.829 5.12723C358.111 5.12723 358.393 5.13156 358.672 5.14455C358.836 5.15321 359.001 5.15534 359.165 5.15534C359.458 5.15534 359.754 5.14671 360.052 5.13589C360.348 5.12723 360.644 5.11646 360.937 5.11646C361.977 5.11646 362.993 5.23978 363.872 5.91739C364.009 5.91523 364.148 5.91306 364.285 5.91306C367.418 5.91306 370.271 6.78555 373.168 7.64285C373.603 7.77058 374.083 7.80956 374.581 7.80956C374.951 7.80956 375.328 7.78787 375.706 7.76623C376.084 7.74674 376.465 7.7251 376.834 7.7251C376.881 7.7251 376.927 7.72514 376.977 7.72731C378.25 7.74463 379.529 7.77054 380.805 7.816C381.873 7.85281 382.089 8.25764 381.508 9.33576C381.33 9.66916 380.75 10.0242 381.593 10.2385C381.686 10.2623 381.793 10.2732 381.905 10.2732C382.157 10.2732 382.431 10.217 382.626 10.126C383.417 9.74934 384.006 9.24273 384.23 8.47202C384.367 8.00441 384.742 7.78355 385.18 7.78355C385.405 7.78355 385.649 7.842 385.884 7.95458C386.645 8.32261 387.338 8.64084 388.283 8.64084C388.31 8.64084 388.343 8.63873 388.373 8.63873C389.159 8.62357 389.948 8.61705 390.733 8.61705C392.316 8.61705 393.899 8.63874 395.479 8.64307H395.481C395.607 8.64307 395.744 8.62793 395.881 8.61061C396.015 8.59329 396.149 8.57805 396.27 8.57805C396.382 8.57805 396.481 8.59104 396.555 8.63218C397.22 8.99588 397.861 9.40289 398.543 9.40289C398.959 9.40289 399.389 9.2535 399.852 8.853C401.185 9.38556 402.568 9.50679 403.964 9.50679C404.542 9.50679 405.12 9.48516 405.7 9.46568C406.278 9.44403 406.856 9.42456 407.434 9.42456C408.255 9.42456 409.071 9.46571 409.876 9.60859L410.295 9.88132L409.947 10.1758C409.137 10.3966 408.359 10.8274 407.516 10.8274C407.083 10.8274 406.631 10.7127 406.152 10.3966C406.045 10.3274 405.881 10.3013 405.692 10.3013C405.342 10.3013 404.901 10.3944 404.575 10.4745C404.334 10.533 404.186 10.8945 404.052 11.1413C403.871 11.4661 404.011 11.8103 404.427 11.8406C406.043 11.9553 407.666 12.0203 409.29 12.0701C409.306 12.0723 409.326 12.0722 409.342 12.0722C410.136 12.0722 410.528 11.5202 411.045 11.1521C411.587 10.7668 412.143 10.3901 412.647 9.97445C412.863 9.7991 413.066 9.72551 413.258 9.72551C413.512 9.72551 413.75 9.85104 413.975 10.0242C414.219 10.2126 414.473 10.2775 414.731 10.2775C414.977 10.2775 415.226 10.2169 415.478 10.1519C415.842 10.0567 416.108 9.71028 416.508 9.71028C416.612 9.71028 416.724 9.73418 416.853 9.79264C417.138 9.92253 417.406 10.1087 417.699 10.1087C417.861 10.1087 418.03 10.0545 418.214 9.90298C418.403 9.74712 418.572 9.68871 418.728 9.68871C419.052 9.68871 419.312 9.93768 419.536 10.1174C420.04 10.52 420.525 10.901 421.111 10.901C421.415 10.901 421.746 10.7971 422.124 10.5395C423.175 10.8902 423.865 12.0484 423.616 13.0789C423.184 14.8801 423.162 14.8974 424.673 15.5468C425.034 15.7027 426.009 15.5512 425.407 16.2093C424.202 17.5234 424.944 18.6167 425.804 19.7446L425.963 20.1581C426.19 20.485 426.582 20.6516 427.006 20.6516C427.417 20.6516 427.858 20.4958 428.211 20.1798C428.559 19.8659 429.166 19.4567 429.101 19.1709C428.72 17.5407 430.358 16.9021 431.425 15.9864C431.59 15.85 431.77 15.7829 431.929 15.7829C432.211 15.7829 432.43 15.9885 432.373 16.363C432.181 17.6359 433.58 18.3743 433.791 19.4805L434.136 19.7121L434.492 19.3982C434.725 18.7249 434.823 18.0105 435.174 17.3849C435.363 17.0515 435.974 16.8653 436.39 16.612C436.535 16.8675 436.795 17.1207 436.798 17.3762C436.814 18.1274 437.203 18.7292 437.655 19.3701C438.263 20.2295 437.57 20.5672 436.546 20.8314C435.869 21.0067 435.516 22.1174 435.806 22.6651C436.015 23.0526 436.351 23.3427 436.984 23.3427C436.995 23.3427 437.006 23.3427 437.017 23.3427C437.162 23.3405 437.304 23.3383 437.447 23.3383C438.216 23.3383 438.985 23.3708 439.752 23.4098C440.092 23.4249 440.434 23.5115 440.76 23.6003L440.965 23.8558L440.568 24.1458C440.155 24.3407 439.728 24.516 439.309 24.7001C439.793 24.8364 440.264 25.0291 440.765 25.0962C441.042 25.1352 441.327 25.1438 441.611 25.1438C441.715 25.1438 441.817 25.1439 441.921 25.1417C442.022 25.1395 442.121 25.1395 442.222 25.1395C442.244 25.1395 442.266 25.1395 442.288 25.1395C442.334 25.9708 442.342 26.7437 443.862 26.9017C444.662 26.984 444.133 27.5577 443.859 27.8435C443.558 28.1596 443.561 28.3955 444.089 28.4518C444.949 28.5471 445.825 28.5557 446.693 28.5969C446.724 29.1511 446.751 29.7095 446.781 30.2637C447.477 30.2767 448.172 30.2898 448.865 30.3071C449.503 30.3244 449.903 30.6556 449.922 31.0886C449.96 32.0606 450.349 33.0674 449.347 33.955C448.561 34.6521 449.13 35.2777 449.823 35.8016C450.064 35.9834 450.291 36.1459 450.579 36.1459C450.743 36.1459 450.929 36.0917 451.146 35.9509C452.038 35.3729 453.47 35.2993 453.676 34.0827C453.706 33.9095 454.122 33.8186 454.492 33.8186C454.779 33.8186 455.039 33.8727 455.07 33.9874C455.124 34.1996 455.094 34.494 454.941 34.6563C454.475 35.1521 454.251 35.596 454.744 36.187C455.231 36.7693 455.497 37.4772 456.042 38.0162C456.819 38.7891 456.647 39.6292 456.614 40.48C456.592 41.1359 456.22 41.5256 455.33 41.5711C454.44 41.6144 453.542 41.6641 452.674 41.8027C452.501 41.8308 452.414 42.2031 452.296 42.4499C453.681 42.7422 453.219 44.2252 454.429 44.6127C455.803 45.0544 457.101 45.47 456.721 47.0135C456.647 47.3101 457.178 47.6717 457.797 47.6717C457.83 47.6717 457.86 47.6696 457.893 47.6696C457.975 47.6631 458.057 47.6609 458.139 47.6609C458.985 47.6609 459.689 47.9423 460.321 48.4381C460.825 48.8321 460.781 49.0334 459.768 49.4166C459.281 49.6028 458.93 49.8236 458.813 50.2349C458.615 50.2219 458.424 50.2177 458.232 50.2177C456.841 50.2177 455.562 50.5185 454.317 51.1225C453.585 51.4754 453.279 51.8478 453.306 52.4388C453.344 53.2982 452.928 53.7291 451.781 53.7399C451.285 53.7464 450.768 53.9174 450.305 54.0885C449.968 54.2097 450.086 55.1059 450.437 55.1904C450.927 55.3094 451.439 55.3744 451.94 55.474C452.044 55.4956 452.156 55.5021 452.268 55.5021C452.405 55.5021 452.545 55.4913 452.687 55.4805C452.827 55.4719 452.967 55.4588 453.104 55.4588C453.506 55.4588 453.873 55.552 454.092 56.0131C453.413 56.1278 452.731 56.2338 452.055 56.3594L451.592 56.55C451.302 56.7123 451.318 56.9634 451.71 57.1885C452.274 57.5154 452.849 57.838 453.473 58.0848C453.961 58.2775 454.303 58.5178 454.432 58.9291C457.427 59.4812 458.569 60.3428 458.755 62.4991C458.84 63.4798 459.065 64.1378 460.425 64.3327C460.976 64.4128 460.946 64.6965 460.409 64.8935C459.932 65.0688 459.462 65.2507 458.985 65.4304C459.423 65.6122 459.954 65.7204 460.28 65.9867C461.46 66.9522 462.964 66.6989 464.393 66.7899C464.67 66.805 464.924 67.0562 465.187 67.1991C464.963 67.4264 464.743 67.6558 464.513 67.8788C463.949 68.4265 463.221 68.5564 462.474 68.5564C462.142 68.5564 461.805 68.5304 461.48 68.5044C460.801 68.4503 460.176 67.9654 459.5 67.9221C459.473 67.9199 459.445 67.92 459.421 67.92C458.594 67.92 458.977 68.8378 458.41 69.0911C457.862 69.3336 457.29 69.3921 456.71 69.3921C456.455 69.3921 456.195 69.3812 455.938 69.3704C455.68 69.3574 455.423 69.3466 455.165 69.3466C454.82 69.3466 454.478 69.3683 454.141 69.4354C453.396 69.5891 453.616 69.9766 453.952 70.3295L454.262 70.6823C454.341 71.1023 454.423 71.7301 453.821 71.7734C451.398 71.9553 449.566 73.2369 447.359 73.8063C446.521 74.0228 445.47 74.3216 445.086 74.8433C444.801 75.233 445.437 76.0426 445.656 76.6661C446.097 77.9239 445.259 79.0172 444.44 79.8463C442.794 81.5155 442.033 83.2799 442.214 85.3517L441.926 85.7132C441.327 86.3237 441.444 86.6094 442.474 86.7891C443.331 86.9385 444.122 87.3281 444.922 87.6421C445.804 87.9884 445.806 88.9107 444.763 89.2289C442.748 89.8459 441.68 91.212 440.357 92.3746C439.539 93.0933 440.264 94.3619 441.642 94.5048C442.63 94.6087 443.369 94.8729 443.98 95.4466L444.273 95.793L443.602 96.2454C443.161 96.2562 442.72 96.2822 442.285 96.2822C441.474 96.2822 440.678 96.1956 439.916 95.7734C439.832 95.7258 439.733 95.7063 439.624 95.7063C439.032 95.7063 438.186 96.3407 438.331 96.8667C438.471 97.3712 439.243 97.7153 437.997 98.0184C436.806 98.3042 436.844 98.4081 437.512 99.0381C437.959 99.4559 438.4 99.8737 438.84 100.292C436.91 101.616 438.917 103.745 437.269 105.121C436.907 105.42 436.943 105.656 437.49 105.712C438.389 105.803 439.3 105.79 440.201 105.866C440.886 105.925 441.332 106.513 441.236 107.15C441.056 108.364 439.281 110.051 437.816 110.066C437.811 110.066 437.803 110.066 437.803 110.066C437.515 110.066 437.239 109.979 436.962 109.891C436.685 109.804 436.412 109.715 436.127 109.715C435.798 109.715 435.456 109.832 435.086 110.202C434.459 110.832 433.211 111.049 432.422 111.612C430.607 112.911 428.589 113.668 426.102 113.686C425.366 113.69 424.67 114.186 423.917 114.186C423.564 114.186 423.2 114.078 422.811 113.759C422.74 113.703 422.641 113.675 422.529 113.675C422.173 113.675 421.683 113.933 421.56 114.281C420.853 116.297 418.608 116.513 416.587 117.005C416.198 116.662 415.856 116.528 415.547 116.528C414.977 116.528 414.512 116.97 414.033 117.37L413.622 117.647C413.249 117.712 412.746 117.862 412.412 117.862C412.299 117.862 412.206 117.845 412.143 117.801C411.212 117.145 410.153 117.145 409.093 117.145C408.72 117.145 408.348 117.145 407.981 117.117C406.924 117.035 405.878 117.221 404.835 116.656C404.495 116.472 404.257 116.37 404.046 116.37C403.66 116.37 403.37 116.71 402.707 117.502C402.543 117.695 402.349 117.803 402.195 117.803C402.069 117.803 401.968 117.732 401.935 117.576C401.782 116.87 401.535 116.617 401.155 116.617C400.835 116.617 400.416 116.795 399.876 117.037C398.43 117.68 396.864 118.024 395.079 118.024C394.967 118.024 394.854 118.024 394.742 118.02C392.639 117.97 390.533 117.955 388.425 117.955C384.679 117.955 380.931 118.007 377.182 118.02C377.16 118.02 377.138 118.02 377.116 118.02C376.881 118.02 376.645 118.018 376.41 118.013C376.174 118.009 375.939 118.007 375.704 118.007C374.592 118.007 373.497 118.087 372.497 118.628C371.969 118.286 371.44 118.055 370.89 118.055C370.471 118.055 370.036 118.191 369.581 118.518L368.71 118.355C368.004 117.671 367.347 117.325 366.555 117.325C365.986 117.325 365.35 117.502 364.578 117.864C363.018 118.596 361.523 118.923 359.929 118.923C358.494 118.923 356.98 118.656 355.263 118.18C355.003 118.109 354.773 118.078 354.562 118.078C354.118 118.078 353.743 118.215 353.294 118.403C352.908 118.565 352.656 118.661 352.443 118.661C352.068 118.661 351.799 118.371 351.087 117.641C350.89 117.44 350.548 117.314 350.247 117.195L349.707 117.176C349.228 117.301 349.124 117.522 349.384 117.782C349.937 118.329 350.088 118.767 348.919 118.83C348.752 118.838 348.582 118.845 348.418 118.845C347.87 118.845 347.353 118.767 346.901 118.416C346.055 117.76 345.644 117.444 345.233 117.444C344.894 117.444 344.551 117.658 343.965 118.074C343.229 118.598 342.528 118.886 341.789 118.886C341.238 118.886 340.669 118.728 340.05 118.386C339.76 118.226 339.231 118.074 338.886 118.074C338.771 118.074 338.678 118.091 338.618 118.13C338.215 118.399 337.87 118.516 337.525 118.516C337.147 118.516 336.764 118.373 336.301 118.137C336.134 118.052 335.951 118.011 335.77 118.011C335.296 118.011 334.834 118.297 334.705 118.836C334.576 119.377 334.13 119.663 333.662 119.663C333.478 119.663 333.292 119.618 333.119 119.529C332.747 119.336 332.429 119.267 332.128 119.267C331.696 119.267 331.29 119.41 330.776 119.546C330.337 119.661 329.984 119.724 329.689 119.724C328.84 119.724 328.497 119.2 328.095 117.925C327.974 117.546 327.805 117.355 327.575 117.355C327.438 117.355 327.282 117.422 327.104 117.552C326.433 118.044 325.789 118.559 325.116 119.048C324.85 119.243 324.552 119.529 324.242 119.548C322.931 119.637 321.603 119.782 320.308 119.782C318.437 119.782 316.636 119.479 315.05 118.258C314.815 118.078 314.82 117.719 314.62 117.498C314.552 117.422 314.456 117.383 314.357 117.383C314.177 117.383 313.988 117.511 313.941 117.751C313.788 118.555 313.262 118.903 312.383 118.903C312.285 118.903 312.181 118.899 312.071 118.89C311.359 118.832 310.428 118.959 309.974 118.654C309.363 118.243 308.829 118.063 308.347 118.063C307.6 118.063 306.967 118.49 306.34 119.13C306.146 119.33 305.776 119.421 305.488 119.561C305.341 119.163 305.204 118.76 305.039 118.366C304.886 118 304.708 117.641 304.541 117.279C304.254 117.457 303.922 117.602 303.684 117.812C303.216 118.228 302.778 118.609 302.246 118.609C301.921 118.609 301.556 118.466 301.132 118.093C300.99 117.97 300.708 117.946 300.396 117.946C300.297 117.946 300.196 117.948 300.094 117.951C299.993 117.953 299.892 117.955 299.793 117.955C299.725 117.955 299.656 117.955 299.593 117.951C299.489 117.526 299.155 117.241 298.629 117.182C298.334 117.15 297.991 117.104 297.679 117.104C297.425 117.104 297.192 117.132 297.022 117.223C296.124 117.697 295.272 118.278 294.577 118.931C294.213 119.276 293.901 119.405 293.58 119.405C293.219 119.405 292.849 119.239 292.384 119.031C292.181 118.938 291.992 118.901 291.811 118.901C291.132 118.901 290.607 119.455 290.127 119.849C289.618 120.263 289.111 120.514 288.58 120.514C288.178 120.514 287.762 120.371 287.315 120.046C287.041 119.845 286.776 119.769 286.513 119.769C286.135 119.769 285.76 119.929 285.366 120.111C285.001 120.278 284.41 120.514 284.087 120.514C284.019 120.514 283.961 120.503 283.92 120.477C283.255 120.055 282.636 119.841 282.02 119.841C281.376 119.841 280.741 120.074 280.067 120.551C279.936 120.642 279.728 120.67 279.492 120.67C279.336 120.67 279.166 120.657 278.999 120.646C278.83 120.635 278.663 120.622 278.509 120.622C278.49 120.622 278.474 120.622 278.457 120.622C278.233 120.626 278.005 120.631 277.781 120.631C276.735 120.631 275.716 120.538 274.889 119.877C273.783 120.354 272.691 120.852 271.563 121.291C271.396 121.354 271.144 121.399 270.925 121.399C270.763 121.399 270.618 121.375 270.536 121.319C269.553 120.663 268.485 120.514 267.392 120.514C266.94 120.514 266.486 120.54 266.031 120.566C265.577 120.59 265.12 120.616 264.671 120.616C264.52 120.616 264.369 120.613 264.219 120.607C263.471 120.572 262.789 120.535 262.217 120.105C261.88 119.849 261.563 119.752 261.251 119.752C260.766 119.752 260.3 119.992 259.824 120.258C259.714 120.319 259.613 120.345 259.517 120.345C259.323 120.345 259.15 120.245 258.986 120.146C258.822 120.046 258.666 119.949 258.507 119.949C258.488 119.949 258.469 119.951 258.447 119.953C257.576 120.092 258.006 121.339 256.982 121.339C256.946 121.339 256.911 121.339 256.869 121.334C256.045 121.267 255.246 120.735 254.46 120.735C254.435 120.735 254.413 120.735 254.391 120.737C253.518 120.771 252.831 121.514 251.872 121.514C251.724 121.514 251.571 121.497 251.41 121.456C251.078 121.373 250.774 121.224 250.457 121.105L251.084 120.618C251.377 120.475 251.815 120.46 252.02 120.271C252.22 120.087 252.31 119.75 252.275 119.494C252.239 119.239 252.056 119.092 251.848 119.092C251.76 119.092 251.67 119.117 251.582 119.169C250.837 119.62 250.002 119.786 249.096 119.786C249.079 119.786 249.06 119.786 249.044 119.786C249.038 119.786 249.036 119.786 249.03 119.786C247.666 119.786 248.255 121.291 246.905 121.451C246.768 121.469 246.64 121.475 246.514 121.475C245.533 121.475 244.811 121.031 243.948 120.83C242.94 121.689 241.552 121.304 240.366 121.549C239.753 121.676 239.184 121.722 238.614 121.722C238.094 121.722 237.568 121.683 237.004 121.633C236.905 121.624 236.807 121.62 236.708 121.62C236.418 121.62 236.122 121.653 235.821 121.685C235.523 121.718 235.216 121.75 234.904 121.75C234.515 121.75 234.118 121.7 233.71 121.538C233.573 121.482 233.381 121.458 233.168 121.458C232.62 121.458 231.941 121.622 231.73 121.863C231.117 122.551 230.449 122.8 229.781 122.8C229.041 122.8 228.302 122.497 227.637 122.153C227.053 121.85 226.563 121.726 226.087 121.726C225.506 121.726 224.942 121.908 224.244 122.174C223.773 122.352 223.226 122.397 222.648 122.397C222.347 122.397 222.04 122.386 221.733 122.373C221.427 122.36 221.12 122.348 220.819 122.348C220.704 122.348 220.591 122.35 220.476 122.354C220.331 122.36 220.189 122.363 220.044 122.363C219.778 122.363 219.515 122.354 219.25 122.348C218.987 122.341 218.724 122.335 218.461 122.335C217.536 122.335 216.616 122.421 215.72 122.904C215.654 122.941 215.583 122.956 215.507 122.956C215.279 122.956 215.016 122.809 214.734 122.661C214.45 122.514 214.143 122.367 213.82 122.367C213.678 122.367 213.53 122.397 213.379 122.469C212.684 122.806 212.046 123.168 211.216 123.168C211.112 123.168 211.002 123.161 210.89 123.149C210.167 123.068 209.513 122.72 208.768 122.72C208.382 122.72 207.971 122.815 207.517 123.086C207.246 123.248 206.865 123.298 206.438 123.298C206.104 123.298 205.74 123.268 205.378 123.239C205.017 123.209 204.652 123.179 204.321 123.179C204.313 123.179 204.307 123.179 204.299 123.179C203.021 123.181 201.742 123.181 200.463 123.185C200.417 123.185 200.37 123.185 200.323 123.185C200.066 123.185 199.806 123.183 199.549 123.181C199.291 123.179 199.034 123.177 198.779 123.177C198.242 123.177 197.708 123.185 197.177 123.229C196.487 123.283 195.764 123.452 195.162 123.72C194.803 123.878 194.472 123.967 194.154 123.967C193.826 123.967 193.511 123.872 193.188 123.662C192.785 123.395 192.385 123.265 191.988 123.265C191.578 123.265 191.168 123.404 190.758 123.679L190.321 123.902C189.446 123.389 188.603 123.192 187.761 123.192C186.62 123.192 185.48 123.553 184.26 123.978C183.79 124.14 183.257 124.19 182.698 124.19C182.293 124.19 181.873 124.164 181.453 124.138C181.034 124.114 180.612 124.088 180.202 124.088C180.108 124.088 180.014 124.09 179.922 124.092C179.555 124.103 179.19 124.11 178.823 124.11C177.972 124.11 177.121 124.082 176.269 124.056C175.417 124.032 174.566 124.006 173.716 124.006C171.843 124.006 169.98 124.131 168.15 124.662C167.701 124.289 167.282 124.155 166.873 124.155C166.17 124.155 165.501 124.554 164.769 124.815C164.572 124.887 164.322 124.917 164.057 124.917C163.574 124.917 163.045 124.811 162.704 124.631C162.154 124.341 161.664 124.179 161.175 124.179C160.723 124.179 160.272 124.318 159.774 124.631C159.404 124.863 158.754 124.885 158.229 124.889C154.21 124.922 150.193 124.913 146.173 124.943C146.143 124.943 146.112 124.943 146.082 124.943C145.009 124.943 144.081 124.796 143.113 124.294C142.746 124.101 142.327 124.004 141.905 124.004C141.277 124.004 140.643 124.222 140.161 124.673C139.288 125.484 138.281 125.772 136.948 125.772C136.907 125.772 136.865 125.772 136.824 125.772C135.673 125.757 134.521 125.751 133.37 125.751C130.685 125.751 127.999 125.788 125.318 125.848C125.26 125.85 125.205 125.85 125.149 125.85C123.839 125.85 122.858 125.491 121.963 124.735C121.577 124.411 121.315 124.287 121.129 124.287C120.679 124.287 120.665 125.004 120.395 125.357L119.499 125.692C118.925 125.497 118.371 125.381 117.818 125.381C117.291 125.381 116.766 125.487 116.224 125.736C116.188 125.751 116.142 125.759 116.09 125.759C115.852 125.759 115.479 125.61 115.263 125.482C114.685 125.134 114.237 124.504 113.614 124.387C113.533 124.372 113.462 124.365 113.4 124.365C112.705 124.365 113.099 125.251 112.604 125.489C112.315 125.629 111.977 125.744 111.644 125.783C110.759 125.887 109.677 125.718 109.02 126.067C108.624 126.277 108.306 126.368 108.028 126.368C107.581 126.368 107.233 126.134 106.821 125.774C106.331 125.35 105.816 124.98 105.202 124.98C104.857 124.98 104.479 125.097 104.06 125.389C103.457 125.807 102.701 125.984 101.991 125.984C101.412 125.984 100.863 125.865 100.453 125.668C99.3119 125.119 98.2295 124.9 97.1791 124.9C95.5234 124.9 93.9456 125.441 92.3424 126.073C92.0171 126.203 91.7529 126.459 91.4183 126.532C91.0117 126.623 90.5637 126.699 90.1431 126.699C89.6426 126.699 89.1807 126.588 88.8737 126.255C87.8264 125.119 86.1889 124.805 84.7812 124.248C84.299 124.06 83.7385 123.941 83.1652 123.941C82.4891 123.941 81.795 124.105 81.1896 124.512C81.2164 125.913 79.3552 125.675 78.5754 126.387C78.3487 126.595 78.0483 126.69 77.7529 126.69C77.5231 126.69 77.2953 126.632 77.1069 126.521C76.1475 125.956 75.1785 125.738 74.2031 125.738C73.141 125.738 72.0712 125.995 71.0005 126.344C70.836 126.398 70.701 126.435 70.5717 126.435C70.4146 126.435 70.2648 126.381 70.0764 126.24C69.7128 125.969 69.3653 125.846 69.023 125.846C68.5972 125.846 68.1791 126.036 67.7479 126.37C67.2292 126.773 66.5896 127.5 65.9511 127.5ZM76.061 124.263L75.7283 124.484C75.8343 124.67 75.9624 124.764 76.0919 124.764C76.1784 124.764 76.2663 124.72 76.3476 124.636L76.3701 124.378L76.061 124.263ZM145.9 123.244C145.937 123.525 145.988 123.817 146.377 123.817C146.437 123.817 146.505 123.811 146.583 123.796C146.728 123.768 146.788 123.46 146.876 123.239C146.551 123.239 146.226 123.242 145.9 123.244ZM145.749 123.125L145.791 123.244H145.9L145.889 123.159L145.749 123.125ZM146.902 123.168L146.876 123.239H146.99L147.014 123.168H146.902ZM147.014 123.168C147.43 123.17 147.849 123.185 148.264 123.185C148.682 123.185 149.097 123.17 149.499 123.105C149.767 123.062 150.055 122.449 150.035 122.107C150.016 121.75 149.628 121.505 149.216 121.505C149.119 121.505 149.02 121.52 148.925 121.549C147.989 121.834 147.161 122.278 147.014 123.168ZM145.239 122.506C145.033 122.506 144.883 122.681 145.025 122.856C145.148 123.006 145.47 123.053 145.749 123.125C145.67 122.908 145.619 122.661 145.437 122.56C145.37 122.523 145.303 122.506 145.239 122.506ZM46.4115 122.516L46.0703 122.75C46.1795 122.945 46.3099 123.042 46.4427 123.042C46.5314 123.042 46.6201 122.999 46.7036 122.91L46.7294 122.642L46.4115 122.516ZM53.9565 118.918L52.9918 119.065C52.0923 119.914 52.8634 121.311 51.4752 122.053C51.3563 122.116 51.5223 122.566 51.6249 122.819C51.6611 122.91 51.749 122.949 51.8645 122.949C52.1285 122.949 52.5414 122.748 52.8462 122.518C54.0805 121.588 53.1435 120.064 54.3856 119.185C54.4088 119.027 54.4324 118.955 54.4442 118.929C54.439 118.938 54.4283 118.949 54.4132 118.959C54.3834 118.983 54.3363 119.005 54.2623 119.005C54.1887 119.005 54.0893 118.983 53.9565 118.918ZM113.4 121.666L113.068 121.886C113.173 122.077 113.299 122.172 113.426 122.172C113.509 122.172 113.592 122.133 113.67 122.051L113.704 121.932V121.791L113.54 121.704L113.4 121.666ZM48.6737 120.724C48.4993 121.066 48.2844 121.401 48.1828 121.754L48.8213 122.077C48.9358 121.845 49.0502 121.616 49.1647 121.384C49.0001 121.163 48.8375 120.945 48.6737 120.724ZM56.1791 120.821L56.037 121.044L56.3141 121.3C56.7064 121.172 56.7738 120.988 56.5065 120.828L56.1791 120.821ZM266.144 119.027C265.593 119.169 265.574 119.392 266.094 119.594L266.478 119.327L266.144 119.027ZM56.8058 118.929L56.469 119.014L56.1021 119.189C55.9513 119.371 56.086 119.546 56.2861 119.546C56.3472 119.546 56.4135 119.529 56.4808 119.492C56.6659 119.39 56.7215 119.143 56.8058 118.929ZM56.9526 118.864C57.3814 119.053 57.8028 119.254 58.2467 119.416C58.3729 119.462 58.4863 119.481 58.5911 119.481C59.0062 119.481 59.2683 119.167 59.5355 118.946C59.7376 118.78 59.7891 118.5 59.9079 118.273C59.5848 118.171 59.2628 117.99 58.9397 117.987C58.7494 117.985 58.5514 117.979 58.3578 117.979C58.1119 117.979 57.8724 117.99 57.6615 118.044C57.2938 118.139 57.0178 118.364 56.9526 118.864ZM66.2816 118.191C66.2227 118.191 66.1586 118.206 66.0932 118.243C65.9209 118.338 65.8654 118.565 65.7895 118.771L65.6247 118.812L65.5669 118.914C65.1992 118.94 64.8429 118.979 64.9242 119.427L65.2676 119.457L65.5669 118.914L65.7402 118.901L65.7895 118.771C66.0494 118.71 66.3372 118.665 66.4601 118.526C66.6088 118.36 66.4774 118.191 66.2816 118.191ZM56.8488 118.821L56.8058 118.929L56.9449 118.894L56.9526 118.864L56.8488 118.821ZM42.6122 118.02C43.1686 118.02 43.5783 118.301 43.7269 118.819L43.6777 118.832L43.759 118.89L43.7269 118.819C45.4158 118.55 46.0213 117.654 45.912 116.379C45.8907 116.121 45.6949 115.662 45.5528 115.656C45.5366 115.656 45.5207 115.656 45.5057 115.656C45.2735 115.656 45.0394 115.738 44.805 115.82C44.5698 115.903 44.3354 115.985 44.1013 115.985C43.8499 115.985 43.5996 115.89 43.3546 115.595C41.7675 116.266 40.6722 117.353 39.5748 118.431L39.8732 118.687L40.3642 118.78C40.9973 118.552 41.5758 118.193 42.2327 118.061C42.3652 118.033 42.4926 118.02 42.6122 118.02ZM215.348 117.394C215.167 117.565 215.055 117.879 215.121 118.098C215.26 118.559 215.646 118.801 216.142 118.801C216.298 118.801 216.468 118.775 216.643 118.726C217.166 118.62 217.21 118.438 216.821 118.143C216.574 117.957 216.416 117.686 216.145 117.537L215.348 117.394ZM193.716 118.195L193.382 118.561L193.694 118.674L194.039 118.444L193.716 118.195ZM289.109 113.803L288.783 114.132C288.728 115.526 288.693 116.92 288.684 118.316L289.021 118.611L289.667 118.178C289.747 117.619 289.697 117.048 289.697 116.483H289.725C289.725 115.777 289.769 115.067 289.697 114.366C289.676 114.166 289.314 113.989 289.109 113.803ZM86.0104 118.137L85.6659 118.351L86.1547 118.609L86.3236 118.379L86.0104 118.137ZM311.091 116.416L310.749 116.665C310.844 116.888 310.968 116.998 311.096 116.998C311.217 116.998 311.346 116.896 311.466 116.691L311.091 116.416ZM292.605 116.911L292.778 116.665L292.466 116.409L292.121 116.636L292.605 116.911ZM358.198 114.723C357.785 114.961 357.443 115.279 357.098 115.587L356.947 115.911C357.235 116.017 357.541 116.184 357.831 116.184C357.845 116.184 357.859 116.184 357.873 116.184L358.352 116.065L358.793 115.647C358.902 115.461 358.962 115.253 358.91 115.041L358.71 114.935L358.198 114.723ZM361.454 115.632L361.306 115.874L361.605 116.145C362.018 115.998 362.089 115.801 361.807 115.639L361.454 115.632ZM295.763 115.55C295.201 115.693 295.188 115.911 295.73 116.095L296.118 115.835L295.763 115.55ZM315.445 115.576L315.108 115.794C315.22 115.974 315.349 116.065 315.48 116.065C315.57 116.065 315.661 116.024 315.746 115.937L315.754 115.682L315.445 115.576ZM250.714 115.535L250.375 115.751L250.832 116.028L251.015 115.786L250.714 115.535ZM417.299 113.684C417.192 113.684 417.08 113.707 416.968 113.762C415.744 114.348 414.386 114.454 413.11 114.816C412.91 114.874 412.767 115.29 412.789 115.528L413.337 116.013L413.781 115.812C414.473 115.45 415.213 115.381 415.966 115.381C416.196 115.381 416.428 115.387 416.664 115.394C416.897 115.4 417.129 115.407 417.362 115.407C417.715 115.407 418.066 115.392 418.408 115.338L418.978 114.855L418.693 114.521C418.271 114.218 417.814 113.684 417.299 113.684ZM363.658 114.768L363.524 115.004L363.798 115.268C364.179 115.123 364.244 114.935 363.981 114.775L363.658 114.768ZM65.166 114.69C64.6044 114.827 64.5894 115.045 65.1274 115.234L65.519 114.974L65.166 114.69ZM327.616 114.643L327.287 114.885L327.761 115.143L327.914 114.907L327.616 114.643ZM45.1675 112.8C44.7718 112.8 44.3858 112.93 44.0402 113.199C43.8414 113.355 43.7836 113.762 43.8915 113.982C43.9835 114.169 44.3964 114.413 44.6147 114.413C44.6338 114.413 44.6511 114.413 44.667 114.409C45.4413 114.214 46.1784 113.922 46.924 113.658C46.389 113.097 45.7677 112.8 45.1675 112.8ZM47.0993 113.72C47.1861 113.935 47.2469 114.181 47.4331 114.275C47.4993 114.309 47.5656 114.324 47.6256 114.324C47.8353 114.324 47.9689 114.143 47.8096 113.967C47.68 113.824 47.3698 113.783 47.0993 113.72ZM279.93 112.833C280.125 113.147 280.292 113.478 280.557 113.749C280.763 113.956 280.996 114.227 281.357 114.227C281.458 114.227 281.573 114.205 281.697 114.156L281.894 113.82C281.929 113.212 281.631 112.826 280.798 112.826C280.787 112.826 280.776 112.826 280.766 112.826C280.489 112.831 280.21 112.831 279.93 112.833ZM46.924 113.658L46.9613 113.688L47.0993 113.72L47.0555 113.612L46.924 113.658ZM32.8148 112.818C32.9175 113.045 32.9785 113.331 33.1795 113.419C33.5754 113.599 33.9988 113.692 34.4161 113.692C34.8386 113.692 35.2545 113.597 35.6321 113.391C36.1532 113.108 36.5915 112.66 36.8867 112.211C36.9883 112.056 36.7232 111.941 36.3232 111.941C35.9702 111.941 35.5124 112.03 35.108 112.266C34.3722 112.69 33.6277 112.785 32.8148 112.818ZM279.52 112.72C279.616 112.72 279.711 112.722 279.804 112.729L279.752 112.833H279.93L279.87 112.733L279.804 112.729C279.898 112.335 280.182 112.066 280.689 111.932C281.015 111.848 281.319 111.722 281.631 111.614L281.111 111.088C279.481 110.224 277.373 110.304 275.727 109.375C275.61 109.308 275.448 109.28 275.259 109.28C274.785 109.28 274.15 109.453 273.679 109.581C273.26 109.694 274.238 110.809 275.092 111.016C275.243 111.053 275.404 111.064 275.568 111.064C275.771 111.064 275.976 111.049 276.176 111.047C276.193 111.047 276.209 111.045 276.226 111.045C277.017 111.045 277.499 111.302 277.671 111.973C277.847 112.647 278.381 112.729 278.958 112.729C279.051 112.729 279.147 112.725 279.24 112.725C279.333 112.722 279.427 112.72 279.52 112.72ZM32.7805 112.738L32.679 112.826L32.8148 112.818L32.7805 112.738ZM368.864 110.226C368.817 110.226 368.765 110.228 368.713 110.233C368.091 110.285 367.804 110.499 367.763 110.977C367.722 111.458 368.187 111.848 368.765 111.848C368.872 111.848 368.981 111.835 369.094 111.807C369.628 111.672 369.896 111.352 369.792 110.874C369.614 110.534 369.425 110.226 368.864 110.226ZM351.575 111.317L351.446 111.545L351.725 111.817L351.909 111.317H351.575ZM423.162 111.205C422.628 111.354 422.611 111.573 423.115 111.776L423.457 111.488L423.162 111.205ZM363.762 109.246C363.494 109.246 363.228 109.265 362.971 109.304C362.752 109.334 362.585 109.642 362.44 109.845L362.831 110.105C363.174 110.166 363.53 110.164 363.71 110.176C363.929 110.176 364.091 110.192 364.22 110.192C364.296 110.192 364.362 110.187 364.419 110.168C364.734 110.062 365.025 109.908 365.326 109.772C365.079 109.609 364.858 109.345 364.584 109.304C364.318 109.265 364.042 109.246 363.762 109.246ZM369.715 108.533C369.704 108.533 369.693 108.533 369.682 108.533L369.099 108.971C369.162 109.2 369.365 109.319 369.611 109.319C369.726 109.319 369.852 109.293 369.975 109.241L370.646 108.815C370.315 108.709 370.008 108.533 369.715 108.533ZM44.1366 108.462C43.6927 108.559 43.2809 108.743 42.8573 108.899L43.2092 109.181C43.4285 109.235 43.653 109.291 43.868 109.291C44.1163 109.291 44.3515 109.217 44.5536 108.984L44.1366 108.462ZM380.287 103.154C379.17 103.154 378.423 104.015 377.355 104.095C376.117 104.193 374.857 104.18 373.639 104.359C373.198 104.424 372.842 104.898 372.478 105.208C372.21 105.438 372.349 105.635 372.801 105.797C373.225 105.951 373.631 106.141 374.047 106.314C373.562 106.89 372.859 107.52 374.997 107.557C375.432 107.501 376.366 107.511 377.152 107.247C378.165 106.903 378.398 105.961 379.011 105.318C379.737 104.552 381.525 105.31 382.305 104.268C382.481 104.035 382.678 103.812 382.864 103.584C382.538 103.48 382.223 103.344 381.884 103.286C381.736 103.26 381.58 103.258 381.424 103.258C381.41 103.258 381.393 103.258 381.38 103.258C381.183 103.258 380.988 103.257 380.807 103.214C380.624 103.173 380.452 103.154 380.287 103.154ZM348.5 105.896L348.097 106.277C347.911 106.671 347.812 107.087 348.36 107.353C348.607 107.473 348.867 107.553 349.127 107.553C349.343 107.553 349.559 107.498 349.77 107.364L349.915 107.096C349.461 106.689 348.979 106.297 348.5 105.896ZM23.428 105.844C22.3413 105.844 21.5124 106.26 20.939 107.068L21.0502 107.358L21.4793 107.548C21.8311 107.533 22.1436 107.485 22.4193 107.405C23.2205 107.167 23.6964 106.641 23.8837 105.868C23.7265 105.853 23.5745 105.844 23.428 105.844ZM45.633 105.875C45.1793 105.933 44.9183 106.202 44.8767 106.667L44.7729 106.669L44.7354 106.769C44.4649 106.84 44.1429 106.89 44.0413 107.033C43.9033 107.232 44.0391 107.405 44.2264 107.405C44.2853 107.405 44.3504 107.388 44.4126 107.347C44.5974 107.232 44.6511 106.985 44.7354 106.769L44.8605 106.736L44.8767 106.667C45.3622 106.661 45.849 106.667 46.3304 106.63L46.694 106.377L46.1751 105.892L45.633 105.875ZM281.477 106.007L281.111 106.251C281.209 106.47 281.33 106.578 281.458 106.578C281.582 106.578 281.71 106.481 281.833 106.284L281.477 106.007ZM391.371 106.031L391.002 106.412L391.358 106.535L391.738 106.288L391.371 106.031ZM23.9937 105.87L23.9885 105.767C24.5285 105.535 25.0559 105.184 25.6175 105.143C27.2552 105.022 27.3193 104.216 27.2059 103.275H27.3064L27.2604 103.192C27.302 103.19 27.3439 103.19 27.3866 103.19C27.4989 103.19 27.6144 103.195 27.7289 103.199C27.8444 103.203 27.96 103.205 28.0733 103.205C28.638 103.205 29.1558 103.115 29.4123 102.476C29.5698 102.082 29.7995 101.677 30.1204 101.355C30.4424 101.032 30.4564 100.863 29.929 100.74L29.4189 100.705C28.8915 100.952 28.3759 101.069 27.8603 101.069C27.3053 101.069 26.7503 100.932 26.1824 100.679C26.1566 100.666 26.1276 100.662 26.0956 100.662C25.8861 100.662 25.534 100.863 25.2645 100.95C25.4184 101.181 25.5759 101.415 25.7276 101.649C25.8743 101.881 26.0153 102.112 26.1588 102.346L26.1041 102.327L26.103 102.398C25.6774 102.426 25.2218 102.465 25.3757 102.939L25.4828 103.026L26.0945 103.173L26.0934 103.275H26.1714C26.0786 103.677 25.7886 104 25.2826 104.048C23.8045 104.184 23.9576 104.994 23.9885 105.767L23.9105 105.801L23.8837 105.868L23.9937 105.87ZM47.4095 102.301C46.8619 102.301 46.3422 102.415 45.987 102.905C45.6672 103.342 46.6009 104.45 47.6833 104.903C48.3049 105.163 48.9777 105.349 49.6044 105.602C49.875 105.712 50.1326 105.762 50.3744 105.762C50.8172 105.762 51.2043 105.587 51.5061 105.266C52.2506 104.481 52.873 103.621 53.5929 102.818C53.7544 102.638 53.9149 102.573 54.0775 102.573C54.3532 102.573 54.6304 102.76 54.9116 102.881C55.0934 102.957 55.2303 102.989 55.3352 102.989C55.7289 102.989 55.6752 102.543 55.8187 102.318C55.8905 101.162 55.6969 100.852 54.6925 100.657C54.1725 100.556 53.609 100.592 53.0945 100.482C52.5179 100.359 52.0784 100.285 51.7295 100.285C51.1778 100.285 50.8536 100.471 50.5776 100.945C50.1455 101.69 49.8632 102.383 48.6962 102.383C48.599 102.383 48.4952 102.379 48.3849 102.37C48.0694 102.342 47.7345 102.301 47.4095 102.301ZM29.9706 105.113L29.6221 105.355C29.7184 105.574 29.8392 105.684 29.9687 105.684C30.0895 105.684 30.219 105.587 30.3408 105.39L29.9706 105.113ZM340.348 105.388L340.745 105.673L341.142 105.418L340.756 105.134L340.348 105.388ZM23.5586 98.0682L23.1403 98.59C23.4461 98.6831 23.7522 98.7718 24.0581 98.8649C24.35 98.7307 24.6421 98.5965 24.9329 98.4644C24.4773 98.3215 24.0302 98.1505 23.5586 98.0682ZM35.4193 98.2306L35.0609 98.4406L35.7307 98.5791V98.3324L35.4193 98.2306ZM35.5573 93.667C35.183 93.667 34.8043 93.7471 34.4245 93.8705L34.0138 94.1065L34.3829 94.3749C34.9851 94.4442 35.5937 94.5135 36.2 94.5135C36.243 94.5135 36.2857 94.5113 36.3284 94.5113L36.8098 94.0134C36.3969 93.7666 35.9798 93.667 35.5573 93.667ZM25.1361 89.4086C25.2229 89.6273 25.2848 89.8762 25.471 89.9737C25.5373 90.0083 25.6024 90.0234 25.6624 90.0234C25.871 90.0234 26.0079 89.8417 25.8497 89.6598C25.7245 89.5148 25.4099 89.4736 25.1361 89.4086ZM25.0923 89.3004L24.9981 89.3783L25.1361 89.4086L25.0923 89.3004ZM28.883 88.6747L28.7034 88.6856L28.5632 88.9323L28.8488 89.1987C29.2499 89.0558 29.3129 88.8631 29.0328 88.6943L28.883 88.6747ZM51.95 78.9197C51.6195 78.9478 51.2816 78.9544 50.9607 79.0172L50.5658 79.2704L51.1488 79.7338C51.4045 79.7706 51.6707 79.7879 51.9371 79.7879C52.1884 79.7879 52.4409 79.7727 52.6838 79.7381L53.0184 79.5627L53.333 79.2986L53.1424 79.1514L52.9362 79.0453C52.6183 78.976 52.2794 78.9608 51.95 78.9197ZM44.4487 70.2688C43.7535 70.2688 43.0594 70.284 42.3748 70.3533C41.8926 70.4009 41.4882 70.7235 41.515 71.2496C41.5449 71.8146 41.4625 72.4423 42.1588 72.7498C43.067 73.1481 44.0553 73.4425 45.0328 73.7283C46.11 74.04 45.866 74.7523 45.9528 75.3693L45.8564 75.4104L45.9709 75.4949L45.9528 75.3693C46.3698 75.1961 46.8074 75.0446 47.1913 74.8324C47.8405 74.4752 48.1433 74.0618 47.3775 73.54C46.9731 73.2651 46.6341 72.9317 46.2608 72.6286C45.8277 72.2757 45.8126 71.8233 46.1004 71.4834C46.6404 70.8426 47.1817 70.2883 45.5859 70.2775C45.2072 70.2731 44.8285 70.2688 44.4487 70.2688ZM34.4919 71.2473L34.0727 71.4314C33.7132 71.7128 33.3517 71.9986 33.0587 72.3233L33.3925 72.6589L33.5453 72.7953C33.6255 72.8018 33.7025 72.8061 33.7764 72.8061C34.0705 72.8061 34.3167 72.7477 34.4996 72.6329C34.7282 72.4901 34.8588 72.2583 34.8632 71.9466C34.8662 71.715 34.6236 71.4811 34.4919 71.2473ZM38.8314 70.2342C38.5115 70.258 38.166 70.2602 37.8388 70.3208L37.4782 70.5784L37.936 71.0806C38.1756 71.1131 38.4228 71.1283 38.6698 71.1283C38.9403 71.1283 39.2131 71.1088 39.4743 71.072C39.75 71.0308 39.9811 70.7971 40.2303 70.6499C39.9417 70.52 39.6624 70.3749 39.3607 70.271L38.8314 70.2342ZM456.718 65.0969C456.671 65.0969 456.619 65.0991 456.567 65.1034C455.959 65.1575 455.672 65.3632 455.639 65.8373C455.606 66.3006 456.077 66.6816 456.644 66.6816C456.748 66.6816 456.858 66.6686 456.964 66.6405C457.487 66.5063 457.75 66.1901 457.646 65.7225C457.46 65.3913 457.263 65.0969 456.718 65.0969ZM447.734 64.0816L447.783 64.2071L447.827 64.2114C447.589 64.5427 447.331 64.8653 447.129 65.2095C446.984 65.452 446.83 65.7377 446.861 65.9931C446.882 66.188 447.315 66.5279 447.34 66.5279C448.09 66.1339 448.947 65.7637 448.876 64.9107C448.837 64.4409 448.408 64.2223 447.827 64.2114L447.893 64.1184L447.734 64.0816ZM450.593 64.2938L450.256 64.5341L450.724 64.8025L450.891 64.5622L450.593 64.2938ZM447.233 63.5014C447.041 63.5014 446.918 63.6637 447.066 63.8369C447.186 63.9733 447.477 64.0188 447.734 64.0816C447.663 63.8781 447.608 63.6529 447.435 63.5576C447.367 63.5187 447.296 63.5014 447.233 63.5014ZM41.992 62.4427C41.6744 62.4427 41.3469 62.499 41.0411 62.5683L40.6432 62.8389L40.9877 63.1052C41.4808 63.1983 41.9877 63.2503 42.1278 63.2698C44.558 63.2481 45.0938 62.7978 44.7836 61.3278L44.4799 61.0204C44.2179 61.0508 43.7623 61.1525 43.7527 61.2499C43.6692 62.0877 43.1248 62.4427 42.1257 62.4427C42.098 62.4427 42.0701 62.4427 42.0413 62.4427C42.0252 62.4427 42.0079 62.4427 41.992 62.4427ZM28.9107 62.5466L28.5772 62.7978L29.0487 63.0749L29.2124 62.8238L28.9107 62.5466ZM449.719 60.0484C449.694 60.0484 449.675 60.0505 449.656 60.057C449.081 60.2345 448.572 60.6135 448.142 60.9837C447.761 61.3062 447.838 61.7586 448.186 62.0812C448.454 62.3258 448.969 62.4406 449.495 62.4406C450.097 62.4406 450.708 62.289 450.957 62.0011L451.047 61.6136C451.05 61.1265 450.146 60.0484 449.719 60.0484ZM454.385 58.9205L454.344 59.0093C454.073 59.0807 453.758 59.124 453.621 59.2712C453.462 59.4465 453.594 59.6263 453.802 59.6263C453.862 59.6263 453.925 59.6111 453.993 59.5786C454.185 59.4833 454.248 59.2279 454.344 59.0093L454.464 58.9811L454.385 58.9205ZM20.7197 58.0437L20.6074 58.0458L20.7027 58.1238L20.7197 58.0437ZM20.7197 58.0437C20.9327 58.0437 21.1444 58.0458 21.3572 58.0458C21.6291 58.0458 21.9007 58.0415 22.169 58.0264L22.5307 57.7752L22.0097 57.2881C21.8782 57.2665 21.7542 57.2557 21.6408 57.2557C21.0866 57.2557 20.7657 57.5263 20.7197 58.0437ZM24.0912 48.5529C23.8675 48.5529 23.6334 48.6351 23.4045 48.7043L23.0225 48.9489L23.3905 49.2066C23.6131 49.2845 23.841 49.3495 24.0592 49.3495C24.2837 49.3495 24.4976 49.2824 24.687 49.0875L24.6933 48.8689C24.5137 48.6308 24.3084 48.5529 24.0912 48.5529ZM449.059 47.7041C448.837 47.7041 448.607 47.7799 448.386 47.8471L448.013 48.0982C448.443 48.2216 448.862 48.3732 449.306 48.4403L449.684 48.0138C449.495 47.7799 449.281 47.7041 449.059 47.7041ZM450.434 41.7897C450.341 42.0516 450.144 42.3201 450.176 42.5712C450.231 43.0042 450.565 43.2727 451.107 43.2727C451.162 43.2727 451.217 43.2704 451.274 43.2661C451.871 43.2098 452.148 42.9111 452.167 42.4543L452.277 42.4997L452.178 42.4175L452.167 42.4543C451.734 42.2681 451.305 42.0798 450.869 41.9023L450.434 41.7897ZM14.9942 41.5711C14.8669 41.5711 14.699 41.5883 14.4498 41.5883C14.3472 41.5948 14.006 41.5948 13.6818 41.6511L13.331 41.9109L13.791 42.4001C14.0325 42.4326 14.2839 42.4499 14.5353 42.4499C14.7965 42.4499 15.0574 42.4305 15.3088 42.3958C15.5697 42.359 15.7869 42.1231 16.0232 41.9758C15.745 41.8459 15.4777 41.6966 15.1845 41.597C15.1311 41.5775 15.0703 41.5711 14.9942 41.5711ZM11.44 40.9973L11.1629 41.0233L10.8144 41.2875C10.9425 41.6425 11.1331 41.9824 11.3009 42.3266C11.4743 42.1296 11.6476 41.9283 11.8206 41.7291L11.7223 41.2398L11.44 40.9973ZM22.353 34.8404C22.2364 34.8404 21.5305 35.2409 21.1959 35.5028C20.7186 35.8752 20.8856 36.2497 21.4995 36.3515C22.6386 36.5398 23.5682 37.3279 24.7309 37.3279C24.9576 37.3279 25.1917 37.2976 25.4389 37.2283C25.8571 37.1937 26.2634 37.237 26.5471 37.1114C26.8102 36.9945 27.0068 36.7131 27.1191 36.4706C27.345 35.9813 26.9545 35.6154 26.4422 35.5353C26.1051 35.4833 25.7577 35.4747 25.4069 35.4747C25.302 35.4747 25.1961 35.4747 25.0912 35.4768C24.9863 35.4768 24.8817 35.4768 24.7769 35.4768C23.9253 35.4768 23.0836 35.4206 22.367 34.8426C22.3637 34.8404 22.3596 34.8404 22.353 34.8404ZM13.3696 33.9766L13.1985 34.2364L13.5022 34.5092C13.9279 34.3685 14.0005 34.1714 13.7138 34.0004L13.3696 33.9766ZM27.8143 33.8835L27.4849 34.1411L27.9578 34.4183L28.115 34.1628L27.8143 33.8835ZM24.4442 33.0933L24.1052 33.3185C24.2153 33.5047 24.3459 33.5978 24.4773 33.5978C24.5649 33.5978 24.6547 33.5544 24.7372 33.47L24.7467 33.2037L24.4442 33.0933ZM27.6317 31.3874L27.4731 31.6385L27.7694 31.9091C28.1834 31.7662 28.2519 31.5736 27.9707 31.4069L27.6317 31.3874ZM22.289 29.4238C22.123 29.4238 21.9519 29.4411 21.7723 29.4779C21.4461 29.545 21.1433 29.6857 20.8301 29.7896C21.0193 30.0148 21.1455 30.3158 21.4086 30.45C22.4108 30.9717 23.428 31.4913 24.5148 31.8766C24.5255 31.881 24.5384 31.8853 24.5532 31.8853C24.7791 31.8853 25.3385 31.3895 25.6421 31.0886C25.7842 30.9457 25.9042 30.909 25.9896 30.909C26.0602 30.909 26.1073 30.9349 26.1276 30.9479L25.9576 30.7509L25.6293 30.4825C24.4143 30.3656 23.5414 29.4238 22.289 29.4238ZM446.691 30.2616L446.644 30.3699C446.387 30.4348 446.091 30.4824 445.971 30.6232C445.82 30.7963 445.943 30.9631 446.132 30.9631C446.192 30.9631 446.258 30.9458 446.327 30.909C446.505 30.8116 446.562 30.5755 446.644 30.3699L446.784 30.3331L446.691 30.2616ZM78.1381 29.6771L77.9788 29.9044L78.2824 30.1598C78.7028 30.03 78.7756 29.8482 78.4933 29.6966L78.1381 29.6771ZM43.176 29.6014L42.7686 29.859L43.1311 30.1361L43.5345 29.9001L43.176 29.6014ZM49.3509 28.6359C49.0587 28.7095 48.7624 28.7743 48.4812 28.8696L48.4919 29.1251C48.737 29.2247 49.0127 29.3697 49.2622 29.3697C49.2791 29.3697 49.2975 29.3697 49.3145 29.3676C49.6012 29.3416 49.861 29.1381 50.1326 29.0125C49.8717 28.8869 49.6118 28.7614 49.3509 28.6359ZM60.7442 28.7289L60.3378 28.9822L60.6971 29.2528L61.1026 29.0255L60.7442 28.7289ZM40.8743 26.9017C40.4091 26.9342 39.9543 27.0533 39.396 27.1616C39.7832 27.3759 40.0282 27.6075 40.3083 27.6378C40.33 27.6399 40.3524 27.6421 40.3749 27.6421C40.6325 27.6421 40.9181 27.4905 41.1898 27.4126L40.8743 26.9017ZM44.2083 27.0273L43.8702 27.2395C43.9813 27.4192 44.113 27.5101 44.2445 27.5101C44.3335 27.5101 44.4233 27.469 44.5065 27.3867L44.5153 27.1333L44.2083 27.0273ZM80.5841 25.3171C80.1425 25.3171 79.7734 25.6482 79.3906 26.0141C79.0623 26.3258 78.9949 26.5424 79.4075 26.6398C80.2463 26.8325 81.2227 26.8238 81.9275 27.1702C82.287 27.3477 82.5406 27.4169 82.7257 27.4169C83.3418 27.4169 83.1791 26.6268 83.5192 26.3302C83.7172 26.1591 84.0263 26.0704 84.3009 25.9579V25.9968L84.4124 25.9903C84.4337 26.393 84.6443 26.6961 85.1772 26.8021C85.2327 26.813 85.2927 26.8195 85.3535 26.8195C85.8434 26.8195 86.423 26.4839 86.2114 26.3064C86.0071 26.1332 85.6487 26.0358 85.3387 25.9903C85.2251 25.9752 85.1098 25.9687 84.9921 25.9687C84.8007 25.9687 84.606 25.9838 84.4124 25.9903L84.3899 25.9211L84.3009 25.9579C84.3001 25.6808 84.2968 25.4036 84.2957 25.1265C84.1235 25.0983 83.9568 25.0876 83.7941 25.0876C82.9491 25.0876 82.2112 25.4209 81.4634 25.7262C81.1329 25.4339 80.8451 25.3171 80.5841 25.3171ZM33.108 26.1874L32.9624 26.4363L33.2545 26.709C33.662 26.5596 33.7271 26.3627 33.447 26.1938L33.108 26.1874ZM84.2957 25.1265L84.4058 25.1351L84.3491 25.0508C84.5449 25.0529 84.744 25.0616 84.9395 25.0616C85.0882 25.0616 85.236 25.0572 85.3803 25.0356C86.4926 24.8754 86.8179 24.1848 86.1183 23.5505C85.8798 23.334 85.638 23.1175 85.3686 22.9248C85.0038 22.6693 84.6038 22.5373 84.2615 22.5373C83.945 22.5373 83.6775 22.6499 83.5353 22.8816C83.2999 23.2582 83.1939 23.6587 83.5994 24.0614C83.899 24.3601 84.1095 24.7131 84.3491 25.0508H84.2957V25.1265ZM35.3166 24.4489L35.1573 24.7022L35.4588 24.9706C35.8782 24.8278 35.9489 24.6329 35.6652 24.4706L35.3166 24.4489ZM42.6295 20.6516C41.2015 20.6516 40.0904 21.4743 38.778 21.7644C38.1597 21.8987 38.1435 22.9378 38.6901 23.202C39.0217 23.3622 39.8379 23.4379 40.8176 23.4379C41.3256 23.4379 41.8787 23.4185 42.4285 23.3773C42.9504 23.3405 43.4767 23.3253 44.0019 23.3253C44.3868 23.3253 44.7729 23.3339 45.156 23.3448C45.2554 23.3491 45.3537 23.3513 45.4523 23.3513C46.1015 23.3513 46.7187 23.2647 47.1636 22.8707C47.726 22.3727 49.0513 22.7647 49.14 21.6995C49.1967 21.0284 48.5902 20.747 46.6083 20.7253C46.4265 20.7253 46.2447 20.7231 46.0629 20.7231C45.6982 20.7231 45.3345 20.7253 44.9709 20.7253V20.7361C44.6264 20.7361 44.2724 20.7686 43.929 20.7686C43.7269 20.7686 43.529 20.7578 43.3387 20.721C43.0925 20.6734 42.8573 20.6516 42.6295 20.6516ZM36.5937 21.7233L36.2482 21.9809L36.7424 22.2559L36.9125 22.0026L36.5937 21.7233ZM60.5645 21.0218L60.4383 21.247L60.7165 21.5155L60.8972 21.0218H60.5645ZM30.0843 18.3915C30.0059 18.3915 29.912 18.4197 29.7976 18.4803C28.8296 18.9956 27.7919 18.9652 26.7672 19.1319C26.2325 19.2163 26.2421 19.409 26.5479 19.7316C26.8571 20.0563 27.0156 20.4698 27.2368 20.8487C27.3781 21.089 27.469 21.4484 27.7576 21.4484C27.8732 21.4484 28.0219 21.3899 28.2177 21.2427C28.96 20.6885 29.8488 20.7989 30.7313 20.7318C31.2639 20.6907 31.5826 20.3486 31.5815 19.8896C31.0692 19.8095 30.6982 19.5887 30.5525 19.1774C30.452 18.8916 30.4243 18.3915 30.0843 18.3915ZM31.5815 19.8896L31.6842 19.9222L31.7173 19.8572L31.587 19.842L31.5815 19.8896ZM31.7173 19.8572C31.88 19.8853 32.0382 19.8962 32.1902 19.8962C33.4577 19.8962 34.3733 19.0475 35.5445 18.8115L35.7701 18.5258C35.4598 18.4002 35.1625 18.201 34.8364 18.1664C34.6428 18.1469 34.4588 18.1361 34.2833 18.1361C32.9292 18.1361 32.0982 18.7531 31.7173 19.8572ZM52.5874 19.0583C52.6934 19.2532 52.7917 19.4523 52.9256 19.6363L53.2774 19.5995C53.3864 19.1146 52.9885 19.0843 52.5874 19.0583ZM52.4206 18.9501L52.456 19.0475L52.5874 19.0583L52.5403 18.9782L52.4206 18.9501ZM51.8988 18.318C51.6783 18.318 51.5212 18.5041 51.6707 18.6838C51.798 18.8354 52.1362 18.8786 52.4206 18.9501C52.3349 18.7249 52.2826 18.4629 52.0943 18.3655C52.0269 18.333 51.9606 18.318 51.8988 18.318ZM61.8715 16.5838C61.3249 16.7202 61.309 16.9324 61.8298 17.1186L61.9947 17.0341L62.2085 16.8653L62.0223 16.6813L61.8715 16.5838ZM52.548 15.5598C52.3456 15.5598 52.1383 15.6119 51.9297 15.692L51.5543 15.956C51.9886 16.0837 52.4141 16.2461 52.8634 16.3132L53.2752 15.8564C53.0463 15.6421 52.8013 15.5598 52.548 15.5598ZM353.661 8.64951C353.231 8.64951 352.744 8.76855 352.393 8.94823C351.621 9.35091 351.219 9.96583 351.027 10.717C350.907 11.1955 350.058 11.5159 350.693 12.1697C351.117 12.6027 351.279 13.1871 351.687 13.6331C351.777 13.7327 352.062 13.7911 352.32 13.7911C352.462 13.7911 352.593 13.7738 352.684 13.737C354.453 13.0182 354.757 11.5332 355.485 10.2818C355.537 9.89649 354.513 8.72968 353.886 8.66039C353.815 8.65173 353.738 8.64951 353.661 8.64951ZM43.7056 13.7608C44.8093 13.7608 45.5774 13.789 46.1976 13.789C46.6352 13.789 46.9988 13.7738 47.3539 13.724C47.8159 13.6612 48.2395 13.2715 48.5979 12.9663C48.7753 12.8169 48.8095 12.5311 48.8183 12.3038L48.401 12.0722L47.8758 12.0658C47.6277 11.977 47.3827 11.9423 47.139 11.9423C46.6425 11.9423 46.1549 12.0917 45.6661 12.2389C45.1774 12.3883 44.6883 12.5355 44.1911 12.5355C43.8242 12.5355 43.4531 12.4554 43.0733 12.2346L42.7642 12.5485C42.7149 12.8127 42.6155 13.1569 42.7738 13.343C43.084 13.7132 43.5536 13.7781 43.7152 13.7781C43.7869 13.7781 43.7976 13.7651 43.7056 13.7608ZM62.4739 12.9706C62.2597 12.9706 62.0363 13.0377 61.8192 13.0962L61.6256 13.2044L61.4459 13.3451L62.0525 13.5422L62.6694 13.6959L63.1102 13.2867C62.9207 13.0464 62.7028 12.9706 62.4739 12.9706ZM389.173 12.1003L388.71 12.1069C388.387 12.1805 388.077 12.2931 387.762 12.3862L388.269 12.8863C388.718 13.0876 389.227 13.2066 389.701 13.3798C389.868 13.4404 390.019 13.4686 390.15 13.4686C390.47 13.4686 390.676 13.2975 390.709 12.9966C390.75 12.6567 390.676 12.4099 390.257 12.2995C389.931 12.2129 389.586 12.1739 389.173 12.1003ZM414.175 11.2387C413.405 11.2387 411.935 12.0095 411.806 12.5269L411.88 12.6048L412.581 12.9144C413.06 12.8429 413.408 12.7455 413.712 12.5767C414.011 12.4056 414.268 12.161 414.558 11.7952L414.58 11.4833L414.194 11.2387C414.189 11.2387 414.18 11.2387 414.175 11.2387ZM400.969 12.1112C400.52 12.1848 400.095 12.3428 399.663 12.4748C399.928 12.6177 400.191 12.7628 400.457 12.9078C400.755 12.8147 401.051 12.7216 401.349 12.6286L400.969 12.1112ZM61.8972 10.5221C61.8342 10.5221 61.7636 10.5373 61.6918 10.5785C61.5155 10.6802 61.4607 10.9161 61.3838 11.1261L61.234 11.1651L61.202 11.2453C59.9827 11.2691 58.7634 11.2863 57.5451 11.3253L57.1076 11.544C57.2713 11.7865 57.437 12.0354 57.6648 12.2389C57.9044 12.4511 58.2102 12.6156 58.4862 12.8018C59.1612 12.0419 60.8887 12.3862 61.202 11.2453L61.34 11.243L61.3838 11.1261C61.648 11.0547 61.9487 11.0027 62.0738 10.8555C62.2192 10.6845 62.0908 10.5221 61.8972 10.5221ZM87.1087 12.1978L86.7752 12.4403L87.2371 12.713L87.4049 12.4684L87.1087 12.1978ZM225.654 10.3663C225.293 10.3663 224.934 10.3684 224.573 10.3771L224.195 10.6413L224.228 10.8902C224.704 10.9876 225.183 11.1023 225.671 11.1348C225.739 11.1391 225.81 11.1413 225.876 11.1413C226.489 11.1413 226.949 10.94 227.034 10.3706C226.574 10.3706 226.114 10.3663 225.654 10.3663ZM79.2611 10.5849L79.12 10.8274L79.3958 11.1024L79.5842 10.5979L79.2611 10.5849ZM76.0503 10.5351L75.7069 10.756C75.8192 10.9443 75.9517 11.0396 76.0856 11.0396C76.1732 11.0396 76.2608 10.9985 76.3433 10.9162L76.3764 10.6586L76.0503 10.5351ZM165.014 10.5178L164.68 10.7429C164.786 10.9291 164.915 11.0222 165.045 11.0222C165.134 11.0222 165.223 10.9789 165.306 10.8923L165.314 10.6304L165.014 10.5178ZM227.034 10.3706H227.155L227.166 10.2862C227.798 10.271 228.132 10.0178 228.146 9.51336L228.261 9.50246L228.313 9.41155C228.685 9.38557 229.066 9.3639 228.97 8.89845L228.622 8.85955L228.313 9.41155L228.157 9.42245L228.146 9.51336C227.524 9.53717 227.16 9.76444 227.166 10.2862L227.056 10.297L227.034 10.3706ZM374.748 8.72963C374.608 8.95477 374.378 9.17346 374.351 9.40511C374.271 10.0957 374.868 10.2364 375.515 10.2364C375.558 10.2364 375.599 10.2364 375.643 10.2364C375.838 10.2299 376.021 9.97231 376.413 9.67572C375.98 9.4181 375.583 9.17559 375.178 8.93745L374.748 8.72963ZM387.935 9.62593L387.582 9.87265C387.694 10.074 387.831 10.1758 387.971 10.1758C388.066 10.1758 388.165 10.1281 388.255 10.0307L388.264 9.74929L387.935 9.62593ZM95.901 8.70585L95.5458 9.01758L95.873 9.33365L96.2336 9.02625L95.901 8.70585ZM182.481 8.8271L182.335 9.05437L182.604 9.30765C182.989 9.17775 183.056 9.00025 182.797 8.84654L182.481 8.8271ZM54.241 8.76431L53.888 9.15606L54.2133 9.29252L54.5693 9.03925L54.241 8.76431ZM186.591 7.83334L186.107 7.90913L185.617 8.06284L185.795 8.41135C186.019 8.63651 186.281 8.83566 186.516 9.05215C186.685 9.21019 186.841 9.29031 186.982 9.29031C187.119 9.29031 187.24 9.21458 187.346 9.05871L187.506 8.69496C187.551 8.16673 187.192 7.87014 186.591 7.83334ZM171.828 6.84613C171.536 6.84613 171.249 6.86135 170.971 6.90681C170.494 6.98691 170.057 7.31374 169.663 7.58652C169.419 7.75538 169.286 8.02822 169.104 8.25553C169.379 8.33131 169.743 8.51527 169.958 8.51527C169.997 8.51527 170.03 8.5088 170.059 8.49581C171.355 7.84202 172.758 7.67319 174.227 7.67319C174.374 7.67319 174.523 7.67531 174.672 7.67963L175.148 7.16442L174.751 6.91114C174.507 6.89599 174.261 6.89159 174.016 6.89159C173.722 6.89159 173.427 6.89815 173.132 6.89815V6.87649C172.7 6.87649 172.26 6.84613 171.828 6.84613ZM164.646 7.83124C164.347 7.83124 164.031 7.96756 163.697 8.0455L164.328 8.4937C164.346 8.4937 164.364 8.49581 164.381 8.49581C164.674 8.49581 164.984 8.33997 165.287 8.25986L164.708 7.83334C164.688 7.83117 164.666 7.83124 164.646 7.83124ZM74.8329 7.0865L74.6801 7.32456L74.9849 7.59519C75.4085 7.45448 75.478 7.2575 75.1869 7.09296L74.8329 7.0865ZM112.121 5.22469C112.115 5.22469 112.107 5.2268 112.101 5.2268C110.747 5.39349 109.659 6.01482 108.626 6.68377L108.587 7.09296C108.624 7.21636 108.759 7.32032 108.958 7.56495C109.886 6.57776 111.473 7.09727 112.584 6.48895C112.779 6.38287 112.842 5.96722 112.759 5.74424C112.682 5.53642 112.319 5.22469 112.121 5.22469ZM96.5671 6.00407C95.8388 6.00407 95.2249 6.62536 95.4549 7.21854L95.7457 7.53027C95.7597 7.53027 95.7747 7.53239 95.7895 7.53239C96.3158 7.53239 97.2657 6.67302 97.192 6.27468L96.8037 6.02563C96.7246 6.01048 96.6452 6.00407 96.5671 6.00407ZM334.686 6.82668L334.647 6.9176C334.376 6.98904 334.067 7.03454 333.93 7.18176C333.777 7.35062 333.905 7.52161 334.113 7.52161C334.174 7.52161 334.242 7.50651 334.313 7.47403C334.497 7.38094 334.557 7.12976 334.647 6.9176L334.765 6.88726L334.686 6.82668ZM86.4553 6.92626C86.1996 6.98904 85.9107 7.03236 85.7878 7.16875C85.6339 7.33761 85.7525 7.50216 85.9493 7.50216C86.0093 7.50216 86.0767 7.48701 86.1462 7.45237C86.3184 7.36361 86.3751 7.12976 86.4553 6.92626ZM86.558 6.83968C86.8562 6.94144 87.1623 7.03236 87.4499 7.15143C87.9121 7.3441 88.1796 7.4567 88.3485 7.4567C88.5752 7.4567 88.6264 7.25529 88.7398 6.78335C88.8063 6.50841 88.7442 6.214 88.8137 5.93906C88.9208 5.5169 89.1741 5.22469 89.8019 5.22469C89.8233 5.22469 89.8457 5.2268 89.8682 5.2268C90.5026 5.24628 90.8641 5.46712 90.938 5.9434C91.0117 6.42834 91.3326 6.69029 91.921 6.76823L92.4462 6.78768L92.846 6.53875C92.599 6.04082 92.2814 5.56887 92.0363 5.07311C91.5188 4.01881 90.6653 3.34341 89.2844 3.34341C89.1368 3.34341 88.9816 3.35204 88.8211 3.3672C88.555 3.39318 88.2938 3.4062 88.0372 3.4062C86.7204 3.4062 85.514 3.07712 84.3481 2.57703L84.4091 2.47746L84.2968 2.55536L84.3481 2.57703C84.0039 3.1399 83.6605 3.70273 83.3171 4.2656C84.761 4.83497 85.882 5.66199 86.558 6.83968L86.4981 6.81802L86.4553 6.92626L86.5953 6.89381L86.558 6.83968ZM345.359 6.04952L344.946 6.54741C345.244 6.63617 345.54 6.72714 345.836 6.8159C346.118 6.68818 346.4 6.56045 346.679 6.43272C346.241 6.29417 345.814 6.12746 345.359 6.04952ZM334.647 5.92605L334.686 6.02563L334.771 5.95639L334.647 5.92605ZM154.174 4.40631L153.749 4.59901C153.395 4.88261 153.039 5.16618 152.751 5.48875L152.926 5.67934L153.262 5.95862C153.336 5.96512 153.407 5.9694 153.475 5.9694C153.77 5.9694 154.015 5.90875 154.196 5.78969C154.42 5.64464 154.547 5.4108 154.549 5.09689C154.551 4.86741 154.306 4.63579 154.174 4.40631ZM334.122 5.30048C333.927 5.30048 333.793 5.46926 333.938 5.65544C334.053 5.80482 334.374 5.85245 334.647 5.92605C334.56 5.71173 334.502 5.46501 334.316 5.3546C334.25 5.31563 334.182 5.30048 334.122 5.30048ZM136.288 4.18337C135.984 4.29378 135.532 4.46047 135.08 4.625C135.526 5.03633 135.895 5.54076 136.448 5.82003C136.54 5.86765 136.67 5.88715 136.816 5.88715C137.144 5.88715 137.553 5.78533 137.806 5.65544C138.336 5.38266 138.091 4.44094 137.508 4.30672C137.181 4.22878 136.823 4.23316 136.288 4.18337ZM103.743 3.69192L103.094 3.98199C102.988 4.37384 102.951 4.79385 103.021 5.19003C103.063 5.42384 103.357 5.62955 103.538 5.85036C103.722 5.63388 103.934 5.42815 104.079 5.19867L104.092 4.79382H104.072C104.072 4.52538 104.105 4.25044 104.057 3.98633L103.743 3.69192ZM150.799 5.24847L150.439 5.53641L150.755 5.84815L151.169 5.56676L150.799 5.24847ZM122.249 5.24636L121.924 5.49308L122.379 5.76802L122.54 5.51696L122.249 5.24636ZM168.853 5.07744L168.8 5.17268C168.407 5.19433 168.028 5.23546 168.135 5.71391L168.487 5.74857L168.8 5.17268L168.962 5.15968L168.853 5.07744ZM174.967 4.38251C174.799 4.71158 174.587 5.03411 174.493 5.37617L175.047 5.70523C175.618 5.41296 175.493 5.03626 175.307 4.66824L174.967 4.38251ZM81.5458 3.53389C81.41 3.53389 81.304 3.62045 81.212 3.81529L81.1115 4.1898C81.0173 4.68556 81.3982 4.93679 81.919 5.03421C82.0603 5.06019 82.1898 5.07533 82.3073 5.07533C82.8645 5.07533 83.1545 4.77868 83.195 4.25694C82.7832 4.08808 82.3448 3.94526 81.9919 3.71794C81.81 3.60104 81.6655 3.53389 81.5458 3.53389ZM166.256 4.4323L165.907 4.80682L166.228 4.93886L166.58 4.69647L166.256 4.4323ZM324.3 4.38685L323.957 4.612L324.439 4.88263L324.612 4.64012L324.3 4.38685ZM83.195 4.25694L83.2988 4.29804L83.3171 4.2656L83.2049 4.21583L83.195 4.25694ZM112.441 3.54466L112.068 3.94741L112.414 4.08812L112.785 3.82618L112.441 3.54466Z" fill="#C0FFD5"/>
</svg>
