<svg width="17" height="17" viewBox="0 0 17 17" fill="none" xmlns="http://www.w3.org/2000/svg">
<path d="M0.0341797 12.3194V4.68605C0.0341797 2.38235 1.91653 0.5 4.22022 0.5H11.8481C14.1518 0.5 16.0342 2.38235 16.0342 4.68605V12.314C16.0342 14.6176 14.1518 16.5 11.8481 16.5H9.28178L7.94115 16.1717L6.78657 16.5H4.22022C1.91653 16.5 0.0341797 14.6176 0.0341797 12.314V12.3194Z" fill="white"/>
<path d="M11.1483 11.0772L11.504 8.7626H9.28237V7.26328C9.28237 6.62853 9.59427 6.01568 10.5847 6.01568H11.5915V4.04577C11.5915 4.04577 10.6777 3.88708 9.8022 3.88708C7.97457 3.88708 6.78168 4.99242 6.78168 7.00063V8.7626H4.75159V11.0772H6.78168V16.4999H9.28237V11.0772H11.1483Z" fill="black"/>
</svg>
