<svg width="28" height="28" viewBox="0 0 28 28" fill="none" xmlns="http://www.w3.org/2000/svg">
<path d="M15.0885 11.0303C15.0885 10.5642 14.7107 10.1864 14.2446 10.1864C13.7785 10.1864 13.4007 10.5642 13.4007 11.0303L13.4007 13.5621H10.8689C10.4029 13.5621 10.025 13.9399 10.025 14.406C10.025 14.8721 10.4029 15.25 10.8689 15.25H13.4007V17.7817C13.4007 18.2478 13.7785 18.6256 14.2446 18.6256C14.7107 18.6256 15.0885 18.2478 15.0885 17.7817L15.0885 15.25H17.6203C18.0864 15.25 18.4642 14.8721 18.4642 14.406C18.4642 13.9399 18.0864 13.5621 17.6203 13.5621H15.0885V11.0303Z" fill="#B9B9B9"/>
<path fill-rule="evenodd" clip-rule="evenodd" d="M14.3092 2.30981H14.1801C11.5826 2.3098 9.54702 2.30979 7.95878 2.52332C6.33312 2.74189 5.05034 3.19799 4.04347 4.20485C3.03661 5.21171 2.58051 6.4945 2.36195 8.12016C2.14841 9.70839 2.14842 11.744 2.14844 14.3414V14.4706C2.14842 17.068 2.14841 19.1036 2.36195 20.6919C2.58051 22.3175 3.03661 23.6003 4.04347 24.6072C5.05034 25.614 6.33312 26.0701 7.95878 26.2887C9.54702 26.5022 11.5826 26.5022 14.1801 26.5022H14.3092C16.9067 26.5022 18.9422 26.5022 20.5305 26.2887C22.1561 26.0701 23.4389 25.614 24.4458 24.6072C25.4526 23.6003 25.9087 22.3175 26.1273 20.6919C26.3408 19.1036 26.3408 17.068 26.3408 14.4706V14.3414C26.3408 11.744 26.3408 9.7084 26.1273 8.12016C25.9087 6.4945 25.4526 5.21171 24.4458 4.20485C23.4389 3.19799 22.1561 2.74189 20.5305 2.52332C18.9422 2.30979 16.9066 2.3098 14.3092 2.30981ZM5.23696 5.39833C5.87795 4.75734 6.74518 4.38951 8.18368 4.19611C9.64645 3.99945 11.5686 3.99766 14.2446 3.99766C16.9207 3.99766 18.8428 3.99945 20.3056 4.19611C21.7441 4.38951 22.6113 4.75734 23.2523 5.39833C23.8933 6.03933 24.2611 6.90656 24.4545 8.34506C24.6512 9.80783 24.653 11.73 24.653 14.406C24.653 17.082 24.6512 19.0042 24.4545 20.467C24.2611 21.9054 23.8933 22.7727 23.2523 23.4137C22.6113 24.0547 21.7441 24.4225 20.3056 24.6159C18.8428 24.8126 16.9207 24.8144 14.2446 24.8144C11.5686 24.8144 9.64645 24.8126 8.18368 24.6159C6.74518 24.4225 5.87795 24.0547 5.23696 23.4137C4.59596 22.7727 4.22814 21.9054 4.03474 20.467C3.83807 19.0042 3.83628 17.082 3.83628 14.406C3.83628 11.73 3.83807 9.80783 4.03474 8.34506C4.22814 6.90656 4.59596 6.03933 5.23696 5.39833Z" fill="#B9B9B9"/>
</svg>
