<svg width="32" height="32" viewBox="0 0 32 32" fill="none" xmlns="http://www.w3.org/2000/svg">
<path fill-rule="evenodd" clip-rule="evenodd" d="M30.5566 7.68227C30.5566 8.37133 29.998 8.92993 29.309 8.92993L2.69213 8.92993C2.00306 8.92993 1.44446 8.37133 1.44446 7.68227C1.44446 6.9932 2.00306 6.4346 2.69213 6.4346L29.309 6.4346C29.998 6.4346 30.5566 6.9932 30.5566 7.68227Z" fill="#101010"/>
<path fill-rule="evenodd" clip-rule="evenodd" d="M30.5566 15.9999C30.5566 16.689 29.998 17.2476 29.309 17.2476L2.69213 17.2476C2.00306 17.2476 1.44446 16.689 1.44446 15.9999C1.44446 15.3108 2.00306 14.7522 2.69213 14.7522L29.309 14.7522C29.998 14.7522 30.5566 15.3108 30.5566 15.9999Z" fill="#101010"/>
<path fill-rule="evenodd" clip-rule="evenodd" d="M30.5566 24.3178C30.5566 25.0068 29.998 25.5654 29.309 25.5654L2.69213 25.5654C2.00306 25.5654 1.44446 25.0068 1.44446 24.3178C1.44446 23.6287 2.00306 23.0701 2.69213 23.0701L29.309 23.0701C29.998 23.0701 30.5566 23.6287 30.5566 24.3178Z" fill="#101010"/>
</svg>
