<svg width="25" height="24" viewBox="0 0 25 24" fill="none" xmlns="http://www.w3.org/2000/svg">
<g id="Outline / Time / Hourglass Line">
<path id="Vector" fill-rule="evenodd" clip-rule="evenodd" d="M12.169 1.25H12.2938C14.3076 1.24998 15.8968 1.24997 17.0544 1.40259C18.1921 1.5526 19.2144 1.88319 19.6999 2.82586C19.7699 2.96167 19.8289 3.10281 19.8765 3.24795C20.2077 4.25892 19.7175 5.21387 19.0193 6.11769C18.3093 7.03684 17.185 8.15011 15.7617 9.55957L13.2973 12L15.7617 14.4404C17.185 15.8499 18.3093 16.9632 19.0193 17.8823C19.7175 18.7861 20.2077 19.7411 19.8765 20.752C19.8289 20.8972 19.7699 21.0383 19.6999 21.1741C19.2144 22.1168 18.1921 22.4474 17.0544 22.5974C15.8968 22.75 14.3076 22.75 12.2938 22.75H12.169C10.1553 22.75 8.56602 22.75 7.40845 22.5974C6.27069 22.4474 5.24841 22.1168 4.76291 21.1741C4.69296 21.0383 4.63392 20.8972 4.58636 20.752C4.25509 19.7411 4.74531 18.7861 5.44353 17.8823C6.15358 16.9632 7.27781 15.8499 8.70113 14.4404L11.1655 12L8.70114 9.55957C7.27781 8.15011 6.15358 7.03684 5.44353 6.11769C4.74531 5.21387 4.25509 4.25893 4.58636 3.24795C4.63391 3.10281 4.69296 2.96167 4.76291 2.82586C5.24841 1.88319 6.27069 1.5526 7.40845 1.40259C8.56601 1.24997 10.1553 1.24998 12.169 1.25ZM12.2314 10.9445L14.6614 8.53815C16.1393 7.0746 17.1908 6.03105 17.8323 5.20068C18.493 4.34534 18.5289 3.95253 18.4511 3.71502C18.4283 3.64553 18.4 3.57787 18.3664 3.51267C18.2497 3.28608 17.9376 3.03203 16.8583 2.88972C15.8107 2.7516 14.3211 2.75 12.2314 2.75C10.1417 2.75 8.65209 2.7516 7.60452 2.88972C6.52522 3.03203 6.21313 3.28608 6.09643 3.51267C6.06285 3.57787 6.03455 3.64553 6.01178 3.71502C5.93396 3.95253 5.96982 4.34534 6.63058 5.20068C7.27206 6.03105 8.32353 7.0746 9.80145 8.53815L12.2314 10.9445ZM12.2314 13.0555L9.80145 15.4618C8.32353 16.9254 7.27205 17.969 6.63058 18.7993C5.96982 19.6547 5.93396 20.0475 6.01179 20.285C6.03455 20.3545 6.06285 20.4221 6.09643 20.4873C6.21313 20.7139 6.52522 20.968 7.60452 21.1103C8.65209 21.2484 10.1417 21.25 12.2314 21.25C14.3211 21.25 15.8107 21.2484 16.8583 21.1103C17.9376 20.968 18.2497 20.7139 18.3664 20.4873C18.4 20.4221 18.4283 20.3545 18.451 20.285C18.5289 20.0475 18.493 19.6547 17.8323 18.7993C17.1908 17.969 16.1393 16.9254 14.6614 15.4618L12.2314 13.0555ZM9.48142 5.5C9.48142 5.08579 9.8172 4.75 10.2314 4.75H14.2314C14.6456 4.75 14.9814 5.08579 14.9814 5.5C14.9814 5.91421 14.6456 6.25 14.2314 6.25H10.2314C9.8172 6.25 9.48142 5.91421 9.48142 5.5ZM9.48142 18.5C9.48142 18.0858 9.8172 17.75 10.2314 17.75H14.2314C14.6456 17.75 14.9814 18.0858 14.9814 18.5C14.9814 18.9142 14.6456 19.25 14.2314 19.25H10.2314C9.8172 19.25 9.48142 18.9142 9.48142 18.5Z" fill="#7B0029"/>
</g>
</svg>
