<svg width="50" height="50" viewBox="0 0 50 50" fill="none" xmlns="http://www.w3.org/2000/svg">
<g clip-path="url(#clip0_1228_180)">
<path d="M1.55498 16.3044C0.550098 19.0128 0 21.942 0 25C0 28.058 0.550098 30.9874 1.55498 33.6956L25 35.8696L48.445 33.6956C49.4499 30.9874 50 28.058 50 25C50 21.942 49.4499 19.0128 48.445 16.3044L25 14.1305L1.55498 16.3044Z" fill="#F0F0F0"/>
<path d="M25 0C14.251 0 5.08731 6.78437 1.55508 16.3044H48.4452C44.9127 6.78437 35.7492 0 25 0V0Z" fill="#D80027"/>
<path d="M25 49.9999C35.7492 49.9999 44.9127 43.2156 48.4451 33.6956H1.55508C5.08731 43.2156 14.251 49.9999 25 49.9999V49.9999Z" fill="#6DA544"/>
</g>
<defs>
<clipPath id="clip0_1228_180">
<rect width="50" height="50" fill="white"/>
</clipPath>
</defs>
</svg>
