<svg width="32" height="33" viewBox="0 0 32 33" fill="none" xmlns="http://www.w3.org/2000/svg">
<path fill-rule="evenodd" clip-rule="evenodd" d="M15.9168 2.16663H16.0832C18.7682 2.1666 20.8872 2.16659 22.4306 2.37008C23.9476 2.5701 25.3107 3.01087 25.958 4.26777C26.0513 4.44886 26.13 4.63704 26.1934 4.83056C26.6351 6.17853 25.9815 7.45178 25.0505 8.65688C24.1038 9.88241 22.6048 11.3668 20.707 13.2461L17.4212 16.5L20.7071 19.7539C22.6048 21.6332 24.1038 23.1175 25.0505 24.343C25.9815 25.5481 26.6351 26.8214 26.1934 28.1694C26.13 28.3629 26.0513 28.5511 25.958 28.7321C25.3107 29.989 23.9476 30.4298 22.4306 30.6298C20.8872 30.8333 18.7682 30.8333 16.0832 30.8333H15.9168C13.2318 30.8333 11.1128 30.8333 9.56938 30.6298C8.05237 30.4298 6.68933 29.989 6.04199 28.7321C5.94872 28.5511 5.87 28.3629 5.80659 28.1694C5.3649 26.8214 6.01853 25.5481 6.94949 24.343C7.89623 23.1175 9.39519 21.6332 11.293 19.7539L14.5788 16.5L11.293 13.2461C9.3952 11.3668 7.89623 9.88241 6.94949 8.65688C6.01853 7.45178 5.3649 6.17853 5.80659 4.83056C5.87 4.63704 5.94872 4.44886 6.04199 4.26777C6.68933 3.01087 8.05237 2.5701 9.56938 2.37008C11.1128 2.16659 13.2318 2.1666 15.9168 2.16663ZM16 15.0926L19.24 11.8842C21.2105 9.93276 22.6125 8.54136 23.4678 7.43419C24.3488 6.29375 24.3966 5.76999 24.2929 5.45332C24.2625 5.36067 24.2248 5.27045 24.18 5.18352C24.0244 4.8814 23.6083 4.54266 22.1692 4.35292C20.7724 4.16876 18.7863 4.16663 16 4.16663C13.2137 4.16663 11.2276 4.16876 9.83081 4.35292C8.39173 4.54266 7.97562 4.8814 7.82002 5.18352C7.77525 5.27045 7.73752 5.36067 7.70716 5.45332C7.6034 5.76999 7.65121 6.29375 8.53222 7.43419C9.38752 8.54136 10.7895 9.93276 12.7601 11.8842L16 15.0926ZM16 17.9073L12.76 21.1158C10.7895 23.0672 9.38752 24.4586 8.53222 25.5657C7.65121 26.7062 7.6034 27.2299 7.70716 27.5466C7.73752 27.6393 7.77525 27.7295 7.82002 27.8164C7.97562 28.1185 8.39174 28.4573 9.83081 28.647C11.2276 28.8312 13.2137 28.8333 16 28.8333C18.7863 28.8333 20.7724 28.8312 22.1692 28.647C23.6083 28.4573 24.0244 28.1185 24.18 27.8164C24.2248 27.7295 24.2625 27.6392 24.2928 27.5466C24.3966 27.2299 24.3488 26.7062 23.4678 25.5657C22.6125 24.4586 21.2105 23.0672 19.24 21.1158L16 17.9073ZM12.3333 7.83329C12.3333 7.28101 12.7811 6.83329 13.3333 6.83329H18.6667C19.219 6.83329 19.6667 7.28101 19.6667 7.83329C19.6667 8.38558 19.219 8.83329 18.6667 8.83329H13.3333C12.7811 8.83329 12.3333 8.38558 12.3333 7.83329ZM12.3333 25.1666C12.3333 24.6143 12.7811 24.1666 13.3333 24.1666H18.6667C19.219 24.1666 19.6667 24.6143 19.6667 25.1666C19.6667 25.7189 19.219 26.1666 18.6667 26.1666H13.3333C12.7811 26.1666 12.3333 25.7189 12.3333 25.1666Z" fill="#212121"/>
</svg>
