<svg width="32" height="33" viewBox="0 0 32 33" fill="none" xmlns="http://www.w3.org/2000/svg">
<path fill-rule="evenodd" clip-rule="evenodd" d="M7.49916 6.39893C5.28718 7.41003 3.66669 9.81498 3.66669 12.6828C3.66669 15.6127 4.86564 17.871 6.5844 19.8064C8.00099 21.4015 9.7158 22.7235 11.3882 24.0128C11.7854 24.319 12.1802 24.6234 12.5681 24.9292C13.2695 25.4821 13.8951 25.9674 14.4982 26.3198C15.1015 26.6724 15.5872 26.8333 16 26.8333C16.4128 26.8333 16.8985 26.6724 17.5019 26.3198C18.1049 25.9674 18.7306 25.4821 19.432 24.9292C19.8198 24.6234 20.2146 24.319 20.6119 24.0128C22.2842 22.7235 23.9991 21.4015 25.4156 19.8064C27.1344 17.871 28.3334 15.6127 28.3334 12.6828C28.3334 9.81498 26.7129 7.41003 24.5009 6.39893C22.3519 5.41664 19.4645 5.67677 16.7205 8.52765C16.532 8.72351 16.2719 8.83418 16 8.83418C15.7282 8.83418 15.468 8.72351 15.2795 8.52765C12.5356 5.67677 9.64811 5.41664 7.49916 6.39893ZM16 6.44509C12.9173 3.68699 9.4653 3.30116 6.6677 4.57995C3.71297 5.93057 1.66669 9.06671 1.66669 12.6828C1.66669 16.2368 3.14735 18.9481 5.08898 21.1344C6.64385 22.8853 8.54699 24.3506 10.2278 25.6448C10.6088 25.9382 10.9784 26.2227 11.3299 26.4998C12.0129 27.0382 12.7461 27.6124 13.4891 28.0466C14.2318 28.4806 15.0795 28.8333 16 28.8333C16.9206 28.8333 17.7682 28.4806 18.5109 28.0466C19.254 27.6124 19.9871 27.0382 20.6701 26.4998C21.0216 26.2227 21.3912 25.9382 21.7723 25.6448C23.4531 24.3506 25.3562 22.8853 26.9111 21.1344C28.8527 18.9481 30.3334 16.2368 30.3334 12.6828C30.3334 9.06671 28.2871 5.93057 25.3323 4.57995C22.5347 3.30116 19.0828 3.68699 16 6.44509Z" fill="#212121"/>
</svg>
