<svg width="24" height="28" viewBox="0 0 24 28" fill="none" xmlns="http://www.w3.org/2000/svg">
<path fill-rule="evenodd" clip-rule="evenodd" d="M5.25 12.0546V10C5.25 6.27208 8.27208 3.25 12 3.25C15.7279 3.25 18.75 6.27208 18.75 10V12.0546C19.8648 12.1379 20.5907 12.348 21.1213 12.8787C22 13.7574 22 15.1716 22 18C22 20.8284 22 22.2426 21.1213 23.1213C20.2426 24 18.8284 24 16 24H8C5.17157 24 3.75736 24 2.87868 23.1213C2 22.2426 2 20.8284 2 18C2 15.1716 2 13.7574 2.87868 12.8787C3.40931 12.348 4.13525 12.1379 5.25 12.0546ZM6.75 10C6.75 7.10051 9.10051 4.75 12 4.75C14.8995 4.75 17.25 7.10051 17.25 10V12.0036C16.867 12 16.4515 12 16 12H8C7.54849 12 7.13301 12 6.75 12.0036V10Z" fill="#101010"/>
</svg>
