<svg width="24" height="25" viewBox="0 0 24 25" fill="none" xmlns="http://www.w3.org/2000/svg">
<path fill-rule="evenodd" clip-rule="evenodd" d="M22 12.0625C22 17.5853 17.5228 22.0625 12 22.0625C6.47715 22.0625 2 17.5853 2 12.0625C2 6.53965 6.47715 2.0625 12 2.0625C17.5228 2.0625 22 6.53965 22 12.0625ZM16.0303 9.03217C16.3232 9.32506 16.3232 9.79994 16.0303 10.0928L11.0303 15.0928C10.7374 15.3857 10.2626 15.3857 9.96967 15.0928L7.96967 13.0928C7.67678 12.7999 7.67678 12.3251 7.96967 12.0322C8.26256 11.7393 8.73744 11.7393 9.03033 12.0322L10.5 13.5018L12.7348 11.267L14.9697 9.03217C15.2626 8.73928 15.7374 8.73928 16.0303 9.03217Z" fill="#4CAF50"/>
</svg>
