<svg width="33" height="33" viewBox="0 0 33 33" fill="none" xmlns="http://www.w3.org/2000/svg">
<path fill-rule="evenodd" clip-rule="evenodd" d="M16.9118 1.72852H17.0622C19.5125 1.72849 21.4534 1.72848 22.9723 1.9327C24.5356 2.14287 25.8008 2.58569 26.7987 3.58351C27.7965 4.58132 28.2393 5.84659 28.4495 7.40982C28.6537 8.92877 28.6537 10.8696 28.6536 13.32V18.8037C28.6537 21.2541 28.6537 23.1949 28.4495 24.7139C28.2393 26.2771 27.7965 27.5424 26.7987 28.5402C25.8008 29.538 24.5356 29.9808 22.9723 30.191C21.4534 30.3952 19.5125 30.3952 17.0622 30.3952H16.9118C14.4614 30.3952 12.5206 30.3952 11.0016 30.191C9.43839 29.9808 8.17312 29.538 7.1753 28.5402C6.17749 27.5424 5.73466 26.2771 5.52449 24.7139C5.32027 23.1949 5.32029 21.2541 5.32031 18.8037V13.32C5.32029 10.8696 5.32027 8.92877 5.52449 7.40982C5.73466 5.84659 6.17749 4.58132 7.1753 3.58351C8.17312 2.58569 9.43839 2.14287 11.0016 1.9327C12.5206 1.72848 14.4614 1.72849 16.9118 1.72852ZM10.0723 4.1594C9.42025 4.35429 8.95994 4.6273 8.58952 4.99772C8.02524 5.562 7.68701 6.33486 7.50666 7.67631C7.32244 9.04653 7.32031 10.8528 7.32031 13.3952V18.7285C7.32031 21.2709 7.32244 23.0772 7.50666 24.4474C7.68701 25.7888 8.02524 26.5617 8.58952 27.126C9.1538 27.6903 9.92666 28.0285 11.2681 28.2088C12.6383 28.3931 14.4446 28.3952 16.987 28.3952C19.5294 28.3952 21.3356 28.3931 22.7058 28.2088C24.0473 28.0285 24.8202 27.6903 25.3844 27.126C25.9487 26.5617 26.2869 25.7888 26.4673 24.4474C26.6515 23.0772 26.6536 21.2709 26.6536 18.7285V13.3952C26.6536 10.8528 26.6515 9.04653 26.4673 7.67631C26.2869 6.33486 25.9487 5.562 25.3844 4.99772C25.014 4.6273 24.5537 4.35429 23.9017 4.15941C23.0194 5.48432 22.4025 6.40539 21.4852 6.97536C21.3022 7.08908 21.1121 7.19084 20.916 7.28002C19.9264 7.73001 18.8097 7.72943 17.2009 7.72859C17.1305 7.72855 17.0592 7.72852 16.987 7.72852C16.9147 7.72852 16.8434 7.72855 16.7731 7.72859C15.1643 7.72943 14.0475 7.73001 13.058 7.28002C12.8619 7.19084 12.6717 7.08907 12.4887 6.97536C11.5715 6.40538 10.9546 5.48433 10.0723 4.1594ZM12.2554 3.81663C12.8475 4.6747 13.1575 5.03626 13.5443 5.27663C13.6541 5.34485 13.7682 5.40591 13.8859 5.45942C14.4311 5.70735 15.0771 5.72852 16.987 5.72852C18.8969 5.72852 19.5429 5.70735 20.0881 5.45942C20.2058 5.40591 20.3199 5.34485 20.4296 5.27663C20.8164 5.03627 21.1265 4.67469 21.7186 3.81663C20.4916 3.7298 18.9613 3.72852 16.987 3.72852C15.0127 3.72852 13.4823 3.7298 12.2554 3.81663ZM11.987 25.3952C11.987 24.8429 12.4347 24.3952 12.987 24.3952H20.987C21.5393 24.3952 21.987 24.8429 21.987 25.3952C21.987 25.9475 21.5393 26.3952 20.987 26.3952H12.987C12.4347 26.3952 11.987 25.9475 11.987 25.3952Z" fill="#1C1C1C"/>
</svg>
