<svg width="32" height="33" viewBox="0 0 32 33" fill="none" xmlns="http://www.w3.org/2000/svg">
<path fill-rule="evenodd" clip-rule="evenodd" d="M13.2581 4.83337H18.7419C21.1923 4.83335 23.1331 4.83334 24.6521 5.03755C26.2153 5.24773 27.4805 5.69055 28.4784 6.68837C29.4762 7.68618 29.919 8.95145 30.1292 10.5147C30.2498 11.4118 30.2992 12.4562 30.3194 13.6657C30.3286 13.7202 30.3334 13.7763 30.3334 13.8334C30.3334 13.8804 30.3301 13.9266 30.3238 13.9719C30.3334 14.7262 30.3334 15.5425 30.3334 16.4248V16.5753C30.3334 19.0256 30.3334 20.9665 30.1292 22.4854C29.919 24.0486 29.4762 25.3139 28.4784 26.3117C27.4805 27.3095 26.2153 27.7524 24.6521 27.9625C23.1331 28.1667 21.1923 28.1667 18.7419 28.1667H13.2581C10.8078 28.1667 8.86694 28.1667 7.34799 27.9625C5.78476 27.7524 4.5195 27.3095 3.52168 26.3117C2.52386 25.3139 2.08104 24.0486 1.87087 22.4854C1.66665 20.9665 1.66667 19.0256 1.66669 16.5753V16.4248C1.66668 15.5425 1.66667 14.7262 1.6762 13.9719C1.66993 13.9266 1.66669 13.8804 1.66669 13.8334C1.66669 13.7763 1.67148 13.7203 1.68067 13.6658C1.70088 12.4562 1.75025 11.4118 1.87087 10.5147C2.08104 8.95145 2.52386 7.68618 3.52168 6.68837C4.5195 5.69055 5.78476 5.24773 7.34799 5.03755C8.86694 4.83334 10.8078 4.83335 13.2581 4.83337ZM3.66934 14.8334C3.6668 15.3512 3.66669 15.9055 3.66669 16.5C3.66669 19.0425 3.66881 20.8487 3.85303 22.2189C4.03339 23.5604 4.37161 24.3332 4.93589 24.8975C5.50017 25.4618 6.27303 25.8 7.61449 25.9804C8.9847 26.1646 10.7909 26.1667 13.3334 26.1667H18.6667C21.2091 26.1667 23.0153 26.1646 24.3856 25.9804C25.727 25.8 26.4999 25.4618 27.0641 24.8975C27.6284 24.3332 27.9667 23.5604 28.147 22.2189C28.3312 20.8487 28.3334 19.0425 28.3334 16.5C28.3334 15.9055 28.3332 15.3512 28.3307 14.8334H3.66934ZM28.2986 12.8334H3.70145C3.72753 12.0511 3.77317 11.3752 3.85303 10.7812C4.03339 9.43972 4.37161 8.66686 4.93589 8.10258C5.50017 7.5383 6.27303 7.20007 7.61449 7.01972C8.98471 6.8355 10.7909 6.83337 13.3334 6.83337H18.6667C21.2091 6.83337 23.0153 6.8355 24.3856 7.01972C25.727 7.20007 26.4999 7.5383 27.0641 8.10258C27.6284 8.66686 27.9667 9.43972 28.147 10.7812C28.2269 11.3752 28.2725 12.0511 28.2986 12.8334ZM7.00002 21.8334C7.00002 21.2811 7.44774 20.8334 8.00002 20.8334H13.3334C13.8856 20.8334 14.3334 21.2811 14.3334 21.8334C14.3334 22.3857 13.8856 22.8334 13.3334 22.8334H8.00002C7.44774 22.8334 7.00002 22.3857 7.00002 21.8334ZM15.6667 21.8334C15.6667 21.2811 16.1144 20.8334 16.6667 20.8334H18.6667C19.219 20.8334 19.6667 21.2811 19.6667 21.8334C19.6667 22.3857 19.219 22.8334 18.6667 22.8334H16.6667C16.1144 22.8334 15.6667 22.3857 15.6667 21.8334Z" fill="#101010"/>
</svg>
