<svg width="40" height="40" viewBox="0 0 40 40" fill="none" xmlns="http://www.w3.org/2000/svg">
<path fill-rule="evenodd" clip-rule="evenodd" d="M20.0002 4.58331C11.4888 4.58331 4.5835 11.502 4.5835 20.0435C4.5835 27.9808 10.5478 34.5186 18.2211 35.402C18.9918 35.4907 19.8169 35.1674 20.4765 34.506C21.079 33.902 21.079 32.9213 20.4765 32.3173C19.9566 31.796 19.4353 31.1014 19.1501 30.312C18.8579 29.5034 18.7857 28.4888 19.3784 27.546C19.9166 26.69 20.7237 26.2317 21.5703 26.0089C22.3856 25.7943 23.2891 25.7822 24.1569 25.8349C24.9636 25.8838 25.8319 25.9963 26.6743 26.1055C26.7454 26.1147 26.8162 26.1239 26.8868 26.133C27.815 26.2529 28.7214 26.3646 29.597 26.4065C31.3874 26.4924 32.7667 26.2666 33.7092 25.496C34.6113 24.7586 35.4168 23.2614 35.4168 20.0435C35.4168 11.502 28.5115 4.58331 20.0002 4.58331ZM2.0835 20.0435C2.0835 10.1274 10.102 2.08331 20.0002 2.08331C29.8983 2.08331 37.9168 10.1274 37.9168 20.0435C37.9168 23.6189 37.0221 26.0168 35.2916 27.4316C33.6015 28.8132 31.4159 28.9966 29.4773 28.9037C28.4883 28.8563 27.4891 28.7316 26.5667 28.6124C26.5019 28.6041 26.4376 28.5958 26.3737 28.5875C25.5078 28.4754 24.7226 28.3738 24.0055 28.3303C23.2285 28.2831 22.6382 28.313 22.2066 28.4266C21.8064 28.5319 21.6136 28.6879 21.4948 28.8767C21.4302 28.9795 21.3846 29.1395 21.5013 29.4625C21.625 29.8049 21.8948 30.1991 22.2466 30.5518C23.8223 32.1316 23.8223 34.6917 22.2466 36.2715C21.1628 37.358 19.6138 38.0788 17.9352 37.8856C9.00958 36.858 2.0835 29.2603 2.0835 20.0435ZM15.9752 10.4163C15.2848 10.4163 14.7252 10.9759 14.7252 11.6663C14.7252 12.3566 15.2848 12.9163 15.9752 12.9163C16.6655 12.9163 17.2252 12.3566 17.2252 11.6663C17.2252 10.9759 16.6655 10.4163 15.9752 10.4163ZM12.2252 11.6663C12.2252 9.5952 13.9041 7.91627 15.9752 7.91627C18.0462 7.91627 19.7252 9.5952 19.7252 11.6663C19.7252 13.7373 18.0462 15.4163 15.9752 15.4163C13.9041 15.4163 12.2252 13.7373 12.2252 11.6663ZM24.1668 10.4166C23.4765 10.4166 22.9168 10.9763 22.9168 11.6666C22.9168 12.357 23.4765 12.9166 24.1668 12.9166C24.8572 12.9166 25.4168 12.357 25.4168 11.6666C25.4168 10.9763 24.8572 10.4166 24.1668 10.4166ZM20.4168 11.6666C20.4168 9.59558 22.0958 7.91665 24.1668 7.91665C26.2379 7.91665 27.9168 9.59558 27.9168 11.6666C27.9168 13.7377 26.2379 15.4166 24.1668 15.4166C22.0958 15.4166 20.4168 13.7377 20.4168 11.6666ZM10.8335 17.9166C10.1431 17.9166 9.5835 18.4763 9.5835 19.1666C9.5835 19.857 10.1431 20.4166 10.8335 20.4166C11.5239 20.4166 12.0835 19.857 12.0835 19.1666C12.0835 18.4763 11.5239 17.9166 10.8335 17.9166ZM7.0835 19.1666C7.0835 17.0956 8.76243 15.4166 10.8335 15.4166C12.9046 15.4166 14.5835 17.0956 14.5835 19.1666C14.5835 21.2377 12.9046 22.9166 10.8335 22.9166C8.76243 22.9166 7.0835 21.2377 7.0835 19.1666ZM29.1668 17.9166C28.4765 17.9166 27.9168 18.4763 27.9168 19.1666C27.9168 19.857 28.4765 20.4166 29.1668 20.4166C29.8572 20.4166 30.4168 19.857 30.4168 19.1666C30.4168 18.4763 29.8572 17.9166 29.1668 17.9166ZM25.4168 19.1666C25.4168 17.0956 27.0958 15.4166 29.1668 15.4166C31.2379 15.4166 32.9168 17.0956 32.9168 19.1666C32.9168 21.2377 31.2379 22.9166 29.1668 22.9166C27.0958 22.9166 25.4168 21.2377 25.4168 19.1666Z" fill="#101010"/>
</svg>
