<svg width="33" height="33" viewBox="0 0 33 33" fill="none" xmlns="http://www.w3.org/2000/svg">
<path d="M12.9818 21.3952C12.9818 22.1316 12.3848 22.7285 11.6484 22.7285C10.9121 22.7285 10.3151 22.1316 10.3151 21.3952C10.3151 20.6588 10.9121 20.0618 11.6484 20.0618C12.3848 20.0618 12.9818 20.6588 12.9818 21.3952Z" fill="#1C1C1C"/>
<path d="M18.3151 21.3952C18.3151 22.1316 17.7182 22.7285 16.9818 22.7285C16.2454 22.7285 15.6484 22.1316 15.6484 21.3952C15.6484 20.6588 16.2454 20.0618 16.9818 20.0618C17.7182 20.0618 18.3151 20.6588 18.3151 21.3952Z" fill="#1C1C1C"/>
<path d="M22.3151 22.7285C23.0515 22.7285 23.6484 22.1316 23.6484 21.3952C23.6484 20.6588 23.0515 20.0618 22.3151 20.0618C21.5787 20.0618 20.9818 20.6588 20.9818 21.3952C20.9818 22.1316 21.5787 22.7285 22.3151 22.7285Z" fill="#1C1C1C"/>
<path fill-rule="evenodd" clip-rule="evenodd" d="M7.98177 10.7285V12.4655C7.67933 12.4868 7.39427 12.5145 7.1261 12.5505C5.92596 12.7119 4.91546 13.0571 4.11291 13.8596C3.31035 14.6622 2.96516 15.6727 2.8038 16.8728C2.64839 18.0288 2.64841 19.4986 2.64844 21.322V21.4683C2.64841 23.2918 2.64839 24.7616 2.8038 25.9175C2.96516 27.1177 3.31035 28.1282 4.11291 28.9307C4.91546 29.7333 5.92596 30.0785 7.1261 30.2398C8.28206 30.3952 9.75183 30.3952 11.5753 30.3952H22.3883C24.2117 30.3952 25.6815 30.3952 26.8374 30.2398C28.0376 30.0785 29.0481 29.7333 29.8506 28.9307C30.6532 28.1282 30.9984 27.1177 31.1597 25.9175C31.3152 24.7616 31.3151 23.2918 31.3151 21.4683V21.322C31.3151 19.4986 31.3152 18.0288 31.1597 16.8728C30.9984 15.6727 30.6532 14.6622 29.8506 13.8596C29.0481 13.0571 28.0376 12.7119 26.8374 12.5505C26.5693 12.5145 26.2842 12.4868 25.9818 12.4655V10.7285C25.9818 5.75795 21.9523 1.72852 16.9818 1.72852C12.0112 1.72852 7.98177 5.75795 7.98177 10.7285ZM16.9818 3.72852C13.1158 3.72852 9.98177 6.86252 9.98177 10.7285V12.3998C10.4798 12.3952 11.0105 12.3952 11.5751 12.3952H22.3883C22.9529 12.3952 23.4838 12.3952 23.9818 12.3998V10.7285C23.9818 6.86252 20.8478 3.72852 16.9818 3.72852ZM7.3926 14.5327C6.41423 14.6642 5.89614 14.9048 5.52712 15.2739C5.1581 15.6429 4.91751 16.161 4.78597 17.1393C4.65056 18.1465 4.64844 19.4813 4.64844 21.3952C4.64844 23.3091 4.65056 24.6439 4.78597 25.651C4.91751 26.6294 5.1581 27.1475 5.52712 27.5165C5.89614 27.8855 6.41423 28.1261 7.3926 28.2577C8.39973 28.3931 9.73455 28.3952 11.6484 28.3952H22.3151C24.229 28.3952 25.5638 28.3931 26.5709 28.2577C27.5493 28.1261 28.0674 27.8855 28.4364 27.5165C28.8054 27.1475 29.046 26.6294 29.1776 25.651C29.313 24.6439 29.3151 23.3091 29.3151 21.3952C29.3151 19.4813 29.313 18.1465 29.1776 17.1393C29.046 16.161 28.8054 15.6429 28.4364 15.2739C28.0674 14.9048 27.5493 14.6642 26.5709 14.5327C25.5638 14.3973 24.229 14.3952 22.3151 14.3952H11.6484C9.73455 14.3952 8.39973 14.3973 7.3926 14.5327Z" fill="#1C1C1C"/>
</svg>
