<svg width="25" height="24" viewBox="0 0 25 24" fill="none" xmlns="http://www.w3.org/2000/svg">
<g id="Outline / Security / Eye">
<g id="Vector">
<path fill-rule="evenodd" clip-rule="evenodd" d="M12.2461 8.25C10.175 8.25 8.49609 9.92893 8.49609 12C8.49609 14.0711 10.175 15.75 12.2461 15.75C14.3172 15.75 15.9961 14.0711 15.9961 12C15.9961 9.92893 14.3172 8.25 12.2461 8.25ZM9.99609 12C9.99609 10.7574 11.0035 9.75 12.2461 9.75C13.4887 9.75 14.4961 10.7574 14.4961 12C14.4961 13.2426 13.4887 14.25 12.2461 14.25C11.0035 14.25 9.99609 13.2426 9.99609 12Z" fill="#101010"/>
<path fill-rule="evenodd" clip-rule="evenodd" d="M12.2461 3.25C7.73196 3.25 4.69139 5.9542 2.92666 8.24686L2.89484 8.2882C2.49573 8.80653 2.12815 9.28392 1.87878 9.8484C1.61174 10.4529 1.49609 11.1117 1.49609 12C1.49609 12.8883 1.61174 13.5471 1.87878 14.1516C2.12816 14.7161 2.49573 15.1935 2.89484 15.7118L2.92666 15.7531C4.69139 18.0458 7.73196 20.75 12.2461 20.75C16.7602 20.75 19.8008 18.0458 21.5655 15.7531L21.5973 15.7118C21.9964 15.1935 22.364 14.7161 22.6134 14.1516C22.8804 13.5471 22.9961 12.8883 22.9961 12C22.9961 11.1117 22.8804 10.4529 22.6134 9.8484C22.364 9.28391 21.9964 8.80652 21.5973 8.28818L21.5655 8.24686C19.8008 5.9542 16.7602 3.25 12.2461 3.25ZM4.11531 9.1618C5.74473 7.04492 8.39645 4.75 12.2461 4.75C16.0957 4.75 18.7475 7.04492 20.3769 9.1618C20.8155 9.73159 21.0724 10.0721 21.2413 10.4545C21.3993 10.812 21.4961 11.2489 21.4961 12C21.4961 12.7511 21.3993 13.188 21.2413 13.5455C21.0724 13.9279 20.8155 14.2684 20.3769 14.8382C18.7475 16.9551 16.0957 19.25 12.2461 19.25C8.39645 19.25 5.74473 16.9551 4.11531 14.8382C3.67673 14.2684 3.41983 13.9279 3.25085 13.5455C3.09293 13.188 2.99609 12.7511 2.99609 12C2.99609 11.2489 3.09293 10.812 3.25085 10.4545C3.41983 10.0721 3.67673 9.73159 4.11531 9.1618Z" fill="#101010"/>
</g>
</g>
</svg>
