<svg width="17" height="16" viewBox="0 0 17 16" fill="none" xmlns="http://www.w3.org/2000/svg">
<path fill-rule="evenodd" clip-rule="evenodd" d="M2.9395 6.07001L6.9395 2.51446C7.69727 1.84088 8.83918 1.84088 9.59696 2.51446L13.597 6.07001C14.0239 6.44955 14.2682 6.99356 14.2682 7.56483V14.1667H14.9349C15.211 14.1667 15.4349 14.3906 15.4349 14.6667C15.4349 14.9428 15.211 15.1667 14.9349 15.1667H1.60156C1.32542 15.1667 1.10156 14.9428 1.10156 14.6667C1.10156 14.3906 1.32542 14.1667 1.60156 14.1667H2.26823V7.56483C2.26823 6.99356 2.51252 6.44955 2.9395 6.07001ZM6.4349 6.00003C6.4349 5.72389 6.65875 5.50003 6.9349 5.50003H9.60156C9.8777 5.50003 10.1016 5.72389 10.1016 6.00003C10.1016 6.27618 9.8777 6.50003 9.60156 6.50003H6.9349C6.65875 6.50003 6.4349 6.27618 6.4349 6.00003ZM9.63623 7.50003C10.2352 7.50001 10.7347 7.5 11.1312 7.55331C11.5497 7.60958 11.9276 7.73336 12.2313 8.03701C12.5349 8.34065 12.6587 8.71852 12.715 9.13705C12.7683 9.53357 12.7682 10.033 12.7682 10.632L12.7682 14.1667H11.7682V10.6667C11.7682 10.024 11.7672 9.59232 11.7239 9.2703C11.6825 8.96265 11.611 8.83099 11.5241 8.74411C11.4373 8.65723 11.3056 8.58575 10.998 8.54439C10.6759 8.5011 10.2442 8.50003 9.60156 8.50003H6.9349C6.29222 8.50003 5.86052 8.5011 5.53849 8.54439C5.23085 8.58575 5.09918 8.65723 5.01231 8.74411C4.92543 8.83099 4.85395 8.96265 4.81259 9.2703C4.76929 9.59232 4.76823 10.024 4.76823 10.6667V14.1667H3.76823L3.76823 10.632C3.76821 10.033 3.76819 9.53357 3.8215 9.13705C3.87777 8.71852 4.00155 8.34065 4.3052 8.037C4.60885 7.73336 4.98671 7.60958 5.40524 7.55331C5.80176 7.5 6.30124 7.50001 6.90023 7.50003H9.63623ZM5.76823 10.3334C5.76823 10.0572 5.99209 9.83337 6.26823 9.83337H10.2682C10.5444 9.83337 10.7682 10.0572 10.7682 10.3334C10.7682 10.6095 10.5444 10.8334 10.2682 10.8334H6.26823C5.99209 10.8334 5.76823 10.6095 5.76823 10.3334ZM5.76823 12.3334C5.76823 12.0572 5.99209 11.8334 6.26823 11.8334H10.2682C10.5444 11.8334 10.7682 12.0572 10.7682 12.3334C10.7682 12.6095 10.5444 12.8334 10.2682 12.8334H6.26823C5.99209 12.8334 5.76823 12.6095 5.76823 12.3334Z" fill="#707070"/>
</svg>
