<svg width="40" height="41" viewBox="0 0 40 41" fill="none" xmlns="http://www.w3.org/2000/svg">
<g id="Outline / Design, Tools / Pallete 2">
<path id="Vector" fill-rule="evenodd" clip-rule="evenodd" d="M20.0026 4.98901C11.4913 4.98901 4.58594 11.9077 4.58594 20.4492C4.58594 28.3865 10.5503 34.9243 18.2235 35.8077C18.9943 35.8964 19.8193 35.5731 20.4789 34.9117C21.0814 34.3077 21.0814 33.327 20.4789 32.723C19.959 32.2017 19.4377 31.5071 19.1525 30.7177C18.8603 29.9091 18.7881 28.8945 19.3809 27.9517C19.9191 27.0957 20.7261 26.6374 21.5728 26.4146C22.3881 26.2 23.2915 26.1879 24.1593 26.2406C24.966 26.2895 25.8344 26.402 26.6768 26.5112C26.7478 26.5204 26.8187 26.5296 26.8893 26.5387C27.8175 26.6586 28.7239 26.7703 29.5994 26.8122C31.3899 26.8981 32.7691 26.6723 33.7117 25.9018C34.6137 25.1643 35.4193 23.6671 35.4193 20.4492C35.4193 11.9077 28.5139 4.98901 20.0026 4.98901ZM2.08594 20.4492C2.08594 10.5331 10.1044 2.48901 20.0026 2.48901C29.9008 2.48901 37.9193 10.5331 37.9193 20.4492C37.9193 24.0246 37.0245 26.4225 35.294 27.8373C33.604 29.2189 31.4184 29.4023 29.4797 29.3094C28.4908 29.262 27.4916 29.1373 26.5691 29.0181C26.5043 29.0098 26.44 29.0015 26.3762 28.9932C25.5102 28.8811 24.7251 28.7795 24.0079 28.736C23.231 28.6888 22.6406 28.7187 22.2091 28.8323C21.8088 28.9376 21.616 29.0936 21.4973 29.2824C21.4326 29.3852 21.387 29.5452 21.5037 29.8682C21.6274 30.2106 21.8972 30.6048 22.249 30.9575C23.8247 32.5373 23.8247 35.0974 22.249 36.6772C21.1653 37.7637 19.6162 38.4845 17.9376 38.2913C9.01202 37.2637 2.08594 29.666 2.08594 20.4492ZM15.9776 10.822C15.2873 10.822 14.7276 11.3816 14.7276 12.072C14.7276 12.7623 15.2873 13.322 15.9776 13.322C16.668 13.322 17.2276 12.7623 17.2276 12.072C17.2276 11.3816 16.668 10.822 15.9776 10.822ZM12.2276 12.072C12.2276 10.0009 13.9065 8.32197 15.9776 8.32197C18.0487 8.32197 19.7276 10.0009 19.7276 12.072C19.7276 14.143 18.0487 15.822 15.9776 15.822C13.9065 15.822 12.2276 14.143 12.2276 12.072ZM24.1693 10.8223C23.4789 10.8223 22.9193 11.382 22.9193 12.0723C22.9193 12.7627 23.4789 13.3223 24.1693 13.3223C24.8596 13.3223 25.4193 12.7627 25.4193 12.0723C25.4193 11.382 24.8596 10.8223 24.1693 10.8223ZM20.4193 12.0723C20.4193 10.0013 22.0982 8.32235 24.1693 8.32235C26.2403 8.32235 27.9193 10.0013 27.9193 12.0723C27.9193 14.1434 26.2403 15.8223 24.1693 15.8223C22.0982 15.8223 20.4193 14.1434 20.4193 12.0723ZM10.8359 18.3223C10.1456 18.3223 9.58594 18.882 9.58594 19.5723C9.58594 20.2627 10.1456 20.8223 10.8359 20.8223C11.5263 20.8223 12.0859 20.2627 12.0859 19.5723C12.0859 18.882 11.5263 18.3223 10.8359 18.3223ZM7.08594 19.5723C7.08594 17.5013 8.76487 15.8223 10.8359 15.8223C12.907 15.8223 14.5859 17.5013 14.5859 19.5723C14.5859 21.6434 12.907 23.3223 10.8359 23.3223C8.76487 23.3223 7.08594 21.6434 7.08594 19.5723ZM29.1693 18.3223C28.4789 18.3223 27.9193 18.882 27.9193 19.5723C27.9193 20.2627 28.4789 20.8223 29.1693 20.8223C29.8596 20.8223 30.4193 20.2627 30.4193 19.5723C30.4193 18.882 29.8596 18.3223 29.1693 18.3223ZM25.4193 19.5723C25.4193 17.5013 27.0982 15.8223 29.1693 15.8223C31.2403 15.8223 32.9193 17.5013 32.9193 19.5723C32.9193 21.6434 31.2403 23.3223 29.1693 23.3223C27.0982 23.3223 25.4193 21.6434 25.4193 19.5723Z" fill="#636A80"/>
</g>
</svg>
