<svg width="33" height="33" viewBox="0 0 33 33" fill="none" xmlns="http://www.w3.org/2000/svg">
<path d="M21.3774 13.8292C21.7736 13.3693 21.735 12.6637 21.2914 12.2531C20.8477 11.8425 20.1669 11.8824 19.7708 12.3423L15.4459 17.3632L14.1979 15.9144C13.8018 15.4545 13.121 15.4146 12.6774 15.8252C12.2337 16.2358 12.1952 16.9414 12.5913 17.4013L14.6426 19.7827C14.8469 20.0199 15.1391 20.1555 15.4459 20.1555C15.7527 20.1555 16.0449 20.0199 16.2492 19.7827L21.3774 13.8292Z" fill="#1C1C1C"/>
<path fill-rule="evenodd" clip-rule="evenodd" d="M16.9844 0.0625C15.6382 0.0625 14.3528 0.518809 12.2795 1.25486L11.235 1.62549C9.10793 2.38019 7.46639 2.96263 6.29129 3.45746C5.69935 3.70672 5.19044 3.94815 4.78066 4.19483C4.3863 4.43222 3.99068 4.72831 3.7219 5.12526C3.45622 5.51762 3.31884 5.99998 3.23252 6.46432C3.14277 6.94705 3.08866 7.52614 3.05373 8.19104C2.98438 9.51123 2.98438 11.3198 2.98438 13.6657V16.0496C2.98438 25.1303 9.60103 29.4839 13.5358 31.2656L13.5747 31.2832C14.0626 31.5042 14.5213 31.7119 15.0482 31.8517C15.6046 31.9994 16.1957 32.0625 16.9844 32.0625C17.7731 32.0625 18.3642 31.9994 18.9205 31.8517C19.4475 31.7119 19.9061 31.5042 20.394 31.2832L20.4329 31.2656C24.3677 29.4839 30.9844 25.1303 30.9844 16.0496V13.6659C30.9844 11.32 30.9844 9.51128 30.915 8.19104C30.8801 7.52614 30.826 6.94705 30.7362 6.46432C30.6499 5.99998 30.5125 5.51762 30.2469 5.12526C29.9781 4.72831 29.5824 4.43222 29.1881 4.19483C28.7783 3.94815 28.2694 3.70672 27.6775 3.45746C26.5024 2.96263 24.8608 2.38019 22.7338 1.62549L21.6893 1.25486C19.6159 0.51881 18.3306 0.0625 16.9844 0.0625ZM12.7924 3.43262C15.1107 2.61005 16.0399 2.29506 16.9844 2.29506C17.9288 2.29506 18.858 2.61005 21.1763 3.43262L21.9988 3.72445C24.1707 4.49508 25.7547 5.05755 26.8668 5.52585C27.4219 5.7596 27.8241 5.95548 28.1064 6.12543C28.2458 6.20933 28.3418 6.27856 28.406 6.3326C28.4603 6.37839 28.4811 6.40433 28.4841 6.40815C28.4868 6.41278 28.5047 6.4437 28.5298 6.51688C28.5585 6.60039 28.5903 6.72012 28.6213 6.88677C28.684 7.22409 28.7315 7.68745 28.7644 8.31242C28.8301 9.56443 28.8305 11.3121 28.8305 13.7059V16.0496C28.8305 23.7521 23.2738 27.543 19.5707 29.2197C19.0373 29.4612 18.7293 29.5979 18.3864 29.6889C18.0589 29.7758 17.6592 29.8299 16.9844 29.8299C16.3095 29.8299 15.9099 29.7758 15.5824 29.6889C15.2395 29.5979 14.9314 29.4612 14.398 29.2197C10.695 27.543 5.13822 23.7521 5.13822 16.0496V13.7059C5.13822 11.3121 5.13862 9.56443 5.20439 8.31242C5.23722 7.68745 5.28474 7.22409 5.34745 6.88677C5.37844 6.72012 5.41024 6.60039 5.43894 6.51688C5.46407 6.44375 5.48191 6.41283 5.48469 6.40815C5.48766 6.40437 5.50839 6.37843 5.56277 6.3326C5.62691 6.27856 5.72295 6.20933 5.86233 6.12543C6.14464 5.95548 6.54684 5.7596 7.10194 5.52585C8.21405 5.05755 9.79801 4.49508 11.9699 3.72445L12.7924 3.43262Z" fill="#1C1C1C"/>
</svg>
