<svg width="24" height="24" viewBox="0 0 24 24" fill="none" xmlns="http://www.w3.org/2000/svg">
<path fill-rule="evenodd" clip-rule="evenodd" d="M16 6C16 8.20914 14.2091 10 12 10C9.79086 10 8 8.20914 8 6C8 3.79086 9.79086 2 12 2C14.2091 2 16 3.79086 16 6ZM13.659 22.341C14.318 23 15.3787 23 17.5 23C19.6213 23 20.682 23 21.341 22.341C22 21.682 22 20.6213 22 18.5C22 16.3787 22 15.318 21.341 14.659C20.682 14 19.6213 14 17.5 14C15.3787 14 14.318 14 13.659 14.659C13 15.318 13 16.3787 13 18.5C13 20.6213 13 21.682 13.659 22.341ZM16.2484 20.3983C15.3458 19.752 14.2857 18.9928 14.2857 17.6769C14.2857 16.2241 16.0536 15.1938 17.5 16.5905C18.9464 15.1938 20.7143 16.2241 20.7143 17.6769C20.7143 18.9928 19.6542 19.752 18.7516 20.3983L18.7511 20.3986C18.6574 20.4657 18.5655 20.5316 18.4766 20.5967C18.1429 20.8412 17.8214 21.0714 17.5 21.0714C17.1786 21.0714 16.8571 20.8412 16.5234 20.5967C16.4345 20.5315 16.3425 20.4656 16.2488 20.3986L16.2484 20.3983ZM12.0655 12C13.4942 12 14.8361 12.2074 16 12.5712C15.5696 12.5811 15.1671 12.6028 14.8077 12.65C14.0669 12.7473 13.2561 12.9799 12.5862 13.6344C11.9163 14.289 11.6782 15.0811 11.5786 15.8048C11.4891 16.4552 11.4893 17.2498 11.4894 18.0947V18.2882C11.4893 19.1332 11.4891 19.9277 11.5786 20.5781C11.5977 20.7167 11.6219 20.8578 11.6532 21C7.39032 20.8802 4 18.9126 4 16.5029C4 14.016 7.61104 12 12.0655 12Z" fill="#101010"/>
</svg>
