<svg width="105" height="30" viewBox="0 0 105 30" fill="none" xmlns="http://www.w3.org/2000/svg">
<path d="M100.369 22.082C98.3524 22.082 96.6934 23.7498 96.6934 25.758C96.6934 27.775 98.3611 29.434 100.369 29.434C102.386 29.434 104.045 27.7663 104.045 25.758C104.054 23.7323 102.395 22.082 100.369 22.082Z" fill="#101010"/>
<path d="M87.5169 2.86401V11.5868C86.862 10.7835 84.7403 9.26425 82.0247 9.26425C76.4802 9.26425 72.1406 13.7523 72.1406 19.2968C72.1406 24.8414 76.4715 29.3381 82.0247 29.3381C84.8538 29.3381 87.0629 27.7228 87.6653 26.9195H87.7177V29.0936H93.7687V2.86401H87.5169ZM82.374 23.846C79.903 23.846 77.886 21.829 77.886 19.3579C77.886 16.8869 79.903 14.8699 82.374 14.8699C84.8538 14.8699 86.862 16.8869 86.862 19.3579C86.862 21.8202 84.845 23.846 82.374 23.846Z" fill="#101010"/>
<path d="M23.435 9.62207C21.1124 9.62207 18.4929 10.8794 17.288 12.844H17.2356V10.1809H11.1934V29.1371H17.4364V19.0522C17.4364 16.9304 18.5017 14.8697 20.9203 14.8697C23.4874 14.8697 24.0899 16.4327 24.0899 18.3012V20.2658V29.1371H30.3329V17.1836C30.298 14.5117 29.94 9.62207 23.435 9.62207Z" fill="#101010"/>
<path d="M3.88554 0C1.76378 0 0 1.71139 0 3.88554C0 6.00731 1.71139 7.77109 3.88554 7.77109C6.00731 7.77109 7.77109 6.0597 7.77109 3.88554C7.76236 1.76378 5.99858 0 3.88554 0Z" fill="#101010"/>
<path d="M42.9935 9.31665C37.449 9.31665 33.1094 13.8047 33.1094 19.3492C33.1094 24.8938 37.4402 29.3818 42.9935 29.3818C45.971 29.3818 48.8436 28.072 50.7035 26.0027L46.7219 22.3267C45.9186 23.2348 44.7049 23.846 43.3428 23.846C40.8717 23.846 38.8547 21.829 38.8547 19.3579C38.8547 16.8869 40.8717 14.8699 43.3428 14.8699C44.7049 14.8699 45.8575 15.4724 46.7219 16.3892L50.7035 12.7132C48.8 10.6264 45.971 9.31665 42.9935 9.31665Z" fill="#101010"/>
<path d="M72.4972 10.1809H65.0929L59.3388 16.6335V2.91626H53.0957V29.1284H56.7717H59.2864V22.082L65.5294 29.1459H72.9949L64.1673 19.3665L72.4972 10.1809Z" fill="#101010"/>
<path d="M0.777344 10.1809V24.8849L6.97675 29.1284V10.1809" fill="#101010"/>
</svg>
