<svg width="200" height="57" viewBox="0 0 200 57" fill="none" xmlns="http://www.w3.org/2000/svg">
<path d="M192.248 42.4062C188.4 42.4062 185.234 45.5883 185.234 49.4201C185.234 53.2685 188.416 56.4339 192.248 56.4339C196.097 56.4339 199.262 53.2519 199.262 49.4201C199.279 45.555 196.113 42.4062 192.248 42.4062Z" fill="white"/>
<path d="M167.724 5.73804V22.3813C166.474 20.8486 162.426 17.9498 157.245 17.9498C146.666 17.9498 138.386 26.513 138.386 37.092C138.386 47.6711 146.649 56.251 157.245 56.251C162.643 56.251 166.858 53.1689 168.007 51.6362H168.107V55.7845H179.652V5.73804H167.724ZM157.911 45.7719C153.196 45.7719 149.348 41.9234 149.348 37.2087C149.348 32.4939 153.196 28.6455 157.911 28.6455C162.643 28.6455 166.474 32.4939 166.474 37.2087C166.474 41.9068 162.626 45.7719 157.911 45.7719Z" fill="white"/>
<path d="M45.4588 18.6325C41.0273 18.6325 36.0293 21.0315 33.7302 24.78H33.6302V19.6987H22.1016V55.8675H34.0134V36.6252C34.0134 32.5769 36.0459 28.6451 40.6607 28.6451C45.5588 28.6451 46.7083 31.6273 46.7083 35.1925V38.941V55.8675H58.6202V33.06C58.5535 27.9621 57.8705 18.6325 45.4588 18.6325Z" fill="white"/>
<path d="M8.15586 0.273438C4.1075 0.273438 0.742188 3.53879 0.742188 7.68711C0.742188 11.7355 4.00754 15.1008 8.15586 15.1008C12.2042 15.1008 15.5695 11.8354 15.5695 7.68711C15.5529 3.63875 12.1876 0.273438 8.15586 0.273438Z" fill="white"/>
<path d="M82.776 18.0497C72.197 18.0497 63.917 26.6129 63.917 37.192C63.917 47.7711 72.1803 56.3343 82.776 56.3343C88.4571 56.3343 93.9382 53.8353 97.4868 49.8869L89.8898 42.8731C88.3571 44.6057 86.0414 45.7719 83.4424 45.7719C78.7277 45.7719 74.8792 41.9234 74.8792 37.2087C74.8792 32.4939 78.7277 28.6455 83.4424 28.6455C86.0414 28.6455 88.2405 29.795 89.8898 31.5443L97.4868 24.5305C93.8549 20.5487 88.4571 18.0497 82.776 18.0497Z" fill="white"/>
<path d="M139.068 19.6988H124.941L113.962 32.0105V5.83771H102.05V55.8508H109.064H113.862V42.4063L125.774 55.8842H140.018L123.175 37.225L139.068 19.6988Z" fill="white"/>
<path d="M2.22559 19.6987V47.7541L14.0541 55.8508V19.6987" fill="white"/>
</svg>
