<svg width="17" height="17" viewBox="0 0 17 17" fill="none" xmlns="http://www.w3.org/2000/svg">
<path d="M16.9658 12.314V4.68605C16.9658 2.37416 15.0917 0.5 12.7798 0.5L5.15187 0.5C2.83998 0.5 0.96582 2.37416 0.96582 4.68605V12.314C0.96582 14.6258 2.83998 16.5 5.15187 16.5H12.7798C15.0917 16.5 16.9658 14.6258 16.9658 12.314Z" fill="white"/>
<path d="M11.4501 5.48499C11.1492 5.48499 10.903 5.73122 10.903 6.03218C10.903 6.33314 11.1492 6.58485 11.4501 6.58485C11.7511 6.58485 12.0028 6.33861 12.0028 6.03218C12.0028 5.72575 11.7566 5.48499 11.4501 5.48499Z" fill="black"/>
<path d="M9.00375 6.19092C7.72878 6.19092 6.69458 7.22512 6.69458 8.50008C6.69458 9.77505 7.72878 10.8092 9.00375 10.8092C10.2787 10.8092 11.3129 9.77505 11.3129 8.50008C11.3129 7.22512 10.2787 6.19092 9.00375 6.19092ZM9.00375 9.98298C8.18842 9.98298 7.52632 9.32088 7.52632 8.50556C7.52632 7.69023 8.18842 7.02813 9.00375 7.02813C9.81907 7.02813 10.4812 7.69023 10.4812 8.50556C10.4812 9.32088 9.81907 9.98298 9.00375 9.98298Z" fill="black"/>
<path d="M10.8375 13.1895H7.09467C5.54063 13.1895 4.27661 11.9255 4.27661 10.3714V6.6286C4.27661 5.07457 5.54063 3.81055 7.09467 3.81055H10.8375C12.3915 3.81055 13.6555 5.07457 13.6555 6.6286V10.3714C13.6555 11.9255 12.3915 13.1895 10.8375 13.1895ZM7.09467 4.69153C6.02764 4.69153 5.1576 5.56157 5.1576 6.6286V10.3714C5.1576 11.4385 6.02764 12.3085 7.09467 12.3085H10.8375C11.9045 12.3085 12.7746 11.4385 12.7746 10.3714V6.6286C12.7746 5.56157 11.9045 4.69153 10.8375 4.69153H7.09467Z" fill="black"/>
</svg>
