<svg width="51" height="12" viewBox="0 0 51 12" fill="none" xmlns="http://www.w3.org/2000/svg">
<path fill-rule="evenodd" clip-rule="evenodd" d="M2.92639 11.7777H0.402344V0H2.92639V11.7777ZM9.22873 0H6.75943C6.75943 2.1674 5.82891 4.15673 4.20654 5.45821L3.22825 6.24281L7.01883 11.7782H10.1354L6.64758 6.68479C8.30087 4.92173 9.22873 2.54979 9.22873 0ZM13.2542 11.7743H10.8706V0.00209264H13.2542V11.7743ZM20.4545 3.63107V4.152C19.8113 3.68212 19.035 3.40598 18.1977 3.40598C15.9817 3.40598 14.1853 5.32978 14.1853 7.70292C14.1853 10.0761 15.9817 11.9999 18.1977 11.9999C19.035 11.9999 19.8113 11.7237 20.4545 11.254V11.7744H22.7313V3.63107H20.4545ZM20.4489 7.70324C20.4489 8.86037 19.5252 9.79847 18.3858 9.79847C17.2466 9.79847 16.3229 8.86037 16.3229 7.70324C16.3229 6.54612 17.2466 5.60826 18.3858 5.60826C19.5252 5.60826 20.4489 6.54612 20.4489 7.70324ZM44.4752 4.15215V3.63122H46.7519V11.7746H44.4752V11.2541C43.832 11.7239 43.0557 12 42.2183 12C40.0023 12 38.2059 10.0762 38.2059 7.70307C38.2059 5.32993 40.0023 3.40614 42.2183 3.40614C43.0557 3.40614 43.832 3.68227 44.4752 4.15215ZM42.405 9.79843C43.5444 9.79843 44.4679 8.86034 44.4679 7.70321C44.4679 6.54608 43.5444 5.60822 42.405 5.60822C41.2656 5.60822 40.3421 6.54608 40.3421 7.70321C40.3421 8.86034 41.2656 9.79843 42.405 9.79843ZM47.7396 10.416C47.7396 9.57096 48.3792 8.88599 49.1682 8.88599C49.9572 8.88599 50.597 9.57096 50.597 10.416C50.597 11.2609 49.9572 11.946 49.1682 11.946C48.3792 11.946 47.7396 11.2609 47.7396 10.416ZM34.1595 3.41226C33.25 3.41226 32.3893 3.71463 31.8139 4.54885V3.63177H29.547V11.7746H31.8417V7.49526C31.8417 6.25694 32.6171 5.65053 33.5507 5.65053C34.5513 5.65053 35.1266 6.29065 35.1266 7.47841V11.7746H37.4005V6.59611C37.4005 4.70104 35.9936 3.41226 34.1595 3.41226ZM26.2546 3.63136V4.69197C26.711 4.05577 27.5614 3.63184 28.4859 3.63184V6.00141L28.4811 6.00128L28.4732 6.00088L28.4639 6.00043L28.4588 6.00034C27.558 6.00034 26.2598 6.68984 26.2598 7.97257V11.7746H23.9236V3.63136H26.2546Z" fill="white"/>
</svg>
