<svg width="38" height="32" viewBox="0 0 38 32" fill="none" xmlns="http://www.w3.org/2000/svg">
<path id="Vector" d="M7.4342 0.386719V31.6123H0.264648V0.386719H7.4342ZM25.3269 0.386719C25.3269 6.93473 22.8553 13.0409 18.4337 17.667L17.9996 18.1088L27.903 31.6123H19.0535L8.29136 16.9363L11.0689 14.8567C15.5312 11.5155 18.1495 6.4601 18.3088 0.923799L18.3166 0.386719H25.3269ZM33.8329 23.8059C34.8681 23.8059 35.8609 24.2172 36.5929 24.9492C37.3249 25.6811 37.7362 26.6739 37.7362 27.7091C37.7362 28.7443 37.3249 29.7371 36.5929 30.4691C35.8609 31.2011 34.8681 31.6123 33.8329 31.6123C32.7977 31.6123 31.8049 31.2011 31.0729 30.4691C30.3408 29.7371 29.9296 28.7443 29.9296 27.7091C29.9296 26.6739 30.3408 25.6811 31.0729 24.9492C31.8049 24.2172 32.7977 23.8059 33.8329 23.8059Z" fill="black"/>
</svg>
