<svg width="51" height="52" viewBox="0 0 51 52" fill="none" xmlns="http://www.w3.org/2000/svg">
<g clip-path="url(#clip0_136_32)">
<path d="M25.5 51.9893C39.5833 51.9893 51 40.5725 51 26.4893C51 12.406 39.5833 0.989258 25.5 0.989258C11.4167 0.989258 0 12.406 0 26.4893C0 40.5725 11.4167 51.9893 25.5 51.9893Z" fill="#F0F0F0"/>
<path d="M25.5005 0.989258C13.7188 0.989258 3.80503 8.98002 0.878906 19.837H50.1221C47.1959 8.98002 37.2821 0.989258 25.5005 0.989258Z" fill="#A2001D"/>
<path d="M25.5004 51.9894C37.2821 51.9894 47.1959 43.9986 50.122 33.1416H0.878906C3.80503 43.9985 13.7188 51.9894 25.5004 51.9894Z" fill="#A2001D"/>
</g>
<defs>
<clipPath id="clip0_136_32">
<rect width="51" height="51" fill="white" transform="translate(0 0.989258)"/>
</clipPath>
</defs>
</svg>
