<svg width="55" height="55" viewBox="0 0 55 55" fill="none" xmlns="http://www.w3.org/2000/svg">
<g id="Outline / Text Formatting / Link Round">
<path id="Vector (Stroke)" fill-rule="evenodd" clip-rule="evenodd" d="M3.3125 20.6367C3.3125 12.2489 10.1122 5.44922 18.5 5.44922H27.5C35.8878 5.44922 42.6875 12.2489 42.6875 20.6367C42.6875 29.0245 35.8878 35.8242 27.5 35.8242H23C22.068 35.8242 21.3125 35.0687 21.3125 34.1367C21.3125 33.2047 22.068 32.4492 23 32.4492H27.5C34.0239 32.4492 39.3125 27.1606 39.3125 20.6367C39.3125 14.1129 34.0239 8.82422 27.5 8.82422H18.5C11.9761 8.82422 6.6875 14.1129 6.6875 20.6367C6.6875 23.6632 7.82346 26.4203 9.69494 28.5113C10.3165 29.2058 10.2574 30.2726 9.56294 30.8941C8.86849 31.5157 7.80166 31.4566 7.18011 30.7621C4.77622 28.0763 3.3125 24.5254 3.3125 20.6367ZM27.5 22.3242C20.9761 22.3242 15.6875 27.6129 15.6875 34.1367C15.6875 40.6606 20.9761 45.9492 27.5 45.9492H36.5C43.0239 45.9492 48.3125 40.6606 48.3125 34.1367C48.3125 31.1102 47.1765 28.3531 45.3051 26.2621C44.6835 25.5677 44.7426 24.5009 45.4371 23.8793C46.1315 23.2578 47.1983 23.3169 47.8199 24.0113C50.2238 26.6971 51.6875 30.248 51.6875 34.1367C51.6875 42.5245 44.8878 49.3242 36.5 49.3242H27.5C19.1122 49.3242 12.3125 42.5245 12.3125 34.1367C12.3125 25.7489 19.1122 18.9492 27.5 18.9492H32C32.932 18.9492 33.6875 19.7047 33.6875 20.6367C33.6875 21.5687 32.932 22.3242 32 22.3242H27.5Z" fill="#1C1C1C"/>
</g>
</svg>
