<svg width="51" height="51" viewBox="0 0 51 51" fill="none" xmlns="http://www.w3.org/2000/svg">
<g clip-path="url(#clip0_136_37)">
<path d="M49.4139 34.3695C50.439 31.6072 51 28.6192 51 25.5C51 22.3808 50.439 19.3929 49.4139 16.6305L25.5 14.4131L1.58608 16.6305C0.561 19.3929 0 22.3808 0 25.5C0 28.6192 0.561 31.6072 1.58608 34.3695L25.5 36.5869L49.4139 34.3695Z" fill="#6DA544"/>
<path d="M49.414 16.6305C45.811 6.92006 36.4642 0 25.5001 0C14.536 0 5.18915 6.92006 1.58618 16.6305H49.414Z" fill="#FFDA44"/>
<path d="M25.5001 50.9996C36.4642 50.9996 45.811 44.0796 49.414 34.3691H1.58618C5.18915 44.0796 14.536 50.9996 25.5001 50.9996Z" fill="#D80027"/>
</g>
<defs>
<clipPath id="clip0_136_37">
<rect width="51" height="51" fill="white"/>
</clipPath>
</defs>
</svg>
