<svg width="25" height="24" viewBox="0 0 25 24" fill="none" xmlns="http://www.w3.org/2000/svg">
<g id="Outline / Arrows Action / Login 2">
<g id="Vector">
<path d="M15.292 1.25C13.9244 1.24998 12.8221 1.24996 11.9551 1.36652C11.055 1.48754 10.2972 1.74643 9.69524 2.34835C9.17031 2.87328 8.90507 3.51836 8.76584 4.27635C8.63055 5.01291 8.60466 5.9143 8.59864 6.99583C8.59634 7.41003 8.93025 7.74768 9.34446 7.74999C9.75867 7.7523 10.0963 7.41838 10.0986 7.00418C10.1047 5.91068 10.1331 5.1356 10.2412 4.54735C10.3453 3.98054 10.5125 3.65246 10.7559 3.40901C11.0327 3.13225 11.4212 2.9518 12.155 2.85315C12.9104 2.75159 13.9115 2.75 15.3469 2.75H16.3469C17.7823 2.75 18.7834 2.75159 19.5388 2.85315C20.2726 2.9518 20.6611 3.13225 20.9379 3.40901C21.2146 3.68577 21.3951 4.07435 21.4937 4.80812C21.5953 5.56347 21.5969 6.56459 21.5969 8V16C21.5969 17.4354 21.5953 18.4365 21.4937 19.1919C21.3951 19.9257 21.2146 20.3142 20.9379 20.591C20.6611 20.8678 20.2726 21.0482 19.5388 21.1469C18.7834 21.2484 17.7823 21.25 16.3469 21.25H15.3469C13.9115 21.25 12.9104 21.2484 12.155 21.1469C11.4212 21.0482 11.0327 20.8678 10.7559 20.591C10.5125 20.3475 10.3453 20.0195 10.2412 19.4527C10.1331 18.8644 10.1047 18.0893 10.0986 16.9958C10.0963 16.5816 9.75867 16.2477 9.34446 16.25C8.93025 16.2523 8.59634 16.59 8.59864 17.0042C8.60466 18.0857 8.63055 18.9871 8.76584 19.7236C8.90507 20.4816 9.17031 21.1267 9.69524 21.6517C10.2972 22.2536 11.055 22.5125 11.9551 22.6335C12.8221 22.75 13.9244 22.75 15.292 22.75H16.4018C17.7694 22.75 18.8717 22.75 19.7386 22.6335C20.6388 22.5125 21.3966 22.2536 21.9985 21.6517C22.6005 21.0497 22.8594 20.2919 22.9804 19.3918C23.0969 18.5248 23.0969 17.4225 23.0969 16.0549V7.94513C23.0969 6.57754 23.0969 5.47522 22.9804 4.60825C22.8594 3.70814 22.6005 2.95027 21.9985 2.34835C21.3966 1.74643 20.6388 1.48754 19.7386 1.36652C18.8717 1.24996 17.7694 1.24998 16.4018 1.25H15.292Z" fill="#420091"/>
<path d="M2.34766 11.249C1.93344 11.249 1.59766 11.5848 1.59766 11.999C1.59766 12.4132 1.93344 12.749 2.34766 12.749L14.3202 12.749L12.3596 14.4296C12.0451 14.6991 12.0086 15.1726 12.2782 15.4871C12.5478 15.8016 13.0213 15.838 13.3357 15.5685L16.8357 12.5685C17.002 12.426 17.0977 12.218 17.0977 11.999C17.0977 11.7801 17.002 11.5721 16.8357 11.4296L13.3357 8.42958C13.0213 8.16002 12.5478 8.19644 12.2782 8.51093C12.0086 8.82543 12.0451 9.2989 12.3596 9.56847L14.3202 11.249L2.34766 11.249Z" fill="#420091"/>
</g>
</g>
</svg>
