<svg width="25" height="24" viewBox="0 0 25 24" fill="none" xmlns="http://www.w3.org/2000/svg">
<g id="Outline / Arrows Action / Login 2">
<g id="Vector">
<path d="M15.0616 1.25C13.694 1.24998 12.5916 1.24996 11.7247 1.36652C10.8246 1.48754 10.0667 1.74643 9.46478 2.34835C8.93985 2.87328 8.67461 3.51836 8.53537 4.27635C8.40008 5.01291 8.3742 5.9143 8.36818 6.99583C8.36587 7.41003 8.69978 7.74768 9.11399 7.74999C9.5282 7.7523 9.86585 7.41838 9.86815 7.00418C9.87424 5.91068 9.90264 5.1356 10.0107 4.54735C10.1148 3.98054 10.282 3.65246 10.5254 3.40901C10.8022 3.13225 11.1908 2.9518 11.9245 2.85315C12.6799 2.75159 13.681 2.75 15.1164 2.75H16.1164C17.5518 2.75 18.553 2.75159 19.3083 2.85315C20.0421 2.9518 20.4307 3.13225 20.7074 3.40901C20.9842 3.68577 21.1646 4.07435 21.2633 4.80812C21.3648 5.56347 21.3664 6.56459 21.3664 8V16C21.3664 17.4354 21.3648 18.4365 21.2633 19.1919C21.1646 19.9257 20.9842 20.3142 20.7074 20.591C20.4307 20.8678 20.0421 21.0482 19.3083 21.1469C18.553 21.2484 17.5518 21.25 16.1164 21.25H15.1164C13.681 21.25 12.6799 21.2484 11.9245 21.1469C11.1908 21.0482 10.8022 20.8678 10.5254 20.591C10.282 20.3475 10.1148 20.0195 10.0107 19.4527C9.90264 18.8644 9.87424 18.0893 9.86815 16.9958C9.86585 16.5816 9.5282 16.2477 9.11399 16.25C8.69978 16.2523 8.36587 16.59 8.36818 17.0042C8.3742 18.0857 8.40008 18.9871 8.53537 19.7236C8.67461 20.4816 8.93985 21.1267 9.46478 21.6517C10.0667 22.2536 10.8246 22.5125 11.7247 22.6335C12.5916 22.75 13.694 22.75 15.0616 22.75H16.1713C17.5389 22.75 18.6412 22.75 19.5082 22.6335C20.4083 22.5125 21.1662 22.2536 21.7681 21.6517C22.37 21.0497 22.6289 20.2919 22.7499 19.3918C22.8665 18.5248 22.8664 17.4225 22.8664 16.0549V7.94513C22.8664 6.57754 22.8665 5.47522 22.7499 4.60825C22.6289 3.70814 22.37 2.95027 21.7681 2.34835C21.1662 1.74643 20.4083 1.48754 19.5082 1.36652C18.6412 1.24996 17.5389 1.24998 16.1713 1.25H15.0616Z" fill="#964702"/>
<path d="M2.11719 11.249C1.70297 11.249 1.36719 11.5848 1.36719 11.999C1.36719 12.4132 1.70297 12.749 2.11719 12.749L14.0897 12.749L12.1291 14.4296C11.8146 14.6991 11.7782 15.1726 12.0477 15.4871C12.3173 15.8016 12.7908 15.838 13.1053 15.5685L16.6053 12.5685C16.7715 12.426 16.8672 12.218 16.8672 11.999C16.8672 11.7801 16.7715 11.5721 16.6053 11.4296L13.1053 8.42958C12.7908 8.16002 12.3173 8.19644 12.0477 8.51093C11.7782 8.82543 11.8146 9.2989 12.1291 9.56847L14.0897 11.249L2.11719 11.249Z" fill="#964702"/>
</g>
</g>
</svg>
