<svg width="116" height="29" viewBox="0 0 116 29" fill="none" xmlns="http://www.w3.org/2000/svg">
<path fill-rule="evenodd" clip-rule="evenodd" d="M6.43389 27.6985H0.667969V0.793549H6.43389V27.6985ZM20.8292 0.793549H15.1883C15.1883 5.74476 13.0626 10.2892 9.35649 13.2623L7.12167 15.0546L15.7809 27.6996H22.9004L14.9328 16.0643C18.7096 12.0368 20.8292 6.61828 20.8292 0.793549ZM30.0259 27.6906H24.5807V0.798097H30.0259V27.6906ZM46.4776 9.0888V10.2788C45.0084 9.20541 43.2349 8.57461 41.3222 8.57461C36.26 8.57461 32.1563 12.9693 32.1563 18.3905C32.1563 23.8117 36.26 28.2065 41.3222 28.2065C43.2349 28.2065 45.0084 27.5757 46.4776 26.5025V27.6915H51.6786V9.0888H46.4776ZM46.4622 18.391C46.4622 21.0343 44.3522 23.1773 41.7494 23.1773C39.1469 23.1773 37.0369 21.0343 37.0369 18.391C37.0369 15.7477 39.1469 13.6052 41.7494 13.6052C44.3522 13.6052 46.4622 15.7477 46.4622 18.391ZM101.346 10.2788V9.0888H106.547V27.6915H101.346V26.5025C99.8766 27.5757 98.1032 28.2065 96.1903 28.2065C91.1281 28.2065 87.0243 23.8117 87.0243 18.3905C87.0243 12.9693 91.1281 8.57461 96.1903 8.57461C98.1032 8.57461 99.8766 9.20541 101.346 10.2788ZM96.6174 23.1773C99.2202 23.1773 101.33 21.0343 101.33 18.391C101.33 15.7477 99.2202 13.6052 96.6174 13.6052C94.0147 13.6052 91.9049 15.7477 91.9049 18.391C91.9049 21.0343 94.0147 23.1773 96.6174 23.1773ZM108.804 24.588C108.804 22.6575 110.265 21.0928 112.067 21.0928C113.87 21.0928 115.331 22.6575 115.331 24.588C115.331 26.518 113.87 28.083 112.067 28.083C110.265 28.083 108.804 26.518 108.804 24.588ZM77.7824 8.5882C75.7048 8.5882 73.7387 9.27894 72.4241 11.1846V9.08964H67.2457V27.6912H72.4877V17.9154C72.4877 15.0866 74.2591 13.7013 76.3919 13.7013C78.6776 13.7013 79.9917 15.1636 79.9917 17.8769V27.6912H85.1863V15.8614C85.1863 11.5323 81.9722 8.5882 77.7824 8.5882ZM59.7243 9.089V11.5119C60.7669 10.0585 62.7095 9.09008 64.8215 9.09008V14.5031L64.8093 14.5028L64.7926 14.5019C64.7817 14.5013 64.7709 14.5007 64.7597 14.5007C62.7019 14.5007 59.7362 16.0758 59.7362 19.0061V27.6914H54.3995V9.089H59.7243Z" fill="#212121"/>
</svg>
