<svg width="21" height="20" viewBox="0 0 21 20" fill="none" xmlns="http://www.w3.org/2000/svg">
<path fill-rule="evenodd" clip-rule="evenodd" d="M1.57426 12.2565C1.57426 12.6603 1.23826 12.9881 0.824337 12.9881C0.410418 12.9881 0.0744135 12.6603 0.0744135 12.2565V5.02199C0.0744135 2.69819 2.01253 0.807617 4.39573 0.807617H9.14167C11.5297 0.807617 13.4727 2.70294 13.4727 5.03244V5.91692C13.4727 6.31974 13.1367 6.6475 12.7228 6.6475C12.3089 6.6475 11.9729 6.31974 11.9729 5.91692V5.03244C11.9729 3.50858 10.7029 2.27068 9.14167 2.27068H4.39573C2.83939 2.27068 1.57426 3.50572 1.57426 5.02199V12.2565ZM11.9727 14.6993C11.9727 14.2955 12.3087 13.9677 12.7226 13.9677C13.1365 13.9677 13.4725 14.2955 13.4725 14.6993V15.5932C13.4725 17.917 11.5344 19.8076 9.15121 19.8076H4.4043C2.0172 19.8076 0.0742188 17.9123 0.0742188 15.5828C0.0742188 15.179 0.410223 14.8522 0.824142 14.8522C1.23806 14.8522 1.57407 15.179 1.57407 15.5828C1.57407 17.1067 2.84407 18.3446 4.4043 18.3446H9.15121C10.7075 18.3446 11.9727 17.1105 11.9727 15.5932V14.6993ZM20.0175 10.0285C19.9016 9.75393 19.6279 9.57533 19.3241 9.57533H7.62332C7.2094 9.57533 6.87242 9.90404 6.87242 10.3078C6.87242 10.7116 7.2094 11.0393 7.62332 11.0393H17.5087L15.9494 12.5537C15.6553 12.8387 15.6553 13.3014 15.9475 13.5883C16.0936 13.7317 16.2864 13.8039 16.4783 13.8039C16.6701 13.8039 16.861 13.7317 17.0081 13.5902L19.8539 10.8265C20.0682 10.6175 20.1334 10.3021 20.0175 10.0285ZM17.196 8.96835C17.0052 8.96835 16.8143 8.8971 16.6682 8.75649L15.9504 8.06391C15.6563 7.77985 15.6543 7.31623 15.9455 7.03027C16.2377 6.74146 16.711 6.73956 17.0061 7.02457L17.7229 7.7162C18.018 8.00121 18.02 8.46388 17.7288 8.75079C17.5817 8.8952 17.3889 8.96835 17.196 8.96835Z" fill="#420091"/>
</svg>
