<svg width="51" height="51" viewBox="0 0 51 51" fill="none" xmlns="http://www.w3.org/2000/svg">
<g clip-path="url(#clip0_136_41)">
<path d="M25.5 51C39.5833 51 51 39.5833 51 25.5C51 11.4167 39.5833 0 25.5 0C11.4167 0 0 11.4167 0 25.5C0 39.5833 11.4167 51 25.5 51Z" fill="#F0F0F0"/>
<path d="M25.5001 0C14.536 0 5.18915 6.92006 1.58618 16.6305H49.4141C45.8111 6.92006 36.4642 0 25.5001 0V0Z" fill="#D80027"/>
<path d="M25.5001 50.9996C36.4642 50.9996 45.811 44.0796 49.414 34.3691H1.58618C5.18915 44.0796 14.536 50.9996 25.5001 50.9996Z" fill="#338AF3"/>
</g>
<defs>
<clipPath id="clip0_136_41">
<rect width="51" height="51" fill="white"/>
</clipPath>
</defs>
</svg>
