<svg width="21" height="21" viewBox="0 0 21 21" fill="none" xmlns="http://www.w3.org/2000/svg">
<path fill-rule="evenodd" clip-rule="evenodd" d="M10.1745 3.19751C6.1474 3.19751 2.88281 6.4621 2.88281 10.4892C2.88281 14.5163 6.1474 17.7808 10.1745 17.7808C14.2016 17.7808 17.4661 14.5163 17.4661 10.4892C17.4661 6.4621 14.2016 3.19751 10.1745 3.19751ZM1.63281 10.4892C1.63281 5.77174 5.45705 1.94751 10.1745 1.94751C14.8919 1.94751 18.7161 5.77174 18.7161 10.4892C18.7161 12.6229 17.9338 14.574 16.6402 16.071L19.3664 18.7972C19.6105 19.0413 19.6105 19.437 19.3664 19.6811C19.1223 19.9252 18.7266 19.9252 18.4825 19.6811L15.7563 16.9549C14.2593 18.2485 12.3082 19.0308 10.1745 19.0308C5.45705 19.0308 1.63281 15.2066 1.63281 10.4892Z" fill="#707070"/>
</svg>
