<svg width="24" height="25" viewBox="0 0 24 25" fill="none" xmlns="http://www.w3.org/2000/svg">
<g id="Close 24" clip-path="url(#clip0_27234_22912)">
<path id="Vector (Stroke)" fill-rule="evenodd" clip-rule="evenodd" d="M5.41478 6.1902C5.70768 5.89731 6.18255 5.8973 6.47544 6.1902L12.0015 11.7162L17.5275 6.19025C17.8204 5.89735 18.2953 5.89735 18.5881 6.19025C18.881 6.48314 18.881 6.95801 18.5881 7.25091L13.0621 12.7769L18.5881 18.3029C18.881 18.5957 18.881 19.0706 18.5881 19.3635C18.2952 19.6564 17.8203 19.6564 17.5274 19.3635L12.0015 13.8376L6.47549 19.3636C6.1826 19.6565 5.70773 19.6565 5.41483 19.3636C5.12194 19.0707 5.12194 18.5958 5.41483 18.3029L10.9408 12.7769L5.41478 7.25086C5.12189 6.95796 5.12189 6.48309 5.41478 6.1902Z" fill="#1C274C"/>
</g>
<defs>
<clipPath id="clip0_27234_22912">
<rect width="24" height="24" fill="white" transform="translate(0 0.776855)"/>
</clipPath>
</defs>
</svg>
