<svg width="42" height="42" viewBox="0 0 42 42" fill="none" xmlns="http://www.w3.org/2000/svg">
<g id="Bold / Money / Money Bag">
<path id="Union" fill-rule="evenodd" clip-rule="evenodd" d="M21.091 2.1875H20.909C19.3367 2.18745 18.0255 2.18741 16.9847 2.32735C15.886 2.47506 14.8941 2.79998 14.0971 3.59705C13.3 4.39413 12.9751 5.38603 12.8273 6.48467C12.727 7.2308 12.6987 9.01508 12.6906 10.5449C9.1517 10.6605 7.02689 11.0736 5.55025 12.5503C3.5 14.6005 3.5 17.9003 3.5 24.5C3.5 31.0997 3.5 34.3995 5.55025 36.4497C7.6005 38.5 10.9003 38.5 17.5 38.5H24.5C31.0996 38.5 34.3995 38.5 36.4497 36.4497C38.5 34.3995 38.5 31.0997 38.5 24.5C38.5 17.9003 38.5 14.6005 36.4497 12.5503C34.9731 11.0736 32.8483 10.6605 29.3094 10.5449C29.3014 9.01508 29.273 7.2308 29.1727 6.48467C29.025 5.38603 28.7 4.39413 27.903 3.59705C27.1059 2.79998 26.114 2.47506 25.0153 2.32735C23.9745 2.18741 22.6633 2.18745 21.091 2.1875ZM26.6839 10.5033C26.6759 9.02166 26.6508 7.42713 26.5711 6.83444C26.4625 6.02688 26.2749 5.68126 26.0468 5.45321C25.8187 5.22516 25.4731 5.03752 24.6656 4.92894C23.8203 4.81529 22.687 4.81251 21 4.81251C19.313 4.81251 18.1798 4.81529 17.3344 4.92894C16.5269 5.03752 16.1813 5.22516 15.9532 5.45321C15.7252 5.68126 15.5375 6.02688 15.4289 6.83444C15.3493 7.42713 15.3241 9.02166 15.3161 10.5033C16.0011 10.5 16.728 10.5 17.5 10.5H24.5C25.272 10.5 25.9989 10.5 26.6839 10.5033ZM21 16.1875C21.7249 16.1875 22.3125 16.7751 22.3125 17.5V17.5179C24.2179 17.9979 25.8125 19.5002 25.8125 21.5833C25.8125 22.3082 25.2249 22.8958 24.5 22.8958C23.7751 22.8958 23.1875 22.3082 23.1875 21.5833C23.1875 20.9113 22.4424 19.9792 21 19.9792C19.5576 19.9792 18.8125 20.9113 18.8125 21.5833C18.8125 22.2554 19.5576 23.1875 21 23.1875C23.4236 23.1875 25.8125 24.8671 25.8125 27.4167C25.8125 29.4998 24.2179 31.0021 22.3125 31.4821V31.5C22.3125 32.2249 21.7249 32.8125 21 32.8125C20.2751 32.8125 19.6875 32.2249 19.6875 31.5V31.4821C17.7821 31.0021 16.1875 29.4998 16.1875 27.4167C16.1875 26.6918 16.7751 26.1042 17.5 26.1042C18.2249 26.1042 18.8125 26.6918 18.8125 27.4167C18.8125 28.0887 19.5576 29.0208 21 29.0208C22.4424 29.0208 23.1875 28.0887 23.1875 27.4167C23.1875 26.7446 22.4424 25.8125 21 25.8125C18.5764 25.8125 16.1875 24.1329 16.1875 21.5833C16.1875 19.5002 17.7821 17.9979 19.6875 17.5179V17.5C19.6875 16.7751 20.2751 16.1875 21 16.1875Z" fill="#1C1C1C"/>
</g>
</svg>
