<svg width="16" height="17" viewBox="0 0 16 17" fill="none" xmlns="http://www.w3.org/2000/svg">
<path fill-rule="evenodd" clip-rule="evenodd" d="M6.63166 3.07251H9.37355C10.5987 3.0725 11.5691 3.07249 12.3286 3.1746C13.1102 3.27969 13.7429 3.5011 14.2418 4.00001C14.7407 4.49891 14.9621 5.13155 15.0672 5.91316C15.1693 6.67264 15.1693 7.64306 15.1693 8.86824V8.94345C15.1693 10.1686 15.1693 11.139 15.0672 11.8985C14.9621 12.6801 14.7407 13.3128 14.2418 13.8117C13.7429 14.3106 13.1102 14.532 12.3286 14.6371C11.5691 14.7392 10.5987 14.7392 9.37355 14.7392H6.63166C5.40649 14.7392 4.43607 14.7392 3.67659 14.6371C2.89497 14.532 2.26234 14.3106 1.76343 13.8117C1.26452 13.3128 1.04311 12.6801 0.938028 11.8985C0.835919 11.139 0.835927 10.1686 0.835938 8.94345V8.86823C0.835927 7.64306 0.835919 6.67264 0.938028 5.91316C1.04311 5.13155 1.26452 4.49891 1.76343 4.00001C2.26234 3.5011 2.89497 3.27969 3.67659 3.1746C4.43607 3.07249 5.40649 3.0725 6.63166 3.07251ZM3.80984 4.16568C3.13911 4.25586 2.75268 4.42497 2.47054 4.70711C2.1884 4.98925 2.01929 5.37568 1.92911 6.04641C1.837 6.73152 1.83594 7.63463 1.83594 8.90584C1.83594 10.1771 1.837 11.0802 1.92911 11.7653C2.01929 12.436 2.1884 12.8224 2.47054 13.1046C2.75268 13.3867 3.13911 13.5558 3.80984 13.646C4.49495 13.7381 5.39806 13.7392 6.66927 13.7392H9.33594C10.6072 13.7392 11.5103 13.7381 12.1954 13.646C12.8661 13.5558 13.2525 13.3867 13.5347 13.1046C13.8168 12.8224 13.9859 12.436 14.0761 11.7653C14.1682 11.0802 14.1693 10.1771 14.1693 8.90584C14.1693 7.63463 14.1682 6.73152 14.0761 6.04641C13.9859 5.37568 13.8168 4.98925 13.5347 4.70711C13.2525 4.42497 12.8661 4.25586 12.1954 4.16568C11.5103 4.07357 10.6072 4.07251 9.33594 4.07251H6.66927C5.39806 4.07251 4.49495 4.07357 3.80984 4.16568ZM3.61849 5.91908C3.79528 5.70695 4.11056 5.67828 4.3227 5.85507L5.76196 7.05445C6.38393 7.57276 6.81576 7.93145 7.18033 8.16593C7.53323 8.3929 7.77256 8.46909 8.0026 8.46909C8.23265 8.46909 8.47198 8.3929 8.82488 8.16593C9.18945 7.93145 9.62128 7.57276 10.2432 7.05445L11.6825 5.85507C11.8947 5.67828 12.2099 5.70695 12.3867 5.91908C12.5635 6.13122 12.5348 6.44651 12.3227 6.62329L10.8584 7.84356C10.2675 8.336 9.78853 8.73512 9.36582 9.00699C8.92549 9.2902 8.49666 9.46909 8.0026 9.46909C7.50855 9.46909 7.07972 9.29019 6.63939 9.00699C6.21668 8.73513 5.73775 8.336 5.14685 7.84357L3.68251 6.62329C3.47037 6.44651 3.44171 6.13122 3.61849 5.91908Z" fill="#707070"/>
</svg>
