<svg width="16" height="17" viewBox="0 0 16 17" fill="none" xmlns="http://www.w3.org/2000/svg">
<path d="M8.83714 2.15915C8.88127 1.88655 9.13896 1.70164 9.41156 1.74577C9.42843 1.749 9.48272 1.75914 9.51116 1.76548C9.56805 1.77815 9.6474 1.79765 9.74634 1.82647C9.94419 1.8841 10.2206 1.97904 10.5523 2.13113C11.2165 2.43563 12.1004 2.9683 13.0176 3.8855C13.9348 4.8027 14.4675 5.68657 14.772 6.35076C14.9241 6.6825 15.019 6.95891 15.0766 7.15676C15.1054 7.2557 15.125 7.33505 15.1376 7.39193C15.144 7.42038 15.1486 7.44322 15.1518 7.46009L15.1556 7.48089C15.1998 7.75348 15.0165 8.02183 14.744 8.06596C14.4721 8.10997 14.2161 7.92594 14.1709 7.65463C14.1695 7.64735 14.1656 7.62777 14.1615 7.60931C14.1533 7.57239 14.1391 7.51384 14.1165 7.43641C14.0714 7.28152 13.9931 7.0513 13.863 6.76751C13.6031 6.20064 13.1357 5.41785 12.3105 4.59261C11.4853 3.76736 10.7025 3.30003 10.1356 3.04015C9.8518 2.91004 9.62158 2.83169 9.46669 2.78657C9.38926 2.76402 9.29193 2.74168 9.255 2.73345C8.98369 2.68824 8.79313 2.43096 8.83714 2.15915Z" fill="#707070"/>
<path fill-rule="evenodd" clip-rule="evenodd" d="M8.98797 4.45879C9.06383 4.19327 9.34058 4.03953 9.60609 4.11539L9.46873 4.59615C9.60609 4.11539 9.60609 4.11539 9.60609 4.11539L9.60705 4.11566L9.60808 4.11596L9.6103 4.11661L9.61547 4.11815L9.62866 4.12226C9.63871 4.12547 9.65126 4.12966 9.66623 4.13497C9.69617 4.1456 9.73574 4.16071 9.78428 4.18151C9.8814 4.22313 10.0141 4.28741 10.1771 4.38389C10.5034 4.57701 10.9489 4.89779 11.4722 5.42111C11.9955 5.94442 12.3163 6.38988 12.5094 6.71619C12.6059 6.8792 12.6702 7.01191 12.7118 7.10903C12.7326 7.15757 12.7477 7.19714 12.7583 7.22708C12.7636 7.24205 12.7678 7.2546 12.7711 7.26465L12.7752 7.27784L12.7767 7.28301L12.7774 7.28523L12.7776 7.28626C12.7776 7.28626 12.7779 7.28722 12.2972 7.42458L12.7779 7.28722C12.8538 7.55273 12.7 7.82948 12.4345 7.90534C12.1713 7.98056 11.897 7.83005 11.8184 7.56868L11.8159 7.56149C11.8124 7.55147 11.805 7.53175 11.7927 7.50295C11.768 7.44539 11.7233 7.35124 11.6488 7.22551C11.5002 6.97435 11.2317 6.59485 10.7651 6.12821C10.2985 5.66158 9.91896 5.39311 9.6678 5.24446C9.54207 5.17005 9.44792 5.12532 9.39036 5.10065C9.36156 5.08831 9.34184 5.08095 9.33182 5.0774L9.32463 5.07494C9.06326 4.99635 8.91275 4.72205 8.98797 4.45879Z" fill="#707070"/>
<path fill-rule="evenodd" clip-rule="evenodd" d="M3.3357 3.84365C4.45574 2.72361 6.34584 2.80875 7.12571 4.20617L7.55839 4.98145C8.06767 5.894 7.85064 7.04539 7.10511 7.80004C7.09518 7.81364 7.04256 7.89026 7.036 8.02414C7.02763 8.19502 7.08832 8.5902 7.70061 9.20249C8.31269 9.81458 8.70783 9.87541 8.87878 9.8671C9.01276 9.86058 9.08945 9.80793 9.10307 9.79798C9.85772 9.05245 11.0091 8.83543 11.9216 9.34471L12.6969 9.77738C14.0943 10.5573 14.1795 12.4474 13.0594 13.5674C12.4603 14.1665 11.6637 14.6988 10.7276 14.7343C9.34031 14.7869 7.03682 14.4287 4.75563 12.1475C2.47444 9.86628 2.11618 7.56279 2.16877 6.1755C2.20426 5.23937 2.73659 4.44276 3.3357 3.84365ZM6.2525 4.6935C5.85315 3.97794 4.78002 3.81354 4.0428 4.55076C3.52591 5.06766 3.18986 5.6382 3.16805 6.21339C3.1242 7.37028 3.40982 9.38745 5.46273 11.4404C7.51565 13.4933 9.53282 13.7789 10.6897 13.735C11.2649 13.7132 11.8354 13.3772 12.3523 12.8603C13.0896 12.1231 12.9252 11.0499 12.2096 10.6506L11.4343 10.2179C10.952 9.94878 10.2746 10.0406 9.79908 10.5161C9.75237 10.5628 9.45501 10.8403 8.92737 10.8659C8.38722 10.8922 7.7334 10.6495 6.9935 9.9096C6.25336 9.16946 6.01075 8.51545 6.0372 7.97523C6.06303 7.44756 6.34052 7.15049 6.38695 7.10405C6.86249 6.62851 6.95432 5.95106 6.68517 5.46878L6.2525 4.6935Z" fill="#707070"/>
</svg>
