<svg width="51" height="51" viewBox="0 0 51 51" fill="none" xmlns="http://www.w3.org/2000/svg">
<g clip-path="url(#clip0_136_49)">
<path d="M25.5 51.001C39.5833 51.001 51 39.5842 51 25.501C51 11.4177 39.5833 0.000976562 25.5 0.000976562C11.4167 0.000976562 0 11.4177 0 25.501C0 39.5842 11.4167 51.001 25.5 51.001Z" fill="#F0F0F0"/>
<path d="M25.5 51.0014C39.5832 51.0014 51 39.5845 51 25.5014C51 22.3822 50.439 19.3942 49.4139 16.6318H1.58608C0.5611 19.3942 0 22.3822 0 25.5014C0 39.5845 11.4168 51.0014 25.5 51.0014Z" fill="#0052B4"/>
<path d="M25.4999 51.0006C36.464 51.0006 45.8108 44.0805 49.4138 34.3701H1.58594C5.18891 44.0805 14.5358 51.0006 25.4999 51.0006Z" fill="#D80027"/>
<path d="M6.59375 14.4141V27.1348C6.59375 34.3708 16.0468 36.588 16.0468 36.588C16.0468 36.588 25.4997 34.3708 25.4997 27.1348V14.4141H6.59375Z" fill="#F0F0F0"/>
<path d="M8.81152 14.4141V27.1348C8.81152 27.9842 9.00018 28.7865 9.37392 29.5387H22.7203C23.094 28.7866 23.2827 27.9842 23.2827 27.1348V14.4141H8.81152Z" fill="#D80027"/>
<path d="M20.4818 23.2839H17.1559V21.0665H19.3733V18.8491H17.1559V16.6318H14.9385V18.8491H12.7212V21.0665H14.9385V23.2839H11.6123V25.5014H14.9385V27.7188H17.1559V25.5014H20.4818V23.2839Z" fill="#F0F0F0"/>
<path d="M12.3985 32.6336C13.8274 33.5316 15.2954 34.053 16.047 34.2849C16.7985 34.0531 18.2666 33.5316 19.6954 32.6336C21.1364 31.728 22.1465 30.6923 22.7201 29.5383C22.0875 29.0907 21.3156 28.8268 20.4818 28.8268C20.1782 28.8268 19.8832 28.8627 19.5996 28.9288C18.9987 27.5633 17.6345 26.6094 16.0471 26.6094C14.4596 26.6094 13.0953 27.5633 12.4945 28.9288C12.2109 28.8627 11.9159 28.8268 11.6123 28.8268C10.7785 28.8268 10.0066 29.0907 9.37402 29.5383C9.94728 30.6922 10.9574 31.7279 12.3985 32.6336Z" fill="#0052B4"/>
</g>
<defs>
<clipPath id="clip0_136_49">
<rect width="51" height="51" fill="white" transform="translate(0 0.000976562)"/>
</clipPath>
</defs>
</svg>
