<svg width="61" height="60" viewBox="0 0 61 60" fill="none" xmlns="http://www.w3.org/2000/svg">
<g id="studio">
<path id="Vector (Stroke)" fill-rule="evenodd" clip-rule="evenodd" d="M34.237 10.831C32.1058 8.93655 28.8942 8.93655 26.763 10.831L11.763 24.1643C10.5621 25.2318 9.875 26.7618 9.875 28.3685V53.1255H13.625L13.625 39.8705C13.6249 37.6243 13.6249 35.7512 13.8248 34.2643C14.0358 32.6948 14.5 31.2778 15.6386 30.1391C16.7773 29.0005 18.1943 28.5363 19.7638 28.3253C21.2508 28.1254 23.1238 28.1254 25.37 28.1255H35.63C37.8762 28.1254 39.7492 28.1254 41.2362 28.3253C42.8057 28.5363 44.2227 29.0005 45.3614 30.1391C46.5 31.2778 46.9642 32.6948 47.1752 34.2643C47.3751 35.7513 47.3751 37.6243 47.375 39.8705V53.1255H51.125V28.3685C51.125 26.7618 50.4379 25.2318 49.237 24.1643L34.237 10.831ZM54.875 53.1255V28.3685C54.875 25.6906 53.7299 23.1406 51.7284 21.3615L36.7284 8.02819C33.1764 4.87081 27.8236 4.87081 24.2716 8.02819L9.27159 21.3615C7.27013 23.1406 6.125 25.6906 6.125 28.3685V53.1255H5.5C4.46447 53.1255 3.625 53.965 3.625 55.0005C3.625 56.036 4.46447 56.8755 5.5 56.8755H55.5C56.5355 56.8755 57.375 56.036 57.375 55.0005C57.375 53.965 56.5355 53.1255 55.5 53.1255H54.875ZM43.625 53.1255V40.0005C43.625 37.5905 43.621 35.9716 43.4587 34.764C43.3036 33.6103 43.0355 33.1166 42.7097 32.7908C42.3839 32.465 41.8902 32.1969 40.7365 32.0418C39.5289 31.8795 37.91 31.8755 35.5 31.8755H25.5C23.09 31.8755 21.4711 31.8795 20.2635 32.0418C19.1098 32.1969 18.6161 32.465 18.2903 32.7908C17.9645 33.1166 17.6964 33.6103 17.5413 34.764C17.379 35.9716 17.375 37.5905 17.375 40.0005V53.1255H43.625ZM23.625 22.5005C23.625 21.465 24.4645 20.6255 25.5 20.6255H35.5C36.5355 20.6255 37.375 21.465 37.375 22.5005C37.375 23.536 36.5355 24.3755 35.5 24.3755H25.5C24.4645 24.3755 23.625 23.536 23.625 22.5005ZM21.125 38.7505C21.125 37.715 21.9645 36.8755 23 36.8755H38C39.0355 36.8755 39.875 37.715 39.875 38.7505C39.875 39.786 39.0355 40.6255 38 40.6255H23C21.9645 40.6255 21.125 39.786 21.125 38.7505ZM21.125 46.2505C21.125 45.215 21.9645 44.3755 23 44.3755H38C39.0355 44.3755 39.875 45.215 39.875 46.2505C39.875 47.286 39.0355 48.1255 38 48.1255H23C21.9645 48.1255 21.125 47.286 21.125 46.2505Z" fill="#1C1C1C"/>
</g>
</svg>
