<svg width="105" height="53" viewBox="0 0 105 53" fill="none" xmlns="http://www.w3.org/2000/svg">
<path d="M100.369 22.082C98.3524 22.082 96.6934 23.7498 96.6934 25.758C96.6934 27.775 98.3611 29.434 100.369 29.434C102.386 29.434 104.045 27.7663 104.045 25.758C104.054 23.7323 102.395 22.082 100.369 22.082Z" fill="#212121"/>
<path d="M87.5169 2.86328V11.5861C86.862 10.7828 84.7403 9.26352 82.0247 9.26352C76.4802 9.26352 72.1406 13.7515 72.1406 19.2961C72.1406 24.8406 76.4715 29.3374 82.0247 29.3374C84.8538 29.3374 87.0629 27.722 87.6653 26.9187H87.7177V29.0929H93.7687V2.86328H87.5169ZM82.374 23.8452C79.903 23.8452 77.886 21.8282 77.886 19.3572C77.886 16.8862 79.903 14.8692 82.374 14.8692C84.8538 14.8692 86.862 16.8862 86.862 19.3572C86.862 21.8195 84.845 23.8452 82.374 23.8452Z" fill="#212121"/>
<path d="M23.435 9.62305C21.1124 9.62305 18.4929 10.8804 17.288 12.845H17.2356V10.1819H11.1934V29.1381H17.4364V19.0531C17.4364 16.9314 18.5017 14.8707 20.9203 14.8707C23.4874 14.8707 24.0899 16.4337 24.0899 18.3022V20.2668V29.1381H30.3329V17.1846C30.298 14.5127 29.94 9.62305 23.435 9.62305Z" fill="#212121"/>
<path d="M3.88554 0C1.76378 0 0 1.71139 0 3.88554C0 6.00731 1.71139 7.77109 3.88554 7.77109C6.00731 7.77109 7.77109 6.0597 7.77109 3.88554C7.76236 1.76378 5.99858 0 3.88554 0Z" fill="#212121"/>
<path d="M42.9935 9.31641C37.449 9.31641 33.1094 13.8044 33.1094 19.349C33.1094 24.8935 37.4402 29.3815 42.9935 29.3815C45.971 29.3815 48.8436 28.0718 50.7035 26.0024L46.7219 22.3264C45.9186 23.2345 44.7049 23.8457 43.3428 23.8457C40.8717 23.8457 38.8547 21.8287 38.8547 19.3577C38.8547 16.8867 40.8717 14.8697 43.3428 14.8697C44.7049 14.8697 45.8575 15.4722 46.7219 16.389L50.7035 12.713C48.8 10.6261 45.971 9.31641 42.9935 9.31641Z" fill="#212121"/>
<path d="M72.4972 10.1807H65.0929L59.3388 16.6333V2.91602H53.0957V29.1282H56.7717H59.2864V22.0818L65.5294 29.1456H72.9949L64.1673 19.3663L72.4972 10.1807Z" fill="#212121"/>
<path d="M0.777344 10.1816V24.8856L6.97675 29.1291V10.1816" fill="#212121"/>
<path d="M5.321 48.6376C4.69767 48.6376 4.12533 48.5639 3.604 48.4166C3.094 48.2693 2.64067 48.0653 2.244 47.8046C1.85867 47.5439 1.53567 47.2549 1.275 46.9376C1.02567 46.6089 0.85 46.2689 0.748 45.9176L2.686 45.3226C2.83333 45.7419 3.12233 46.1103 3.553 46.4276C3.98367 46.7449 4.51633 46.9093 5.151 46.9206C5.88767 46.9206 6.47133 46.7676 6.902 46.4616C7.33267 46.1556 7.548 45.7533 7.548 45.2546C7.548 44.8013 7.36667 44.4329 7.004 44.1496C6.64133 43.8549 6.154 43.6283 5.542 43.4696L4.08 43.0956C3.52467 42.9483 3.02033 42.7329 2.567 42.4496C2.125 42.1663 1.77367 41.8093 1.513 41.3786C1.26367 40.9479 1.139 40.4379 1.139 39.8486C1.139 38.7379 1.50167 37.8766 2.227 37.2646C2.95233 36.6413 3.98933 36.3296 5.338 36.3296C6.09733 36.3296 6.76033 36.4486 7.327 36.6866C7.905 36.9133 8.381 37.2306 8.755 37.6386C9.129 38.0353 9.40667 38.4886 9.588 38.9986L7.684 39.6106C7.514 39.1573 7.21933 38.7833 6.8 38.4886C6.38067 38.1939 5.85933 38.0466 5.236 38.0466C4.59 38.0466 4.08 38.1996 3.706 38.5056C3.34333 38.8116 3.162 39.2366 3.162 39.7806C3.162 40.2226 3.30367 40.5683 3.587 40.8176C3.88167 41.0556 4.27833 41.2369 4.777 41.3616L6.239 41.7186C7.30433 41.9793 8.13167 42.4269 8.721 43.0616C9.31033 43.6963 9.605 44.3989 9.605 45.1696C9.605 45.8496 9.44067 46.4503 9.112 46.9716C8.78333 47.4929 8.296 47.9009 7.65 48.1956C7.01533 48.4903 6.239 48.6376 5.321 48.6376ZM14.813 48.6376C13.9176 48.6376 13.232 48.4166 12.756 47.9746C12.2913 47.5213 12.059 46.8753 12.059 46.0366V37.2816H13.946V45.6796C13.946 46.0763 14.0366 46.3766 14.218 46.5806C14.4106 46.7846 14.6883 46.8866 15.051 46.8866C15.1643 46.8866 15.289 46.8639 15.425 46.8186C15.561 46.7733 15.714 46.6883 15.884 46.5636L16.581 48.0086C16.2863 48.2126 15.9916 48.3656 15.697 48.4676C15.4023 48.5809 15.1076 48.6376 14.813 48.6376ZM10.648 41.5656V39.9336H16.241V41.5656H10.648ZM19.4468 52.0376C19.1748 52.0376 18.8688 51.9866 18.5288 51.8846C18.2001 51.7826 17.8828 51.6523 17.5768 51.4936L18.2908 49.9466C18.5061 50.0486 18.7045 50.1279 18.8858 50.1846C19.0671 50.2526 19.2145 50.2866 19.3278 50.2866C19.5998 50.2866 19.8265 50.2129 20.0078 50.0656C20.2005 49.9296 20.3535 49.7256 20.4668 49.4536L21.4698 47.1076L24.3428 39.9336H26.4168L22.4728 49.3346C22.2348 49.8786 21.9911 50.3546 21.7418 50.7626C21.5038 51.1706 21.2035 51.4823 20.8408 51.6976C20.4781 51.9243 20.0135 52.0376 19.4468 52.0376ZM20.9598 48.4336L17.1518 39.9336H19.2258L22.1838 47.0906L22.7958 48.4336H20.9598ZM27.5501 48.4336V36.5336H29.4541V48.4336H27.5501ZM35.3587 48.6376C34.5313 48.6376 33.7947 48.4506 33.1487 48.0766C32.514 47.6913 32.0097 47.1643 31.6357 46.4956C31.273 45.8269 31.0917 45.0563 31.0917 44.1836C31.0917 43.3109 31.2787 42.5403 31.6527 41.8716C32.0267 41.2029 32.5367 40.6816 33.1827 40.3076C33.84 39.9223 34.588 39.7296 35.4267 39.7296C36.186 39.7296 36.866 39.9279 37.4667 40.3246C38.0787 40.7099 38.566 41.2709 38.9287 42.0076C39.2913 42.7443 39.4727 43.6226 39.4727 44.6426H37.5517C37.5517 43.9059 37.461 43.2996 37.2797 42.8236C37.1097 42.3476 36.8603 41.9963 36.5317 41.7696C36.2143 41.5316 35.8233 41.4126 35.3587 41.4126C34.8713 41.4126 34.452 41.5203 34.1007 41.7356C33.7493 41.9509 33.483 42.2683 33.3017 42.6876C33.1203 43.0956 33.0297 43.6113 33.0297 44.2346C33.0297 44.7899 33.1373 45.2659 33.3527 45.6626C33.5793 46.0593 33.8797 46.3653 34.2537 46.5806C34.639 46.7846 35.064 46.8866 35.5287 46.8866C36.0387 46.8866 36.458 46.7733 36.7867 46.5466C37.1153 46.3086 37.3703 46.0083 37.5517 45.6456L39.3027 46.3936C39.0647 46.8469 38.7587 47.2436 38.3847 47.5836C38.022 47.9236 37.5857 48.1843 37.0757 48.3656C36.577 48.5469 36.0047 48.6376 35.3587 48.6376ZM32.3497 44.6426V43.1296H38.4697V44.6426H32.3497ZM44.586 52.0546C43.9853 52.0546 43.4413 52.0036 42.954 51.9016C42.478 51.7996 42.0756 51.6806 41.747 51.5446C41.4183 51.4086 41.1633 51.2783 40.982 51.1536L41.713 49.6236C41.8716 49.7029 42.0813 49.7993 42.342 49.9126C42.614 50.0373 42.9313 50.1449 43.294 50.2356C43.6566 50.3263 44.0646 50.3716 44.518 50.3716C45.0053 50.3716 45.4416 50.2696 45.827 50.0656C46.2123 49.8729 46.5126 49.5726 46.728 49.1646C46.9433 48.7566 47.051 48.2353 47.051 47.6006V39.9336H48.955V47.5496C48.955 48.5129 48.7736 49.3289 48.411 49.9976C48.0483 50.6776 47.5383 51.1876 46.881 51.5276C46.2236 51.8789 45.4586 52.0546 44.586 52.0546ZM44.297 48.2636C43.5263 48.2636 42.852 48.0879 42.274 47.7366C41.7073 47.3853 41.2596 46.8979 40.931 46.2746C40.6136 45.6399 40.455 44.9089 40.455 44.0816C40.455 43.1976 40.6136 42.4326 40.931 41.7866C41.2596 41.1406 41.7073 40.6363 42.274 40.2736C42.852 39.9109 43.5263 39.7296 44.297 39.7296C44.9883 39.7296 45.589 39.9109 46.099 40.2736C46.6203 40.6363 47.0226 41.1463 47.306 41.8036C47.5893 42.4496 47.731 43.2146 47.731 44.0986C47.731 44.9373 47.5893 45.6683 47.306 46.2916C47.0226 46.9149 46.6203 47.4023 46.099 47.7536C45.589 48.0936 44.9883 48.2636 44.297 48.2636ZM44.824 46.6486C45.2546 46.6486 45.6286 46.5353 45.946 46.3086C46.2746 46.0819 46.5296 45.7759 46.711 45.3906C46.8923 44.9939 46.983 44.5406 46.983 44.0306C46.983 43.5093 46.8923 43.0559 46.711 42.6706C46.5296 42.2739 46.2746 41.9679 45.946 41.7526C45.6173 41.5259 45.2376 41.4126 44.807 41.4126C44.3536 41.4126 43.9513 41.5259 43.6 41.7526C43.26 41.9679 42.988 42.2739 42.784 42.6706C42.5913 43.0559 42.495 43.5093 42.495 44.0306C42.495 44.5406 42.5913 44.9939 42.784 45.3906C42.988 45.7759 43.2656 46.0819 43.617 46.3086C43.9683 46.5353 44.3706 46.6486 44.824 46.6486ZM56.7529 48.4336L56.6509 46.8696V39.9336H58.5379V48.4336H56.7529ZM50.8709 44.7956V39.9336H52.7749V44.2856L50.8709 44.7956ZM52.7749 44.2856C52.7749 44.9543 52.8542 45.4756 53.0129 45.8496C53.1716 46.2236 53.3869 46.4843 53.6589 46.6316C53.9422 46.7789 54.2652 46.8526 54.6279 46.8526C55.2739 46.8639 55.7726 46.6543 56.1239 46.2236C56.4752 45.7929 56.6509 45.1753 56.6509 44.3706H57.3649C57.3649 45.2659 57.2289 46.0366 56.9569 46.6826C56.6962 47.3173 56.3222 47.8046 55.8349 48.1446C55.3589 48.4733 54.7866 48.6376 54.1179 48.6376C53.0866 48.6376 52.2876 48.3203 51.7209 47.6856C51.1542 47.0509 50.8709 46.0876 50.8709 44.7956L52.7749 44.2856ZM60.7726 48.4336L60.7896 39.9336H62.6766L62.6596 48.4336H60.7726ZM61.7246 38.3186C61.4186 38.3186 61.1523 38.2109 60.9256 37.9956C60.7103 37.7689 60.6026 37.5026 60.6026 37.1966C60.6026 36.8906 60.7103 36.6299 60.9256 36.4146C61.1523 36.1993 61.4186 36.0916 61.7246 36.0916C62.0306 36.0916 62.2913 36.1993 62.5066 36.4146C62.7333 36.6299 62.8466 36.8906 62.8466 37.1966C62.8466 37.5026 62.7333 37.7689 62.5066 37.9956C62.2913 38.2109 62.0306 38.3186 61.7246 38.3186ZM71.0406 48.4336L70.9556 46.8526V36.5336H72.8426V48.4336H71.0406ZM68.2696 48.6376C67.4989 48.6376 66.8246 48.4563 66.2466 48.0936C65.6799 47.7196 65.2323 47.1983 64.9036 46.5296C64.5863 45.8609 64.4276 45.0789 64.4276 44.1836C64.4276 43.2769 64.5863 42.4949 64.9036 41.8376C65.2323 41.1689 65.6799 40.6533 66.2466 40.2906C66.8246 39.9166 67.4989 39.7296 68.2696 39.7296C68.9836 39.7296 69.5956 39.9166 70.1056 40.2906C70.6269 40.6533 71.0236 41.1689 71.2956 41.8376C71.5676 42.4949 71.7036 43.2769 71.7036 44.1836C71.7036 45.0789 71.5676 45.8609 71.2956 46.5296C71.0236 47.1983 70.6269 47.7196 70.1056 48.0936C69.5956 48.4563 68.9836 48.6376 68.2696 48.6376ZM68.7456 46.9036C69.1763 46.9036 69.5559 46.7903 69.8846 46.5636C70.2246 46.3256 70.4853 46.0026 70.6666 45.5946C70.8593 45.1866 70.9556 44.7163 70.9556 44.1836C70.9556 43.6509 70.8593 43.1806 70.6666 42.7726C70.4853 42.3646 70.2246 42.0473 69.8846 41.8206C69.5559 41.5939 69.1706 41.4806 68.7286 41.4806C68.2753 41.4806 67.8729 41.5939 67.5216 41.8206C67.1703 42.0473 66.8926 42.3646 66.6886 42.7726C66.4959 43.1806 66.3939 43.6509 66.3826 44.1836C66.3939 44.7163 66.4959 45.1866 66.6886 45.5946C66.8926 46.0026 67.1703 46.3256 67.5216 46.5636C67.8843 46.7903 68.2923 46.9036 68.7456 46.9036ZM78.7386 48.6376C77.9112 48.6376 77.1746 48.4506 76.5286 48.0766C75.8939 47.6913 75.3896 47.1643 75.0156 46.4956C74.6529 45.8269 74.4716 45.0563 74.4716 44.1836C74.4716 43.3109 74.6586 42.5403 75.0326 41.8716C75.4066 41.2029 75.9166 40.6816 76.5626 40.3076C77.2199 39.9223 77.9679 39.7296 78.8066 39.7296C79.5659 39.7296 80.2459 39.9279 80.8466 40.3246C81.4586 40.7099 81.9459 41.2709 82.3086 42.0076C82.6712 42.7443 82.8526 43.6226 82.8526 44.6426H80.9316C80.9316 43.9059 80.8409 43.2996 80.6596 42.8236C80.4896 42.3476 80.2402 41.9963 79.9116 41.7696C79.5942 41.5316 79.2032 41.4126 78.7386 41.4126C78.2512 41.4126 77.8319 41.5203 77.4806 41.7356C77.1292 41.9509 76.8629 42.2683 76.6816 42.6876C76.5002 43.0956 76.4096 43.6113 76.4096 44.2346C76.4096 44.7899 76.5172 45.2659 76.7326 45.6626C76.9592 46.0593 77.2596 46.3653 77.6336 46.5806C78.0189 46.7846 78.4439 46.8866 78.9086 46.8866C79.4186 46.8866 79.8379 46.7733 80.1666 46.5466C80.4952 46.3086 80.7502 46.0083 80.9316 45.6456L82.6826 46.3936C82.4446 46.8469 82.1386 47.2436 81.7646 47.5836C81.4019 47.9236 80.9656 48.1843 80.4556 48.3656C79.9569 48.5469 79.3846 48.6376 78.7386 48.6376ZM75.7296 44.6426V43.1296H81.8496V44.6426H75.7296Z" fill="#212121"/>
</svg>
