<svg width="80" height="81" viewBox="0 0 80 81" fill="none" xmlns="http://www.w3.org/2000/svg">
<path fill-rule="evenodd" clip-rule="evenodd" d="M73.3334 40.0869C73.3334 58.4964 58.4095 73.4202 40 73.4202C21.5905 73.4202 6.66669 58.4964 6.66669 40.0869C6.66669 21.6774 21.5905 6.75354 40 6.75354C58.4095 6.75354 73.3334 21.6774 73.3334 40.0869ZM53.4345 29.9858C54.4108 30.9621 54.4108 32.545 53.4345 33.5213L36.7678 50.188C35.7915 51.1643 34.2086 51.1643 33.2323 50.188L26.5656 43.5213C25.5893 42.545 25.5893 40.9621 26.5656 39.9858C27.5419 39.0095 29.1248 39.0095 30.1011 39.9858L35 44.8847L42.4495 37.4352L49.8989 29.9858C50.8752 29.0095 52.4581 29.0095 53.4345 29.9858Z" fill="#4CAF50"/>
</svg>
