<svg width="52" height="51" viewBox="0 0 52 51" fill="none" xmlns="http://www.w3.org/2000/svg">
<g clip-path="url(#clip0_136_62)">
<path d="M26.0781 50.999C40.1614 50.999 51.5781 39.5823 51.5781 25.499C51.5781 11.4158 40.1614 -0.000976562 26.0781 -0.000976562C11.9949 -0.000976562 0.578125 11.4158 0.578125 25.499C0.578125 39.5823 11.9949 50.999 26.0781 50.999Z" fill="#FFDA44"/>
<path d="M20.5348 22.173H51.3623C49.7324 9.66133 39.034 -0.000976562 26.0781 -0.000976562C24.1742 -0.000976562 22.3196 0.209498 20.5347 0.605146V22.173H20.5348Z" fill="#0052B4"/>
<path d="M13.8824 22.1729V3.09961C6.88048 6.92003 1.86803 13.9276 0.793945 22.173H13.8824V22.1729Z" fill="#0052B4"/>
<path d="M13.8823 28.8251H0.793945C1.86803 37.0704 6.88048 44.0781 13.8824 47.8984L13.8823 28.8251Z" fill="#0052B4"/>
<path d="M20.5347 28.8252V50.3929C22.3196 50.7885 24.1742 50.999 26.0781 50.999C39.034 50.999 49.7324 41.3367 51.3623 28.8251H20.5347V28.8252Z" fill="#0052B4"/>
</g>
<defs>
<clipPath id="clip0_136_62">
<rect width="51" height="51" fill="white" transform="translate(0.578125 -0.000976562)"/>
</clipPath>
</defs>
</svg>
