<svg width="24" height="25" viewBox="0 0 24 25" fill="none" xmlns="http://www.w3.org/2000/svg">
<path fill-rule="evenodd" clip-rule="evenodd" d="M22 11.1296C22 11.5466 21.661 11.8856 21.244 11.8856H21.235V11.8676C20.813 11.8676 20.471 11.5266 20.47 11.1046V11.1026V8.56062C20.47 5.50762 18.8 3.83762 15.756 3.83762H8.256C5.21 3.83762 3.53 5.51762 3.53 8.56062V16.0606C3.53 19.0946 5.21 20.7746 8.253 20.7746H15.753C18.796 20.7746 20.467 19.0946 20.467 16.0606C20.467 15.6386 20.809 15.2956 21.232 15.2956C21.655 15.2956 21.997 15.6386 21.997 16.0606C22 19.9156 19.608 22.3076 15.756 22.3076H8.253C4.392 22.3076 2 19.9156 2 16.0636V8.56362C2 4.69962 4.392 2.30762 8.253 2.30762H15.753C19.59 2.30762 22 4.69962 22 8.56062V11.1296ZM10.8136 13.6211L15.0296 9.40412C15.3226 9.11112 15.7976 9.11112 16.0906 9.40412C16.3836 9.69712 16.3836 10.1721 16.0906 10.4651L11.3436 15.2121C11.2026 15.3521 11.0116 15.4311 10.8136 15.4311C10.6136 15.4311 10.4236 15.3521 10.2826 15.2121L7.9096 12.8381C7.6166 12.5451 7.6166 12.0701 7.9096 11.7771C8.2026 11.4841 8.6776 11.4841 8.9706 11.7771L10.8136 13.6211Z" fill="#027A2F"/>
</svg>
