<svg width="16" height="23" viewBox="0 0 16 23" fill="none" xmlns="http://www.w3.org/2000/svg">
<path d="M8 11.3076L5.0423 14.2366C2.11981 17.1306 0.658566 18.5777 1.06765 19.8261C1.10282 19.9334 1.14649 20.0378 1.19825 20.1384C1.80046 21.3076 3.86697 21.3076 8 21.3076C12.133 21.3076 14.1995 21.3076 14.8017 20.1384C14.8535 20.0378 14.8972 19.9334 14.9323 19.8261C15.3414 18.5777 13.8802 17.1306 10.9577 14.2365L8 11.3076ZM8 11.3076L10.9577 8.37868C13.8802 5.48462 15.3414 4.03758 14.9323 2.7891C14.8972 2.68179 14.8535 2.57739 14.8017 2.47688C14.1995 1.30762 12.133 1.30762 8 1.30762C3.86697 1.30762 1.80046 1.30762 1.19825 2.47688C1.14649 2.57739 1.10282 2.68179 1.06765 2.7891C0.658566 4.03758 2.11981 5.48462 5.0423 8.37869L8 11.3076Z" stroke="#7B0029" stroke-width="1.5"/>
</svg>
