<svg width="19" height="20" viewBox="0 0 19 20" fill="none" xmlns="http://www.w3.org/2000/svg">
<g id="Outline / Essentional, UI / Trash Bin Trash">
<g id="Vector">
<path fill-rule="evenodd" clip-rule="evenodd" d="M7.83145 2.65309H10.3841C10.5474 2.65299 10.6897 2.6529 10.8241 2.67435C11.355 2.75913 11.8144 3.09027 12.0628 3.56712C12.1256 3.68782 12.1705 3.82286 12.2221 3.97786L12.3063 4.23067C12.3206 4.27346 12.3247 4.28557 12.3281 4.29512C12.4603 4.66057 12.8031 4.90761 13.1916 4.91746C13.2018 4.91772 13.2143 4.91776 13.2596 4.91776H15.5243C15.837 4.91776 16.0904 5.17124 16.0904 5.48393C16.0904 5.79661 15.837 6.05009 15.5243 6.05009H2.69116C2.37848 6.05009 2.125 5.79661 2.125 5.48393C2.125 5.17124 2.37848 4.91776 2.69116 4.91776H4.95588C5.00121 4.91776 5.01372 4.91772 5.02394 4.91746C5.41244 4.90761 5.75517 4.66058 5.88737 4.29513C5.89084 4.28553 5.89484 4.27367 5.90917 4.23067L5.99342 3.97787C6.04498 3.82288 6.0899 3.68782 6.15276 3.56712C6.40107 3.09027 6.86049 2.75913 7.3914 2.67435C7.52579 2.6529 7.6681 2.65299 7.83145 2.65309ZM6.84919 4.91776C6.88807 4.8415 6.92253 4.76226 6.95217 4.68031C6.96117 4.65542 6.97 4.62893 6.98134 4.5949L7.05668 4.36887C7.12551 4.16241 7.14135 4.12029 7.15707 4.09011C7.23985 3.93115 7.39299 3.82078 7.56996 3.79252C7.60357 3.78715 7.64852 3.78543 7.86616 3.78543H10.3493C10.567 3.78543 10.6119 3.78715 10.6456 3.79252C10.8225 3.82078 10.9757 3.93115 11.0584 4.09011C11.0742 4.12029 11.09 4.1624 11.1588 4.36887L11.2341 4.59476L11.2633 4.68032C11.293 4.76227 11.3274 4.84151 11.3663 4.91776H6.84919Z" fill="white"/>
<path d="M4.51428 7.33348C4.49348 7.02149 4.2237 6.78543 3.91171 6.80623C3.59972 6.82703 3.36366 7.09681 3.38446 7.4088L3.73431 12.6566C3.79885 13.6249 3.85098 14.4071 3.97325 15.0208C4.10037 15.6589 4.31659 16.1919 4.76318 16.6097C5.20976 17.0276 5.75596 17.2078 6.40112 17.2922C7.02166 17.3734 7.80555 17.3734 8.776 17.3734H9.43946C10.4099 17.3734 11.1939 17.3734 11.8144 17.2922C12.4595 17.2078 13.0057 17.0276 13.4523 16.6097C13.8989 16.1919 14.1151 15.6589 14.2423 15.0208C14.3645 14.4071 14.4167 13.6249 14.4812 12.6566L14.831 7.4088C14.8518 7.09681 14.6158 6.82703 14.3038 6.80623C13.9918 6.78543 13.722 7.02149 13.7012 7.33348L13.354 12.5415C13.2862 13.559 13.2379 14.2669 13.1317 14.7996C13.0288 15.3163 12.8851 15.5898 12.6787 15.7829C12.4723 15.976 12.1899 16.1011 11.6675 16.1695C11.129 16.2399 10.4194 16.241 9.39965 16.241H8.81585C7.79612 16.241 7.08653 16.2399 6.54799 16.1695C6.02561 16.1011 5.74316 15.976 5.53676 15.7829C5.33037 15.5898 5.18669 15.3163 5.08376 14.7996C4.97765 14.2669 4.92931 13.559 4.86148 12.5415L4.51428 7.33348Z" fill="white"/>
<path d="M7.16421 8.695C7.47534 8.66389 7.75279 8.89088 7.7839 9.20202L8.16134 12.9764C8.19246 13.2876 7.96546 13.565 7.65432 13.5961C7.34319 13.6272 7.06575 13.4002 7.03463 13.0891L6.65719 9.31469C6.62608 9.00356 6.85308 8.72611 7.16421 8.695Z" fill="white"/>
<path d="M11.0513 8.695C11.3624 8.72611 11.5894 9.00356 11.5583 9.31469L11.1809 13.0891C11.1498 13.4002 10.8723 13.6272 10.5612 13.5961C10.2501 13.565 10.0231 13.2876 10.0542 12.9764L10.4316 9.20202C10.4627 8.89088 10.7402 8.66389 11.0513 8.695Z" fill="white"/>
</g>
</g>
</svg>
