<svg width="32" height="32" viewBox="0 0 32 32" fill="none" xmlns="http://www.w3.org/2000/svg">
<path fill-rule="evenodd" clip-rule="evenodd" d="M11.9993 1.66663C8.50155 1.66663 5.66602 4.50216 5.66602 7.99996C5.66602 11.4978 8.50155 14.3333 11.9993 14.3333C15.4972 14.3333 18.3327 11.4978 18.3327 7.99996C18.3327 4.50216 15.4972 1.66663 11.9993 1.66663ZM7.66602 7.99996C7.66602 5.60673 9.60611 3.66663 11.9993 3.66663C14.3926 3.66663 16.3327 5.60673 16.3327 7.99996C16.3327 10.3932 14.3926 12.3333 11.9993 12.3333C9.60611 12.3333 7.66602 10.3932 7.66602 7.99996Z" fill="#212121"/>
<path d="M19.9993 2.99996C19.4471 2.99996 18.9993 3.44767 18.9993 3.99996C18.9993 4.55224 19.4471 4.99996 19.9993 4.99996C21.6562 4.99996 22.9993 6.3431 22.9993 7.99996C22.9993 9.65681 21.6562 11 19.9993 11C19.4471 11 18.9993 11.4477 18.9993 12C18.9993 12.5522 19.4471 13 19.9993 13C22.7608 13 24.9993 10.7614 24.9993 7.99996C24.9993 5.23854 22.7608 2.99996 19.9993 2.99996Z" fill="#212121"/>
<path fill-rule="evenodd" clip-rule="evenodd" d="M4.90355 18.0271C6.76937 16.961 9.28024 16.3333 11.9993 16.3333C14.7185 16.3333 17.2293 16.961 19.0952 18.0271C20.9327 19.0772 22.3327 20.6801 22.3327 22.6666C22.3327 24.6531 20.9327 26.2561 19.0952 27.3061C17.2293 28.3723 14.7185 29 11.9993 29C9.28024 29 6.76937 28.3723 4.90355 27.3061C3.06601 26.2561 1.66602 24.6531 1.66602 22.6666C1.66602 20.6801 3.06601 19.0772 4.90355 18.0271ZM5.89582 19.7636C4.35536 20.6439 3.66602 21.7076 3.66602 22.6666C3.66602 23.6257 4.35536 24.6894 5.89582 25.5696C7.408 26.4337 9.5638 27 11.9993 27C14.4349 27 16.5907 26.4337 18.1029 25.5696C19.6433 24.6894 20.3327 23.6257 20.3327 22.6666C20.3327 21.7076 19.6433 20.6439 18.1029 19.7636C16.5907 18.8995 14.4349 18.3333 11.9993 18.3333C9.5638 18.3333 7.408 18.8995 5.89582 19.7636Z" fill="#212121"/>
<path d="M24.2136 17.6898C23.6741 17.5715 23.1409 17.913 23.0226 18.4524C22.9043 18.9919 23.2457 19.5251 23.7851 19.6434C24.8416 19.8751 25.6859 20.273 26.2432 20.729C26.8012 21.1856 26.9993 21.6316 26.9993 22C26.9993 22.3342 26.8385 22.7267 26.3952 23.1385C25.9487 23.5533 25.2626 23.9365 24.3777 24.203C23.8489 24.3622 23.5492 24.92 23.7085 25.4489C23.8677 25.9777 24.4255 26.2773 24.9543 26.1181C26.0511 25.7878 27.0317 25.277 27.7564 24.6038C28.4843 23.9276 28.9993 23.0381 28.9993 22C28.9993 20.8469 28.367 19.8827 27.5098 19.1812C26.6517 18.4791 25.4961 17.9711 24.2136 17.6898Z" fill="#212121"/>
</svg>
