<svg width="61" height="61" viewBox="0 0 61 61" fill="none" xmlns="http://www.w3.org/2000/svg">
<g id="Outline / Users / User Heart Rounded">
<g id="Union">
<path fill-rule="evenodd" clip-rule="evenodd" d="M11.125 15.7051C11.125 9.1467 16.4416 3.83008 23 3.83008C29.5584 3.83008 34.875 9.1467 34.875 15.7051C34.875 22.2635 29.5584 27.5801 23 27.5801C16.4416 27.5801 11.125 22.2635 11.125 15.7051ZM23 7.58008C18.5127 7.58008 14.875 11.2178 14.875 15.7051C14.875 20.1924 18.5127 23.8301 23 23.8301C27.4873 23.8301 31.125 20.1924 31.125 15.7051C31.125 11.2178 27.4873 7.58008 23 7.58008Z" fill="#1C274C"/>
<path fill-rule="evenodd" clip-rule="evenodd" d="M9.69537 34.5061C13.1938 32.507 17.9017 31.3301 23 31.3301C28.0983 31.3301 32.8062 32.507 36.3046 34.5061C39.75 36.4748 42.375 39.4804 42.375 43.2051C42.375 46.9297 39.75 49.9353 36.3046 51.9041C32.8062 53.9032 28.0983 55.0801 23 55.0801C17.9017 55.0801 13.1938 53.9032 9.69537 51.9041C6.24999 49.9353 3.625 46.9297 3.625 43.2051C3.625 39.4804 6.24999 36.4748 9.69537 34.5061ZM11.5559 37.762C8.66752 39.4125 7.375 41.4069 7.375 43.2051C7.375 45.0033 8.66752 46.9977 11.5559 48.6482C14.3912 50.2684 18.4334 51.3301 23 51.3301C27.5666 51.3301 31.6088 50.2684 34.4441 48.6482C37.3325 46.9977 38.625 45.0033 38.625 43.2051C38.625 41.4069 37.3325 39.4125 34.4441 37.762C31.6088 36.1418 27.5666 35.0801 23 35.0801C18.4334 35.0801 14.3912 36.1418 11.5559 37.762Z" fill="#1C274C"/>
<path fill-rule="evenodd" clip-rule="evenodd" d="M39.7256 19.3224C41.5273 18.5251 43.6196 18.6763 45.5 19.9023C47.3804 18.6763 49.4727 18.5251 51.2744 19.3224C53.412 20.2684 54.875 22.4533 54.875 24.9544C54.875 27.3253 53.8395 29.1101 52.5986 30.4628C51.6302 31.5185 50.4322 32.4101 49.4862 33.1142C49.2832 33.2653 49.0913 33.4081 48.9163 33.5417L48.9112 33.5455C48.5395 33.8293 48.0587 34.1962 47.5518 34.4829C47.0419 34.7714 46.3359 35.0801 45.5 35.0801C44.6641 35.0801 43.9581 34.7714 43.4482 34.483C42.9413 34.1962 42.4605 33.8293 42.0888 33.5456L42.0837 33.5417C41.9087 33.4081 41.7172 33.2656 41.5142 33.1145C40.5682 32.4104 39.3698 31.5185 38.4014 30.4628C37.1605 29.1101 36.125 27.3253 36.125 24.9544C36.125 22.4533 37.588 20.2684 39.7256 19.3224ZM39.875 24.9544C39.875 23.9245 40.4746 23.0918 41.2432 22.7516C41.9088 22.4571 42.9684 22.4269 44.1703 23.6359C44.5222 23.9899 45.0008 24.1889 45.5 24.1889C45.9992 24.1889 46.4778 23.9899 46.8297 23.6359C48.0316 22.4269 49.0912 22.4571 49.7568 22.7516C50.5254 23.0918 51.125 23.9245 51.125 24.9544C51.125 26.1145 50.6533 27.036 49.8351 27.9279C49.1301 28.6965 48.2892 29.325 47.3595 30.0199C47.1255 30.1948 46.8857 30.3741 46.6411 30.5607C46.2349 30.8708 45.9534 31.0787 45.7053 31.2191C45.6051 31.2758 45.5383 31.3047 45.5 31.3191C45.4617 31.3047 45.3949 31.2758 45.2947 31.2191C45.0466 31.0787 44.7651 30.8708 44.3589 30.5607C44.1143 30.3741 43.8747 30.195 43.6407 30.0201C42.711 29.3252 41.8699 28.6965 41.1649 27.9279C40.3467 27.036 39.875 26.1145 39.875 24.9544Z" fill="#1C274C"/>
</g>
</g>
</svg>
