<svg width="23" height="23" viewBox="0 0 23 23" fill="none" xmlns="http://www.w3.org/2000/svg">
<g id="users 4" clip-path="url(#clip0_8677_500)">
<path id="Vector (Stroke)" fill-rule="evenodd" clip-rule="evenodd" d="M1.263 14.3057C2.16345 13.4053 3.38471 12.8994 4.65813 12.8994H12.1111C13.3845 12.8994 14.6058 13.4053 15.5063 14.3057C16.4067 15.2062 16.9126 16.4274 16.9126 17.7009V19.5641C16.9126 20.1578 16.4313 20.6391 15.8376 20.6391C15.2439 20.6391 14.7627 20.1578 14.7627 19.5641V17.7009C14.7627 16.9976 14.4833 16.3232 13.986 15.8259C13.4888 15.3287 12.8144 15.0493 12.1111 15.0493H4.65813C3.9549 15.0493 3.28047 15.3287 2.78321 15.8259C2.28595 16.3232 2.00659 16.9976 2.00659 17.7009V19.5641C2.00659 20.1578 1.52532 20.6391 0.93164 20.6391C0.337961 20.6391 -0.143311 20.1578 -0.143311 19.5641V17.7009C-0.143311 16.4274 0.362555 15.2062 1.263 14.3057Z" fill="#006DBB"/>
<path id="Vector (Stroke)_2" fill-rule="evenodd" clip-rule="evenodd" d="M8.3847 3.86963C6.92029 3.86963 5.73315 5.05676 5.73315 6.52117C5.73315 7.98558 6.92029 9.17272 8.3847 9.17272C9.84911 9.17272 11.0362 7.98558 11.0362 6.52117C11.0362 5.05676 9.84911 3.86963 8.3847 3.86963ZM3.58325 6.52117C3.58325 3.86941 5.73293 1.71973 8.3847 1.71973C11.0365 1.71973 13.1861 3.86941 13.1861 6.52117C13.1861 9.17294 11.0365 11.3226 8.3847 11.3226C5.73293 11.3226 3.58325 9.17294 3.58325 6.52117Z" fill="#006DBB"/>
<path id="Vector (Stroke)_3" fill-rule="evenodd" clip-rule="evenodd" d="M17.5918 13.8265C17.7402 13.2517 18.3265 12.906 18.9013 13.0544C19.9314 13.3204 20.844 13.9209 21.4957 14.7617C22.1475 15.6025 22.5016 16.636 22.5024 17.6998V19.5639C22.5024 20.1575 22.0211 20.6388 21.4275 20.6388C20.8338 20.6388 20.3525 20.1575 20.3525 19.5639V17.7009C20.352 17.1136 20.1564 16.5431 19.7966 16.0789C19.4366 15.6146 18.9327 15.2829 18.3638 15.136C17.789 14.9876 17.4433 14.4013 17.5918 13.8265Z" fill="#006DBB"/>
<path id="Vector (Stroke)_4" fill-rule="evenodd" clip-rule="evenodd" d="M13.8647 2.6494C14.0119 2.07427 14.5975 1.72742 15.1726 1.87467C16.2055 2.13911 17.1209 2.73977 17.7746 3.58196C18.4283 4.42414 18.7831 5.45995 18.7831 6.52607C18.7831 7.5922 18.4283 8.628 17.7746 9.47019C17.1209 10.3124 16.2055 10.913 15.1726 11.1775C14.5975 11.3247 14.0119 10.9779 13.8647 10.4027C13.7174 9.82762 14.0643 9.24201 14.6394 9.09476C15.2097 8.94872 15.7153 8.61701 16.0763 8.15193C16.4373 7.68684 16.6332 7.11483 16.6332 6.52607C16.6332 5.93732 16.4373 5.36531 16.0763 4.90022C15.7153 4.43513 15.2097 4.10342 14.6394 3.95739C14.0643 3.81013 13.7174 3.22453 13.8647 2.6494Z" fill="#006DBB"/>
</g>
<defs>
<clipPath id="clip0_8677_500">
<rect width="22.359" height="22.359" fill="white"/>
</clipPath>
</defs>
</svg>
