<svg width="19" height="19" viewBox="0 0 19 19" fill="none" xmlns="http://www.w3.org/2000/svg">
<path fill-rule="evenodd" clip-rule="evenodd" d="M9.17448 2.19751C5.1474 2.19751 1.88281 5.4621 1.88281 9.48918C1.88281 13.5163 5.1474 16.7808 9.17448 16.7808C13.2016 16.7808 16.4661 13.5163 16.4661 9.48918C16.4661 5.4621 13.2016 2.19751 9.17448 2.19751ZM0.632812 9.48918C0.632812 4.77174 4.45705 0.94751 9.17448 0.94751C13.8919 0.94751 17.7161 4.77174 17.7161 9.48918C17.7161 11.6229 16.9338 13.574 15.6402 15.071L18.3664 17.7972C18.6105 18.0413 18.6105 18.437 18.3664 18.6811C18.1223 18.9252 17.7266 18.9252 17.4825 18.6811L14.7563 15.9549C13.2593 17.2485 11.3082 18.0308 9.17448 18.0308C4.45705 18.0308 0.632812 14.2066 0.632812 9.48918Z" fill="#707070"/>
</svg>
